<svg xmlns:xlink="http://www.w3.org/1999/xlink" xmlns="http://www.w3.org/2000/svg" version="1.1" width="517" height="400"><defs><clipPath id="highcharts-6"><rect rx="0" ry="0" fill="none" x="0" y="0" width="9999" height="400" stroke-width="0.000001"></rect></clipPath><clipPath id="highcharts-7"><rect fill="none" x="0" y="0" width="418" height="247"></rect></clipPath></defs><rect rx="5" ry="5" fill="#FFFFFF" x="0" y="0" width="517" height="400" stroke-width="0.000001"></rect><g class="highcharts-grid" ></g><g class="highcharts-grid" ><path fill="none" d="M 89 225.5 L 507 225.5" stroke="#C0C0C0" stroke-width="1" ></path><path fill="none" d="M 89 164.5 L 507 164.5" stroke="#C0C0C0" stroke-width="1" ></path><path fill="none" d="M 89 102.5 L 507 102.5" stroke="#C0C0C0" stroke-width="1" ></path><path fill="none" d="M 89 40.5 L 507 40.5" stroke="#C0C0C0" stroke-width="1" ></path><path fill="none" d="M 89 287.5 L 507 287.5" stroke="#C0C0C0" stroke-width="1" ></path></g><g class="highcharts-axis" ><path fill="none" d="M 258.5 287 L 258.5 292" stroke="#C0D0E0" stroke-width="1"></path><path fill="none" d="M 356.5 287 L 356.5 292" stroke="#C0D0E0" stroke-width="1"></path><path fill="none" d="M 453.5 287 L 453.5 292" stroke="#C0D0E0" stroke-width="1"></path><path fill="none" d="M 160.5 287 L 160.5 292" stroke="#C0D0E0" stroke-width="1"></path><text x="298" y="338" style="font-family:'lucida grande', 'lucida sans unicode', verdana, arial, helvetica, sans-serif;font-size:24px;color:#6d869f;font-weight:bold;fill:#6d869f;"  text-anchor="middle" visibility="visible"><tspan x="298">Normalized DF</tspan></text><path fill="none" d="M 89 287.5 L 507 287.5" stroke="#C0D0E0" stroke-width="1"  visibility="visible"></path></g><g class="highcharts-axis" ><text x="38" y="163.5" style="font-family:'lucida grande', 'lucida sans unicode', verdana, arial, helvetica, sans-serif;font-size:24px;color:#6d869f;font-weight:bold;fill:#6d869f;"  transform="rotate(270 38 163)" text-anchor="middle" visibility="visible"><tspan x="38">Number of concepts</tspan></text></g><g class="highcharts-series-group" ><g class="highcharts-series" visibility="visible"  transform="translate(89,40)" clip-path="url(#highcharts-7)"><rect fill="none" x="83" y="246" width="8" height="1" stroke-width="5" stroke="black" rx="0" ry="0"  stroke-opacity="0.049999999999999996" transform="translate(1, 1)"></rect><rect fill="none" x="83" y="246" width="8" height="1" stroke-width="3" stroke="black" rx="0" ry="0"  stroke-opacity="0.09999999999999999" transform="translate(1, 1)"></rect><rect fill="none" x="83" y="246" width="8" height="1" stroke-width="1" stroke="black" rx="0" ry="0"  stroke-opacity="0.15" transform="translate(1, 1)"></rect><rect fill="#4572A7" x="83" y="246" width="8" height="1" stroke-width="0.000001" stroke="#4572A7" rx="0" ry="0"></rect><rect fill="none" x="103" y="246" width="8" height="1" stroke-width="5" stroke="black" rx="0" ry="0"  stroke-opacity="0.049999999999999996" transform="translate(1, 1)"></rect><rect fill="none" x="103" y="246" width="8" height="1" stroke-width="3" stroke="black" rx="0" ry="0"  stroke-opacity="0.09999999999999999" transform="translate(1, 1)"></rect><rect fill="none" x="103" y="246" width="8" height="1" stroke-width="1" stroke="black" rx="0" ry="0"  stroke-opacity="0.15" transform="translate(1, 1)"></rect><rect fill="#4572A7" x="103" y="246" width="8" height="1" stroke-width="0.000001" stroke="#4572A7" rx="0" ry="0"></rect><rect fill="none" x="123" y="241" width="8" height="6" stroke-width="5" stroke="black" rx="0" ry="0"  stroke-opacity="0.049999999999999996" transform="translate(1, 1)"></rect><rect fill="none" x="123" y="241" width="8" height="6" stroke-width="3" stroke="black" rx="0" ry="0"  stroke-opacity="0.09999999999999999" transform="translate(1, 1)"></rect><rect fill="none" x="123" y="241" width="8" height="6" stroke-width="1" stroke="black" rx="0" ry="0"  stroke-opacity="0.15" transform="translate(1, 1)"></rect><rect fill="#4572A7" x="123" y="241" width="8" height="6" stroke-width="0.000001" stroke="#4572A7" rx="0" ry="0"></rect><rect fill="none" x="142" y="244" width="8" height="3" stroke-width="5" stroke="black" rx="0" ry="0"  stroke-opacity="0.049999999999999996" transform="translate(1, 1)"></rect><rect fill="none" x="142" y="244" width="8" height="3" stroke-width="3" stroke="black" rx="0" ry="0"  stroke-opacity="0.09999999999999999" transform="translate(1, 1)"></rect><rect fill="none" x="142" y="244" width="8" height="3" stroke-width="1" stroke="black" rx="0" ry="0"  stroke-opacity="0.15" transform="translate(1, 1)"></rect><rect fill="#4572A7" x="142" y="244" width="8" height="3" stroke-width="0.000001" stroke="#4572A7" rx="0" ry="0"></rect><rect fill="none" x="162" y="244" width="8" height="3" stroke-width="5" stroke="black" rx="0" ry="0"  stroke-opacity="0.049999999999999996" transform="translate(1, 1)"></rect><rect fill="none" x="162" y="244" width="8" height="3" stroke-width="3" stroke="black" rx="0" ry="0"  stroke-opacity="0.09999999999999999" transform="translate(1, 1)"></rect><rect fill="none" x="162" y="244" width="8" height="3" stroke-width="1" stroke="black" rx="0" ry="0"  stroke-opacity="0.15" transform="translate(1, 1)"></rect><rect fill="#4572A7" x="162" y="244" width="8" height="3" stroke-width="0.000001" stroke="#4572A7" rx="0" ry="0"></rect><rect fill="none" x="181" y="241" width="8" height="6" stroke-width="5" stroke="black" rx="0" ry="0"  stroke-opacity="0.049999999999999996" transform="translate(1, 1)"></rect><rect fill="none" x="181" y="241" width="8" height="6" stroke-width="3" stroke="black" rx="0" ry="0"  stroke-opacity="0.09999999999999999" transform="translate(1, 1)"></rect><rect fill="none" x="181" y="241" width="8" height="6" stroke-width="1" stroke="black" rx="0" ry="0"  stroke-opacity="0.15" transform="translate(1, 1)"></rect><rect fill="#4572A7" x="181" y="241" width="8" height="6" stroke-width="0.000001" stroke="#4572A7" rx="0" ry="0"></rect><rect fill="none" x="201" y="238" width="8" height="9" stroke-width="5" stroke="black" rx="0" ry="0"  stroke-opacity="0.049999999999999996" transform="translate(1, 1)"></rect><rect fill="none" x="201" y="238" width="8" height="9" stroke-width="3" stroke="black" rx="0" ry="0"  stroke-opacity="0.09999999999999999" transform="translate(1, 1)"></rect><rect fill="none" x="201" y="238" width="8" height="9" stroke-width="1" stroke="black" rx="0" ry="0"  stroke-opacity="0.15" transform="translate(1, 1)"></rect><rect fill="#4572A7" x="201" y="238" width="8" height="9" stroke-width="0.000001" stroke="#4572A7" rx="0" ry="0"></rect><rect fill="none" x="220" y="233" width="8" height="14" stroke-width="5" stroke="black" rx="0" ry="0"  stroke-opacity="0.049999999999999996" transform="translate(1, 1)"></rect><rect fill="none" x="220" y="233" width="8" height="14" stroke-width="3" stroke="black" rx="0" ry="0"  stroke-opacity="0.09999999999999999" transform="translate(1, 1)"></rect><rect fill="none" x="220" y="233" width="8" height="14" stroke-width="1" stroke="black" rx="0" ry="0"  stroke-opacity="0.15" transform="translate(1, 1)"></rect><rect fill="#4572A7" x="220" y="233" width="8" height="14" stroke-width="0.000001" stroke="#4572A7" rx="0" ry="0"></rect><rect fill="none" x="240" y="231" width="8" height="16" stroke-width="5" stroke="black" rx="0" ry="0"  stroke-opacity="0.049999999999999996" transform="translate(1, 1)"></rect><rect fill="none" x="240" y="231" width="8" height="16" stroke-width="3" stroke="black" rx="0" ry="0"  stroke-opacity="0.09999999999999999" transform="translate(1, 1)"></rect><rect fill="none" x="240" y="231" width="8" height="16" stroke-width="1" stroke="black" rx="0" ry="0"  stroke-opacity="0.15" transform="translate(1, 1)"></rect><rect fill="#4572A7" x="240" y="231" width="8" height="16" stroke-width="0.000001" stroke="#4572A7" rx="0" ry="0"></rect><rect fill="none" x="259" y="228" width="8" height="19" stroke-width="5" stroke="black" rx="0" ry="0"  stroke-opacity="0.049999999999999996" transform="translate(1, 1)"></rect><rect fill="none" x="259" y="228" width="8" height="19" stroke-width="3" stroke="black" rx="0" ry="0"  stroke-opacity="0.09999999999999999" transform="translate(1, 1)"></rect><rect fill="none" x="259" y="228" width="8" height="19" stroke-width="1" stroke="black" rx="0" ry="0"  stroke-opacity="0.15" transform="translate(1, 1)"></rect><rect fill="#4572A7" x="259" y="228" width="8" height="19" stroke-width="0.000001" stroke="#4572A7" rx="0" ry="0"></rect><rect fill="none" x="279" y="230" width="8" height="17" stroke-width="5" stroke="black" rx="0" ry="0"  stroke-opacity="0.049999999999999996" transform="translate(1, 1)"></rect><rect fill="none" x="279" y="230" width="8" height="17" stroke-width="3" stroke="black" rx="0" ry="0"  stroke-opacity="0.09999999999999999" transform="translate(1, 1)"></rect><rect fill="none" x="279" y="230" width="8" height="17" stroke-width="1" stroke="black" rx="0" ry="0"  stroke-opacity="0.15" transform="translate(1, 1)"></rect><rect fill="#4572A7" x="279" y="230" width="8" height="17" stroke-width="0.000001" stroke="#4572A7" rx="0" ry="0"></rect><rect fill="none" x="298" y="223" width="8" height="24" stroke-width="5" stroke="black" rx="0" ry="0"  stroke-opacity="0.049999999999999996" transform="translate(1, 1)"></rect><rect fill="none" x="298" y="223" width="8" height="24" stroke-width="3" stroke="black" rx="0" ry="0"  stroke-opacity="0.09999999999999999" transform="translate(1, 1)"></rect><rect fill="none" x="298" y="223" width="8" height="24" stroke-width="1" stroke="black" rx="0" ry="0"  stroke-opacity="0.15" transform="translate(1, 1)"></rect><rect fill="#4572A7" x="298" y="223" width="8" height="24" stroke-width="0.000001" stroke="#4572A7" rx="0" ry="0"></rect><rect fill="none" x="318" y="233" width="8" height="14" stroke-width="5" stroke="black" rx="0" ry="0"  stroke-opacity="0.049999999999999996" transform="translate(1, 1)"></rect><rect fill="none" x="318" y="233" width="8" height="14" stroke-width="3" stroke="black" rx="0" ry="0"  stroke-opacity="0.09999999999999999" transform="translate(1, 1)"></rect><rect fill="none" x="318" y="233" width="8" height="14" stroke-width="1" stroke="black" rx="0" ry="0"  stroke-opacity="0.15" transform="translate(1, 1)"></rect><rect fill="#4572A7" x="318" y="233" width="8" height="14" stroke-width="0.000001" stroke="#4572A7" rx="0" ry="0"></rect><rect fill="none" x="337" y="241" width="8" height="6" stroke-width="5" stroke="black" rx="0" ry="0"  stroke-opacity="0.049999999999999996" transform="translate(1, 1)"></rect><rect fill="none" x="337" y="241" width="8" height="6" stroke-width="3" stroke="black" rx="0" ry="0"  stroke-opacity="0.09999999999999999" transform="translate(1, 1)"></rect><rect fill="none" x="337" y="241" width="8" height="6" stroke-width="1" stroke="black" rx="0" ry="0"  stroke-opacity="0.15" transform="translate(1, 1)"></rect><rect fill="#4572A7" x="337" y="241" width="8" height="6" stroke-width="0.000001" stroke="#4572A7" rx="0" ry="0"></rect><rect fill="none" x="357" y="245" width="8" height="2" stroke-width="5" stroke="black" rx="0" ry="0"  stroke-opacity="0.049999999999999996" transform="translate(1, 1)"></rect><rect fill="none" x="357" y="245" width="8" height="2" stroke-width="3" stroke="black" rx="0" ry="0"  stroke-opacity="0.09999999999999999" transform="translate(1, 1)"></rect><rect fill="none" x="357" y="245" width="8" height="2" stroke-width="1" stroke="black" rx="0" ry="0"  stroke-opacity="0.15" transform="translate(1, 1)"></rect><rect fill="#4572A7" x="357" y="245" width="8" height="2" stroke-width="0.000001" stroke="#4572A7" rx="0" ry="0"></rect><rect fill="none" x="376" y="245" width="8" height="2" stroke-width="5" stroke="black" rx="0" ry="0"  stroke-opacity="0.049999999999999996" transform="translate(1, 1)"></rect><rect fill="none" x="376" y="245" width="8" height="2" stroke-width="3" stroke="black" rx="0" ry="0"  stroke-opacity="0.09999999999999999" transform="translate(1, 1)"></rect><rect fill="none" x="376" y="245" width="8" height="2" stroke-width="1" stroke="black" rx="0" ry="0"  stroke-opacity="0.15" transform="translate(1, 1)"></rect><rect fill="#4572A7" x="376" y="245" width="8" height="2" stroke-width="0.000001" stroke="#4572A7" rx="0" ry="0"></rect></g><g class="highcharts-markers" visibility="visible"  transform="translate(89,40)" clip-path="none"></g><g class="highcharts-series" visibility="visible"  transform="translate(89,40)" clip-path="url(#highcharts-7)"><rect fill="none" x="13" y="246" width="8" height="1" stroke-width="5" stroke="black" rx="0" ry="0"  stroke-opacity="0.049999999999999996" transform="translate(1, 1)"></rect><rect fill="none" x="13" y="246" width="8" height="1" stroke-width="3" stroke="black" rx="0" ry="0"  stroke-opacity="0.09999999999999999" transform="translate(1, 1)"></rect><rect fill="none" x="13" y="246" width="8" height="1" stroke-width="1" stroke="black" rx="0" ry="0"  stroke-opacity="0.15" transform="translate(1, 1)"></rect><rect fill="#AA4643" x="13" y="246" width="8" height="1" stroke-width="0.000001" stroke="#AA4643" rx="0" ry="0"></rect><rect fill="none" x="33" y="246" width="8" height="1" stroke-width="5" stroke="black" rx="0" ry="0"  stroke-opacity="0.049999999999999996" transform="translate(1, 1)"></rect><rect fill="none" x="33" y="246" width="8" height="1" stroke-width="3" stroke="black" rx="0" ry="0"  stroke-opacity="0.09999999999999999" transform="translate(1, 1)"></rect><rect fill="none" x="33" y="246" width="8" height="1" stroke-width="1" stroke="black" rx="0" ry="0"  stroke-opacity="0.15" transform="translate(1, 1)"></rect><rect fill="#AA4643" x="33" y="246" width="8" height="1" stroke-width="0.000001" stroke="#AA4643" rx="0" ry="0"></rect><rect fill="none" x="72" y="241" width="8" height="6" stroke-width="5" stroke="black" rx="0" ry="0"  stroke-opacity="0.049999999999999996" transform="translate(1, 1)"></rect><rect fill="none" x="72" y="241" width="8" height="6" stroke-width="3" stroke="black" rx="0" ry="0"  stroke-opacity="0.09999999999999999" transform="translate(1, 1)"></rect><rect fill="none" x="72" y="241" width="8" height="6" stroke-width="1" stroke="black" rx="0" ry="0"  stroke-opacity="0.15" transform="translate(1, 1)"></rect><rect fill="#AA4643" x="72" y="241" width="8" height="6" stroke-width="0.000001" stroke="#AA4643" rx="0" ry="0"></rect><rect fill="none" x="91" y="241" width="8" height="6" stroke-width="5" stroke="black" rx="0" ry="0"  stroke-opacity="0.049999999999999996" transform="translate(1, 1)"></rect><rect fill="none" x="91" y="241" width="8" height="6" stroke-width="3" stroke="black" rx="0" ry="0"  stroke-opacity="0.09999999999999999" transform="translate(1, 1)"></rect><rect fill="none" x="91" y="241" width="8" height="6" stroke-width="1" stroke="black" rx="0" ry="0"  stroke-opacity="0.15" transform="translate(1, 1)"></rect><rect fill="#AA4643" x="91" y="241" width="8" height="6" stroke-width="0.000001" stroke="#AA4643" rx="0" ry="0"></rect><rect fill="none" x="111" y="241" width="8" height="6" stroke-width="5" stroke="black" rx="0" ry="0"  stroke-opacity="0.049999999999999996" transform="translate(1, 1)"></rect><rect fill="none" x="111" y="241" width="8" height="6" stroke-width="3" stroke="black" rx="0" ry="0"  stroke-opacity="0.09999999999999999" transform="translate(1, 1)"></rect><rect fill="none" x="111" y="241" width="8" height="6" stroke-width="1" stroke="black" rx="0" ry="0"  stroke-opacity="0.15" transform="translate(1, 1)"></rect><rect fill="#AA4643" x="111" y="241" width="8" height="6" stroke-width="0.000001" stroke="#AA4643" rx="0" ry="0"></rect><rect fill="none" x="130" y="238" width="8" height="9" stroke-width="5" stroke="black" rx="0" ry="0"  stroke-opacity="0.049999999999999996" transform="translate(1, 1)"></rect><rect fill="none" x="130" y="238" width="8" height="9" stroke-width="3" stroke="black" rx="0" ry="0"  stroke-opacity="0.09999999999999999" transform="translate(1, 1)"></rect><rect fill="none" x="130" y="238" width="8" height="9" stroke-width="1" stroke="black" rx="0" ry="0"  stroke-opacity="0.15" transform="translate(1, 1)"></rect><rect fill="#AA4643" x="130" y="238" width="8" height="9" stroke-width="0.000001" stroke="#AA4643" rx="0" ry="0"></rect><rect fill="none" x="150" y="219" width="8" height="28" stroke-width="5" stroke="black" rx="0" ry="0"  stroke-opacity="0.049999999999999996" transform="translate(1, 1)"></rect><rect fill="none" x="150" y="219" width="8" height="28" stroke-width="3" stroke="black" rx="0" ry="0"  stroke-opacity="0.09999999999999999" transform="translate(1, 1)"></rect><rect fill="none" x="150" y="219" width="8" height="28" stroke-width="1" stroke="black" rx="0" ry="0"  stroke-opacity="0.15" transform="translate(1, 1)"></rect><rect fill="#AA4643" x="150" y="219" width="8" height="28" stroke-width="0.000001" stroke="#AA4643" rx="0" ry="0"></rect><rect fill="none" x="169" y="215" width="8" height="32" stroke-width="5" stroke="black" rx="0" ry="0"  stroke-opacity="0.049999999999999996" transform="translate(1, 1)"></rect><rect fill="none" x="169" y="215" width="8" height="32" stroke-width="3" stroke="black" rx="0" ry="0"  stroke-opacity="0.09999999999999999" transform="translate(1, 1)"></rect><rect fill="none" x="169" y="215" width="8" height="32" stroke-width="1" stroke="black" rx="0" ry="0"  stroke-opacity="0.15" transform="translate(1, 1)"></rect><rect fill="#AA4643" x="169" y="215" width="8" height="32" stroke-width="0.000001" stroke="#AA4643" rx="0" ry="0"></rect><rect fill="none" x="189" y="220" width="8" height="27" stroke-width="5" stroke="black" rx="0" ry="0"  stroke-opacity="0.049999999999999996" transform="translate(1, 1)"></rect><rect fill="none" x="189" y="220" width="8" height="27" stroke-width="3" stroke="black" rx="0" ry="0"  stroke-opacity="0.09999999999999999" transform="translate(1, 1)"></rect><rect fill="none" x="189" y="220" width="8" height="27" stroke-width="1" stroke="black" rx="0" ry="0"  stroke-opacity="0.15" transform="translate(1, 1)"></rect><rect fill="#AA4643" x="189" y="220" width="8" height="27" stroke-width="0.000001" stroke="#AA4643" rx="0" ry="0"></rect><rect fill="none" x="209" y="196" width="8" height="51" stroke-width="5" stroke="black" rx="0" ry="0"  stroke-opacity="0.049999999999999996" transform="translate(1, 1)"></rect><rect fill="none" x="209" y="196" width="8" height="51" stroke-width="3" stroke="black" rx="0" ry="0"  stroke-opacity="0.09999999999999999" transform="translate(1, 1)"></rect><rect fill="none" x="209" y="196" width="8" height="51" stroke-width="1" stroke="black" rx="0" ry="0"  stroke-opacity="0.15" transform="translate(1, 1)"></rect><rect fill="#AA4643" x="209" y="196" width="8" height="51" stroke-width="0.000001" stroke="#AA4643" rx="0" ry="0"></rect><rect fill="none" x="228" y="182" width="8" height="65" stroke-width="5" stroke="black" rx="0" ry="0"  stroke-opacity="0.049999999999999996" transform="translate(1, 1)"></rect><rect fill="none" x="228" y="182" width="8" height="65" stroke-width="3" stroke="black" rx="0" ry="0"  stroke-opacity="0.09999999999999999" transform="translate(1, 1)"></rect><rect fill="none" x="228" y="182" width="8" height="65" stroke-width="1" stroke="black" rx="0" ry="0"  stroke-opacity="0.15" transform="translate(1, 1)"></rect><rect fill="#AA4643" x="228" y="182" width="8" height="65" stroke-width="0.000001" stroke="#AA4643" rx="0" ry="0"></rect><rect fill="none" x="248" y="172" width="8" height="75" stroke-width="5" stroke="black" rx="0" ry="0"  stroke-opacity="0.049999999999999996" transform="translate(1, 1)"></rect><rect fill="none" x="248" y="172" width="8" height="75" stroke-width="3" stroke="black" rx="0" ry="0"  stroke-opacity="0.09999999999999999" transform="translate(1, 1)"></rect><rect fill="none" x="248" y="172" width="8" height="75" stroke-width="1" stroke="black" rx="0" ry="0"  stroke-opacity="0.15" transform="translate(1, 1)"></rect><rect fill="#AA4643" x="248" y="172" width="8" height="75" stroke-width="0.000001" stroke="#AA4643" rx="0" ry="0"></rect><rect fill="none" x="267" y="146" width="8" height="101" stroke-width="5" stroke="black" rx="0" ry="0"  stroke-opacity="0.049999999999999996" transform="translate(1, 1)"></rect><rect fill="none" x="267" y="146" width="8" height="101" stroke-width="3" stroke="black" rx="0" ry="0"  stroke-opacity="0.09999999999999999" transform="translate(1, 1)"></rect><rect fill="none" x="267" y="146" width="8" height="101" stroke-width="1" stroke="black" rx="0" ry="0"  stroke-opacity="0.15" transform="translate(1, 1)"></rect><rect fill="#AA4643" x="267" y="146" width="8" height="101" stroke-width="0.000001" stroke="#AA4643" rx="0" ry="0"></rect><rect fill="none" x="287" y="162" width="8" height="85" stroke-width="5" stroke="black" rx="0" ry="0"  stroke-opacity="0.049999999999999996" transform="translate(1, 1)"></rect><rect fill="none" x="287" y="162" width="8" height="85" stroke-width="3" stroke="black" rx="0" ry="0"  stroke-opacity="0.09999999999999999" transform="translate(1, 1)"></rect><rect fill="none" x="287" y="162" width="8" height="85" stroke-width="1" stroke="black" rx="0" ry="0"  stroke-opacity="0.15" transform="translate(1, 1)"></rect><rect fill="#AA4643" x="287" y="162" width="8" height="85" stroke-width="0.000001" stroke="#AA4643" rx="0" ry="0"></rect><rect fill="none" x="306" y="144" width="8" height="103" stroke-width="5" stroke="black" rx="0" ry="0"  stroke-opacity="0.049999999999999996" transform="translate(1, 1)"></rect><rect fill="none" x="306" y="144" width="8" height="103" stroke-width="3" stroke="black" rx="0" ry="0"  stroke-opacity="0.09999999999999999" transform="translate(1, 1)"></rect><rect fill="none" x="306" y="144" width="8" height="103" stroke-width="1" stroke="black" rx="0" ry="0"  stroke-opacity="0.15" transform="translate(1, 1)"></rect><rect fill="#AA4643" x="306" y="144" width="8" height="103" stroke-width="0.000001" stroke="#AA4643" rx="0" ry="0"></rect><rect fill="none" x="326" y="115" width="8" height="132" stroke-width="5" stroke="black" rx="0" ry="0"  stroke-opacity="0.049999999999999996" transform="translate(1, 1)"></rect><rect fill="none" x="326" y="115" width="8" height="132" stroke-width="3" stroke="black" rx="0" ry="0"  stroke-opacity="0.09999999999999999" transform="translate(1, 1)"></rect><rect fill="none" x="326" y="115" width="8" height="132" stroke-width="1" stroke="black" rx="0" ry="0"  stroke-opacity="0.15" transform="translate(1, 1)"></rect><rect fill="#AA4643" x="326" y="115" width="8" height="132" stroke-width="0.000001" stroke="#AA4643" rx="0" ry="0"></rect><rect fill="none" x="345" y="161" width="8" height="86" stroke-width="5" stroke="black" rx="0" ry="0"  stroke-opacity="0.049999999999999996" transform="translate(1, 1)"></rect><rect fill="none" x="345" y="161" width="8" height="86" stroke-width="3" stroke="black" rx="0" ry="0"  stroke-opacity="0.09999999999999999" transform="translate(1, 1)"></rect><rect fill="none" x="345" y="161" width="8" height="86" stroke-width="1" stroke="black" rx="0" ry="0"  stroke-opacity="0.15" transform="translate(1, 1)"></rect><rect fill="#AA4643" x="345" y="161" width="8" height="86" stroke-width="0.000001" stroke="#AA4643" rx="0" ry="0"></rect><rect fill="none" x="365" y="154" width="8" height="93" stroke-width="5" stroke="black" rx="0" ry="0"  stroke-opacity="0.049999999999999996" transform="translate(1, 1)"></rect><rect fill="none" x="365" y="154" width="8" height="93" stroke-width="3" stroke="black" rx="0" ry="0"  stroke-opacity="0.09999999999999999" transform="translate(1, 1)"></rect><rect fill="none" x="365" y="154" width="8" height="93" stroke-width="1" stroke="black" rx="0" ry="0"  stroke-opacity="0.15" transform="translate(1, 1)"></rect><rect fill="#AA4643" x="365" y="154" width="8" height="93" stroke-width="0.000001" stroke="#AA4643" rx="0" ry="0"></rect><rect fill="none" x="384" y="67" width="8" height="180" stroke-width="5" stroke="black" rx="0" ry="0"  stroke-opacity="0.049999999999999996" transform="translate(1, 1)"></rect><rect fill="none" x="384" y="67" width="8" height="180" stroke-width="3" stroke="black" rx="0" ry="0"  stroke-opacity="0.09999999999999999" transform="translate(1, 1)"></rect><rect fill="none" x="384" y="67" width="8" height="180" stroke-width="1" stroke="black" rx="0" ry="0"  stroke-opacity="0.15" transform="translate(1, 1)"></rect><rect fill="#AA4643" x="384" y="67" width="8" height="180" stroke-width="0.000001" stroke="#AA4643" rx="0" ry="0"></rect><rect fill="none" x="404" y="215" width="8" height="32" stroke-width="5" stroke="black" rx="0" ry="0"  stroke-opacity="0.049999999999999996" transform="translate(1, 1)"></rect><rect fill="none" x="404" y="215" width="8" height="32" stroke-width="3" stroke="black" rx="0" ry="0"  stroke-opacity="0.09999999999999999" transform="translate(1, 1)"></rect><rect fill="none" x="404" y="215" width="8" height="32" stroke-width="1" stroke="black" rx="0" ry="0"  stroke-opacity="0.15" transform="translate(1, 1)"></rect><rect fill="#AA4643" x="404" y="215" width="8" height="32" stroke-width="0.000001" stroke="#AA4643" rx="0" ry="0"></rect></g><g class="highcharts-markers" visibility="visible"  transform="translate(89,40)" clip-path="none"></g></g><g class="highcharts-legend"  transform="translate(156,352)"><rect rx="5" ry="5" fill="none" x="0.5" y="0.5" width="204" height="32" stroke-width="1" stroke="#909090" visibility="visible"></rect><g  clip-path="url(#highcharts-6)"><g><g class="highcharts-legend-item"  transform="translate(8,3)"><text x="21" y="21" style="font-family:'lucida grande', 'lucida sans unicode', verdana, arial, helvetica, sans-serif;font-size:18px;cursor:pointer;color:#3e576f;fill:#3e576f;" text-anchor="start" ><tspan x="21">Correct</tspan></text><rect rx="2" ry="2" fill="#4572A7" x="0" y="10" width="16" height="12" stroke-width="0.000001"  stroke="#4572A7"></rect></g><g class="highcharts-legend-item"  transform="translate(100,3)"><text x="21" y="21" style="font-family:'lucida grande', 'lucida sans unicode', verdana, arial, helvetica, sans-serif;font-size:18px;cursor:pointer;color:#3e576f;fill:#3e576f;" text-anchor="start" ><tspan x="21">Incorrect</tspan></text><rect rx="2" ry="2" fill="#AA4643" x="0" y="10" width="16" height="12" stroke-width="0.000001"  stroke="#AA4643"></rect></g></g></g></g><g class="highcharts-axis-labels" ><text x="161.2710280373832" y="307" style="font-family:'lucida grande', 'lucida sans unicode', verdana, arial, helvetica, sans-serif;font-size:18px;color:#666;line-height:14px;fill:#666;" text-anchor="middle" visibility="visible"><tspan x="161.2710280373832">10</tspan></text><text x="258.93457943925233" y="307" style="font-family:'lucida grande', 'lucida sans unicode', verdana, arial, helvetica, sans-serif;font-size:18px;color:#666;line-height:14px;fill:#666;" text-anchor="middle" visibility="visible"><tspan x="258.93457943925233">15</tspan></text><text x="356.59813084112153" y="307" style="font-family:'lucida grande', 'lucida sans unicode', verdana, arial, helvetica, sans-serif;font-size:18px;color:#666;line-height:14px;fill:#666;" text-anchor="middle" visibility="visible"><tspan x="356.59813084112153">20</tspan></text><text x="454.2616822429907" y="307" style="font-family:'lucida grande', 'lucida sans unicode', verdana, arial, helvetica, sans-serif;font-size:18px;color:#666;line-height:14px;fill:#666;" text-anchor="middle" visibility="visible"><tspan x="454.2616822429907">25</tspan></text></g><g class="highcharts-axis-labels" ><text x="81" y="288.6" style="font-family:'lucida grande', 'lucida sans unicode', verdana, arial, helvetica, sans-serif;font-size:18px;width:189px;color:#666;line-height:14px;fill:#666;" text-anchor="end" visibility="visible"><tspan x="81">0</tspan></text><text x="81" y="226.85" style="font-family:'lucida grande', 'lucida sans unicode', verdana, arial, helvetica, sans-serif;font-size:18px;width:189px;color:#666;line-height:14px;fill:#666;" text-anchor="end" visibility="visible"><tspan x="81">50</tspan></text><text x="81" y="165.1" style="font-family:'lucida grande', 'lucida sans unicode', verdana, arial, helvetica, sans-serif;font-size:18px;width:189px;color:#666;line-height:14px;fill:#666;" text-anchor="end" visibility="visible"><tspan x="81">100</tspan></text><text x="81" y="103.34999999999997" style="font-family:'lucida grande', 'lucida sans unicode', verdana, arial, helvetica, sans-serif;font-size:18px;width:189px;color:#666;line-height:14px;fill:#666;" text-anchor="end" visibility="visible"><tspan x="81">150</tspan></text><text x="81" y="41.59999999999997" style="font-family:'lucida grande', 'lucida sans unicode', verdana, arial, helvetica, sans-serif;font-size:18px;width:189px;color:#666;line-height:14px;fill:#666;" text-anchor="end" visibility="visible"><tspan x="81">200</tspan></text></g><g class="highcharts-tooltip"  style="padding:0;white-space:nowrap;" visibility="hidden"><rect rx="5" ry="5" fill="none" x="0" y="0" width="10" height="10" stroke-width="5" fill-opacity="0.85"  stroke="black" stroke-opacity="0.049999999999999996" transform="translate(1, 1)"></rect><rect rx="5" ry="5" fill="none" x="0" y="0" width="10" height="10" stroke-width="3" fill-opacity="0.85"  stroke="black" stroke-opacity="0.09999999999999999" transform="translate(1, 1)"></rect><rect rx="5" ry="5" fill="none" x="0" y="0" width="10" height="10" stroke-width="1" fill-opacity="0.85"  stroke="black" stroke-opacity="0.15" transform="translate(1, 1)"></rect><rect rx="5" ry="5" fill="rgb(255,255,255)" x="0" y="0" width="10" height="10" stroke-width="2" fill-opacity="0.85"></rect><text x="5" y="18" style="font-family:'lucida grande', 'lucida sans unicode', verdana, arial, helvetica, sans-serif;font-size:12px;color:#333333;fill:#333333;" ></text></g><g class="highcharts-tracker" ><g visibility="visible"  transform="translate(89,40)" clip-path="url(#highcharts-7)"><rect fill="rgb(192,192,192)" x="83" y="243" width="8" height="6"  fill-opacity="0.000001" visibility="visible" style=""></rect><rect fill="rgb(192,192,192)" x="103" y="243" width="8" height="6"  fill-opacity="0.000001" visibility="visible" style=""></rect><rect fill="rgb(192,192,192)" x="123" y="241" width="8" height="6"  fill-opacity="0.000001" visibility="visible" style=""></rect><rect fill="rgb(192,192,192)" x="142" y="244" width="8" height="3"  fill-opacity="0.000001" visibility="visible" style=""></rect><rect fill="rgb(192,192,192)" x="162" y="244" width="8" height="3"  fill-opacity="0.000001" visibility="visible" style=""></rect><rect fill="rgb(192,192,192)" x="181" y="241" width="8" height="6"  fill-opacity="0.000001" visibility="visible" style=""></rect><rect fill="rgb(192,192,192)" x="201" y="238" width="8" height="9"  fill-opacity="0.000001" visibility="visible" style=""></rect><rect fill="rgb(192,192,192)" x="220" y="233" width="8" height="14"  fill-opacity="0.000001" visibility="visible" style=""></rect><rect fill="rgb(192,192,192)" x="240" y="231" width="8" height="16"  fill-opacity="0.000001" visibility="visible" style=""></rect><rect fill="rgb(192,192,192)" x="259" y="228" width="8" height="19"  fill-opacity="0.000001" visibility="visible" style=""></rect><rect fill="rgb(192,192,192)" x="279" y="230" width="8" height="17"  fill-opacity="0.000001" visibility="visible" style=""></rect><rect fill="rgb(192,192,192)" x="298" y="223" width="8" height="24"  fill-opacity="0.000001" visibility="visible" style=""></rect><rect fill="rgb(192,192,192)" x="318" y="233" width="8" height="14"  fill-opacity="0.000001" visibility="visible" style=""></rect><rect fill="rgb(192,192,192)" x="337" y="241" width="8" height="6"  fill-opacity="0.000001" visibility="visible" style=""></rect><rect fill="rgb(192,192,192)" x="357" y="242" width="8" height="6"  fill-opacity="0.000001" visibility="visible" style=""></rect><rect fill="rgb(192,192,192)" x="376" y="242" width="8" height="6"  fill-opacity="0.000001" visibility="visible" style=""></rect></g><g visibility="visible"  transform="translate(89,40)" clip-path="url(#highcharts-7)"><rect fill="rgb(192,192,192)" x="13" y="243" width="8" height="6"  fill-opacity="0.000001" visibility="visible" style=""></rect><rect fill="rgb(192,192,192)" x="33" y="243" width="8" height="6"  fill-opacity="0.000001" visibility="visible" style=""></rect><rect fill="rgb(192,192,192)" x="72" y="241" width="8" height="6"  fill-opacity="0.000001" visibility="visible" style=""></rect><rect fill="rgb(192,192,192)" x="91" y="241" width="8" height="6"  fill-opacity="0.000001" visibility="visible" style=""></rect><rect fill="rgb(192,192,192)" x="111" y="241" width="8" height="6"  fill-opacity="0.000001" visibility="visible" style=""></rect><rect fill="rgb(192,192,192)" x="130" y="238" width="8" height="9"  fill-opacity="0.000001" visibility="visible" style=""></rect><rect fill="rgb(192,192,192)" x="150" y="219" width="8" height="28"  fill-opacity="0.000001" visibility="visible" style=""></rect><rect fill="rgb(192,192,192)" x="169" y="215" width="8" height="32"  fill-opacity="0.000001" visibility="visible" style=""></rect><rect fill="rgb(192,192,192)" x="189" y="220" width="8" height="27"  fill-opacity="0.000001" visibility="visible" style=""></rect><rect fill="rgb(192,192,192)" x="209" y="196" width="8" height="51"  fill-opacity="0.000001" visibility="visible" style=""></rect><rect fill="rgb(192,192,192)" x="228" y="182" width="8" height="65"  fill-opacity="0.000001" visibility="visible" style=""></rect><rect fill="rgb(192,192,192)" x="248" y="172" width="8" height="75"  fill-opacity="0.000001" visibility="visible" style=""></rect><rect fill="rgb(192,192,192)" x="267" y="146" width="8" height="101"  fill-opacity="0.000001" visibility="visible" style=""></rect><rect fill="rgb(192,192,192)" x="287" y="162" width="8" height="85"  fill-opacity="0.000001" visibility="visible" style=""></rect><rect fill="rgb(192,192,192)" x="306" y="144" width="8" height="103"  fill-opacity="0.000001" visibility="visible" style=""></rect><rect fill="rgb(192,192,192)" x="326" y="115" width="8" height="132"  fill-opacity="0.000001" visibility="visible" style=""></rect><rect fill="rgb(192,192,192)" x="345" y="161" width="8" height="86"  fill-opacity="0.000001" visibility="visible" style=""></rect><rect fill="rgb(192,192,192)" x="365" y="154" width="8" height="93"  fill-opacity="0.000001" visibility="visible" style=""></rect><rect fill="rgb(192,192,192)" x="384" y="67" width="8" height="180"  fill-opacity="0.000001" visibility="visible" style=""></rect><rect fill="rgb(192,192,192)" x="404" y="215" width="8" height="32"  fill-opacity="0.000001" visibility="visible" style=""></rect></g></g></svg>