<svg xmlns:xlink="http://www.w3.org/1999/xlink" xmlns="http://www.w3.org/2000/svg" version="1.1" width="517" height="400"><defs><clipPath id="highcharts-6"><rect rx="0" ry="0" fill="none" x="0" y="0" width="9999" height="400" stroke-width="0.000001"></rect></clipPath><clipPath id="highcharts-7"><rect fill="none" x="0" y="0" width="418" height="247"></rect></clipPath></defs><rect rx="5" ry="5" fill="#FFFFFF" x="0" y="0" width="517" height="400" stroke-width="0.000001"></rect><g class="highcharts-grid" ></g><g class="highcharts-grid" ><path fill="none" d="M 89 205.5 L 507 205.5" stroke="#C0C0C0" stroke-width="1" ></path><path fill="none" d="M 89 122.5 L 507 122.5" stroke="#C0C0C0" stroke-width="1" ></path><path fill="none" d="M 89 40.5 L 507 40.5" stroke="#C0C0C0" stroke-width="1" ></path><path fill="none" d="M 89 287.5 L 507 287.5" stroke="#C0C0C0" stroke-width="1" ></path></g><g class="highcharts-axis" ><path fill="none" d="M 190.5 287 L 190.5 292" stroke="#C0D0E0" stroke-width="1"></path><path fill="none" d="M 279.5 287 L 279.5 292" stroke="#C0D0E0" stroke-width="1"></path><path fill="none" d="M 368.5 287 L 368.5 292" stroke="#C0D0E0" stroke-width="1"></path><path fill="none" d="M 457.5 287 L 457.5 292" stroke="#C0D0E0" stroke-width="1"></path><path fill="none" d="M 101.5 287 L 101.5 292" stroke="#C0D0E0" stroke-width="1"></path><text x="298" y="338" style="font-family:'lucida grande', 'lucida sans unicode', verdana, arial, helvetica, sans-serif;font-size:24px;color:#6d869f;font-weight:bold;fill:#6d869f;"  text-anchor="middle" visibility="visible"><tspan x="298">Normalized DF</tspan></text><path fill="none" d="M 89 287.5 L 507 287.5" stroke="#C0D0E0" stroke-width="1"  visibility="visible"></path></g><g class="highcharts-axis" ><text x="38" y="163.5" style="font-family:'lucida grande', 'lucida sans unicode', verdana, arial, helvetica, sans-serif;font-size:24px;color:#6d869f;font-weight:bold;fill:#6d869f;"  transform="rotate(270 38 163)" text-anchor="middle" visibility="visible"><tspan x="38">Number of concepts</tspan></text></g><g class="highcharts-series-group" ><g class="highcharts-series" visibility="visible"  transform="translate(89,40)" clip-path="url(#highcharts-7)"><rect fill="none" x="5" y="247" width="8" height="0" stroke-width="5" stroke="black" rx="0" ry="0"  stroke-opacity="0.049999999999999996" transform="translate(1, 1)"></rect><rect fill="none" x="5" y="247" width="8" height="0" stroke-width="3" stroke="black" rx="0" ry="0"  stroke-opacity="0.09999999999999999" transform="translate(1, 1)"></rect><rect fill="none" x="5" y="247" width="8" height="0" stroke-width="1" stroke="black" rx="0" ry="0"  stroke-opacity="0.15" transform="translate(1, 1)"></rect><rect fill="#4572A7" x="5" y="247" width="8" height="0" stroke-width="0.000001" stroke="#4572A7" rx="0" ry="0"></rect><rect fill="none" x="23" y="246" width="8" height="1" stroke-width="5" stroke="black" rx="0" ry="0"  stroke-opacity="0.049999999999999996" transform="translate(1, 1)"></rect><rect fill="none" x="23" y="246" width="8" height="1" stroke-width="3" stroke="black" rx="0" ry="0"  stroke-opacity="0.09999999999999999" transform="translate(1, 1)"></rect><rect fill="none" x="23" y="246" width="8" height="1" stroke-width="1" stroke="black" rx="0" ry="0"  stroke-opacity="0.15" transform="translate(1, 1)"></rect><rect fill="#4572A7" x="23" y="246" width="8" height="1" stroke-width="0.000001" stroke="#4572A7" rx="0" ry="0"></rect><rect fill="none" x="59" y="247" width="8" height="0" stroke-width="5" stroke="black" rx="0" ry="0"  stroke-opacity="0.049999999999999996" transform="translate(1, 1)"></rect><rect fill="none" x="59" y="247" width="8" height="0" stroke-width="3" stroke="black" rx="0" ry="0"  stroke-opacity="0.09999999999999999" transform="translate(1, 1)"></rect><rect fill="none" x="59" y="247" width="8" height="0" stroke-width="1" stroke="black" rx="0" ry="0"  stroke-opacity="0.15" transform="translate(1, 1)"></rect><rect fill="#4572A7" x="59" y="247" width="8" height="0" stroke-width="0.000001" stroke="#4572A7" rx="0" ry="0"></rect><rect fill="none" x="77" y="243" width="8" height="4" stroke-width="5" stroke="black" rx="0" ry="0"  stroke-opacity="0.049999999999999996" transform="translate(1, 1)"></rect><rect fill="none" x="77" y="243" width="8" height="4" stroke-width="3" stroke="black" rx="0" ry="0"  stroke-opacity="0.09999999999999999" transform="translate(1, 1)"></rect><rect fill="none" x="77" y="243" width="8" height="4" stroke-width="1" stroke="black" rx="0" ry="0"  stroke-opacity="0.15" transform="translate(1, 1)"></rect><rect fill="#4572A7" x="77" y="243" width="8" height="4" stroke-width="0.000001" stroke="#4572A7" rx="0" ry="0"></rect><rect fill="none" x="94" y="240" width="8" height="7" stroke-width="5" stroke="black" rx="0" ry="0"  stroke-opacity="0.049999999999999996" transform="translate(1, 1)"></rect><rect fill="none" x="94" y="240" width="8" height="7" stroke-width="3" stroke="black" rx="0" ry="0"  stroke-opacity="0.09999999999999999" transform="translate(1, 1)"></rect><rect fill="none" x="94" y="240" width="8" height="7" stroke-width="1" stroke="black" rx="0" ry="0"  stroke-opacity="0.15" transform="translate(1, 1)"></rect><rect fill="#4572A7" x="94" y="240" width="8" height="7" stroke-width="0.000001" stroke="#4572A7" rx="0" ry="0"></rect><rect fill="none" x="112" y="238" width="8" height="9" stroke-width="5" stroke="black" rx="0" ry="0"  stroke-opacity="0.049999999999999996" transform="translate(1, 1)"></rect><rect fill="none" x="112" y="238" width="8" height="9" stroke-width="3" stroke="black" rx="0" ry="0"  stroke-opacity="0.09999999999999999" transform="translate(1, 1)"></rect><rect fill="none" x="112" y="238" width="8" height="9" stroke-width="1" stroke="black" rx="0" ry="0"  stroke-opacity="0.15" transform="translate(1, 1)"></rect><rect fill="#4572A7" x="112" y="238" width="8" height="9" stroke-width="0.000001" stroke="#4572A7" rx="0" ry="0"></rect><rect fill="none" x="130" y="236" width="8" height="11" stroke-width="5" stroke="black" rx="0" ry="0"  stroke-opacity="0.049999999999999996" transform="translate(1, 1)"></rect><rect fill="none" x="130" y="236" width="8" height="11" stroke-width="3" stroke="black" rx="0" ry="0"  stroke-opacity="0.09999999999999999" transform="translate(1, 1)"></rect><rect fill="none" x="130" y="236" width="8" height="11" stroke-width="1" stroke="black" rx="0" ry="0"  stroke-opacity="0.15" transform="translate(1, 1)"></rect><rect fill="#4572A7" x="130" y="236" width="8" height="11" stroke-width="0.000001" stroke="#4572A7" rx="0" ry="0"></rect><rect fill="none" x="148" y="229" width="8" height="18" stroke-width="5" stroke="black" rx="0" ry="0"  stroke-opacity="0.049999999999999996" transform="translate(1, 1)"></rect><rect fill="none" x="148" y="229" width="8" height="18" stroke-width="3" stroke="black" rx="0" ry="0"  stroke-opacity="0.09999999999999999" transform="translate(1, 1)"></rect><rect fill="none" x="148" y="229" width="8" height="18" stroke-width="1" stroke="black" rx="0" ry="0"  stroke-opacity="0.15" transform="translate(1, 1)"></rect><rect fill="#4572A7" x="148" y="229" width="8" height="18" stroke-width="0.000001" stroke="#4572A7" rx="0" ry="0"></rect><rect fill="none" x="166" y="225" width="8" height="22" stroke-width="5" stroke="black" rx="0" ry="0"  stroke-opacity="0.049999999999999996" transform="translate(1, 1)"></rect><rect fill="none" x="166" y="225" width="8" height="22" stroke-width="3" stroke="black" rx="0" ry="0"  stroke-opacity="0.09999999999999999" transform="translate(1, 1)"></rect><rect fill="none" x="166" y="225" width="8" height="22" stroke-width="1" stroke="black" rx="0" ry="0"  stroke-opacity="0.15" transform="translate(1, 1)"></rect><rect fill="#4572A7" x="166" y="225" width="8" height="22" stroke-width="0.000001" stroke="#4572A7" rx="0" ry="0"></rect><rect fill="none" x="184" y="213" width="8" height="34" stroke-width="5" stroke="black" rx="0" ry="0"  stroke-opacity="0.049999999999999996" transform="translate(1, 1)"></rect><rect fill="none" x="184" y="213" width="8" height="34" stroke-width="3" stroke="black" rx="0" ry="0"  stroke-opacity="0.09999999999999999" transform="translate(1, 1)"></rect><rect fill="none" x="184" y="213" width="8" height="34" stroke-width="1" stroke="black" rx="0" ry="0"  stroke-opacity="0.15" transform="translate(1, 1)"></rect><rect fill="#4572A7" x="184" y="213" width="8" height="34" stroke-width="0.000001" stroke="#4572A7" rx="0" ry="0"></rect><rect fill="none" x="201" y="210" width="8" height="37" stroke-width="5" stroke="black" rx="0" ry="0"  stroke-opacity="0.049999999999999996" transform="translate(1, 1)"></rect><rect fill="none" x="201" y="210" width="8" height="37" stroke-width="3" stroke="black" rx="0" ry="0"  stroke-opacity="0.09999999999999999" transform="translate(1, 1)"></rect><rect fill="none" x="201" y="210" width="8" height="37" stroke-width="1" stroke="black" rx="0" ry="0"  stroke-opacity="0.15" transform="translate(1, 1)"></rect><rect fill="#4572A7" x="201" y="210" width="8" height="37" stroke-width="0.000001" stroke="#4572A7" rx="0" ry="0"></rect><rect fill="none" x="219" y="162" width="8" height="85" stroke-width="5" stroke="black" rx="0" ry="0"  stroke-opacity="0.049999999999999996" transform="translate(1, 1)"></rect><rect fill="none" x="219" y="162" width="8" height="85" stroke-width="3" stroke="black" rx="0" ry="0"  stroke-opacity="0.09999999999999999" transform="translate(1, 1)"></rect><rect fill="none" x="219" y="162" width="8" height="85" stroke-width="1" stroke="black" rx="0" ry="0"  stroke-opacity="0.15" transform="translate(1, 1)"></rect><rect fill="#4572A7" x="219" y="162" width="8" height="85" stroke-width="0.000001" stroke="#4572A7" rx="0" ry="0"></rect><rect fill="none" x="237" y="159" width="8" height="88" stroke-width="5" stroke="black" rx="0" ry="0"  stroke-opacity="0.049999999999999996" transform="translate(1, 1)"></rect><rect fill="none" x="237" y="159" width="8" height="88" stroke-width="3" stroke="black" rx="0" ry="0"  stroke-opacity="0.09999999999999999" transform="translate(1, 1)"></rect><rect fill="none" x="237" y="159" width="8" height="88" stroke-width="1" stroke="black" rx="0" ry="0"  stroke-opacity="0.15" transform="translate(1, 1)"></rect><rect fill="#4572A7" x="237" y="159" width="8" height="88" stroke-width="0.000001" stroke="#4572A7" rx="0" ry="0"></rect><rect fill="none" x="255" y="117" width="8" height="130" stroke-width="5" stroke="black" rx="0" ry="0"  stroke-opacity="0.049999999999999996" transform="translate(1, 1)"></rect><rect fill="none" x="255" y="117" width="8" height="130" stroke-width="3" stroke="black" rx="0" ry="0"  stroke-opacity="0.09999999999999999" transform="translate(1, 1)"></rect><rect fill="none" x="255" y="117" width="8" height="130" stroke-width="1" stroke="black" rx="0" ry="0"  stroke-opacity="0.15" transform="translate(1, 1)"></rect><rect fill="#4572A7" x="255" y="117" width="8" height="130" stroke-width="0.000001" stroke="#4572A7" rx="0" ry="0"></rect><rect fill="none" x="273" y="19" width="8" height="228" stroke-width="5" stroke="black" rx="0" ry="0"  stroke-opacity="0.049999999999999996" transform="translate(1, 1)"></rect><rect fill="none" x="273" y="19" width="8" height="228" stroke-width="3" stroke="black" rx="0" ry="0"  stroke-opacity="0.09999999999999999" transform="translate(1, 1)"></rect><rect fill="none" x="273" y="19" width="8" height="228" stroke-width="1" stroke="black" rx="0" ry="0"  stroke-opacity="0.15" transform="translate(1, 1)"></rect><rect fill="#4572A7" x="273" y="19" width="8" height="228" stroke-width="0.000001" stroke="#4572A7" rx="0" ry="0"></rect><rect fill="none" x="291" y="84" width="8" height="163" stroke-width="5" stroke="black" rx="0" ry="0"  stroke-opacity="0.049999999999999996" transform="translate(1, 1)"></rect><rect fill="none" x="291" y="84" width="8" height="163" stroke-width="3" stroke="black" rx="0" ry="0"  stroke-opacity="0.09999999999999999" transform="translate(1, 1)"></rect><rect fill="none" x="291" y="84" width="8" height="163" stroke-width="1" stroke="black" rx="0" ry="0"  stroke-opacity="0.15" transform="translate(1, 1)"></rect><rect fill="#4572A7" x="291" y="84" width="8" height="163" stroke-width="0.000001" stroke="#4572A7" rx="0" ry="0"></rect><rect fill="none" x="308" y="79" width="8" height="168" stroke-width="5" stroke="black" rx="0" ry="0"  stroke-opacity="0.049999999999999996" transform="translate(1, 1)"></rect><rect fill="none" x="308" y="79" width="8" height="168" stroke-width="3" stroke="black" rx="0" ry="0"  stroke-opacity="0.09999999999999999" transform="translate(1, 1)"></rect><rect fill="none" x="308" y="79" width="8" height="168" stroke-width="1" stroke="black" rx="0" ry="0"  stroke-opacity="0.15" transform="translate(1, 1)"></rect><rect fill="#4572A7" x="308" y="79" width="8" height="168" stroke-width="0.000001" stroke="#4572A7" rx="0" ry="0"></rect><rect fill="none" x="326" y="107" width="8" height="140" stroke-width="5" stroke="black" rx="0" ry="0"  stroke-opacity="0.049999999999999996" transform="translate(1, 1)"></rect><rect fill="none" x="326" y="107" width="8" height="140" stroke-width="3" stroke="black" rx="0" ry="0"  stroke-opacity="0.09999999999999999" transform="translate(1, 1)"></rect><rect fill="none" x="326" y="107" width="8" height="140" stroke-width="1" stroke="black" rx="0" ry="0"  stroke-opacity="0.15" transform="translate(1, 1)"></rect><rect fill="#4572A7" x="326" y="107" width="8" height="140" stroke-width="0.000001" stroke="#4572A7" rx="0" ry="0"></rect><rect fill="none" x="344" y="133" width="8" height="114" stroke-width="5" stroke="black" rx="0" ry="0"  stroke-opacity="0.049999999999999996" transform="translate(1, 1)"></rect><rect fill="none" x="344" y="133" width="8" height="114" stroke-width="3" stroke="black" rx="0" ry="0"  stroke-opacity="0.09999999999999999" transform="translate(1, 1)"></rect><rect fill="none" x="344" y="133" width="8" height="114" stroke-width="1" stroke="black" rx="0" ry="0"  stroke-opacity="0.15" transform="translate(1, 1)"></rect><rect fill="#4572A7" x="344" y="133" width="8" height="114" stroke-width="0.000001" stroke="#4572A7" rx="0" ry="0"></rect><rect fill="none" x="362" y="214" width="8" height="33" stroke-width="5" stroke="black" rx="0" ry="0"  stroke-opacity="0.049999999999999996" transform="translate(1, 1)"></rect><rect fill="none" x="362" y="214" width="8" height="33" stroke-width="3" stroke="black" rx="0" ry="0"  stroke-opacity="0.09999999999999999" transform="translate(1, 1)"></rect><rect fill="none" x="362" y="214" width="8" height="33" stroke-width="1" stroke="black" rx="0" ry="0"  stroke-opacity="0.15" transform="translate(1, 1)"></rect><rect fill="#4572A7" x="362" y="214" width="8" height="33" stroke-width="0.000001" stroke="#4572A7" rx="0" ry="0"></rect><rect fill="none" x="380" y="129" width="8" height="118" stroke-width="5" stroke="black" rx="0" ry="0"  stroke-opacity="0.049999999999999996" transform="translate(1, 1)"></rect><rect fill="none" x="380" y="129" width="8" height="118" stroke-width="3" stroke="black" rx="0" ry="0"  stroke-opacity="0.09999999999999999" transform="translate(1, 1)"></rect><rect fill="none" x="380" y="129" width="8" height="118" stroke-width="1" stroke="black" rx="0" ry="0"  stroke-opacity="0.15" transform="translate(1, 1)"></rect><rect fill="#4572A7" x="380" y="129" width="8" height="118" stroke-width="0.000001" stroke="#4572A7" rx="0" ry="0"></rect><rect fill="none" x="398" y="243" width="8" height="4" stroke-width="5" stroke="black" rx="0" ry="0"  stroke-opacity="0.049999999999999996" transform="translate(1, 1)"></rect><rect fill="none" x="398" y="243" width="8" height="4" stroke-width="3" stroke="black" rx="0" ry="0"  stroke-opacity="0.09999999999999999" transform="translate(1, 1)"></rect><rect fill="none" x="398" y="243" width="8" height="4" stroke-width="1" stroke="black" rx="0" ry="0"  stroke-opacity="0.15" transform="translate(1, 1)"></rect><rect fill="#4572A7" x="398" y="243" width="8" height="4" stroke-width="0.000001" stroke="#4572A7" rx="0" ry="0"></rect></g><g class="highcharts-markers" visibility="visible"  transform="translate(89,40)" clip-path="none"></g><g class="highcharts-series" visibility="visible"  transform="translate(89,40)" clip-path="url(#highcharts-7)"><rect fill="none" x="12" y="246" width="8" height="1" stroke-width="5" stroke="black" rx="0" ry="0"  stroke-opacity="0.049999999999999996" transform="translate(1, 1)"></rect><rect fill="none" x="12" y="246" width="8" height="1" stroke-width="3" stroke="black" rx="0" ry="0"  stroke-opacity="0.09999999999999999" transform="translate(1, 1)"></rect><rect fill="none" x="12" y="246" width="8" height="1" stroke-width="1" stroke="black" rx="0" ry="0"  stroke-opacity="0.15" transform="translate(1, 1)"></rect><rect fill="#AA4643" x="12" y="246" width="8" height="1" stroke-width="0.000001" stroke="#AA4643" rx="0" ry="0"></rect><rect fill="none" x="48" y="246" width="8" height="1" stroke-width="5" stroke="black" rx="0" ry="0"  stroke-opacity="0.049999999999999996" transform="translate(1, 1)"></rect><rect fill="none" x="48" y="246" width="8" height="1" stroke-width="3" stroke="black" rx="0" ry="0"  stroke-opacity="0.09999999999999999" transform="translate(1, 1)"></rect><rect fill="none" x="48" y="246" width="8" height="1" stroke-width="1" stroke="black" rx="0" ry="0"  stroke-opacity="0.15" transform="translate(1, 1)"></rect><rect fill="#AA4643" x="48" y="246" width="8" height="1" stroke-width="0.000001" stroke="#AA4643" rx="0" ry="0"></rect><rect fill="none" x="66" y="245" width="8" height="2" stroke-width="5" stroke="black" rx="0" ry="0"  stroke-opacity="0.049999999999999996" transform="translate(1, 1)"></rect><rect fill="none" x="66" y="245" width="8" height="2" stroke-width="3" stroke="black" rx="0" ry="0"  stroke-opacity="0.09999999999999999" transform="translate(1, 1)"></rect><rect fill="none" x="66" y="245" width="8" height="2" stroke-width="1" stroke="black" rx="0" ry="0"  stroke-opacity="0.15" transform="translate(1, 1)"></rect><rect fill="#AA4643" x="66" y="245" width="8" height="2" stroke-width="0.000001" stroke="#AA4643" rx="0" ry="0"></rect><rect fill="none" x="84" y="247" width="8" height="0" stroke-width="5" stroke="black" rx="0" ry="0"  stroke-opacity="0.049999999999999996" transform="translate(1, 1)"></rect><rect fill="none" x="84" y="247" width="8" height="0" stroke-width="3" stroke="black" rx="0" ry="0"  stroke-opacity="0.09999999999999999" transform="translate(1, 1)"></rect><rect fill="none" x="84" y="247" width="8" height="0" stroke-width="1" stroke="black" rx="0" ry="0"  stroke-opacity="0.15" transform="translate(1, 1)"></rect><rect fill="#AA4643" x="84" y="247" width="8" height="0" stroke-width="0.000001" stroke="#AA4643" rx="0" ry="0"></rect><rect fill="none" x="119" y="246" width="8" height="1" stroke-width="5" stroke="black" rx="0" ry="0"  stroke-opacity="0.049999999999999996" transform="translate(1, 1)"></rect><rect fill="none" x="119" y="246" width="8" height="1" stroke-width="3" stroke="black" rx="0" ry="0"  stroke-opacity="0.09999999999999999" transform="translate(1, 1)"></rect><rect fill="none" x="119" y="246" width="8" height="1" stroke-width="1" stroke="black" rx="0" ry="0"  stroke-opacity="0.15" transform="translate(1, 1)"></rect><rect fill="#AA4643" x="119" y="246" width="8" height="1" stroke-width="0.000001" stroke="#AA4643" rx="0" ry="0"></rect><rect fill="none" x="137" y="238" width="8" height="9" stroke-width="5" stroke="black" rx="0" ry="0"  stroke-opacity="0.049999999999999996" transform="translate(1, 1)"></rect><rect fill="none" x="137" y="238" width="8" height="9" stroke-width="3" stroke="black" rx="0" ry="0"  stroke-opacity="0.09999999999999999" transform="translate(1, 1)"></rect><rect fill="none" x="137" y="238" width="8" height="9" stroke-width="1" stroke="black" rx="0" ry="0"  stroke-opacity="0.15" transform="translate(1, 1)"></rect><rect fill="#AA4643" x="137" y="238" width="8" height="9" stroke-width="0.000001" stroke="#AA4643" rx="0" ry="0"></rect><rect fill="none" x="155" y="233" width="8" height="14" stroke-width="5" stroke="black" rx="0" ry="0"  stroke-opacity="0.049999999999999996" transform="translate(1, 1)"></rect><rect fill="none" x="155" y="233" width="8" height="14" stroke-width="3" stroke="black" rx="0" ry="0"  stroke-opacity="0.09999999999999999" transform="translate(1, 1)"></rect><rect fill="none" x="155" y="233" width="8" height="14" stroke-width="1" stroke="black" rx="0" ry="0"  stroke-opacity="0.15" transform="translate(1, 1)"></rect><rect fill="#AA4643" x="155" y="233" width="8" height="14" stroke-width="0.000001" stroke="#AA4643" rx="0" ry="0"></rect><rect fill="none" x="173" y="226" width="8" height="21" stroke-width="5" stroke="black" rx="0" ry="0"  stroke-opacity="0.049999999999999996" transform="translate(1, 1)"></rect><rect fill="none" x="173" y="226" width="8" height="21" stroke-width="3" stroke="black" rx="0" ry="0"  stroke-opacity="0.09999999999999999" transform="translate(1, 1)"></rect><rect fill="none" x="173" y="226" width="8" height="21" stroke-width="1" stroke="black" rx="0" ry="0"  stroke-opacity="0.15" transform="translate(1, 1)"></rect><rect fill="#AA4643" x="173" y="226" width="8" height="21" stroke-width="0.000001" stroke="#AA4643" rx="0" ry="0"></rect><rect fill="none" x="191" y="229" width="8" height="18" stroke-width="5" stroke="black" rx="0" ry="0"  stroke-opacity="0.049999999999999996" transform="translate(1, 1)"></rect><rect fill="none" x="191" y="229" width="8" height="18" stroke-width="3" stroke="black" rx="0" ry="0"  stroke-opacity="0.09999999999999999" transform="translate(1, 1)"></rect><rect fill="none" x="191" y="229" width="8" height="18" stroke-width="1" stroke="black" rx="0" ry="0"  stroke-opacity="0.15" transform="translate(1, 1)"></rect><rect fill="#AA4643" x="191" y="229" width="8" height="18" stroke-width="0.000001" stroke="#AA4643" rx="0" ry="0"></rect><rect fill="none" x="209" y="214" width="8" height="33" stroke-width="5" stroke="black" rx="0" ry="0"  stroke-opacity="0.049999999999999996" transform="translate(1, 1)"></rect><rect fill="none" x="209" y="214" width="8" height="33" stroke-width="3" stroke="black" rx="0" ry="0"  stroke-opacity="0.09999999999999999" transform="translate(1, 1)"></rect><rect fill="none" x="209" y="214" width="8" height="33" stroke-width="1" stroke="black" rx="0" ry="0"  stroke-opacity="0.15" transform="translate(1, 1)"></rect><rect fill="#AA4643" x="209" y="214" width="8" height="33" stroke-width="0.000001" stroke="#AA4643" rx="0" ry="0"></rect><rect fill="none" x="226" y="210" width="8" height="37" stroke-width="5" stroke="black" rx="0" ry="0"  stroke-opacity="0.049999999999999996" transform="translate(1, 1)"></rect><rect fill="none" x="226" y="210" width="8" height="37" stroke-width="3" stroke="black" rx="0" ry="0"  stroke-opacity="0.09999999999999999" transform="translate(1, 1)"></rect><rect fill="none" x="226" y="210" width="8" height="37" stroke-width="1" stroke="black" rx="0" ry="0"  stroke-opacity="0.15" transform="translate(1, 1)"></rect><rect fill="#AA4643" x="226" y="210" width="8" height="37" stroke-width="0.000001" stroke="#AA4643" rx="0" ry="0"></rect><rect fill="none" x="244" y="198" width="8" height="49" stroke-width="5" stroke="black" rx="0" ry="0"  stroke-opacity="0.049999999999999996" transform="translate(1, 1)"></rect><rect fill="none" x="244" y="198" width="8" height="49" stroke-width="3" stroke="black" rx="0" ry="0"  stroke-opacity="0.09999999999999999" transform="translate(1, 1)"></rect><rect fill="none" x="244" y="198" width="8" height="49" stroke-width="1" stroke="black" rx="0" ry="0"  stroke-opacity="0.15" transform="translate(1, 1)"></rect><rect fill="#AA4643" x="244" y="198" width="8" height="49" stroke-width="0.000001" stroke="#AA4643" rx="0" ry="0"></rect><rect fill="none" x="262" y="185" width="8" height="62" stroke-width="5" stroke="black" rx="0" ry="0"  stroke-opacity="0.049999999999999996" transform="translate(1, 1)"></rect><rect fill="none" x="262" y="185" width="8" height="62" stroke-width="3" stroke="black" rx="0" ry="0"  stroke-opacity="0.09999999999999999" transform="translate(1, 1)"></rect><rect fill="none" x="262" y="185" width="8" height="62" stroke-width="1" stroke="black" rx="0" ry="0"  stroke-opacity="0.15" transform="translate(1, 1)"></rect><rect fill="#AA4643" x="262" y="185" width="8" height="62" stroke-width="0.000001" stroke="#AA4643" rx="0" ry="0"></rect><rect fill="none" x="280" y="147" width="8" height="100" stroke-width="5" stroke="black" rx="0" ry="0"  stroke-opacity="0.049999999999999996" transform="translate(1, 1)"></rect><rect fill="none" x="280" y="147" width="8" height="100" stroke-width="3" stroke="black" rx="0" ry="0"  stroke-opacity="0.09999999999999999" transform="translate(1, 1)"></rect><rect fill="none" x="280" y="147" width="8" height="100" stroke-width="1" stroke="black" rx="0" ry="0"  stroke-opacity="0.15" transform="translate(1, 1)"></rect><rect fill="#AA4643" x="280" y="147" width="8" height="100" stroke-width="0.000001" stroke="#AA4643" rx="0" ry="0"></rect><rect fill="none" x="298" y="163" width="8" height="84" stroke-width="5" stroke="black" rx="0" ry="0"  stroke-opacity="0.049999999999999996" transform="translate(1, 1)"></rect><rect fill="none" x="298" y="163" width="8" height="84" stroke-width="3" stroke="black" rx="0" ry="0"  stroke-opacity="0.09999999999999999" transform="translate(1, 1)"></rect><rect fill="none" x="298" y="163" width="8" height="84" stroke-width="1" stroke="black" rx="0" ry="0"  stroke-opacity="0.15" transform="translate(1, 1)"></rect><rect fill="#AA4643" x="298" y="163" width="8" height="84" stroke-width="0.000001" stroke="#AA4643" rx="0" ry="0"></rect><rect fill="none" x="315" y="157" width="8" height="90" stroke-width="5" stroke="black" rx="0" ry="0"  stroke-opacity="0.049999999999999996" transform="translate(1, 1)"></rect><rect fill="none" x="315" y="157" width="8" height="90" stroke-width="3" stroke="black" rx="0" ry="0"  stroke-opacity="0.09999999999999999" transform="translate(1, 1)"></rect><rect fill="none" x="315" y="157" width="8" height="90" stroke-width="1" stroke="black" rx="0" ry="0"  stroke-opacity="0.15" transform="translate(1, 1)"></rect><rect fill="#AA4643" x="315" y="157" width="8" height="90" stroke-width="0.000001" stroke="#AA4643" rx="0" ry="0"></rect><rect fill="none" x="333" y="149" width="8" height="98" stroke-width="5" stroke="black" rx="0" ry="0"  stroke-opacity="0.049999999999999996" transform="translate(1, 1)"></rect><rect fill="none" x="333" y="149" width="8" height="98" stroke-width="3" stroke="black" rx="0" ry="0"  stroke-opacity="0.09999999999999999" transform="translate(1, 1)"></rect><rect fill="none" x="333" y="149" width="8" height="98" stroke-width="1" stroke="black" rx="0" ry="0"  stroke-opacity="0.15" transform="translate(1, 1)"></rect><rect fill="#AA4643" x="333" y="149" width="8" height="98" stroke-width="0.000001" stroke="#AA4643" rx="0" ry="0"></rect><rect fill="none" x="351" y="166" width="8" height="81" stroke-width="5" stroke="black" rx="0" ry="0"  stroke-opacity="0.049999999999999996" transform="translate(1, 1)"></rect><rect fill="none" x="351" y="166" width="8" height="81" stroke-width="3" stroke="black" rx="0" ry="0"  stroke-opacity="0.09999999999999999" transform="translate(1, 1)"></rect><rect fill="none" x="351" y="166" width="8" height="81" stroke-width="1" stroke="black" rx="0" ry="0"  stroke-opacity="0.15" transform="translate(1, 1)"></rect><rect fill="#AA4643" x="351" y="166" width="8" height="81" stroke-width="0.000001" stroke="#AA4643" rx="0" ry="0"></rect><rect fill="none" x="369" y="177" width="8" height="70" stroke-width="5" stroke="black" rx="0" ry="0"  stroke-opacity="0.049999999999999996" transform="translate(1, 1)"></rect><rect fill="none" x="369" y="177" width="8" height="70" stroke-width="3" stroke="black" rx="0" ry="0"  stroke-opacity="0.09999999999999999" transform="translate(1, 1)"></rect><rect fill="none" x="369" y="177" width="8" height="70" stroke-width="1" stroke="black" rx="0" ry="0"  stroke-opacity="0.15" transform="translate(1, 1)"></rect><rect fill="#AA4643" x="369" y="177" width="8" height="70" stroke-width="0.000001" stroke="#AA4643" rx="0" ry="0"></rect><rect fill="none" x="387" y="47" width="8" height="200" stroke-width="5" stroke="black" rx="0" ry="0"  stroke-opacity="0.049999999999999996" transform="translate(1, 1)"></rect><rect fill="none" x="387" y="47" width="8" height="200" stroke-width="3" stroke="black" rx="0" ry="0"  stroke-opacity="0.09999999999999999" transform="translate(1, 1)"></rect><rect fill="none" x="387" y="47" width="8" height="200" stroke-width="1" stroke="black" rx="0" ry="0"  stroke-opacity="0.15" transform="translate(1, 1)"></rect><rect fill="#AA4643" x="387" y="47" width="8" height="200" stroke-width="0.000001" stroke="#AA4643" rx="0" ry="0"></rect><rect fill="none" x="405" y="238" width="8" height="9" stroke-width="5" stroke="black" rx="0" ry="0"  stroke-opacity="0.049999999999999996" transform="translate(1, 1)"></rect><rect fill="none" x="405" y="238" width="8" height="9" stroke-width="3" stroke="black" rx="0" ry="0"  stroke-opacity="0.09999999999999999" transform="translate(1, 1)"></rect><rect fill="none" x="405" y="238" width="8" height="9" stroke-width="1" stroke="black" rx="0" ry="0"  stroke-opacity="0.15" transform="translate(1, 1)"></rect><rect fill="#AA4643" x="405" y="238" width="8" height="9" stroke-width="0.000001" stroke="#AA4643" rx="0" ry="0"></rect></g><g class="highcharts-markers" visibility="visible"  transform="translate(89,40)" clip-path="none"></g></g><g class="highcharts-legend"  transform="translate(156,352)"><rect rx="5" ry="5" fill="none" x="0.5" y="0.5" width="204" height="32" stroke-width="1" stroke="#909090" visibility="visible"></rect><g  clip-path="url(#highcharts-6)"><g><g class="highcharts-legend-item"  transform="translate(8,3)"><text x="21" y="21" style="font-family:'lucida grande', 'lucida sans unicode', verdana, arial, helvetica, sans-serif;font-size:18px;cursor:pointer;color:#3e576f;fill:#3e576f;" text-anchor="start" ><tspan x="21">Correct</tspan></text><rect rx="2" ry="2" fill="#4572A7" x="0" y="10" width="16" height="12" stroke-width="0.000001"  stroke="#4572A7"></rect></g><g class="highcharts-legend-item"  transform="translate(100,3)"><text x="21" y="21" style="font-family:'lucida grande', 'lucida sans unicode', verdana, arial, helvetica, sans-serif;font-size:18px;cursor:pointer;color:#3e576f;fill:#3e576f;" text-anchor="start" ><tspan x="21">Incorrect</tspan></text><rect rx="2" ry="2" fill="#AA4643" x="0" y="10" width="16" height="12" stroke-width="0.000001"  stroke="#AA4643"></rect></g></g></g></g><g class="highcharts-axis-labels" ><text x="101.839590443686" y="307" style="font-family:'lucida grande', 'lucida sans unicode', verdana, arial, helvetica, sans-serif;font-size:18px;color:#666;line-height:14px;fill:#666;" text-anchor="middle" visibility="visible"><tspan x="101.839590443686">5</tspan></text><text x="191.0034129692833" y="307" style="font-family:'lucida grande', 'lucida sans unicode', verdana, arial, helvetica, sans-serif;font-size:18px;color:#666;line-height:14px;fill:#666;" text-anchor="middle" visibility="visible"><tspan x="191.0034129692833">10</tspan></text><text x="280.1672354948806" y="307" style="font-family:'lucida grande', 'lucida sans unicode', verdana, arial, helvetica, sans-serif;font-size:18px;color:#666;line-height:14px;fill:#666;" text-anchor="middle" visibility="visible"><tspan x="280.1672354948806">15</tspan></text><text x="369.3310580204778" y="307" style="font-family:'lucida grande', 'lucida sans unicode', verdana, arial, helvetica, sans-serif;font-size:18px;color:#666;line-height:14px;fill:#666;" text-anchor="middle" visibility="visible"><tspan x="369.3310580204778">20</tspan></text><text x="458.49488054607514" y="307" style="font-family:'lucida grande', 'lucida sans unicode', verdana, arial, helvetica, sans-serif;font-size:18px;color:#666;line-height:14px;fill:#666;" text-anchor="middle" visibility="visible"><tspan x="458.49488054607514">25</tspan></text></g><g class="highcharts-axis-labels" ><text x="81" y="288.6" style="font-family:'lucida grande', 'lucida sans unicode', verdana, arial, helvetica, sans-serif;font-size:18px;width:189px;color:#666;line-height:14px;fill:#666;" text-anchor="end" visibility="visible"><tspan x="81">0</tspan></text><text x="81" y="206.26666666666662" style="font-family:'lucida grande', 'lucida sans unicode', verdana, arial, helvetica, sans-serif;font-size:18px;width:189px;color:#666;line-height:14px;fill:#666;" text-anchor="end" visibility="visible"><tspan x="81">100</tspan></text><text x="81" y="123.93333333333331" style="font-family:'lucida grande', 'lucida sans unicode', verdana, arial, helvetica, sans-serif;font-size:18px;width:189px;color:#666;line-height:14px;fill:#666;" text-anchor="end" visibility="visible"><tspan x="81">200</tspan></text><text x="81" y="41.6" style="font-family:'lucida grande', 'lucida sans unicode', verdana, arial, helvetica, sans-serif;font-size:18px;width:189px;color:#666;line-height:14px;fill:#666;" text-anchor="end" visibility="visible"><tspan x="81">300</tspan></text></g><g class="highcharts-tooltip"  style="padding:0;white-space:nowrap;" visibility="hidden"><rect rx="5" ry="5" fill="none" x="0" y="0" width="10" height="10" stroke-width="5" fill-opacity="0.85"  stroke="black" stroke-opacity="0.049999999999999996" transform="translate(1, 1)"></rect><rect rx="5" ry="5" fill="none" x="0" y="0" width="10" height="10" stroke-width="3" fill-opacity="0.85"  stroke="black" stroke-opacity="0.09999999999999999" transform="translate(1, 1)"></rect><rect rx="5" ry="5" fill="none" x="0" y="0" width="10" height="10" stroke-width="1" fill-opacity="0.85"  stroke="black" stroke-opacity="0.15" transform="translate(1, 1)"></rect><rect rx="5" ry="5" fill="rgb(255,255,255)" x="0" y="0" width="10" height="10" stroke-width="2" fill-opacity="0.85"></rect><text x="5" y="18" style="font-family:'lucida grande', 'lucida sans unicode', verdana, arial, helvetica, sans-serif;font-size:12px;color:#333333;fill:#333333;" ></text></g><g class="highcharts-tracker" ><g visibility="visible"  transform="translate(89,40)" clip-path="url(#highcharts-7)"><rect fill="rgb(192,192,192)" x="5" y="244" width="8" height="6"  fill-opacity="0.000001" visibility="visible" style=""></rect><rect fill="rgb(192,192,192)" x="23" y="243" width="8" height="6"  fill-opacity="0.000001" visibility="visible" style=""></rect><rect fill="rgb(192,192,192)" x="59" y="244" width="8" height="6"  fill-opacity="0.000001" visibility="visible" style=""></rect><rect fill="rgb(192,192,192)" x="77" y="243" width="8" height="4"  fill-opacity="0.000001" visibility="visible" style=""></rect><rect fill="rgb(192,192,192)" x="94" y="240" width="8" height="7"  fill-opacity="0.000001" visibility="visible" style=""></rect><rect fill="rgb(192,192,192)" x="112" y="238" width="8" height="9"  fill-opacity="0.000001" visibility="visible" style=""></rect><rect fill="rgb(192,192,192)" x="130" y="236" width="8" height="11"  fill-opacity="0.000001" visibility="visible" style=""></rect><rect fill="rgb(192,192,192)" x="148" y="229" width="8" height="18"  fill-opacity="0.000001" visibility="visible" style=""></rect><rect fill="rgb(192,192,192)" x="166" y="225" width="8" height="22"  fill-opacity="0.000001" visibility="visible" style=""></rect><rect fill="rgb(192,192,192)" x="184" y="213" width="8" height="34"  fill-opacity="0.000001" visibility="visible" style=""></rect><rect fill="rgb(192,192,192)" x="201" y="210" width="8" height="37"  fill-opacity="0.000001" visibility="visible" style=""></rect><rect fill="rgb(192,192,192)" x="219" y="162" width="8" height="85"  fill-opacity="0.000001" visibility="visible" style=""></rect><rect fill="rgb(192,192,192)" x="237" y="159" width="8" height="88"  fill-opacity="0.000001" visibility="visible" style=""></rect><rect fill="rgb(192,192,192)" x="255" y="117" width="8" height="130"  fill-opacity="0.000001" visibility="visible" style=""></rect><rect fill="rgb(192,192,192)" x="273" y="19" width="8" height="228"  fill-opacity="0.000001" visibility="visible" style=""></rect><rect fill="rgb(192,192,192)" x="291" y="84" width="8" height="163"  fill-opacity="0.000001" visibility="visible" style=""></rect><rect fill="rgb(192,192,192)" x="308" y="79" width="8" height="168"  fill-opacity="0.000001" visibility="visible" style=""></rect><rect fill="rgb(192,192,192)" x="326" y="107" width="8" height="140"  fill-opacity="0.000001" visibility="visible" style=""></rect><rect fill="rgb(192,192,192)" x="344" y="133" width="8" height="114"  fill-opacity="0.000001" visibility="visible" style=""></rect><rect fill="rgb(192,192,192)" x="362" y="214" width="8" height="33"  fill-opacity="0.000001" visibility="visible" style=""></rect><rect fill="rgb(192,192,192)" x="380" y="129" width="8" height="118"  fill-opacity="0.000001" visibility="visible" style=""></rect><rect fill="rgb(192,192,192)" x="398" y="243" width="8" height="4"  fill-opacity="0.000001" visibility="visible" style=""></rect></g><g visibility="visible"  transform="translate(89,40)" clip-path="url(#highcharts-7)"><rect fill="rgb(192,192,192)" x="12" y="243" width="8" height="6"  fill-opacity="0.000001" visibility="visible" style=""></rect><rect fill="rgb(192,192,192)" x="48" y="243" width="8" height="6"  fill-opacity="0.000001" visibility="visible" style=""></rect><rect fill="rgb(192,192,192)" x="66" y="242" width="8" height="6"  fill-opacity="0.000001" visibility="visible" style=""></rect><rect fill="rgb(192,192,192)" x="84" y="244" width="8" height="6"  fill-opacity="0.000001" visibility="visible" style=""></rect><rect fill="rgb(192,192,192)" x="119" y="243" width="8" height="6"  fill-opacity="0.000001" visibility="visible" style=""></rect><rect fill="rgb(192,192,192)" x="137" y="238" width="8" height="9"  fill-opacity="0.000001" visibility="visible" style=""></rect><rect fill="rgb(192,192,192)" x="155" y="233" width="8" height="14"  fill-opacity="0.000001" visibility="visible" style=""></rect><rect fill="rgb(192,192,192)" x="173" y="226" width="8" height="21"  fill-opacity="0.000001" visibility="visible" style=""></rect><rect fill="rgb(192,192,192)" x="191" y="229" width="8" height="18"  fill-opacity="0.000001" visibility="visible" style=""></rect><rect fill="rgb(192,192,192)" x="209" y="214" width="8" height="33"  fill-opacity="0.000001" visibility="visible" style=""></rect><rect fill="rgb(192,192,192)" x="226" y="210" width="8" height="37"  fill-opacity="0.000001" visibility="visible" style=""></rect><rect fill="rgb(192,192,192)" x="244" y="198" width="8" height="49"  fill-opacity="0.000001" visibility="visible" style=""></rect><rect fill="rgb(192,192,192)" x="262" y="185" width="8" height="62"  fill-opacity="0.000001" visibility="visible" style=""></rect><rect fill="rgb(192,192,192)" x="280" y="147" width="8" height="100"  fill-opacity="0.000001" visibility="visible" style=""></rect><rect fill="rgb(192,192,192)" x="298" y="163" width="8" height="84"  fill-opacity="0.000001" visibility="visible" style=""></rect><rect fill="rgb(192,192,192)" x="315" y="157" width="8" height="90"  fill-opacity="0.000001" visibility="visible" style=""></rect><rect fill="rgb(192,192,192)" x="333" y="149" width="8" height="98"  fill-opacity="0.000001" visibility="visible" style=""></rect><rect fill="rgb(192,192,192)" x="351" y="166" width="8" height="81"  fill-opacity="0.000001" visibility="visible" style=""></rect><rect fill="rgb(192,192,192)" x="369" y="177" width="8" height="70"  fill-opacity="0.000001" visibility="visible" style=""></rect><rect fill="rgb(192,192,192)" x="387" y="47" width="8" height="200"  fill-opacity="0.000001" visibility="visible" style=""></rect><rect fill="rgb(192,192,192)" x="405" y="238" width="8" height="9"  fill-opacity="0.000001" visibility="visible" style=""></rect></g></g></svg>