<?xml version="1.0" encoding="utf-8"?>
<svg contentScriptType="text/ecmascript" xmlns:xlink="http://www.w3.org/1999/xlink" zoomAndPan="magnify" contentStyleType="text/css" viewBox="363.0 222.0 270.0 160.000748" xmlns:cacoo="http://cacoo.com/" preserveAspectRatio="xMidYMin meet" xmlns="http://www.w3.org/2000/svg" version="1.1"><defs><radialGradient xmlns:xlink="http://www.w3.org/1999/xlink" xlink:type="simple" r="75%" xlink:actuate="onLoad" cx="50%" id="id1" cy="50%" xlink:show="other"><stop stop-opacity="1.0" stop-color="#e6e6e6" offset="0%"/><stop stop-opacity="1.0" stop-color="#aaaaaa" offset="100%"/></radialGradient><linearGradient xlink:actuate="onLoad" xlink:type="simple" id="id2" xlink:show="other" xmlns:xlink="http://www.w3.org/1999/xlink"><stop stop-opacity="1.0" stop-color="#a45a0b" offset="0%"/><stop stop-opacity="1.0" stop-color="#6b3721" offset="100%"/></linearGradient><radialGradient xmlns:xlink="http://www.w3.org/1999/xlink" xlink:type="simple" r="75%" xlink:actuate="onLoad" cx="50%" id="id3" cy="50%" xlink:show="other"><stop stop-opacity="1.0" stop-color="#a45a0b" offset="0%"/><stop stop-opacity="1.0" stop-color="#6b3721" offset="100%"/></radialGradient><radialGradient xmlns:xlink="http://www.w3.org/1999/xlink" xlink:type="simple" r="75%" xlink:actuate="onLoad" cx="50%" id="id4" cy="50%" xlink:show="other"><stop stop-opacity="1.0" stop-color="#a45a0b" offset="0%"/><stop stop-opacity="1.0" stop-color="#6b3721" offset="100%"/></radialGradient><radialGradient xmlns:xlink="http://www.w3.org/1999/xlink" xlink:type="simple" r="75%" xlink:actuate="onLoad" cx="50%" id="id5" cy="50%" xlink:show="other"><stop stop-opacity="1.0" stop-color="#a45a0b" offset="0%"/><stop stop-opacity="1.0" stop-color="#6b3721" offset="100%"/></radialGradient><radialGradient xmlns:xlink="http://www.w3.org/1999/xlink" xlink:type="simple" r="75%" xlink:actuate="onLoad" cx="50%" id="id6" cy="50%" xlink:show="other"><stop stop-opacity="1.0" stop-color="#5c5c5c" offset="0%"/><stop stop-opacity="1.0" stop-color="#333333" offset="100%"/></radialGradient><radialGradient xmlns:xlink="http://www.w3.org/1999/xlink" xlink:type="simple" r="75%" xlink:actuate="onLoad" cx="50%" id="id7" cy="50%" xlink:show="other"><stop stop-opacity="1.0" stop-color="#b4b4b4" offset="0%"/><stop stop-opacity="1.0" stop-color="#a0a0a0" offset="100%"/></radialGradient><radialGradient xmlns:xlink="http://www.w3.org/1999/xlink" xlink:type="simple" r="75%" xlink:actuate="onLoad" cx="50%" id="id8" cy="50%" xlink:show="other"><stop stop-opacity="1.0" stop-color="#b4b4b4" offset="0%"/><stop stop-opacity="1.0" stop-color="#a0a0a0" offset="100%"/></radialGradient><linearGradient x1="0%" xmlns:xlink="http://www.w3.org/1999/xlink" y1="0%" x2="0%" y2="100%" xlink:type="simple" xlink:actuate="onLoad" id="id9" xlink:show="other"><stop stop-opacity="1.0" stop-color="#eaeae9" offset="0%"/><stop stop-opacity="1.0" stop-color="#ffffff" offset="100%"/></linearGradient><radialGradient xmlns:xlink="http://www.w3.org/1999/xlink" xlink:type="simple" r="75%" xlink:actuate="onLoad" cx="50%" id="id10" cy="50%" xlink:show="other"><stop stop-opacity="1.0" stop-color="#b4b4b4" offset="0%"/><stop stop-opacity="1.0" stop-color="#a0a0a0" offset="100%"/></radialGradient><radialGradient xmlns:xlink="http://www.w3.org/1999/xlink" xlink:type="simple" r="75%" xlink:actuate="onLoad" cx="50%" id="id11" cy="50%" xlink:show="other"><stop stop-opacity="1.0" stop-color="#b4b4b4" offset="0%"/><stop stop-opacity="1.0" stop-color="#a0a0a0" offset="100%"/></radialGradient><radialGradient xmlns:xlink="http://www.w3.org/1999/xlink" xlink:type="simple" r="75%" xlink:actuate="onLoad" cx="50%" id="id12" cy="50%" xlink:show="other"><stop stop-opacity="1.0" stop-color="#fffff0" offset="0%"/><stop stop-opacity="1.0" stop-color="#ffd0a2" offset="100%"/></radialGradient><radialGradient xmlns:xlink="http://www.w3.org/1999/xlink" xlink:type="simple" r="75%" xlink:actuate="onLoad" cx="50%" id="id13" cy="50%" xlink:show="other"><stop stop-opacity="1.0" stop-color="#fffff0" offset="0%"/><stop stop-opacity="1.0" stop-color="#ffd0a2" offset="100%"/></radialGradient><radialGradient xmlns:xlink="http://www.w3.org/1999/xlink" xlink:type="simple" r="75%" xlink:actuate="onLoad" cx="50%" id="id14" cy="50%" xlink:show="other"><stop stop-opacity="1.0" stop-color="#fffff0" offset="0%"/><stop stop-opacity="1.0" stop-color="#ffd0a2" offset="100%"/></radialGradient><radialGradient xmlns:xlink="http://www.w3.org/1999/xlink" xlink:type="simple" r="75%" xlink:actuate="onLoad" cx="50%" id="id15" cy="50%" xlink:show="other"><stop stop-opacity="1.0" stop-color="#fffff0" offset="0%"/><stop stop-opacity="1.0" stop-color="#ffd0a2" offset="100%"/></radialGradient><radialGradient xmlns:xlink="http://www.w3.org/1999/xlink" xlink:type="simple" r="75%" xlink:actuate="onLoad" cx="50%" id="id16" cy="50%" xlink:show="other"><stop stop-opacity="1.0" stop-color="#fffff0" offset="0%"/><stop stop-opacity="1.0" stop-color="#ffd0a2" offset="100%"/></radialGradient><radialGradient xmlns:xlink="http://www.w3.org/1999/xlink" xlink:type="simple" r="75%" xlink:actuate="onLoad" cx="50%" id="id17" cy="50%" xlink:show="other"><stop stop-opacity="1.0" stop-color="#fffff0" offset="0%"/><stop stop-opacity="1.0" stop-color="#ffd0a2" offset="100%"/></radialGradient><radialGradient xmlns:xlink="http://www.w3.org/1999/xlink" xlink:type="simple" r="75%" xlink:actuate="onLoad" cx="50%" id="id18" cy="50%" xlink:show="other"><stop stop-opacity="1.0" stop-color="#2e98c4" offset="0%"/><stop stop-opacity="1.0" stop-color="#1d67ac" offset="100%"/></radialGradient><linearGradient x1="0%" xmlns:xlink="http://www.w3.org/1999/xlink" y1="0%" x2="0%" y2="100%" xlink:type="simple" xlink:actuate="onLoad" id="id19" xlink:show="other"><stop stop-opacity="1.0" stop-color="#eaeae9" offset="0%"/><stop stop-opacity="1.0" stop-color="#ffffff" offset="100%"/></linearGradient><radialGradient xmlns:xlink="http://www.w3.org/1999/xlink" xlink:type="simple" r="75%" xlink:actuate="onLoad" cx="50%" id="id20" cy="50%" xlink:show="other"><stop stop-opacity="1.0" stop-color="#fffff0" offset="0%"/><stop stop-opacity="1.0" stop-color="#ffd0a2" offset="100%"/></radialGradient><radialGradient xmlns:xlink="http://www.w3.org/1999/xlink" xlink:type="simple" r="75%" xlink:actuate="onLoad" cx="50%" id="id21" cy="50%" xlink:show="other"><stop stop-opacity="1.0" stop-color="#f3be58" offset="0%"/><stop stop-opacity="1.0" stop-color="#d27511" offset="100%"/></radialGradient><radialGradient xmlns:xlink="http://www.w3.org/1999/xlink" xlink:type="simple" r="75%" xlink:actuate="onLoad" cx="50%" id="id22" cy="50%" xlink:show="other"><stop stop-opacity="1.0" stop-color="#d95865" offset="0%"/><stop stop-opacity="1.0" stop-color="#d23844" offset="100%"/></radialGradient><radialGradient xmlns:xlink="http://www.w3.org/1999/xlink" xlink:type="simple" r="75%" xlink:actuate="onLoad" cx="50%" id="id23" cy="50%" xlink:show="other"><stop stop-opacity="1.0" stop-color="#d95865" offset="0%"/><stop stop-opacity="1.0" stop-color="#d23844" offset="100%"/></radialGradient><radialGradient xmlns:xlink="http://www.w3.org/1999/xlink" xlink:type="simple" r="75%" xlink:actuate="onLoad" cx="50%" id="id24" cy="50%" xlink:show="other"><stop stop-opacity="1.0" stop-color="#d95865" offset="0%"/><stop stop-opacity="1.0" stop-color="#d23844" offset="100%"/></radialGradient><radialGradient xmlns:xlink="http://www.w3.org/1999/xlink" xlink:type="simple" r="75%" xlink:actuate="onLoad" cx="50%" id="id25" cy="50%" xlink:show="other"><stop stop-opacity="1.0" stop-color="#d95865" offset="0%"/><stop stop-opacity="1.0" stop-color="#d23844" offset="100%"/></radialGradient><radialGradient xmlns:xlink="http://www.w3.org/1999/xlink" xlink:type="simple" r="75%" xlink:actuate="onLoad" cx="50%" id="id26" cy="50%" xlink:show="other"><stop stop-opacity="1.0" stop-color="#fffff0" offset="0%"/><stop stop-opacity="1.0" stop-color="#ffd0a2" offset="100%"/></radialGradient><radialGradient xmlns:xlink="http://www.w3.org/1999/xlink" xlink:type="simple" r="75%" xlink:actuate="onLoad" cx="50%" id="id27" cy="50%" xlink:show="other"><stop stop-opacity="1.0" stop-color="#fffff0" offset="0%"/><stop stop-opacity="1.0" stop-color="#ffd0a2" offset="100%"/></radialGradient><radialGradient xmlns:xlink="http://www.w3.org/1999/xlink" xlink:type="simple" r="75%" xlink:actuate="onLoad" cx="50%" id="id28" cy="50%" xlink:show="other"><stop stop-opacity="1.0" stop-color="#fffff0" offset="0%"/><stop stop-opacity="1.0" stop-color="#ffd0a2" offset="100%"/></radialGradient><radialGradient xmlns:xlink="http://www.w3.org/1999/xlink" xlink:type="simple" r="75%" xlink:actuate="onLoad" cx="50%" id="id29" cy="50%" xlink:show="other"><stop stop-opacity="1.0" stop-color="#d95865" offset="0%"/><stop stop-opacity="1.0" stop-color="#d23844" offset="100%"/></radialGradient><radialGradient xmlns:xlink="http://www.w3.org/1999/xlink" xlink:type="simple" r="75%" xlink:actuate="onLoad" cx="50%" id="id30" cy="50%" xlink:show="other"><stop stop-opacity="1.0" stop-color="#c77935" offset="0%"/><stop stop-opacity="1.0" stop-color="#b84c11" offset="100%"/></radialGradient><radialGradient xmlns:xlink="http://www.w3.org/1999/xlink" xlink:type="simple" r="75%" xlink:actuate="onLoad" cx="50%" id="id31" cy="50%" xlink:show="other"><stop stop-opacity="1.0" stop-color="#c77935" offset="0%"/><stop stop-opacity="1.0" stop-color="#b84c11" offset="100%"/></radialGradient><radialGradient xmlns:xlink="http://www.w3.org/1999/xlink" xlink:type="simple" r="75%" xlink:actuate="onLoad" cx="50%" id="id32" cy="50%" xlink:show="other"><stop stop-opacity="1.0" stop-color="#ffffff" offset="0%"/><stop stop-opacity="1.0" stop-color="#c8c8c8" offset="100%"/></radialGradient><radialGradient xmlns:xlink="http://www.w3.org/1999/xlink" xlink:type="simple" r="75%" xlink:actuate="onLoad" cx="50%" id="id33" cy="50%" xlink:show="other"><stop stop-opacity="1.0" stop-color="#ffffff" offset="0%"/><stop stop-opacity="1.0" stop-color="#c8c8c8" offset="100%"/></radialGradient><radialGradient xmlns:xlink="http://www.w3.org/1999/xlink" xlink:type="simple" r="75%" xlink:actuate="onLoad" cx="50%" id="id34" cy="50%" xlink:show="other"><stop stop-opacity="1.0" stop-color="#ffffff" offset="0%"/><stop stop-opacity="1.0" stop-color="#c8c8c8" offset="100%"/></radialGradient><radialGradient xmlns:xlink="http://www.w3.org/1999/xlink" xlink:type="simple" r="75%" xlink:actuate="onLoad" cx="50%" id="id35" cy="50%" xlink:show="other"><stop stop-opacity="1.0" stop-color="#ffffff" offset="0%"/><stop stop-opacity="1.0" stop-color="#c8c8c8" offset="100%"/></radialGradient><radialGradient xmlns:xlink="http://www.w3.org/1999/xlink" xlink:type="simple" r="75%" xlink:actuate="onLoad" cx="50%" id="id36" cy="50%" xlink:show="other"><stop stop-opacity="1.0" stop-color="#fffff0" offset="0%"/><stop stop-opacity="1.0" stop-color="#ffd0a2" offset="100%"/></radialGradient><radialGradient xmlns:xlink="http://www.w3.org/1999/xlink" xlink:type="simple" r="75%" xlink:actuate="onLoad" cx="50%" id="id37" cy="50%" xlink:show="other"><stop stop-opacity="1.0" stop-color="#fffff0" offset="0%"/><stop stop-opacity="1.0" stop-color="#ffd0a2" offset="100%"/></radialGradient><radialGradient xmlns:xlink="http://www.w3.org/1999/xlink" xlink:type="simple" r="75%" xlink:actuate="onLoad" cx="50%" id="id38" cy="50%" xlink:show="other"><stop stop-opacity="1.0" stop-color="#fffff0" offset="0%"/><stop stop-opacity="1.0" stop-color="#ffd0a2" offset="100%"/></radialGradient><radialGradient xmlns:xlink="http://www.w3.org/1999/xlink" xlink:type="simple" r="75%" xlink:actuate="onLoad" cx="50%" id="id39" cy="50%" xlink:show="other"><stop stop-opacity="1.0" stop-color="#c77935" offset="0%"/><stop stop-opacity="1.0" stop-color="#b84c11" offset="100%"/></radialGradient><radialGradient xmlns:xlink="http://www.w3.org/1999/xlink" xlink:type="simple" r="75%" xlink:actuate="onLoad" cx="50%" id="id40" cy="50%" xlink:show="other"><stop stop-opacity="1.0" stop-color="#c77935" offset="0%"/><stop stop-opacity="1.0" stop-color="#b84c11" offset="100%"/></radialGradient><radialGradient xmlns:xlink="http://www.w3.org/1999/xlink" xlink:type="simple" r="75%" xlink:actuate="onLoad" cx="50%" id="id41" cy="50%" xlink:show="other"><stop stop-opacity="1.0" stop-color="#c77935" offset="0%"/><stop stop-opacity="1.0" stop-color="#b84c11" offset="100%"/></radialGradient><radialGradient xmlns:xlink="http://www.w3.org/1999/xlink" xlink:type="simple" r="75%" xlink:actuate="onLoad" cx="50%" id="id42" cy="50%" xlink:show="other"><stop stop-opacity="1.0" stop-color="#c77935" offset="0%"/><stop stop-opacity="1.0" stop-color="#b84c11" offset="100%"/></radialGradient><radialGradient xmlns:xlink="http://www.w3.org/1999/xlink" xlink:type="simple" r="75%" xlink:actuate="onLoad" cx="50%" id="id43" cy="50%" xlink:show="other"><stop stop-opacity="1.0" stop-color="#c77935" offset="0%"/><stop stop-opacity="1.0" stop-color="#b84c11" offset="100%"/></radialGradient><marker refX="0.0" refY="7.0" markerUnits="userSpaceOnUse" orient="auto" id="id44" markerHeight="14.0" viewBox="0 0 14.0 14.0" preserveAspectRatio="xMidYMid meet" markerWidth="14.0" overflow="visible"><path fill="#000000" d="M7.0 3.5 L0 7.0 L7.0 10.5z" stroke-width="1.0" stroke-linejoin="round" stroke-linecap="round" stroke="#000000"/></marker><marker refX="14.0" refY="7.0" markerUnits="userSpaceOnUse" orient="auto" id="id45" markerHeight="14.0" viewBox="0 0 14.0 14.0" preserveAspectRatio="xMidYMid meet" markerWidth="14.0" overflow="visible"><path fill="#000000" d="M7.0 3.5 L14.0 7.0 L7.0 10.5z" stroke-width="1.0" stroke-linejoin="round" stroke-linecap="round" stroke="#000000"/></marker><marker refX="0.0" refY="7.0" markerUnits="userSpaceOnUse" orient="auto" id="id46" markerHeight="14.0" viewBox="0 0 14.0 14.0" preserveAspectRatio="xMidYMid meet" markerWidth="14.0" overflow="visible"><path fill="#000000" d="M7.0 3.5 L0 7.0 L7.0 10.5z" stroke-width="1.0" stroke-linejoin="round" stroke-linecap="round" stroke="#000000"/></marker><marker refX="14.0" refY="7.0" markerUnits="userSpaceOnUse" orient="auto" id="id47" markerHeight="14.0" viewBox="0 0 14.0 14.0" preserveAspectRatio="xMidYMid meet" markerWidth="14.0" overflow="visible"><path fill="#000000" d="M7.0 3.5 L14.0 7.0 L7.0 10.5z" stroke-width="1.0" stroke-linejoin="round" stroke-linecap="round" stroke="#000000"/></marker><marker refX="0.0" refY="7.0" markerUnits="userSpaceOnUse" orient="auto" id="id48" markerHeight="14.0" viewBox="0 0 14.0 14.0" preserveAspectRatio="xMidYMid meet" markerWidth="14.0" overflow="visible"><path fill="#000000" d="M7.0 3.5 L0 7.0 L7.0 10.5z" stroke-width="1.0" stroke-linejoin="round" stroke-linecap="round" stroke="#000000"/></marker><marker refX="14.0" refY="7.0" markerUnits="userSpaceOnUse" orient="auto" id="id49" markerHeight="14.0" viewBox="0 0 14.0 14.0" preserveAspectRatio="xMidYMid meet" markerWidth="14.0" overflow="visible"><path fill="#000000" d="M7.0 3.5 L14.0 7.0 L7.0 10.5z" stroke-width="1.0" stroke-linejoin="round" stroke-linecap="round" stroke="#000000"/></marker><marker refX="0.0" refY="7.0" markerUnits="userSpaceOnUse" orient="auto" id="id50" markerHeight="14.0" viewBox="0 0 14.0 14.0" preserveAspectRatio="xMidYMid meet" markerWidth="14.0" overflow="visible"><path fill="#000000" d="M7.0 3.5 L0 7.0 L7.0 10.5z" stroke-width="1.0" stroke-linejoin="round" stroke-linecap="round" stroke="#000000"/></marker><marker refX="14.0" refY="7.0" markerUnits="userSpaceOnUse" orient="auto" id="id51" markerHeight="14.0" viewBox="0 0 14.0 14.0" preserveAspectRatio="xMidYMid meet" markerWidth="14.0" overflow="visible"><path fill="#000000" d="M7.0 3.5 L14.0 7.0 L7.0 10.5z" stroke-width="1.0" stroke-linejoin="round" stroke-linecap="round" stroke="#000000"/></marker><marker refX="0.0" refY="7.0" markerUnits="userSpaceOnUse" orient="auto" id="id52" markerHeight="14.0" viewBox="0 0 14.0 14.0" preserveAspectRatio="xMidYMid meet" markerWidth="14.0" overflow="visible"><path fill="#000000" d="M7.0 3.5 L0 7.0 L7.0 10.5z" stroke-width="1.0" stroke-linejoin="round" stroke-linecap="round" stroke="#000000"/></marker><marker refX="14.0" refY="7.0" markerUnits="userSpaceOnUse" orient="auto" id="id53" markerHeight="14.0" viewBox="0 0 14.0 14.0" preserveAspectRatio="xMidYMid meet" markerWidth="14.0" overflow="visible"><path fill="#000000" d="M7.0 3.5 L14.0 7.0 L7.0 10.5z" stroke-width="1.0" stroke-linejoin="round" stroke-linecap="round" stroke="#000000"/></marker></defs><g><g transform="translate(378.0 237.0)"><g transform="translate(20.0 0.0)"><path fill="#ffffff" fill-opacity="1.0" d="M182.92189877439094 31.25987433668003 Q189.21213235908834 27.635664676548984 189.21213235908834 22.957968484516304 Q189.21213235908834 17.52962628109818 181.07055595498852 13.690241289643486 Q172.92954503653417 9.851115498642217 161.42072717240453 9.851115498642217 Q161.3889678465731 9.85186463290067 161.35718945942776 9.852613317678566 Q153.2880778169779 3.347131417282443 137.37487969635657 3.347131417282443 Q128.56001638604175 3.347131417282443 121.35384536927111 5.751852386912976 Q113.07569782801342 0.0 98.35002591669868 0.0 Q82.56402076679986 0.0 74.46302272309259 6.433565011584741 Q66.70558262410752 3.3471321664167015 56.567625863193264 3.3471321664167015 Q36.763479860217025 3.3471321664167015 30.313842861203526 12.183919579461369 Q28.669804537930336 12.080539051795013 27.40063872121992 12.080539051795013 Q5.915361078134665 12.080539051795013 5.915361078134665 22.21482730013204 Q5.915361078134665 24.874799287376366 8.714197334760142 27.199566655870846 Q0.0 31.092372411295745 0.0 36.71357173820972 Q0.0 42.14329384693191 8.139181032320629 45.98185928550785 Q16.278362064641257 49.82042472408381 27.79139565602688 49.82042472408381 Q29.2418123296604 49.82042472408381 30.974635076161647 49.72603380751887 Q39.14840286254116 55.9558343008047 54.597956760914265 55.9558343008047 Q65.33697075593156 55.9558343008047 73.32887454645777 52.51131498044296 Q80.79460029762399 60.137501731483084 98.54699282692658 60.137501731483084 Q116.50472971391306 60.137501731483084 123.88900964770006 52.39145649562768 Q131.92979300081927 55.955840293878765 142.89313959904354 55.955840293878765 Q159.7723079238216 55.955840293878765 167.56165666226357 48.86603517015869 Q168.5242530138612 48.89300699999999 168.5210697744411 48.89300699999999 Q190.0031768856488 48.89300699999999 190.0031768856488 38.75871875166297 Q190.0031768856488 34.27798643713096 182.92189877439094 31.25838655604275 L182.92189877439094 31.25987433668003z" stroke-width="1.0" stroke-linejoin="round" stroke="#000000"/><path fill="#ffffff" fill-opacity="1.0" d="M30.949218402528132 49.73952122070803 Q26.809734813650575 46.58189694834449 26.809734813650575 42.85048287963825 Q26.809734813650575 42.23918791636911 26.924103491230124 41.64138138511173" stroke-width="1.0" stroke-linejoin="round" stroke="#000000"/><path fill="#ffffff" fill-opacity="1.0" d="M124.66417292290198 52.74204983031464 Q120.40138950958915 50.99666289730685 117.91964151353518 48.603830688357945" stroke-width="1.0" stroke-linejoin="round" stroke="#000000"/><path fill="#ffffff" fill-opacity="1.0" d="M56.567625863193264 3.347131866762998 Q77.57498553681006 3.347131866762998 83.30429548380623 12.862635217618772" stroke-width="1.0" stroke-linejoin="round" stroke="#000000"/><path fill="#ffffff" fill-opacity="1.0" d="M182.92507883692537 31.25987433668003 Q178.06970694065907 34.0555107924587 170.90691725048904 35.28122703604972" stroke-width="1.0" stroke-linejoin="round" stroke="#000000"/><g transform="translate(26.73031444352788 11.821339112760333)"><clipPath id="id0"><path d="M0 0 L140.8345217705331 0 L140.8345217705331 39.441919850579616 L0 39.441919850579616z"/></clipPath><text font-size="18" clip-path="url(#id0)" text-decoration="none" fill="#000000" font-family="Arial,Arial" font-style="normal" font-weight="normal"><tspan x="18.0" xml:space="preserve" y="15.720959925289808" textLength="110.0">data, papers, </tspan><tspan x="44.0" xml:space="preserve" y="35.720959925289804" textLength="53.0">results</tspan></text></g></g><g transform="translate(100.0 81.618)"><path fill="url(#id1)" d="M7.07 42.689998 Q7.07 36.996596999999994 11.1137503 32.972873 Q15.157652 28.948997 20.880001 28.948997 Q26.603129 28.948997 30.651253 32.973247 Q34.700001 36.998119 34.700001 42.689998 Q34.700001 45.377769 30.382813 46.958811999999995 Q26.497345 48.381747 20.885002 48.381747 Q15.272658 48.381747 11.387188 46.958811999999995 Q7.070001430511501 45.377769 7.070001430511501 42.689998 L7.07 42.689998z" stroke-width="1.0" stroke-linejoin="round" stroke="#999999"/><path fill="url(#id2)" d="M13.0 29.379999660000003 Q13.117500305 29.934374400000003 13.39328098 30.8109365 Q13.94484425 32.5640645 14.7362499 34.1749997 Q15.8442192 36.430314 17.273594 38.079064 Q19.0603104 40.14 21.25 41.129998 Q21.578125 40.895623 22.097656 40.411248 Q23.136719 39.442498 24.09375 38.192498 Q25.433594 36.442498 26.417969 34.3799978 Q27.6484375 31.8018728 28.25 28.87999775 Q26.7890625 28.45031025 24.074219 28.430779 Q21.902344 28.415154 19.03125 28.66124775 Q16.9804688 28.837029 14.7851562 29.1260915 Q13.6875 29.27062275 13.0 29.37999775 L13.0 29.379999660000003z" stroke-width="1.0" stroke-linejoin="round" stroke="#633224"/><path fill="url(#id3)" d="M0.0 20.379998999999998 Q0.0 15.379999 5.0 15.379999 Q10.0 15.379999 10.0 20.379998999999998 Q10.0 25.379998999999998 5.0 25.379998999999998 Q0.0 25.379998999999998 0.0 20.379998999999998 L0.0 20.379998999999998z" stroke-width="1.0" stroke-linejoin="round" stroke="#633224"/><path fill="url(#id4)" d="M30.0 20.379998999999998 Q30.0 15.379999 35.0 15.379999 Q40.0 15.379999 40.0 20.379998999999998 Q40.0 25.379998999999998 35.0 25.379998999999998 Q30.0 25.379998999999998 30.0 20.379998999999998 L30.0 20.379998999999998z" stroke-width="1.0" stroke-linejoin="round" stroke="#633224"/><path fill="url(#id5)" d="M5.0 18.0700007 Q5.0 11.6341437 9.495000000000001 7.082500400000001 Q13.990848 2.5299997 20.35 2.5299997 Q26.709154 2.5299997 31.204998 7.0824997 Q35.7 11.6341447 35.7 18.0700007 Q35.7 24.505852700000002 31.204998 29.0575037 Q26.709156 33.6100017 20.35 33.6100017 Q13.990846 33.6100017 9.495001 29.0575037 Q5.0 24.505856700000002 5.0 18.0700007 L5.0 18.0700007z" stroke-width="1.0" stroke-linejoin="round" stroke="#633224"/><path fill="#633224" fill-opacity="1.0" d="M10.122 27.138 Q10.122 28.125287500000002 13.21575 30.013 Q16.6983893 32.138000000000005 19.872 32.138000000000005 Q23.9345 32.138000000000005 26.8095 30.388 Q28.247 29.513 28.872 28.638 Q28.606375 28.763 28.129812 28.946593800000002 Q27.176688 29.3137812 26.122 29.60675 Q22.747 30.54425 19.622 30.388 Q15.374445 30.178889700000003 10.122 27.138 L10.122 27.138z" stroke="none"/><path fill="#e6e6e6" fill-opacity="1.0" d="M31.0 36.38 Q31.5625 37.4425 32.09375 38.72375 Q33.15625 41.28625 33.0 42.38 Q32.77404 43.96173 30.25 45.22375 Q27.256466 46.720519 23.0 46.38 Q24.082500500000002 46.214999000000006 25.4987507 45.757499 Q28.331249 44.842502 30.0 43.38 Q31.25 42.28625 31.25 39.22375 Q31.25 38.2667188 31.125 37.22765625 Q31.0625 36.708125 31.0 36.38 L31.0 36.38z" stroke="none"/><path fill="url(#id6)" d="M20.35 0.0 Q14.321996 0.0 9.813749999999999 4.13875 Q5.20823845 8.366794 5.09 14.36 Q6.3744253 12.505311 7.284062199999999 11.4106245 Q8.7944725 9.592948 10.4174994 8.315001 Q14.780039 4.88 20.5 4.88 Q27.365692 4.88 30.647625 7.5925007 Q32.105605999999995 8.797515 33.373234 10.870625 Q34.225708 12.264784 35.681 15.33 Q35.828617 9.06195 31.176374 4.49625 Q26.594896 0.0 20.35 0.0 L20.35 0.0z" stroke-width="1.0" stroke-linejoin="round" stroke="#000000"/></g><g transform="translate(50.0 81.043)"><path fill="url(#id7)" d="M6.07 43.265999 Q6.07 37.572598 10.1137503 33.548874 Q14.157652 29.524998 19.880001 29.524998 Q25.603304 29.524998 29.651251000000002 33.548874 Q33.700001 37.573544 33.700001 43.265999 Q33.700001 45.95377 29.382813 47.534813 Q25.497345 48.957747999999995 19.885002 48.957747999999995 Q14.272658 48.957747999999995 10.387188 47.534813 Q6.070001430511501 45.95377 6.070001430511501 43.265999 L6.07 43.265999z" stroke-width="1.0" stroke-linejoin="round" stroke="#5a5a5a"/><path fill="#ffffff" fill-opacity="1.0" d="M20.155001 30.139998907348602 L15.745001 37.601997 L19.929001 44.160995 L24.565001000000002 37.601997 L20.156000300000002 30.139997 L20.155001 30.139998907348602z" stroke-width="1.0" stroke-linejoin="round" stroke="#323232"/><path fill="#b4b4b4" fill-opacity="1.0" d="M30.0 36.955 Q30.5625 38.0175 31.09375 39.29875 Q32.15625 41.86125 32.0 42.955 Q31.77404 44.53673 29.25 45.79875 Q26.256466 47.295514999999995 22.0 46.955 Q23.082500500000002 46.789998999999995 24.4987507 46.332499 Q27.331249 45.417502 29.0 43.955 Q30.25 42.86125 30.25 39.79875 Q30.25 38.841718799999995 30.125 37.80265625 Q30.0625 37.283125 30.0 36.955 L30.0 36.955z" stroke="none"/><path fill="#8bcaea" fill-opacity="1.0" d="M23.209 40.655998 L20.721001299999998 37.2629966 L22.3230005 35.6799964 L19.817 32.626995 L17.78200017 35.452995200000004 L19.3650004 37.2629966 L17.008 40.655998 L20.1749998 44.160999000000004 L23.210999 40.655998 L23.209 40.655998z" stroke-width="1.0" stroke-linejoin="round" stroke="#5a5a5a"/><path fill="url(#id8)" d="M16.4439994507 38.7529994507 L20.0389988 40.2839977 L23.767999000000003 39.017998840000004 L19.839000000000002 44.0119983 L16.443 38.752 L16.4439994507 38.7529994507z" stroke-width="1.0" stroke-linejoin="round" stroke="#5a5a5a"/><path fill="url(#id9)" d="M27.840000000000003 31.955001799999998 L19.92 28.538002 L12.0000002 31.955001799999998 Q11.675482 34.367416399999996 16.75 37.377003 L19.92 34.663002 L23.09 37.377003 Q26.545 35.8926277 27.538 33.775379 Q28.0345 32.716751 27.840000000000003 31.955001799999998 L27.840000000000003 31.955001799999998z" stroke-width="1.0" stroke-linejoin="round" stroke="#5a5a5a"/><path fill="url(#id10)" d="M19.9290005 44.160999000000004 L14.4840011 31.062 L12.1090011 32.174999 L11.0910015 37.375999 L14.4830017 37.715 L13.1260013 39.75 L19.9280015 44.160000000000004 L19.9290005 44.160999000000004z" stroke-width="1.0" stroke-linejoin="round" stroke="#5a5a5a"/><path fill="url(#id11)" d="M20.042999358 44.160999000000004 L25.487999 31.062 L27.8619996 32.174999 L28.879998999999998 37.375999 L25.487999 37.715 L26.843998 39.75 L20.041998 44.160000000000004 L20.042999358 44.160999000000004z" stroke-width="1.0" stroke-linejoin="round" stroke="#5a5a5a"/><path fill="url(#id12)" d="M0.0 20.955 Q0.0 16.955 4.0 16.955 Q8.0 16.955 8.0 20.955 Q8.0 24.955 4.0 24.955 Q0.0 24.955 0.0 20.955 L0.0 20.955z" stroke-width="1.0" stroke-linejoin="round" stroke="#ffd0a2"/><path fill="url(#id13)" d="M31.0 20.955 Q31.0 16.955 35.0 16.955 Q39.0 16.955 39.0 20.955 Q39.0 24.955 35.0 24.955 Q31.0 24.955 31.0 20.955 L31.0 20.955z" stroke-width="1.0" stroke-linejoin="round" stroke="#ffd0a2"/><path fill="url(#id14)" d="M4.0 18.6450015 Q4.0 12.2091445 8.495000000000001 7.6575012000000005 Q12.990848 3.1050005 19.35 3.1050005 Q25.709154 3.1050005 30.205002 7.6575005 Q34.7 12.209142499999999 34.7 18.6450015 Q34.7 25.0809525 30.205002 29.633000499999998 Q25.70906 34.1860015 19.35 34.1860015 Q12.99094 34.1860015 8.494999 29.633000499999998 Q4.0 25.0809525 4.0 18.6450015 L4.0 18.6450015z" stroke-width="1.0" stroke-linejoin="round" stroke="#ffd0a2"/><path fill="#ffc28d" fill-opacity="1.0" d="M9.278999953674301 28.506 Q9.278999953674301 29.4932875 12.37275 31.381 Q15.855388300000001 33.506 19.028999 33.506 Q23.091499 33.506 25.966499 31.756 Q27.403999 30.881 28.028999 30.006 Q27.763374 30.131 27.286811 30.3145938 Q26.333686999999998 30.6817812 25.278999 30.97475 Q21.903999 31.91225 18.778999 31.756 Q14.531444 31.5468897 9.278999 28.506 L9.278999953674301 28.506z" stroke="none"/><path fill="#323232" fill-opacity="1.0" d="M10.0070002 19.271000700000002 Q10.0070002 20.0450009 9.1250002 20.0450009 L4.0560002399999995 20.0450009 Q3.1750002 20.0450009 3.1750002 19.271000700000002 Q3.1750002 18.498 4.0560002399999995 18.498 L9.1250002 18.498 Q10.0070002 18.498 10.0070002 19.271000700000002 L10.0070002 19.271000700000002z" stroke-width="1.0" stroke-linejoin="round" stroke="#323232"/><path fill="#323232" fill-opacity="1.0" d="M36.0950007 19.271000700000002 Q36.0950007 20.0450009 35.212001300000004 20.0450009 L30.1440005 20.0450009 Q29.263 20.0450009 29.263 19.271000700000002 Q29.263 18.498 30.1440005 18.498 L35.212001300000004 18.498 Q36.0950007 18.498 36.0950007 19.271000700000002 L36.0950007 19.271000700000002z" stroke-width="1.0" stroke-linejoin="round" stroke="#323232"/><path fill="#323232" fill-opacity="1.0" d="M22.962999 19.271000700000002 Q22.962999 20.0450009 22.0799994 20.0450009 L17.0120005 20.0450009 Q16.131 20.0450009 16.131 19.271000700000002 Q16.131 18.498 17.0120005 18.498 L22.0800013 18.498 Q22.963000700000002 18.498 22.963000700000002 19.271000700000002 L22.962999 19.271000700000002z" stroke-width="1.0" stroke-linejoin="round" stroke="#323232"/><path fill="#ffffff" fill-opacity="1.0" d="M16.958 20.108 Q16.958 24.619999 12.446 24.619999 Q7.934 24.619999 7.934 20.107998000000002 Q7.934 15.595997 12.446 15.595997 Q16.958 15.595997 16.958 20.107998000000002 L16.958 20.108z" stroke-width="1.0" stroke-linejoin="round" stroke="#323232"/><path fill="#ffffff" fill-opacity="1.0" d="M30.891 20.108 Q30.891 24.619999 26.379001000000002 24.619999 Q21.867 24.619999 21.867 20.107998000000002 Q21.867 15.595997 26.379001000000002 15.595997 Q30.891002 15.595997 30.891002 20.107998000000002 L30.891 20.108z" stroke-width="1.0" stroke-linejoin="round" stroke="#323232"/><path fill="#ffffff" fill-opacity="1.0" d="M19.297000399999998 0.0 Q12.6849384 0.0 7.8341254 4.926875142 Q3.0860004 9.749451642 3.0860004 16.048000642 Q3.0860004 16.375428642 3.145000415 17.134000642 Q3.4480004 17.093000642 3.45000048 17.072000642 Q4.2922792 9.735114642000001 11.6590004 6.325000642 Q13.3507004 9.320000642 19.059000400000002 9.320000642 Q24.9034004 9.320000642 26.5050004 6.226000642 Q34.2898674 9.862672642 35.098000400000004 17.132998642 Q35.5079974 16.335857642 35.5079974 16.046998642 Q35.5079974 9.748607642 30.7601244 4.925874642 Q25.9097254 -0.001001358 19.2990004 -0.001001358 L19.297000399999998 0.0z" stroke-width="1.0" stroke-linejoin="round" stroke="#969696"/><path fill="none" d="M4.271 20.302 Q4.271 27.0055007 4.271 33.709 Q4.271 36.633793 6.558999999999999 37.217499000000004 Q8.916397 37.818909 9.924 34.039001 Q10.1990777 32.984539 10.687999999999999 32.752003" stroke-width="1.0" stroke-linejoin="round" stroke="#323232"/><path fill="#ffffff" fill-opacity="1.0" d="M18.896999 27.148001 Q17.0279155 24.928984 14.439999 27.2620013 Q13.600225 28.018492 13.0208735 29.169127 Q12.8401017 29.528153 12.5703902 30.1626743 Q12.2708707 30.8673175 12.13799906 31.146002 Q11.52199889 32.439003299999996 11.276999 32.360001 Q11.9893117 32.314499 12.9987645 32.1761897 Q15.017671 31.899563 16.5033736 31.4355014 Q21.257625 29.950501 18.896999 27.148001 L18.896999 27.148001z" stroke-width="1.0" stroke-linejoin="round" stroke="#969696"/><path fill="#ffffff" fill-opacity="1.0" d="M20.6229992 27.148001 Q22.4920826 24.928984 25.079998 27.2620013 Q25.9192105 28.018555 26.498749 29.169127 Q26.679695000000002 29.5283645 26.949467 30.1626743 Q27.249365 30.8678153 27.381998 31.146002 Q27.997996999999998 32.439003299999996 28.242998 32.360001 Q27.530685 32.314499 26.521233000000002 32.1761897 Q24.502325 31.899563 23.016622599999998 31.4355014 Q18.262373 29.950501 20.6229973 27.148001 L20.6229992 27.148001z" stroke-width="1.0" stroke-linejoin="round" stroke="#969696"/><path fill="url(#id15)" d="M22.746000000000002 24.969 Q22.746000000000002 28.365000000000002 19.35 28.365000000000002 Q15.954 28.365000000000002 15.954 24.969 Q15.954 21.573 19.35 21.573 Q22.746000000000002 21.573 22.746000000000002 24.969 L22.746000000000002 24.969z" stroke-width="1.0" stroke-linejoin="round" stroke="#ffd0a2"/></g><g transform="translate(150.0 83.618)"><path fill="url(#id16)" d="M2.0 18.379998999999998 Q2.0 14.379999 6.0 14.379999 Q10.0 14.379999 10.0 18.379998999999998 Q10.0 22.379998999999998 6.0 22.379998999999998 Q2.0 22.379998999999998 2.0 18.379998999999998 L2.0 18.379998999999998z" stroke-width="1.0" stroke-linejoin="round" stroke="#ffd0a2"/><path fill="url(#id17)" d="M33.0 18.379998999999998 Q33.0 14.379999 37.0 14.379999 Q41.0 14.379999 41.0 18.379998999999998 Q41.0 22.379998999999998 37.0 22.379998999999998 Q33.0 22.379998999999998 33.0 18.379998999999998 L33.0 18.379998999999998z" stroke-width="1.0" stroke-linejoin="round" stroke="#ffd0a2"/><path fill="url(#id18)" d="M8.07 40.689998 Q8.07 34.996596999999994 12.11375 30.972873 Q16.15765 26.948997 21.880001 26.948997 Q27.603129 26.948997 31.651253 30.973247 Q35.700001 34.998119 35.700001 40.689998 Q35.700001 43.377769 31.382813 44.958811999999995 Q27.497345 46.381747 21.885002 46.381747 Q16.272658 46.381747 12.3871883 44.958811999999995 Q8.070001907348601 43.377769 8.070001907348601 40.689998 L8.07 40.689998z" stroke-width="1.0" stroke-linejoin="round" stroke="#3366cc"/><path fill="#2e98c4" fill-opacity="1.0" d="M32.0 34.38 Q32.5625 35.4425 33.09375 36.72375 Q34.15625 39.28625 34.0 40.38 Q33.77404 41.96173 31.25 43.22375 Q28.256466 44.720519 24.0 44.38 Q25.082500500000002 44.214999000000006 26.4987507 43.757499 Q29.331249 42.842502 31.0 41.38 Q32.25 40.28625 32.25 37.22375 Q32.25 36.2667188 32.125 35.22765625 Q32.0625 34.708125 32.0 34.38 L32.0 34.38z" stroke="none"/><path fill="url(#id19)" d="M29.839999 29.38 L24.93 27.261000499999998 L26.75 23.88 L21.92 25.9630002 L17.09 23.88 L18.910999 27.261000499999998 L13.9999998 29.38 Q14.03047444 29.153454699999998 13.6308439 30.431218 Q13.365546 31.279471299999997 13.59675003 32.05 Q14.30770947 34.419396 19.75 36.879998 L21.92 32.849999 L24.09 36.879998 Q28.077499 35.079999 29.357501 32.049996 Q29.997500000000002 30.534996999999997 29.839999 29.379998 L29.839999 29.38z" stroke-width="1.0" stroke-linejoin="round" stroke="#3366cc"/><path fill="url(#id20)" d="M6.0 16.07000073 Q6.0 9.63414373 10.495000000000001 5.0825004300000005 Q14.990848 0.52999973 21.35 0.52999973 Q27.709154 0.52999973 32.204998 5.08249973 Q36.7 9.634144730000001 36.7 16.07000073 Q36.7 22.50585673 32.204998 27.05749973 Q27.709154 31.61000173 21.35 31.61000173 Q14.990848 31.61000173 10.495001 27.05749973 Q6.0 22.50585673 6.0 16.07000073 L6.0 16.07000073z" stroke-width="1.0" stroke-linejoin="round" stroke="#ffd0a2"/><path fill="#ffc28d" fill-opacity="1.0" d="M11.278999953674301 25.931 Q11.278999953674301 26.9182875 14.37275 28.806 Q17.8553883 30.931 21.028999 30.931 Q25.091499 30.931 27.966499 29.181 Q29.403999 28.306 30.028999 27.431 Q29.763374 27.556 29.286811 27.7395938 Q28.333686999999998 28.1067812 27.278999 28.39975 Q23.903999 29.33725 20.778999 29.181 Q16.531444 28.971889700000002 11.278999 25.931 L11.278999953674301 25.931z" stroke="none"/><path fill="url(#id21)" d="M21.35 0.0 Q15.321996 0.0 10.813749999999999 4.13875 Q6.20823845 8.366794 6.09 14.36 Q7.3085464 14.133979 9.0253123 13.692187 Q11.984415 12.930693 14.729999 11.92 Q18.455391 10.548624 21.342185999999998 8.872812 Q24.901138 6.806808 27.0 4.38 Q27.114374 4.973125 27.40861 5.885625 Q27.997078 7.7106247 28.896376 9.3075 Q30.15539 11.543124 31.856201 13.003125 Q33.982216 14.828124 36.681 15.33 Q36.828617 9.061951 32.176376000000005 4.49625 Q27.594896 0.0 21.35 0.0 L21.35 0.0z" stroke-width="1.0" stroke-linejoin="round" stroke="#cc9933"/><path fill="#d3750f" fill-opacity="1.0" d="M13.0 12.38 Q12.383125 12.684374700000001 11.408906 13.049219 Q9.460468 13.7789058 7.67375 14.08125 Q1.9562511 15.048750000000002 0.0 11.38 Q0.33625 11.496874700000001 0.89531255 11.592187800000001 Q2.0134375 11.782813 3.1275 11.675 Q6.6925 11.329999800000001 8.88 8.13" stroke-width="1.0" stroke-linejoin="round" stroke="#cc9933"/><path fill="none" d="M11.1999998 13.38 L18.799999 13.38 Q20.0 13.38 20.0 14.579999800000001 L20.0 18.18 Q20.0 19.380001 18.799999 19.380001 L11.199998800000001 19.380001 Q9.999999 19.380001 9.999999 18.18 L9.999999 14.579999800000001 Q9.999999 13.38 11.199998800000001 13.38 L11.1999998 13.38z" stroke-width="1.0" stroke-linejoin="round" stroke="#cc3333"/><path fill="none" d="M24.2000007 13.38 L31.799999 13.38 Q33.0 13.38 33.0 14.579999800000001 L33.0 18.18 Q33.0 19.380001 31.799999 19.380001 L24.199998800000003 19.380001 Q22.999998 19.380001 22.999998 18.18 L22.999998 14.579999800000001 Q22.999998 13.38 24.199998800000003 13.38 L24.2000007 13.38z" stroke-width="1.0" stroke-linejoin="round" stroke="#cc3333"/><path fill="#cc3333" fill-opacity="1.0" d="M20.20000076 14.38 L22.8000011 14.38 Q23.000002 14.38 23.000002 14.57999981 Q23.000002 15.38 22.8000011 15.38 L20.20000076 15.38 Q20.0 15.38 20.0 15.1800002 Q20.0 14.38 20.20000076 14.38 L20.20000076 14.38z" stroke-width="1.0" stroke-linejoin="round" stroke="#cc3333"/><path fill="#cc3333" fill-opacity="1.0" d="M33.20000076 16.38 L36.7999992 16.38 Q37.0 16.38 37.0 16.580000759999997 Q37.0 17.3800019 36.7999992 17.3800019 L33.20000076 17.3800019 Q33.0 17.3800019 33.0 17.180001139999998 Q33.0 16.38 33.20000076 16.38 L33.20000076 16.38z" stroke-width="1.0" stroke-linejoin="round" stroke="#cc3333"/><path fill="#cc3333" fill-opacity="1.0" d="M6.19999981 16.38 L9.7999992 16.38 Q9.999998999999999 16.38 9.999998999999999 16.580000759999997 Q9.999998999999999 17.3800019 9.7999992 17.3800019 L6.19999981 17.3800019 Q6.0 17.3800019 6.0 17.180001139999998 Q6.0 16.38 6.19999981 16.38 L6.19999981 16.38z" stroke-width="1.0" stroke-linejoin="round" stroke="#cc3333"/></g><g transform="translate(201.0 81.043)"><path fill="#ffffff" fill-opacity="1.0" d="M9.843999499999999 25.892999999999997 Q9.8175005 25.8955004 9.7909995 25.897999 Q9.5880179 22.017998 5.718999500000001 22.017998 Q1.6249995 22.017998 1.6249995 26.111998 Q1.6249995 30.205998 5.718999500000001 30.205998 Q5.745499499999999 30.203497 5.7719995 30.200999 Q5.974980799999999 34.080998 9.843999499999999 34.080998 Q13.9379995 34.080998 13.9379995 29.986998 Q13.9379995 25.892998 9.843999499999999 25.892998 L9.843999499999999 25.892999999999997z" stroke-width="1.0" stroke-linejoin="round" stroke="#969696"/><path fill="#ffffff" fill-opacity="1.0" d="M29.5939995 25.892999999999997 Q29.6205 25.8955004 29.646999 25.897999 Q29.849981 22.017998 33.718998 22.017998 Q37.812996 22.017998 37.812996 26.111998 Q37.812996 30.205998 33.718993999999995 30.205998 Q33.692493 30.203497 33.665992 30.200999 Q33.4630123 34.080998 29.593992 34.080998 Q25.499992 34.080998 25.499992 29.986998 Q25.499992 25.892998 29.593992 25.892998 L29.5939995 25.892999999999997z" stroke-width="1.0" stroke-linejoin="round" stroke="#969696"/><path fill="url(#id22)" d="M6.07 43.265999 Q6.07 37.572598 10.1137503 33.548874 Q14.157652 29.524998 19.880001 29.524998 Q25.603304 29.524998 29.651251000000002 33.548874 Q33.700001 37.573544 33.700001 43.265999 Q33.700001 45.95377 29.382813 47.534813 Q25.497345 48.957747999999995 19.885002 48.957747999999995 Q14.272658 48.957747999999995 10.387188 47.534813 Q6.070001430511501 45.95377 6.070001430511501 43.265999 L6.07 43.265999z" stroke-width="1.0" stroke-linejoin="round" stroke="#7e2b38"/><path fill="#ffd0a2" fill-opacity="1.0" d="M27.938 32.705002 Q27.938 37.205002 19.844 37.205002 Q11.75 37.205002 11.75 32.705002 Q11.75 28.205002 19.844 28.205002 Q27.938 28.205002 27.938 32.705002 L27.938 32.705002z" stroke-width="1.0" stroke-linejoin="round" stroke="#ffbb79"/><path fill="url(#id23)" d="M16.125 36.76799982 L23.375 36.476 L19.625 40.601 L16.125 36.76799982 L16.125 36.76799982z" stroke-width="1.0" stroke-linejoin="round" stroke="#7e2b38"/><path fill="#d95865" fill-opacity="1.0" d="M30.0 36.955 Q30.5625 38.0175 31.09375 39.29875 Q32.15625 41.86125 32.0 42.955 Q31.77404 44.53673 29.25 45.79875 Q26.256466 47.295514999999995 22.0 46.955 Q23.082500500000002 46.789998999999995 24.4987507 46.332499 Q27.331249 45.417502 29.0 43.955 Q30.25 42.86125 30.25 39.79875 Q30.25 38.841718799999995 30.125 37.80265625 Q30.0625 37.283125 30.0 36.955 L30.0 36.955z" stroke="none"/><path fill="url(#id24)" d="M19.625 40.705000999999996 Q19.3125 40.724563 18.809562 40.726547 Q17.803688 40.730518000000004 16.8514993 40.642627 Q13.804500299999999 40.361377 12.437 39.267002 L12.687 37.3920017 L10.062 36.2670017 L9.562 33.1420017 L13.3749997 30.829002 L19.625 40.704002 L19.625 40.705000999999996z" stroke-width="1.0" stroke-linejoin="round" stroke="#7e2b38"/><path fill="url(#id25)" d="M19.625 40.705000999999996 Q19.9375 40.724563 20.4404373 40.726547 Q21.446312 40.730518000000004 22.3985004 40.642627 Q25.4454994 40.361377 26.8129997 39.267002 L26.5629997 37.3920017 L29.188000000000002 36.2670017 L29.688000000000002 33.1420017 L25.875 30.829002 L19.625 40.704002 L19.625 40.705000999999996z" stroke-width="1.0" stroke-linejoin="round" stroke="#7e2b38"/><path fill="url(#id26)" d="M0.0 20.955 Q0.0 16.955 4.0 16.955 Q8.0 16.955 8.0 20.955 Q8.0 24.955 4.0 24.955 Q0.0 24.955 0.0 20.955 L0.0 20.955z" stroke-width="1.0" stroke-linejoin="round" stroke="#ffd0a2"/><path fill="url(#id27)" d="M31.0 20.955 Q31.0 16.955 35.0 16.955 Q39.0 16.955 39.0 20.955 Q39.0 24.955 35.0 24.955 Q31.0 24.955 31.0 20.955 L31.0 20.955z" stroke-width="1.0" stroke-linejoin="round" stroke="#ffd0a2"/><path fill="url(#id28)" d="M4.0 18.6450015 Q4.0 12.2091445 8.495000000000001 7.6575012000000005 Q12.990848 3.1050005 19.35 3.1050005 Q25.709154 3.1050005 30.205002 7.6575005 Q34.7 12.209142499999999 34.7 18.6450015 Q34.7 25.0809525 30.205002 29.633000499999998 Q25.70906 34.1860015 19.35 34.1860015 Q12.99094 34.1860015 8.494999 29.633000499999998 Q4.0 25.0809525 4.0 18.6450015 L4.0 18.6450015z" stroke-width="1.0" stroke-linejoin="round" stroke="#ffd0a2"/><path fill="#ffc28d" fill-opacity="1.0" d="M9.278999953674301 28.506 Q9.278999953674301 29.4932875 12.37275 31.381 Q15.855388300000001 33.506 19.028999 33.506 Q23.091499 33.506 25.966499 31.756 Q27.403999 30.881 28.028999 30.006 Q27.763374 30.131 27.286811 30.3145938 Q26.333686999999998 30.6817812 25.278999 30.97475 Q21.903999 31.91225 18.778999 31.756 Q14.531444 31.5468897 9.278999 28.506 L9.278999953674301 28.506z" stroke="none"/><path fill="#7e2b38" fill-opacity="1.0" d="M10.0070002 19.271000700000002 Q10.0070002 20.0450009 9.1250002 20.0450009 L4.0560002399999995 20.0450009 Q3.1750002 20.0450009 3.1750002 19.271000700000002 Q3.1750002 18.498 4.0560002399999995 18.498 L9.1250002 18.498 Q10.0070002 18.498 10.0070002 19.271000700000002 L10.0070002 19.271000700000002z" stroke-width="1.0" stroke-linejoin="round" stroke="#7e2b38"/><path fill="#7e2b38" fill-opacity="1.0" d="M36.0950007 19.271000700000002 Q36.0950007 20.0450009 35.212001300000004 20.0450009 L30.1440005 20.0450009 Q29.263 20.0450009 29.263 19.271000700000002 Q29.263 18.498 30.1440005 18.498 L35.212001300000004 18.498 Q36.0950007 18.498 36.0950007 19.271000700000002 L36.0950007 19.271000700000002z" stroke-width="1.0" stroke-linejoin="round" stroke="#7e2b38"/><path fill="#7e2b38" fill-opacity="1.0" d="M22.962999 19.271000700000002 Q22.962999 20.0450009 22.0799994 20.0450009 L17.0120005 20.0450009 Q16.131 20.0450009 16.131 19.271000700000002 Q16.131 18.498 17.0120005 18.498 L22.0800013 18.498 Q22.963000700000002 18.498 22.963000700000002 19.271000700000002 L22.962999 19.271000700000002z" stroke-width="1.0" stroke-linejoin="round" stroke="#7e2b38"/><path fill="#ffffff" fill-opacity="1.0" d="M16.958 20.108 Q16.958 24.619999 12.446 24.619999 Q7.934 24.619999 7.934 20.107998000000002 Q7.934 15.595997 12.446 15.595997 Q16.958 15.595997 16.958 20.107998000000002 L16.958 20.108z" stroke-width="1.0" stroke-linejoin="round" stroke="#7e2b38"/><path fill="#ffffff" fill-opacity="1.0" d="M30.891 20.108 Q30.891 24.619999 26.379001000000002 24.619999 Q21.867 24.619999 21.867 20.107998000000002 Q21.867 15.595997 26.379001000000002 15.595997 Q30.891002 15.595997 30.891002 20.107998000000002 L30.891 20.108z" stroke-width="1.0" stroke-linejoin="round" stroke="#7e2b38"/><path fill="#ffffff" fill-opacity="1.0" d="M19.297000399999998 0.0 Q12.6849384 0.0 7.8341254 4.926875142 Q3.0860004 9.749451642 3.0860004 16.048000642 Q3.0860004 16.375428642 3.145000415 17.134000642 Q3.4480004 17.093000642 3.45000048 17.072000642 Q3.8249072600000003 13.806279642 9.6026258 11.662375642 Q14.2646114 9.932479642 17.937000400000002 10.017000642 Q21.6146124 10.101534642 23.9136254 8.837750642 Q25.645889399999998 7.885512342 26.5040014 6.226000342 Q28.7153454 7.4002506420000005 30.6148004 9.371343642 Q32.1343604 10.948218642 33.3863754 12.960500642 Q34.2806774 14.397849642 34.9517684 15.909156642 Q35.287317400000006 16.664811642 35.4440004 17.132998642 Q35.506000400000005 16.335857642 35.506000400000005 16.046998642 Q35.506000400000005 9.748607642 30.7581254 4.925874642 Q25.9077264 -0.001001358 19.297000399999998 -0.001001358 L19.297000399999998 0.0z" stroke-width="1.0" stroke-linejoin="round" stroke="#969696"/><path fill="none" d="M4.271 20.302 Q4.271 27.3785 4.271 34.455002 Q4.271 37.195927 6.634 37.179500000000004 Q9.024181500000001 37.162887999999995 9.924 34.039001 Q10.258915 32.938568000000004 10.75 32.705002" stroke-width="1.0" stroke-linejoin="round" stroke="#7e2b38"/><path fill="url(#id29)" d="M21.5629995 44.0179997 Q21.5629995 45.9559995 19.6249997 45.9559995 Q17.687 45.9559995 17.687 44.0179997 Q17.687 42.08 19.6249997 42.08 Q21.5629995 42.08 21.5629995 44.0179997 L21.5629995 44.0179997z" stroke-width="1.0" stroke-linejoin="round" stroke="#7e2b38"/></g><g transform="translate(0.0 83.618)"><path fill="url(#id30)" d="M23.859 27.2679994 Q23.859 33.123999999999995 29.716000400000002 33.123999999999995 Q35.571 33.123999999999995 35.571 27.2680014 Q35.571 21.411001 29.716000400000002 21.411001 Q23.859 21.411001 23.859 27.2680014 L23.859 27.2679994z" stroke-width="1.0" stroke-linejoin="round" stroke="#974e19"/><path fill="url(#id31)" d="M15.103999799999999 27.2679994 Q15.103999799999999 33.123999999999995 9.2469998 33.123999999999995 Q3.3909998 33.123999999999995 3.3909998 27.2680014 Q3.3909998 21.411001 9.2469998 21.411001 Q15.103999799999999 21.411001 15.103999799999999 27.2680014 L15.103999799999999 27.2679994z" stroke-width="1.0" stroke-linejoin="round" stroke="#974e19"/><path fill="url(#id32)" d="M6.07 40.689998 Q6.07 34.996596999999994 10.1137503 30.972873 Q14.157652 26.948997 19.880001 26.948997 Q25.60313 26.948997 29.651251000000002 30.973247 Q33.700001 34.998123 33.700001 40.689998 Q33.700001 43.377769 29.382813 44.958811999999995 Q25.497345 46.381747 19.885002 46.381747 Q14.272658 46.381747 10.387188 44.958811999999995 Q6.070001430511501 43.377769 6.070001430511501 40.689998 L6.07 40.689998z" stroke-width="1.0" stroke-linejoin="round" stroke="#969696"/><path fill="#ffc28d" fill-opacity="1.0" d="M26.240000000000002 31.0330005 Q26.240000000000002 37.245002 20.0289994 37.245002 Q13.817999 37.245002 13.817999 31.0330024 Q13.817999 24.822002 20.0289994 24.822002 Q26.240000000000002 24.822002 26.240000000000002 31.0330024 L26.240000000000002 31.0330005z" stroke="none"/><path fill="url(#id33)" d="M16.357 35.635 Q16.78400005 35.885 17.452375099999998 36.135 Q18.789125 36.635 19.996 36.635 Q21.202875 36.635 22.507624999999997 36.135 Q23.159999499999998 35.885 23.5710007 35.635 L19.8670002 41.427999299999996 L16.357 35.635 L16.357 35.635z" stroke-width="1.0" stroke-linejoin="round" stroke="#969696"/><path fill="#eaeae9" fill-opacity="1.0" d="M30.0 34.38 Q30.5625 35.4425 31.09375 36.72375 Q32.15625 39.28625 32.0 40.38 Q31.77404 41.96173 29.25 43.22375 Q26.256466 44.720519 22.0 44.38 Q23.082500500000002 44.214999000000006 24.4987507 43.757499 Q27.331249 42.842502 29.0 41.38 Q30.25 40.28625 30.25 37.22375 Q30.25 36.2667188 30.125 35.22765625 Q30.0625 34.708125 30.0 34.38 L30.0 34.38z" stroke="none"/><path fill="url(#id34)" d="M19.9290005 41.585999 L14.4840011 28.487 L12.1090011 29.600000899999998 L11.0910015 34.801002999999994 L14.4830017 35.1400037 L13.1260013 37.175004 L19.9280015 41.585003 L19.9290005 41.585999z" stroke-width="1.0" stroke-linejoin="round" stroke="#969696"/><path fill="url(#id35)" d="M20.042999358 41.585999 L25.487999 28.487 L27.8619996 29.600000899999998 L28.879998999999998 34.801002999999994 L25.487999 35.1400037 L26.843998 37.175004 L20.041998 41.585003 L20.042999358 41.585999z" stroke-width="1.0" stroke-linejoin="round" stroke="#969696"/><path fill="url(#id36)" d="M0.0 18.379998999999998 Q0.0 14.379999 4.0 14.379999 Q8.0 14.379999 8.0 18.379998999999998 Q8.0 22.379998999999998 4.0 22.379998999999998 Q0.0 22.379998999999998 0.0 18.379998999999998 L0.0 18.379998999999998z" stroke-width="1.0" stroke-linejoin="round" stroke="#ffd0a2"/><path fill="url(#id37)" d="M31.0 18.379998999999998 Q31.0 14.379999 35.0 14.379999 Q39.0 14.379999 39.0 18.379998999999998 Q39.0 22.379998999999998 35.0 22.379998999999998 Q31.0 22.379998999999998 31.0 18.379998999999998 L31.0 18.379998999999998z" stroke-width="1.0" stroke-linejoin="round" stroke="#ffd0a2"/><path fill="url(#id38)" d="M4.0 16.07000073 Q4.0 9.63414373 8.495000000000001 5.0825004300000005 Q12.990848 0.52999973 19.35 0.52999973 Q25.709154 0.52999973 30.205002 5.08249973 Q34.7 9.63414073 34.7 16.07000073 Q34.7 22.50585673 30.204998 27.05749973 Q25.709154 31.61000173 19.35 31.61000173 Q12.990848 31.61000173 8.495001 27.05749973 Q4.0 22.50585673 4.0 16.07000073 L4.0 16.07000073z" stroke-width="1.0" stroke-linejoin="round" stroke="#ffd0a2"/><path fill="url(#id39)" d="M13.946999600000002 32.9329987 Q13.946999600000002 36.343998 10.5349999 36.343998 Q7.1239996 36.343998 7.1239996 32.9329987 Q7.1239996 29.520998 10.5349999 29.520998 Q13.946999600000002 29.520998 13.946999600000002 32.9329987 L13.946999600000002 32.9329987z" stroke-width="1.0" stroke-linejoin="round" stroke="#974e19"/><path fill="url(#id40)" d="M15.3610005 36.0859983 Q15.3610005 38.5959966 12.8510002 38.5959966 Q10.341 38.5959966 10.341 36.0859983 Q10.341 33.576 12.8510002 33.576 Q15.3610005 33.576 15.3610005 36.0859983 L15.3610005 36.0859983z" stroke-width="1.0" stroke-linejoin="round" stroke="#974e19"/><path fill="#ffc28d" fill-opacity="1.0" d="M9.278999953674301 25.931 Q9.278999953674301 26.9182875 12.37275 28.806 Q15.855388300000001 30.931 19.028999 30.931 Q23.091499 30.931 25.966499 29.181 Q27.403999 28.306 28.028999 27.431 Q27.763374 27.556 27.286811 27.7395938 Q26.333686999999998 28.1067812 25.278999 28.39975 Q21.903999 29.33725 18.778999 29.181 Q14.531444 28.971889700000002 9.278999 25.931 L9.278999953674301 25.931z" stroke="none"/><path fill="url(#id41)" d="M34.675 14.451 Q34.447285 8.465641 29.876373 4.2093754 Q25.35582 0.0 19.35 0.0 Q13.321996 0.0 8.813749999999999 4.13875 Q4.20823845 8.366794 4.09 14.36 Q5.2416776 14.1458845 15.018248999999999 10.902624 Q19.759922 9.329632 23.088156 8.115828 Q27.150947 6.6341314 28.636 5.856 Q28.791437 6.39325 29.080093 7.199125 Q29.657405999999998 8.810875 30.3235 10.153999 Q32.455002 14.452 34.675 14.452 L34.675 14.451z" stroke-width="1.0" stroke-linejoin="round" stroke="#974e19"/><path fill="url(#id42)" d="M25.789 32.9329987 Q25.789 36.343998 29.1999993 36.343998 Q32.612 36.343998 32.612 32.9329987 Q32.612 29.520998 29.1999993 29.520998 Q25.789 29.520998 25.789 32.9329987 L25.789 32.9329987z" stroke-width="1.0" stroke-linejoin="round" stroke="#974e19"/><path fill="url(#id43)" d="M24.374 36.0859983 Q24.374 38.5959966 26.8840002 38.5959966 Q29.394000499999997 38.5959966 29.394000499999997 36.0859983 Q29.394000499999997 33.576 26.8840002 33.576 Q24.374 33.576 24.374 36.0859983 L24.374 36.0859983z" stroke-width="1.0" stroke-linejoin="round" stroke="#974e19"/><path fill="#ffe6ff" fill-opacity="1.0" d="M5.1669998 23.2250007 Q5.1669998 24.9390014 3.4529997999999997 24.9390014 Q1.7389998 24.9390014 1.7389998 23.2250007 Q1.7389998 21.511 3.4529997999999997 21.511 Q5.1669998 21.511 5.1669998 23.2250007 L5.1669998 23.2250007z" stroke-width="1.0" stroke-linejoin="round" stroke="#f2b1dc"/><path fill="#ffe6ff" fill-opacity="1.0" d="M37.0050014 23.2250007 Q37.0050014 24.9390014 35.2910007 24.9390014 Q33.577 24.9390014 33.577 23.2250007 Q33.577 21.511 35.2910007 21.511 Q37.0050014 21.511 37.0050014 23.2250007 L37.0050014 23.2250007z" stroke-width="1.0" stroke-linejoin="round" stroke="#f2b1dc"/></g><path fill="none" stroke-linejoin="round" d="M29.25 83.618 L83.6397199337689 55.26920902765613" stroke="#000000" marker-start="url(#id44)" stroke-width="1.0" marker-end="url(#id45)"/><path fill="none" stroke-linejoin="round" d="M69.5 81.043 L99.03206948918933 56.54889084874554" stroke="#000000" marker-start="url(#id46)" stroke-width="1.0" marker-end="url(#id47)"/><path fill="none" stroke-linejoin="round" d="M118.41038719041364 81.72970412165847 L116.98396031138827 60.12233240094781" stroke="#000000" marker-start="url(#id48)" stroke-width="1.0" marker-end="url(#id49)"/><path fill="none" stroke-linejoin="round" d="M160.25 83.618 L135.06155931945136 57.80849197151281" stroke="#000000" marker-start="url(#id50)" stroke-width="1.0" marker-end="url(#id51)"/><path fill="none" stroke-linejoin="round" d="M210.75 81.043 L148.60534205744432 54.103530992966114" stroke="#000000" marker-start="url(#id52)" stroke-width="1.0" marker-end="url(#id53)"/></g></g></svg>