<?xml version="1.0" encoding="utf-8"?>
<svg contentScriptType="text/ecmascript" xmlns:xlink="http://www.w3.org/1999/xlink" zoomAndPan="magnify" contentStyleType="text/css" viewBox="336.0 34.9970783368375 347.0 230.00392166316254" xmlns:cacoo="http://cacoo.com/" preserveAspectRatio="xMidYMin meet" xmlns="http://www.w3.org/2000/svg" version="1.1"><defs><radialGradient xmlns:xlink="http://www.w3.org/1999/xlink" xlink:type="simple" r="75%" xlink:actuate="onLoad" cx="50%" id="id1" cy="50%" xlink:show="other"><stop stop-opacity="1.0" stop-color="#787878" offset="0%"/><stop stop-opacity="1.0" stop-color="#505050" offset="100%"/></radialGradient><linearGradient x1="0%" xmlns:xlink="http://www.w3.org/1999/xlink" y1="0%" x2="0%" y2="100%" xlink:type="simple" xlink:actuate="onLoad" id="id2" xlink:show="other"><stop stop-opacity="1.0" stop-color="#eaeae9" offset="0%"/><stop stop-opacity="1.0" stop-color="#ffffff" offset="100%"/></linearGradient><radialGradient xmlns:xlink="http://www.w3.org/1999/xlink" xlink:type="simple" r="75%" xlink:actuate="onLoad" cx="50%" id="id3" cy="50%" xlink:show="other"><stop stop-opacity="1.0" stop-color="#787878" offset="0%"/><stop stop-opacity="1.0" stop-color="#505050" offset="100%"/></radialGradient><radialGradient xmlns:xlink="http://www.w3.org/1999/xlink" xlink:type="simple" r="75%" xlink:actuate="onLoad" cx="50%" id="id4" cy="50%" xlink:show="other"><stop stop-opacity="1.0" stop-color="#787878" offset="0%"/><stop stop-opacity="1.0" stop-color="#505050" offset="100%"/></radialGradient><radialGradient xmlns:xlink="http://www.w3.org/1999/xlink" xlink:type="simple" r="75%" xlink:actuate="onLoad" cx="50%" id="id5" cy="50%" xlink:show="other"><stop stop-opacity="1.0" stop-color="#fffff0" offset="0%"/><stop stop-opacity="1.0" stop-color="#ffd0a2" offset="100%"/></radialGradient><radialGradient xmlns:xlink="http://www.w3.org/1999/xlink" xlink:type="simple" r="75%" xlink:actuate="onLoad" cx="50%" id="id6" cy="50%" xlink:show="other"><stop stop-opacity="1.0" stop-color="#fffff0" offset="0%"/><stop stop-opacity="1.0" stop-color="#ffd0a2" offset="100%"/></radialGradient><radialGradient xmlns:xlink="http://www.w3.org/1999/xlink" xlink:type="simple" r="75%" xlink:actuate="onLoad" cx="50%" id="id7" cy="50%" xlink:show="other"><stop stop-opacity="1.0" stop-color="#fffff0" offset="0%"/><stop stop-opacity="1.0" stop-color="#ffd0a2" offset="100%"/></radialGradient><radialGradient xmlns:xlink="http://www.w3.org/1999/xlink" xlink:type="simple" r="75%" xlink:actuate="onLoad" cx="50%" id="id8" cy="50%" xlink:show="other"><stop stop-opacity="1.0" stop-color="#a0a0a0" offset="0%"/><stop stop-opacity="1.0" stop-color="#787878" offset="100%"/></radialGradient><radialGradient xmlns:xlink="http://www.w3.org/1999/xlink" xlink:type="simple" r="75%" xlink:actuate="onLoad" cx="50%" id="id9" cy="50%" xlink:show="other"><stop stop-opacity="1.0" stop-color="#a0a0a0" offset="0%"/><stop stop-opacity="1.0" stop-color="#787878" offset="100%"/></radialGradient><radialGradient xmlns:xlink="http://www.w3.org/1999/xlink" xlink:type="simple" r="75%" xlink:actuate="onLoad" cx="50%" id="id10" cy="50%" xlink:show="other"><stop stop-opacity="1.0" stop-color="#ffffff" offset="0%"/><stop stop-opacity="1.0" stop-color="#dcdcdc" offset="100%"/></radialGradient><radialGradient xmlns:xlink="http://www.w3.org/1999/xlink" xlink:type="simple" r="75%" xlink:actuate="onLoad" cx="50%" id="id11" cy="50%" xlink:show="other"><stop stop-opacity="1.0" stop-color="#ffffff" offset="0%"/><stop stop-opacity="1.0" stop-color="#dcdcdc" offset="100%"/></radialGradient><radialGradient xmlns:xlink="http://www.w3.org/1999/xlink" xlink:type="simple" r="75%" xlink:actuate="onLoad" cx="50%" id="id12" cy="50%" xlink:show="other"><stop stop-opacity="1.0" stop-color="#fffff0" offset="0%"/><stop stop-opacity="1.0" stop-color="#ffd0a2" offset="100%"/></radialGradient><radialGradient xmlns:xlink="http://www.w3.org/1999/xlink" xlink:type="simple" r="75%" xlink:actuate="onLoad" cx="50%" id="id13" cy="50%" xlink:show="other"><stop stop-opacity="1.0" stop-color="#fffff0" offset="0%"/><stop stop-opacity="1.0" stop-color="#ffd0a2" offset="100%"/></radialGradient><radialGradient xmlns:xlink="http://www.w3.org/1999/xlink" xlink:type="simple" r="75%" xlink:actuate="onLoad" cx="50%" id="id14" cy="50%" xlink:show="other"><stop stop-opacity="1.0" stop-color="#fffff0" offset="0%"/><stop stop-opacity="1.0" stop-color="#ffd0a2" offset="100%"/></radialGradient><radialGradient xmlns:xlink="http://www.w3.org/1999/xlink" xlink:type="simple" r="75%" xlink:actuate="onLoad" cx="50%" id="id15" cy="50%" xlink:show="other"><stop stop-opacity="1.0" stop-color="#814003" offset="0%"/><stop stop-opacity="1.0" stop-color="#5d3509" offset="100%"/></radialGradient><marker refX="0.0" refY="7.0" markerUnits="userSpaceOnUse" orient="auto" id="id16" markerHeight="14.0" viewBox="0 0 14.0 14.0" preserveAspectRatio="xMidYMid meet" markerWidth="14.0" overflow="visible"><path fill="#000000" d="M7.0 3.5 L0 7.0 L7.0 10.5z" stroke-width="1.0" stroke-linejoin="round" stroke-linecap="round" stroke="#000000"/></marker><marker refX="14.0" refY="7.0" markerUnits="userSpaceOnUse" orient="auto" id="id17" markerHeight="14.0" viewBox="0 0 14.0 14.0" preserveAspectRatio="xMidYMid meet" markerWidth="14.0" overflow="visible"><path fill="#000000" d="M7.0 3.5 L14.0 7.0 L7.0 10.5z" stroke-width="1.0" stroke-linejoin="round" stroke-linecap="round" stroke="#000000"/></marker><marker refX="0.0" refY="7.0" markerUnits="userSpaceOnUse" orient="auto" id="id18" markerHeight="14.0" viewBox="0 0 14.0 14.0" preserveAspectRatio="xMidYMid meet" markerWidth="14.0" overflow="visible"><path fill="#000000" d="M7.0 3.5 L0 7.0 L7.0 10.5z" stroke-width="1.0" stroke-linejoin="round" stroke-linecap="round" stroke="#000000"/></marker><marker refX="14.0" refY="7.0" markerUnits="userSpaceOnUse" orient="auto" id="id19" markerHeight="14.0" viewBox="0 0 14.0 14.0" preserveAspectRatio="xMidYMid meet" markerWidth="14.0" overflow="visible"><path fill="#000000" d="M7.0 3.5 L14.0 7.0 L7.0 10.5z" stroke-width="1.0" stroke-linejoin="round" stroke-linecap="round" stroke="#000000"/></marker><radialGradient xmlns:xlink="http://www.w3.org/1999/xlink" xlink:type="simple" r="75%" xlink:actuate="onLoad" cx="50%" id="id21" cy="50%" xlink:show="other"><stop stop-opacity="1.0" stop-color="#787878" offset="0%"/><stop stop-opacity="1.0" stop-color="#505050" offset="100%"/></radialGradient><linearGradient x1="0%" xmlns:xlink="http://www.w3.org/1999/xlink" y1="0%" x2="0%" y2="100%" xlink:type="simple" xlink:actuate="onLoad" id="id22" xlink:show="other"><stop stop-opacity="1.0" stop-color="#eaeae9" offset="0%"/><stop stop-opacity="1.0" stop-color="#ffffff" offset="100%"/></linearGradient><radialGradient xmlns:xlink="http://www.w3.org/1999/xlink" xlink:type="simple" r="75%" xlink:actuate="onLoad" cx="50%" id="id23" cy="50%" xlink:show="other"><stop stop-opacity="1.0" stop-color="#787878" offset="0%"/><stop stop-opacity="1.0" stop-color="#505050" offset="100%"/></radialGradient><radialGradient xmlns:xlink="http://www.w3.org/1999/xlink" xlink:type="simple" r="75%" xlink:actuate="onLoad" cx="50%" id="id24" cy="50%" xlink:show="other"><stop stop-opacity="1.0" stop-color="#787878" offset="0%"/><stop stop-opacity="1.0" stop-color="#505050" offset="100%"/></radialGradient><radialGradient xmlns:xlink="http://www.w3.org/1999/xlink" xlink:type="simple" r="75%" xlink:actuate="onLoad" cx="50%" id="id25" cy="50%" xlink:show="other"><stop stop-opacity="1.0" stop-color="#fffff0" offset="0%"/><stop stop-opacity="1.0" stop-color="#ffd0a2" offset="100%"/></radialGradient><radialGradient xmlns:xlink="http://www.w3.org/1999/xlink" xlink:type="simple" r="75%" xlink:actuate="onLoad" cx="50%" id="id26" cy="50%" xlink:show="other"><stop stop-opacity="1.0" stop-color="#fffff0" offset="0%"/><stop stop-opacity="1.0" stop-color="#ffd0a2" offset="100%"/></radialGradient><radialGradient xmlns:xlink="http://www.w3.org/1999/xlink" xlink:type="simple" r="75%" xlink:actuate="onLoad" cx="50%" id="id27" cy="50%" xlink:show="other"><stop stop-opacity="1.0" stop-color="#fffff0" offset="0%"/><stop stop-opacity="1.0" stop-color="#ffd0a2" offset="100%"/></radialGradient><radialGradient xmlns:xlink="http://www.w3.org/1999/xlink" xlink:type="simple" r="75%" xlink:actuate="onLoad" cx="50%" id="id28" cy="50%" xlink:show="other"><stop stop-opacity="1.0" stop-color="#a0a0a0" offset="0%"/><stop stop-opacity="1.0" stop-color="#787878" offset="100%"/></radialGradient><radialGradient xmlns:xlink="http://www.w3.org/1999/xlink" xlink:type="simple" r="75%" xlink:actuate="onLoad" cx="50%" id="id29" cy="50%" xlink:show="other"><stop stop-opacity="1.0" stop-color="#a0a0a0" offset="0%"/><stop stop-opacity="1.0" stop-color="#787878" offset="100%"/></radialGradient><radialGradient xmlns:xlink="http://www.w3.org/1999/xlink" xlink:type="simple" r="75%" xlink:actuate="onLoad" cx="50%" id="id30" cy="50%" xlink:show="other"><stop stop-opacity="1.0" stop-color="#ffffff" offset="0%"/><stop stop-opacity="1.0" stop-color="#dcdcdc" offset="100%"/></radialGradient><radialGradient xmlns:xlink="http://www.w3.org/1999/xlink" xlink:type="simple" r="75%" xlink:actuate="onLoad" cx="50%" id="id31" cy="50%" xlink:show="other"><stop stop-opacity="1.0" stop-color="#ffffff" offset="0%"/><stop stop-opacity="1.0" stop-color="#dcdcdc" offset="100%"/></radialGradient><radialGradient xmlns:xlink="http://www.w3.org/1999/xlink" xlink:type="simple" r="75%" xlink:actuate="onLoad" cx="50%" id="id32" cy="50%" xlink:show="other"><stop stop-opacity="1.0" stop-color="#fffff0" offset="0%"/><stop stop-opacity="1.0" stop-color="#ffd0a2" offset="100%"/></radialGradient><radialGradient xmlns:xlink="http://www.w3.org/1999/xlink" xlink:type="simple" r="75%" xlink:actuate="onLoad" cx="50%" id="id33" cy="50%" xlink:show="other"><stop stop-opacity="1.0" stop-color="#fffff0" offset="0%"/><stop stop-opacity="1.0" stop-color="#ffd0a2" offset="100%"/></radialGradient><radialGradient xmlns:xlink="http://www.w3.org/1999/xlink" xlink:type="simple" r="75%" xlink:actuate="onLoad" cx="50%" id="id34" cy="50%" xlink:show="other"><stop stop-opacity="1.0" stop-color="#fffff0" offset="0%"/><stop stop-opacity="1.0" stop-color="#ffd0a2" offset="100%"/></radialGradient><radialGradient xmlns:xlink="http://www.w3.org/1999/xlink" xlink:type="simple" r="75%" xlink:actuate="onLoad" cx="50%" id="id35" cy="50%" xlink:show="other"><stop stop-opacity="1.0" stop-color="#814003" offset="0%"/><stop stop-opacity="1.0" stop-color="#5d3509" offset="100%"/></radialGradient><marker refX="0.0" refY="7.0" markerUnits="userSpaceOnUse" orient="auto" id="id36" markerHeight="14.0" viewBox="0 0 14.0 14.0" preserveAspectRatio="xMidYMid meet" markerWidth="14.0" overflow="visible"><path fill="#000000" d="M7.0 3.5 L0 7.0 L7.0 10.5z" stroke-width="1.0" stroke-linejoin="round" stroke-linecap="round" stroke="#000000"/></marker><marker refX="14.0" refY="7.0" markerUnits="userSpaceOnUse" orient="auto" id="id37" markerHeight="14.0" viewBox="0 0 14.0 14.0" preserveAspectRatio="xMidYMid meet" markerWidth="14.0" overflow="visible"><path fill="#000000" d="M7.0 3.5 L14.0 7.0 L7.0 10.5z" stroke-width="1.0" stroke-linejoin="round" stroke-linecap="round" stroke="#000000"/></marker><marker refX="0.0" refY="7.0" markerUnits="userSpaceOnUse" orient="auto" id="id38" markerHeight="14.0" viewBox="0 0 14.0 14.0" preserveAspectRatio="xMidYMid meet" markerWidth="14.0" overflow="visible"><path fill="#000000" d="M7.0 3.5 L0 7.0 L7.0 10.5z" stroke-width="1.0" stroke-linejoin="round" stroke-linecap="round" stroke="#000000"/></marker><marker refX="14.0" refY="7.0" markerUnits="userSpaceOnUse" orient="auto" id="id39" markerHeight="14.0" viewBox="0 0 14.0 14.0" preserveAspectRatio="xMidYMid meet" markerWidth="14.0" overflow="visible"><path fill="#000000" d="M7.0 3.5 L14.0 7.0 L7.0 10.5z" stroke-width="1.0" stroke-linejoin="round" stroke-linecap="round" stroke="#000000"/></marker><radialGradient xmlns:xlink="http://www.w3.org/1999/xlink" xlink:type="simple" r="75%" xlink:actuate="onLoad" cx="50%" id="id41" cy="50%" xlink:show="other"><stop stop-opacity="1.0" stop-color="#787878" offset="0%"/><stop stop-opacity="1.0" stop-color="#505050" offset="100%"/></radialGradient><linearGradient x1="0%" xmlns:xlink="http://www.w3.org/1999/xlink" y1="0%" x2="0%" y2="100%" xlink:type="simple" xlink:actuate="onLoad" id="id42" xlink:show="other"><stop stop-opacity="1.0" stop-color="#eaeae9" offset="0%"/><stop stop-opacity="1.0" stop-color="#ffffff" offset="100%"/></linearGradient><radialGradient xmlns:xlink="http://www.w3.org/1999/xlink" xlink:type="simple" r="75%" xlink:actuate="onLoad" cx="50%" id="id43" cy="50%" xlink:show="other"><stop stop-opacity="1.0" stop-color="#787878" offset="0%"/><stop stop-opacity="1.0" stop-color="#505050" offset="100%"/></radialGradient><radialGradient xmlns:xlink="http://www.w3.org/1999/xlink" xlink:type="simple" r="75%" xlink:actuate="onLoad" cx="50%" id="id44" cy="50%" xlink:show="other"><stop stop-opacity="1.0" stop-color="#787878" offset="0%"/><stop stop-opacity="1.0" stop-color="#505050" offset="100%"/></radialGradient><radialGradient xmlns:xlink="http://www.w3.org/1999/xlink" xlink:type="simple" r="75%" xlink:actuate="onLoad" cx="50%" id="id45" cy="50%" xlink:show="other"><stop stop-opacity="1.0" stop-color="#fffff0" offset="0%"/><stop stop-opacity="1.0" stop-color="#ffd0a2" offset="100%"/></radialGradient><radialGradient xmlns:xlink="http://www.w3.org/1999/xlink" xlink:type="simple" r="75%" xlink:actuate="onLoad" cx="50%" id="id46" cy="50%" xlink:show="other"><stop stop-opacity="1.0" stop-color="#fffff0" offset="0%"/><stop stop-opacity="1.0" stop-color="#ffd0a2" offset="100%"/></radialGradient><radialGradient xmlns:xlink="http://www.w3.org/1999/xlink" xlink:type="simple" r="75%" xlink:actuate="onLoad" cx="50%" id="id47" cy="50%" xlink:show="other"><stop stop-opacity="1.0" stop-color="#fffff0" offset="0%"/><stop stop-opacity="1.0" stop-color="#ffd0a2" offset="100%"/></radialGradient><radialGradient xmlns:xlink="http://www.w3.org/1999/xlink" xlink:type="simple" r="75%" xlink:actuate="onLoad" cx="50%" id="id48" cy="50%" xlink:show="other"><stop stop-opacity="1.0" stop-color="#a0a0a0" offset="0%"/><stop stop-opacity="1.0" stop-color="#787878" offset="100%"/></radialGradient><radialGradient xmlns:xlink="http://www.w3.org/1999/xlink" xlink:type="simple" r="75%" xlink:actuate="onLoad" cx="50%" id="id49" cy="50%" xlink:show="other"><stop stop-opacity="1.0" stop-color="#a0a0a0" offset="0%"/><stop stop-opacity="1.0" stop-color="#787878" offset="100%"/></radialGradient><radialGradient xmlns:xlink="http://www.w3.org/1999/xlink" xlink:type="simple" r="75%" xlink:actuate="onLoad" cx="50%" id="id50" cy="50%" xlink:show="other"><stop stop-opacity="1.0" stop-color="#ffffff" offset="0%"/><stop stop-opacity="1.0" stop-color="#dcdcdc" offset="100%"/></radialGradient><radialGradient xmlns:xlink="http://www.w3.org/1999/xlink" xlink:type="simple" r="75%" xlink:actuate="onLoad" cx="50%" id="id51" cy="50%" xlink:show="other"><stop stop-opacity="1.0" stop-color="#ffffff" offset="0%"/><stop stop-opacity="1.0" stop-color="#dcdcdc" offset="100%"/></radialGradient><radialGradient xmlns:xlink="http://www.w3.org/1999/xlink" xlink:type="simple" r="75%" xlink:actuate="onLoad" cx="50%" id="id52" cy="50%" xlink:show="other"><stop stop-opacity="1.0" stop-color="#fffff0" offset="0%"/><stop stop-opacity="1.0" stop-color="#ffd0a2" offset="100%"/></radialGradient><radialGradient xmlns:xlink="http://www.w3.org/1999/xlink" xlink:type="simple" r="75%" xlink:actuate="onLoad" cx="50%" id="id53" cy="50%" xlink:show="other"><stop stop-opacity="1.0" stop-color="#fffff0" offset="0%"/><stop stop-opacity="1.0" stop-color="#ffd0a2" offset="100%"/></radialGradient><radialGradient xmlns:xlink="http://www.w3.org/1999/xlink" xlink:type="simple" r="75%" xlink:actuate="onLoad" cx="50%" id="id54" cy="50%" xlink:show="other"><stop stop-opacity="1.0" stop-color="#fffff0" offset="0%"/><stop stop-opacity="1.0" stop-color="#ffd0a2" offset="100%"/></radialGradient><radialGradient xmlns:xlink="http://www.w3.org/1999/xlink" xlink:type="simple" r="75%" xlink:actuate="onLoad" cx="50%" id="id55" cy="50%" xlink:show="other"><stop stop-opacity="1.0" stop-color="#814003" offset="0%"/><stop stop-opacity="1.0" stop-color="#5d3509" offset="100%"/></radialGradient><marker refX="0.0" refY="7.0" markerUnits="userSpaceOnUse" orient="auto" id="id56" markerHeight="14.0" viewBox="0 0 14.0 14.0" preserveAspectRatio="xMidYMid meet" markerWidth="14.0" overflow="visible"><path fill="#000000" d="M7.0 3.5 L0 7.0 L7.0 10.5z" stroke-width="1.0" stroke-linejoin="round" stroke-linecap="round" stroke="#000000"/></marker><marker refX="14.0" refY="7.0" markerUnits="userSpaceOnUse" orient="auto" id="id57" markerHeight="14.0" viewBox="0 0 14.0 14.0" preserveAspectRatio="xMidYMid meet" markerWidth="14.0" overflow="visible"><path fill="#000000" d="M7.0 3.5 L14.0 7.0 L7.0 10.5z" stroke-width="1.0" stroke-linejoin="round" stroke-linecap="round" stroke="#000000"/></marker><marker refX="0.0" refY="7.0" markerUnits="userSpaceOnUse" orient="auto" id="id58" markerHeight="14.0" viewBox="0 0 14.0 14.0" preserveAspectRatio="xMidYMid meet" markerWidth="14.0" overflow="visible"><path fill="#000000" d="M7.0 3.5 L0 7.0 L7.0 10.5z" stroke-width="1.0" stroke-linejoin="round" stroke-linecap="round" stroke="#000000"/></marker><marker refX="14.0" refY="7.0" markerUnits="userSpaceOnUse" orient="auto" id="id59" markerHeight="14.0" viewBox="0 0 14.0 14.0" preserveAspectRatio="xMidYMid meet" markerWidth="14.0" overflow="visible"><path fill="#000000" d="M7.0 3.5 L14.0 7.0 L7.0 10.5z" stroke-width="1.0" stroke-linejoin="round" stroke-linecap="round" stroke="#000000"/></marker><marker refX="0.0" refY="7.0" markerUnits="userSpaceOnUse" orient="auto" id="id61" markerHeight="14.0" viewBox="0 0 14.0 14.0" preserveAspectRatio="xMidYMid meet" markerWidth="14.0" overflow="visible"><path fill="#000000" d="M7.0 3.5 L0 7.0 L7.0 10.5z" stroke-width="1.0" stroke-linejoin="round" stroke-linecap="round" stroke="#000000"/></marker><marker refX="14.0" refY="7.0" markerUnits="userSpaceOnUse" orient="auto" id="id62" markerHeight="14.0" viewBox="0 0 14.0 14.0" preserveAspectRatio="xMidYMid meet" markerWidth="14.0" overflow="visible"><path fill="#000000" d="M7.0 3.5 L14.0 7.0 L7.0 10.5z" stroke-width="1.0" stroke-linejoin="round" stroke-linecap="round" stroke="#000000"/></marker><marker refX="0.0" refY="7.0" markerUnits="userSpaceOnUse" orient="auto" id="id63" markerHeight="14.0" viewBox="0 0 14.0 14.0" preserveAspectRatio="xMidYMid meet" markerWidth="14.0" overflow="visible"><path fill="#000000" d="M7.0 3.5 L0 7.0 L7.0 10.5z" stroke-width="1.0" stroke-linejoin="round" stroke-linecap="round" stroke="#000000"/></marker><marker refX="14.0" refY="7.0" markerUnits="userSpaceOnUse" orient="auto" id="id64" markerHeight="14.0" viewBox="0 0 14.0 14.0" preserveAspectRatio="xMidYMid meet" markerWidth="14.0" overflow="visible"><path fill="#000000" d="M7.0 3.5 L14.0 7.0 L7.0 10.5z" stroke-width="1.0" stroke-linejoin="round" stroke-linecap="round" stroke="#000000"/></marker><marker refX="0.0" refY="7.0" markerUnits="userSpaceOnUse" orient="auto" id="id65" markerHeight="14.0" viewBox="0 0 14.0 14.0" preserveAspectRatio="xMidYMid meet" markerWidth="14.0" overflow="visible"><path fill="#000000" d="M7.0 3.5 L0 7.0 L7.0 10.5z" stroke-width="1.0" stroke-linejoin="round" stroke-linecap="round" stroke="#000000"/></marker><marker refX="14.0" refY="7.0" markerUnits="userSpaceOnUse" orient="auto" id="id66" markerHeight="14.0" viewBox="0 0 14.0 14.0" preserveAspectRatio="xMidYMid meet" markerWidth="14.0" overflow="visible"><path fill="#000000" d="M7.0 3.5 L14.0 7.0 L7.0 10.5z" stroke-width="1.0" stroke-linejoin="round" stroke-linecap="round" stroke="#000000"/></marker></defs><g><g transform="translate(351.0 130.0)"><g transform="translate(9.0 0.0)"><path fill="#ffffff" fill-opacity="1.0" d="M77.01974685237512 26.061937168340016 Q79.66826625645824 23.040366338274495 79.66826625645824 19.140484242258154 Q79.66826625645824 14.614774640549092 76.24023408631093 11.413808144821745 Q72.81244001538279 8.21305774932111 67.96662196732822 8.21305774932111 Q67.95324961960972 8.213682316450335 67.93986924607485 8.214306508839282 Q64.542348554517 2.7905655586412217 57.842054608992235 2.7905655586412217 Q54.13053321517546 2.7905655586412217 51.09635594495626 4.795426043456488 Q47.61082013811091 0.0 41.410537228083655 0.0 Q34.763798217599934 0.0 31.35285167288109 5.36378250579237 Q28.086561104887377 2.790566183208351 23.817947731870845 2.790566183208351 Q15.47935994114401 2.790566183208351 12.763723309980433 10.157959789730684 Q12.071496647549614 10.071769525897507 11.537111040513649 10.071769525897507 Q2.49067834868828 10.071769525897507 2.49067834868828 18.52091365006602 Q2.49067834868828 20.738581643688185 3.669135719899007 22.67678332793542 Q0.0 25.922287705647875 0.0 30.60878586910486 Q0.0 35.13564592346596 3.4270235925560537 38.335929142753926 Q6.854047185112107 41.53621236204191 11.701640276221841 41.53621236204191 Q12.31234203354122 41.53621236204191 13.041951611015428 41.45751690375943 Q16.48353804738575 46.65141715040235 22.988613373016527 46.65141715040235 Q27.510303476181708 46.65141715040235 30.875315598508525 43.77965749022148 Q34.018779072683785 50.137750865741545 41.493470663969084 50.137750865741545 Q49.054623037437075 50.137750865741545 52.16379353587371 43.67972924781384 Q55.54938652666074 46.65142214693938 60.16553246275517 46.65142214693938 Q67.27255070476699 46.65142214693938 70.55227648937412 40.74052008507934 Q70.9575802163626 40.763006999999995 70.95623990502781 40.763006999999995 Q80.00133763606264 40.763006999999995 80.00133763606264 32.31386287583148 Q80.00133763606264 28.57819321856548 77.01974685237512 26.060696778021374 L77.01974685237512 26.061937168340016z" stroke-width="1.0" stroke-linejoin="round" stroke="#000000"/><path fill="#ffffff" fill-opacity="1.0" d="M13.031249853696051 41.46876161035402 Q11.288309395221292 38.83619167417225 11.288309395221292 35.72524253981912 Q11.288309395221292 35.21559458818455 11.336464627886365 34.71719219255586" stroke-width="1.0" stroke-linejoin="round" stroke="#000000"/><path fill="#ffffff" fill-opacity="1.0" d="M52.49017807280083 43.97202541515732 Q50.69532189877438 42.51686394865342 49.650375374120074 40.52191534417897" stroke-width="1.0" stroke-linejoin="round" stroke="#000000"/><path fill="#ffffff" fill-opacity="1.0" d="M23.817947731870845 2.790565933381499 Q32.66315180497266 2.790565933381499 35.07549283528683 10.723817608809387" stroke-width="1.0" stroke-linejoin="round" stroke="#000000"/><path fill="#ffffff" fill-opacity="1.0" d="M77.02108582607384 26.061937168340016 Q74.97671871185645 28.392711146229352 71.96080726336379 29.414613518024865" stroke-width="1.0" stroke-linejoin="round" stroke="#000000"/><g transform="translate(11.25486923938016 9.855669728041544)"><clipPath id="id0"><path d="M0 0 L59.298746008645494 0 L59.298746008645494 32.883460306759545 L0 32.883460306759545z"/></clipPath><text font-size="12" clip-path="url(#id0)" text-decoration="none" fill="#000000" font-family="Arial,Arial" font-style="normal" font-weight="normal"><tspan x="16.0" xml:space="preserve" y="13.441730153379773" textLength="30.0">data, </tspan><tspan x="12.0" xml:space="preserve" y="27.441730153379773" textLength="35.0">results</tspan></text></g></g><g transform="translate(0.0 70.0)"><path fill="url(#id1)" d="M6.07 40.689998 Q6.07 34.996596999999994 10.1137503 30.972873 Q14.157652 26.948997 19.880001 26.948997 Q25.60313 26.948997 29.651251000000002 30.973247 Q33.700001 34.998123 33.700001 40.689998 Q33.700001 43.377769 29.382813 44.958811999999995 Q25.497345 46.381747 19.885002 46.381747 Q14.272658 46.381747 10.387188 44.958811999999995 Q6.070001430511501 43.377769 6.070001430511501 40.689998 L6.07 40.689998z" stroke-width="1.0" stroke-linejoin="round" stroke="#323232"/><path fill="#ffffff" fill-opacity="1.0" d="M20.155001 27.565 L15.745001 35.027 L19.929001 41.585998000000004 L24.565001000000002 35.027 L20.156000300000002 27.565 L20.155001 27.565z" stroke-width="1.0" stroke-linejoin="round" stroke="#323232"/><path fill="#646464" fill-opacity="1.0" d="M30.0 34.38 Q30.5625 35.4425 31.09375 36.72375 Q32.15625 39.28625 32.0 40.38 Q31.77404 41.96173 29.25 43.22375 Q26.256466 44.720519 22.0 44.38 Q23.082500500000002 44.214999000000006 24.4987507 43.757499 Q27.331249 42.842502 29.0 41.38 Q30.25 40.28625 30.25 37.22375 Q30.25 36.2667188 30.125 35.22765625 Q30.0625 34.708125 30.0 34.38 L30.0 34.38z" stroke="none"/><path fill="#e33d9f" fill-opacity="1.0" d="M23.209 38.081001 L20.721001299999998 34.6879997 L22.3230005 33.1049995 L19.817 30.052 L17.78200017 32.8779983 L19.3650004 34.6879997 L17.008 38.081001 L20.1749998 41.586002 L23.210999 38.081001 L23.209 38.081001z" stroke-width="1.0" stroke-linejoin="round" stroke="#323232"/><path fill="url(#id2)" d="M27.840000000000003 29.3799998 L19.92 25.963 L12.0000002 29.3799998 Q11.675482 31.7924125 16.75 34.801999 L19.92 32.087998 L23.09 34.801999 Q26.545 33.317624 27.538 31.2003734 Q28.0345 30.141749 27.840000000000003 29.379998 L27.840000000000003 29.3799998z" stroke-width="1.0" stroke-linejoin="round" stroke="#323232"/><path fill="url(#id3)" d="M19.9290005 41.585999 L14.4840011 28.487 L12.1090011 29.600000899999998 L11.0910015 34.801002999999994 L14.4830017 35.1400037 L13.1260013 37.175004 L19.9280015 41.585003 L19.9290005 41.585999z" stroke-width="1.0" stroke-linejoin="round" stroke="#323232"/><path fill="url(#id4)" d="M20.042999358 41.585999 L25.487999 28.487 L27.8619996 29.600000899999998 L28.879998999999998 34.801002999999994 L25.487999 35.1400037 L26.843998 37.175004 L20.041998 41.585003 L20.042999358 41.585999z" stroke-width="1.0" stroke-linejoin="round" stroke="#323232"/><path fill="url(#id5)" d="M0.0 18.379998999999998 Q0.0 14.379999 4.0 14.379999 Q8.0 14.379999 8.0 18.379998999999998 Q8.0 22.379998999999998 4.0 22.379998999999998 Q0.0 22.379998999999998 0.0 18.379998999999998 L0.0 18.379998999999998z" stroke-width="1.0" stroke-linejoin="round" stroke="#ffd0a2"/><path fill="url(#id6)" d="M31.0 18.379998999999998 Q31.0 14.379999 35.0 14.379999 Q39.0 14.379999 39.0 18.379998999999998 Q39.0 22.379998999999998 35.0 22.379998999999998 Q31.0 22.379998999999998 31.0 18.379998999999998 L31.0 18.379998999999998z" stroke-width="1.0" stroke-linejoin="round" stroke="#ffd0a2"/><path fill="url(#id7)" d="M4.0 16.07000073 Q4.0 9.63414373 8.495000000000001 5.0825004300000005 Q12.990848 0.52999973 19.35 0.52999973 Q25.709154 0.52999973 30.205002 5.08249973 Q34.7 9.63414073 34.7 16.07000073 Q34.7 22.50585673 30.204998 27.05749973 Q25.709154 31.61000173 19.35 31.61000173 Q12.990848 31.61000173 8.495001 27.05749973 Q4.0 22.50585673 4.0 16.07000073 L4.0 16.07000073z" stroke-width="1.0" stroke-linejoin="round" stroke="#ffd0a2"/><path fill="#ffc28d" fill-opacity="1.0" d="M9.278999953674301 25.931 Q9.278999953674301 26.9182875 12.37275 28.806 Q15.855388300000001 30.931 19.028999 30.931 Q23.091499 30.931 25.966499 29.181 Q27.403999 28.306 28.028999 27.431 Q27.763374 27.556 27.286811 27.7395938 Q26.333686999999998 28.1067812 25.278999 28.39975 Q21.903999 29.33725 18.778999 29.181 Q14.531444 28.971889700000002 9.278999 25.931 L9.278999953674301 25.931z" stroke="none"/><path fill="url(#id8)" d="M34.675 14.451 Q34.447285 8.465641 29.876373 4.2093754 Q25.35582 0.0 19.35 0.0 Q13.321996 0.0 8.813749999999999 4.13875 Q4.20823845 8.366794 4.09 14.36 Q4.90972265 14.207601 6.135249999999999 12.923374 Q7.7683218 11.212084 8.5930003 8.650999 Q13.100286 10.257477 19.506999999999998 8.997999 Q24.52177 8.01216 28.636 5.855999 Q28.791437 6.393249 29.080093 7.199124 Q29.657405999999998 8.810873 30.3235 10.153999 Q32.455002 14.451999 34.675 14.451999 L34.675 14.451z" stroke-width="1.0" stroke-linejoin="round" stroke="#646464"/><path fill="url(#id9)" d="M19.6189996 23.607 Q14.2526332 23.607 13.709999159999999 26.037999799999998 Q13.244114 28.128999399999998 15.8019982 28.128999399999998 Q16.8879567 28.128999399999998 17.513998 27.2329995 Q18.217308 28.468 19.6189977 28.468 Q21.020256 28.468 21.722998 27.2340008 Q22.351154 28.1290013 23.435997 28.1290013 Q26.423643 28.1290013 25.526997 26.0380017 Q25.056252 24.9389626 24.031122 24.3908764 Q22.564974 23.6070019073486 19.619996999999998 23.6070019073486 L19.6189996 23.607z" stroke-width="1.0" stroke-linejoin="round" stroke="#646464"/></g><g transform="translate(59.0 71.27800000000002)"><path fill="url(#id10)" d="M6.07 40.689998 Q6.07 34.996596999999994 10.1137503 30.972873 Q14.157652 26.948997 19.880001 26.948997 Q25.603304 26.948997 29.651251000000002 30.972873 Q33.700001 34.997543 33.700001 40.689998 Q33.700001 43.377769 29.38297 44.958811999999995 Q25.497643 46.381747 19.885502000000002 46.381747 Q14.27336 46.381747 10.388031000000002 44.958811999999995 Q6.071000881200001 43.377769 6.071000881200001 40.689998 L6.07 40.689998z" stroke-width="1.0" stroke-linejoin="round" stroke="#c8c8c8"/><path fill="#ffffff" fill-opacity="1.0" d="M30.0 34.38 Q30.5625 35.4425 31.09375 36.72375 Q32.15625 39.28625 32.0 40.38 Q31.774006 41.9610585 29.25 43.222876 Q26.256298 44.719504 22.0 44.379001 Q23.082500500000002 44.214 24.4987507 43.756625 Q27.331249 42.841876 29.0 41.38 Q30.25 40.28625 30.25 37.22375 Q30.25 36.2667188 30.125 35.22765625 Q30.0625 34.708125 30.0 34.38 L30.0 34.38z" stroke="none"/><path fill="#92c9ff" fill-opacity="1.0" d="M23.2089997 46.217999000000006 L20.7210007 34.688999700000004 L22.708000000000002 32.876 L19.816000000000003 30.053 L17.24300006 32.5550008 L19.362999000000002 34.689999 L17.007 46.218998 L20.1739998 48.723 L23.2089997 46.218998 L23.2089997 46.217999000000006z" stroke-width="1.0" stroke-linejoin="round" stroke="#424a70"/><path fill="url(#id11)" d="M27.839999999999996 29.3799993 L19.92 25.962 L11.99999975 29.3799993 Q11.675184 31.7922364 16.749999799999998 34.801998 L19.92 32.086998 L23.09 34.801998 Q26.544376 33.3176232 27.537624 31.200373 Q28.03425 30.1417485 27.839999999999996 29.3799974 L27.839999999999996 29.3799993z" stroke-width="1.0" stroke-linejoin="round" stroke="#c8c8c8"/><path fill="url(#id12)" d="M0.0 18.378999999999998 Q0.0 14.379 4.0 14.379 Q8.0 14.379 8.0 18.378999999999998 Q8.0 22.378999999999998 4.0 22.378999999999998 Q0.0 22.378999999999998 0.0 18.378999999999998 L0.0 18.378999999999998z" stroke-width="1.0" stroke-linejoin="round" stroke="#ffd0a2"/><path fill="url(#id13)" d="M31.0 18.378999999999998 Q31.0 14.379 35.0 14.379 Q39.0 14.379 39.0 18.378999999999998 Q39.0 22.378999999999998 35.0 22.378999999999998 Q31.0 22.378999999999998 31.0 18.378999999999998 L31.0 18.378999999999998z" stroke-width="1.0" stroke-linejoin="round" stroke="#ffd0a2"/><path fill="url(#id14)" d="M4.0 16.07000073 Q4.0 9.63414373 8.495000000000001 5.0825004300000005 Q12.990848 0.52999973 19.35 0.52999973 Q25.709154 0.52999973 30.205002 5.08249973 Q34.7 9.63414073 34.7 16.07000073 Q34.7 22.50595173 30.205002 27.05799973 Q25.70906 31.61100073 19.35 31.61100073 Q12.99111 31.61100073 8.494999 27.05762573 Q4.0 22.50537573 4.0 16.07000073 L4.0 16.07000073z" stroke-width="1.0" stroke-linejoin="round" stroke="#ffd0a2"/><path fill="#ffc28d" fill-opacity="1.0" d="M9.278999953674301 25.931 Q9.278999953674301 26.9182875 12.37275 28.806 Q15.855388300000001 30.931 19.028999 30.931 Q23.091499 30.931 25.966499 29.181 Q27.403999 28.306 28.028999 27.431 Q27.763374 27.556 27.286811 27.7395938 Q26.333686999999998 28.1067812 25.278999 28.39975 Q21.903999 29.33725 18.778999 29.181 Q14.528976 28.9704611 9.278999 25.931 L9.278999953674301 25.931z" stroke="none"/><path fill="url(#id15)" d="M19.35 0.0 Q13.321996 0.0 8.813749999999999 4.13875 Q4.20823845 8.366794 4.09 14.36 Q5.00807127 14.189713 6.493594 13.7231245 Q8.7768343 13.005981 10.85375 12.002501 Q13.630605 10.660837 15.684531999999999 8.965626 Q18.203478 6.88661 19.5 4.38 Q19.958123999999998 4.973125 20.767984 5.885625 Q22.387703 7.7106247 24.146374 9.3075 Q26.608515 11.543124 28.996828 13.003125 Q31.982219999999998 14.828124 34.681 15.33 Q34.828617 9.06195 30.176374 4.49625 Q25.594896 0.0 19.35 0.0 L19.35 0.0z" stroke-width="1.0" stroke-linejoin="round" stroke="#532600"/></g><path fill="none" stroke-linejoin="round" d="M19.5 70.0 L29.0 50.13900000000001" stroke="#000000" marker-start="url(#id16)" stroke-width="1.0" marker-end="url(#id17)"/><path fill="none" stroke-linejoin="round" d="M78.5 71.27800000000002 L69.0 50.13900000000001" stroke="#000000" marker-start="url(#id18)" stroke-width="1.0" marker-end="url(#id19)"/></g><g transform="translate(460.0 130.0)"><g transform="translate(9.0 0.0)"><path fill="#ffffff" fill-opacity="1.0" d="M77.01974685237512 26.061937168340016 Q79.66826625645824 23.040366338274495 79.66826625645824 19.140484242258154 Q79.66826625645824 14.614774640549092 76.24023408631093 11.413808144821745 Q72.81244001538279 8.21305774932111 67.96662196732822 8.21305774932111 Q67.95324961960972 8.213682316450335 67.93986924607485 8.214306508839282 Q64.542348554517 2.7905655586412217 57.842054608992235 2.7905655586412217 Q54.13053321517546 2.7905655586412217 51.09635594495626 4.795426043456488 Q47.61082013811091 0.0 41.410537228083655 0.0 Q34.763798217599934 0.0 31.35285167288109 5.36378250579237 Q28.086561104887377 2.790566183208351 23.817947731870845 2.790566183208351 Q15.47935994114401 2.790566183208351 12.763723309980433 10.157959789730684 Q12.071496647549614 10.071769525897507 11.537111040513649 10.071769525897507 Q2.49067834868828 10.071769525897507 2.49067834868828 18.52091365006602 Q2.49067834868828 20.738581643688185 3.669135719899007 22.67678332793542 Q0.0 25.922287705647875 0.0 30.60878586910486 Q0.0 35.13564592346596 3.4270235925560537 38.335929142753926 Q6.854047185112107 41.53621236204191 11.701640276221841 41.53621236204191 Q12.31234203354122 41.53621236204191 13.041951611015428 41.45751690375943 Q16.48353804738575 46.65141715040235 22.988613373016527 46.65141715040235 Q27.510303476181708 46.65141715040235 30.875315598508525 43.77965749022148 Q34.018779072683785 50.137750865741545 41.493470663969084 50.137750865741545 Q49.054623037437075 50.137750865741545 52.16379353587371 43.67972924781384 Q55.54938652666074 46.65142214693938 60.16553246275517 46.65142214693938 Q67.27255070476699 46.65142214693938 70.55227648937412 40.74052008507934 Q70.9575802163626 40.763006999999995 70.95623990502781 40.763006999999995 Q80.00133763606264 40.763006999999995 80.00133763606264 32.31386287583148 Q80.00133763606264 28.57819321856548 77.01974685237512 26.060696778021374 L77.01974685237512 26.061937168340016z" stroke-width="1.0" stroke-linejoin="round" stroke="#000000"/><path fill="#ffffff" fill-opacity="1.0" d="M13.031249853696051 41.46876161035402 Q11.288309395221292 38.83619167417225 11.288309395221292 35.72524253981912 Q11.288309395221292 35.21559458818455 11.336464627886365 34.71719219255586" stroke-width="1.0" stroke-linejoin="round" stroke="#000000"/><path fill="#ffffff" fill-opacity="1.0" d="M52.49017807280083 43.97202541515732 Q50.69532189877438 42.51686394865342 49.650375374120074 40.52191534417897" stroke-width="1.0" stroke-linejoin="round" stroke="#000000"/><path fill="#ffffff" fill-opacity="1.0" d="M23.817947731870845 2.790565933381499 Q32.66315180497266 2.790565933381499 35.07549283528683 10.723817608809387" stroke-width="1.0" stroke-linejoin="round" stroke="#000000"/><path fill="#ffffff" fill-opacity="1.0" d="M77.02108582607384 26.061937168340016 Q74.97671871185645 28.392711146229352 71.96080726336379 29.414613518024865" stroke-width="1.0" stroke-linejoin="round" stroke="#000000"/><g transform="translate(11.25486923938016 9.855669728041544)"><clipPath id="id20"><path d="M0 0 L59.298746008645494 0 L59.298746008645494 32.883460306759545 L0 32.883460306759545z"/></clipPath><text font-size="12" clip-path="url(#id20)" text-decoration="none" fill="#000000" font-family="Arial,Arial" font-style="normal" font-weight="normal"><tspan x="16.0" xml:space="preserve" y="13.441730153379773" textLength="30.0">data, </tspan><tspan x="12.0" xml:space="preserve" y="27.441730153379773" textLength="35.0">results</tspan></text></g></g><g transform="translate(0.0 70.0)"><path fill="url(#id21)" d="M6.07 40.689998 Q6.07 34.996596999999994 10.1137503 30.972873 Q14.157652 26.948997 19.880001 26.948997 Q25.60313 26.948997 29.651251000000002 30.973247 Q33.700001 34.998123 33.700001 40.689998 Q33.700001 43.377769 29.382813 44.958811999999995 Q25.497345 46.381747 19.885002 46.381747 Q14.272658 46.381747 10.387188 44.958811999999995 Q6.070001430511501 43.377769 6.070001430511501 40.689998 L6.07 40.689998z" stroke-width="1.0" stroke-linejoin="round" stroke="#323232"/><path fill="#ffffff" fill-opacity="1.0" d="M20.155001 27.565 L15.745001 35.027 L19.929001 41.585998000000004 L24.565001000000002 35.027 L20.156000300000002 27.565 L20.155001 27.565z" stroke-width="1.0" stroke-linejoin="round" stroke="#323232"/><path fill="#646464" fill-opacity="1.0" d="M30.0 34.38 Q30.5625 35.4425 31.09375 36.72375 Q32.15625 39.28625 32.0 40.38 Q31.77404 41.96173 29.25 43.22375 Q26.256466 44.720519 22.0 44.38 Q23.082500500000002 44.214999000000006 24.4987507 43.757499 Q27.331249 42.842502 29.0 41.38 Q30.25 40.28625 30.25 37.22375 Q30.25 36.2667188 30.125 35.22765625 Q30.0625 34.708125 30.0 34.38 L30.0 34.38z" stroke="none"/><path fill="#e33d9f" fill-opacity="1.0" d="M23.209 38.081001 L20.721001299999998 34.6879997 L22.3230005 33.1049995 L19.817 30.052 L17.78200017 32.8779983 L19.3650004 34.6879997 L17.008 38.081001 L20.1749998 41.586002 L23.210999 38.081001 L23.209 38.081001z" stroke-width="1.0" stroke-linejoin="round" stroke="#323232"/><path fill="url(#id22)" d="M27.840000000000003 29.3799998 L19.92 25.963 L12.0000002 29.3799998 Q11.675482 31.7924125 16.75 34.801999 L19.92 32.087998 L23.09 34.801999 Q26.545 33.317624 27.538 31.2003734 Q28.0345 30.141749 27.840000000000003 29.379998 L27.840000000000003 29.3799998z" stroke-width="1.0" stroke-linejoin="round" stroke="#323232"/><path fill="url(#id23)" d="M19.9290005 41.585999 L14.4840011 28.487 L12.1090011 29.600000899999998 L11.0910015 34.801002999999994 L14.4830017 35.1400037 L13.1260013 37.175004 L19.9280015 41.585003 L19.9290005 41.585999z" stroke-width="1.0" stroke-linejoin="round" stroke="#323232"/><path fill="url(#id24)" d="M20.042999358 41.585999 L25.487999 28.487 L27.8619996 29.600000899999998 L28.879998999999998 34.801002999999994 L25.487999 35.1400037 L26.843998 37.175004 L20.041998 41.585003 L20.042999358 41.585999z" stroke-width="1.0" stroke-linejoin="round" stroke="#323232"/><path fill="url(#id25)" d="M0.0 18.379998999999998 Q0.0 14.379999 4.0 14.379999 Q8.0 14.379999 8.0 18.379998999999998 Q8.0 22.379998999999998 4.0 22.379998999999998 Q0.0 22.379998999999998 0.0 18.379998999999998 L0.0 18.379998999999998z" stroke-width="1.0" stroke-linejoin="round" stroke="#ffd0a2"/><path fill="url(#id26)" d="M31.0 18.379998999999998 Q31.0 14.379999 35.0 14.379999 Q39.0 14.379999 39.0 18.379998999999998 Q39.0 22.379998999999998 35.0 22.379998999999998 Q31.0 22.379998999999998 31.0 18.379998999999998 L31.0 18.379998999999998z" stroke-width="1.0" stroke-linejoin="round" stroke="#ffd0a2"/><path fill="url(#id27)" d="M4.0 16.07000073 Q4.0 9.63414373 8.495000000000001 5.0825004300000005 Q12.990848 0.52999973 19.35 0.52999973 Q25.709154 0.52999973 30.205002 5.08249973 Q34.7 9.63414073 34.7 16.07000073 Q34.7 22.50585673 30.204998 27.05749973 Q25.709154 31.61000173 19.35 31.61000173 Q12.990848 31.61000173 8.495001 27.05749973 Q4.0 22.50585673 4.0 16.07000073 L4.0 16.07000073z" stroke-width="1.0" stroke-linejoin="round" stroke="#ffd0a2"/><path fill="#ffc28d" fill-opacity="1.0" d="M9.278999953674301 25.931 Q9.278999953674301 26.9182875 12.37275 28.806 Q15.855388300000001 30.931 19.028999 30.931 Q23.091499 30.931 25.966499 29.181 Q27.403999 28.306 28.028999 27.431 Q27.763374 27.556 27.286811 27.7395938 Q26.333686999999998 28.1067812 25.278999 28.39975 Q21.903999 29.33725 18.778999 29.181 Q14.531444 28.971889700000002 9.278999 25.931 L9.278999953674301 25.931z" stroke="none"/><path fill="url(#id28)" d="M34.675 14.451 Q34.447285 8.465641 29.876373 4.2093754 Q25.35582 0.0 19.35 0.0 Q13.321996 0.0 8.813749999999999 4.13875 Q4.20823845 8.366794 4.09 14.36 Q4.90972265 14.207601 6.135249999999999 12.923374 Q7.7683218 11.212084 8.5930003 8.650999 Q13.100286 10.257477 19.506999999999998 8.997999 Q24.52177 8.01216 28.636 5.855999 Q28.791437 6.393249 29.080093 7.199124 Q29.657405999999998 8.810873 30.3235 10.153999 Q32.455002 14.451999 34.675 14.451999 L34.675 14.451z" stroke-width="1.0" stroke-linejoin="round" stroke="#646464"/><path fill="url(#id29)" d="M19.6189996 23.607 Q14.2526332 23.607 13.709999159999999 26.037999799999998 Q13.244114 28.128999399999998 15.8019982 28.128999399999998 Q16.8879567 28.128999399999998 17.513998 27.2329995 Q18.217308 28.468 19.6189977 28.468 Q21.020256 28.468 21.722998 27.2340008 Q22.351154 28.1290013 23.435997 28.1290013 Q26.423643 28.1290013 25.526997 26.0380017 Q25.056252 24.9389626 24.031122 24.3908764 Q22.564974 23.6070019073486 19.619996999999998 23.6070019073486 L19.6189996 23.607z" stroke-width="1.0" stroke-linejoin="round" stroke="#646464"/></g><g transform="translate(59.0 71.27800000000002)"><path fill="url(#id30)" d="M6.07 40.689998 Q6.07 34.996596999999994 10.1137503 30.972873 Q14.157652 26.948997 19.880001 26.948997 Q25.603304 26.948997 29.651251000000002 30.972873 Q33.700001 34.997543 33.700001 40.689998 Q33.700001 43.377769 29.38297 44.958811999999995 Q25.497643 46.381747 19.885502000000002 46.381747 Q14.27336 46.381747 10.388031000000002 44.958811999999995 Q6.071000881200001 43.377769 6.071000881200001 40.689998 L6.07 40.689998z" stroke-width="1.0" stroke-linejoin="round" stroke="#c8c8c8"/><path fill="#ffffff" fill-opacity="1.0" d="M30.0 34.38 Q30.5625 35.4425 31.09375 36.72375 Q32.15625 39.28625 32.0 40.38 Q31.774006 41.9610585 29.25 43.222876 Q26.256298 44.719504 22.0 44.379001 Q23.082500500000002 44.214 24.4987507 43.756625 Q27.331249 42.841876 29.0 41.38 Q30.25 40.28625 30.25 37.22375 Q30.25 36.2667188 30.125 35.22765625 Q30.0625 34.708125 30.0 34.38 L30.0 34.38z" stroke="none"/><path fill="#92c9ff" fill-opacity="1.0" d="M23.2089997 46.217999000000006 L20.7210007 34.688999700000004 L22.708000000000002 32.876 L19.816000000000003 30.053 L17.24300006 32.5550008 L19.362999000000002 34.689999 L17.007 46.218998 L20.1739998 48.723 L23.2089997 46.218998 L23.2089997 46.217999000000006z" stroke-width="1.0" stroke-linejoin="round" stroke="#424a70"/><path fill="url(#id31)" d="M27.839999999999996 29.3799993 L19.92 25.962 L11.99999975 29.3799993 Q11.675184 31.7922364 16.749999799999998 34.801998 L19.92 32.086998 L23.09 34.801998 Q26.544376 33.3176232 27.537624 31.200373 Q28.03425 30.1417485 27.839999999999996 29.3799974 L27.839999999999996 29.3799993z" stroke-width="1.0" stroke-linejoin="round" stroke="#c8c8c8"/><path fill="url(#id32)" d="M0.0 18.378999999999998 Q0.0 14.379 4.0 14.379 Q8.0 14.379 8.0 18.378999999999998 Q8.0 22.378999999999998 4.0 22.378999999999998 Q0.0 22.378999999999998 0.0 18.378999999999998 L0.0 18.378999999999998z" stroke-width="1.0" stroke-linejoin="round" stroke="#ffd0a2"/><path fill="url(#id33)" d="M31.0 18.378999999999998 Q31.0 14.379 35.0 14.379 Q39.0 14.379 39.0 18.378999999999998 Q39.0 22.378999999999998 35.0 22.378999999999998 Q31.0 22.378999999999998 31.0 18.378999999999998 L31.0 18.378999999999998z" stroke-width="1.0" stroke-linejoin="round" stroke="#ffd0a2"/><path fill="url(#id34)" d="M4.0 16.07000073 Q4.0 9.63414373 8.495000000000001 5.0825004300000005 Q12.990848 0.52999973 19.35 0.52999973 Q25.709154 0.52999973 30.205002 5.08249973 Q34.7 9.63414073 34.7 16.07000073 Q34.7 22.50595173 30.205002 27.05799973 Q25.70906 31.61100073 19.35 31.61100073 Q12.99111 31.61100073 8.494999 27.05762573 Q4.0 22.50537573 4.0 16.07000073 L4.0 16.07000073z" stroke-width="1.0" stroke-linejoin="round" stroke="#ffd0a2"/><path fill="#ffc28d" fill-opacity="1.0" d="M9.278999953674301 25.931 Q9.278999953674301 26.9182875 12.37275 28.806 Q15.855388300000001 30.931 19.028999 30.931 Q23.091499 30.931 25.966499 29.181 Q27.403999 28.306 28.028999 27.431 Q27.763374 27.556 27.286811 27.7395938 Q26.333686999999998 28.1067812 25.278999 28.39975 Q21.903999 29.33725 18.778999 29.181 Q14.528976 28.9704611 9.278999 25.931 L9.278999953674301 25.931z" stroke="none"/><path fill="url(#id35)" d="M19.35 0.0 Q13.321996 0.0 8.813749999999999 4.13875 Q4.20823845 8.366794 4.09 14.36 Q5.00807127 14.189713 6.493594 13.7231245 Q8.7768343 13.005981 10.85375 12.002501 Q13.630605 10.660837 15.684531999999999 8.965626 Q18.203478 6.88661 19.5 4.38 Q19.958123999999998 4.973125 20.767984 5.885625 Q22.387703 7.7106247 24.146374 9.3075 Q26.608515 11.543124 28.996828 13.003125 Q31.982219999999998 14.828124 34.681 15.33 Q34.828617 9.06195 30.176374 4.49625 Q25.594896 0.0 19.35 0.0 L19.35 0.0z" stroke-width="1.0" stroke-linejoin="round" stroke="#532600"/></g><path fill="none" stroke-linejoin="round" d="M19.5 70.0 L29.0 50.13900000000001" stroke="#000000" marker-start="url(#id36)" stroke-width="1.0" marker-end="url(#id37)"/><path fill="none" stroke-linejoin="round" d="M78.5 71.27800000000002 L69.0 50.13900000000001" stroke="#000000" marker-start="url(#id38)" stroke-width="1.0" marker-end="url(#id39)"/></g><g transform="translate(570.0 130.0)"><g transform="translate(9.0 0.0)"><path fill="#ffffff" fill-opacity="1.0" d="M77.01974685237512 26.061937168340016 Q79.66826625645824 23.040366338274495 79.66826625645824 19.140484242258154 Q79.66826625645824 14.614774640549092 76.24023408631093 11.413808144821745 Q72.81244001538279 8.21305774932111 67.96662196732822 8.21305774932111 Q67.95324961960972 8.213682316450335 67.93986924607485 8.214306508839282 Q64.542348554517 2.7905655586412217 57.842054608992235 2.7905655586412217 Q54.13053321517546 2.7905655586412217 51.09635594495626 4.795426043456488 Q47.61082013811091 0.0 41.410537228083655 0.0 Q34.763798217599934 0.0 31.35285167288109 5.36378250579237 Q28.086561104887377 2.790566183208351 23.817947731870845 2.790566183208351 Q15.47935994114401 2.790566183208351 12.763723309980433 10.157959789730684 Q12.071496647549614 10.071769525897507 11.537111040513649 10.071769525897507 Q2.49067834868828 10.071769525897507 2.49067834868828 18.52091365006602 Q2.49067834868828 20.738581643688185 3.669135719899007 22.67678332793542 Q0.0 25.922287705647875 0.0 30.60878586910486 Q0.0 35.13564592346596 3.4270235925560537 38.335929142753926 Q6.854047185112107 41.53621236204191 11.701640276221841 41.53621236204191 Q12.31234203354122 41.53621236204191 13.041951611015428 41.45751690375943 Q16.48353804738575 46.65141715040235 22.988613373016527 46.65141715040235 Q27.510303476181708 46.65141715040235 30.875315598508525 43.77965749022148 Q34.018779072683785 50.137750865741545 41.493470663969084 50.137750865741545 Q49.054623037437075 50.137750865741545 52.16379353587371 43.67972924781384 Q55.54938652666074 46.65142214693938 60.16553246275517 46.65142214693938 Q67.27255070476699 46.65142214693938 70.55227648937412 40.74052008507934 Q70.9575802163626 40.763006999999995 70.95623990502781 40.763006999999995 Q80.00133763606264 40.763006999999995 80.00133763606264 32.31386287583148 Q80.00133763606264 28.57819321856548 77.01974685237512 26.060696778021374 L77.01974685237512 26.061937168340016z" stroke-width="1.0" stroke-linejoin="round" stroke="#000000"/><path fill="#ffffff" fill-opacity="1.0" d="M13.031249853696051 41.46876161035402 Q11.288309395221292 38.83619167417225 11.288309395221292 35.72524253981912 Q11.288309395221292 35.21559458818455 11.336464627886365 34.71719219255586" stroke-width="1.0" stroke-linejoin="round" stroke="#000000"/><path fill="#ffffff" fill-opacity="1.0" d="M52.49017807280083 43.97202541515732 Q50.69532189877438 42.51686394865342 49.650375374120074 40.52191534417897" stroke-width="1.0" stroke-linejoin="round" stroke="#000000"/><path fill="#ffffff" fill-opacity="1.0" d="M23.817947731870845 2.790565933381499 Q32.66315180497266 2.790565933381499 35.07549283528683 10.723817608809387" stroke-width="1.0" stroke-linejoin="round" stroke="#000000"/><path fill="#ffffff" fill-opacity="1.0" d="M77.02108582607384 26.061937168340016 Q74.97671871185645 28.392711146229352 71.96080726336379 29.414613518024865" stroke-width="1.0" stroke-linejoin="round" stroke="#000000"/><g transform="translate(11.25486923938016 9.855669728041544)"><clipPath id="id40"><path d="M0 0 L59.298746008645494 0 L59.298746008645494 32.883460306759545 L0 32.883460306759545z"/></clipPath><text font-size="12" clip-path="url(#id40)" text-decoration="none" fill="#000000" font-family="Arial,Arial" font-style="normal" font-weight="normal"><tspan x="16.0" xml:space="preserve" y="13.441730153379773" textLength="30.0">data, </tspan><tspan x="12.0" xml:space="preserve" y="27.441730153379773" textLength="35.0">results</tspan></text></g></g><g transform="translate(0.0 70.0)"><path fill="url(#id41)" d="M6.07 40.689998 Q6.07 34.996596999999994 10.1137503 30.972873 Q14.157652 26.948997 19.880001 26.948997 Q25.60313 26.948997 29.651251000000002 30.973247 Q33.700001 34.998123 33.700001 40.689998 Q33.700001 43.377769 29.382813 44.958811999999995 Q25.497345 46.381747 19.885002 46.381747 Q14.272658 46.381747 10.387188 44.958811999999995 Q6.070001430511501 43.377769 6.070001430511501 40.689998 L6.07 40.689998z" stroke-width="1.0" stroke-linejoin="round" stroke="#323232"/><path fill="#ffffff" fill-opacity="1.0" d="M20.155001 27.565 L15.745001 35.027 L19.929001 41.585998000000004 L24.565001000000002 35.027 L20.156000300000002 27.565 L20.155001 27.565z" stroke-width="1.0" stroke-linejoin="round" stroke="#323232"/><path fill="#646464" fill-opacity="1.0" d="M30.0 34.38 Q30.5625 35.4425 31.09375 36.72375 Q32.15625 39.28625 32.0 40.38 Q31.77404 41.96173 29.25 43.22375 Q26.256466 44.720519 22.0 44.38 Q23.082500500000002 44.214999000000006 24.4987507 43.757499 Q27.331249 42.842502 29.0 41.38 Q30.25 40.28625 30.25 37.22375 Q30.25 36.2667188 30.125 35.22765625 Q30.0625 34.708125 30.0 34.38 L30.0 34.38z" stroke="none"/><path fill="#e33d9f" fill-opacity="1.0" d="M23.209 38.081001 L20.721001299999998 34.6879997 L22.3230005 33.1049995 L19.817 30.052 L17.78200017 32.8779983 L19.3650004 34.6879997 L17.008 38.081001 L20.1749998 41.586002 L23.210999 38.081001 L23.209 38.081001z" stroke-width="1.0" stroke-linejoin="round" stroke="#323232"/><path fill="url(#id42)" d="M27.840000000000003 29.3799998 L19.92 25.963 L12.0000002 29.3799998 Q11.675482 31.7924125 16.75 34.801999 L19.92 32.087998 L23.09 34.801999 Q26.545 33.317624 27.538 31.2003734 Q28.0345 30.141749 27.840000000000003 29.379998 L27.840000000000003 29.3799998z" stroke-width="1.0" stroke-linejoin="round" stroke="#323232"/><path fill="url(#id43)" d="M19.9290005 41.585999 L14.4840011 28.487 L12.1090011 29.600000899999998 L11.0910015 34.801002999999994 L14.4830017 35.1400037 L13.1260013 37.175004 L19.9280015 41.585003 L19.9290005 41.585999z" stroke-width="1.0" stroke-linejoin="round" stroke="#323232"/><path fill="url(#id44)" d="M20.042999358 41.585999 L25.487999 28.487 L27.8619996 29.600000899999998 L28.879998999999998 34.801002999999994 L25.487999 35.1400037 L26.843998 37.175004 L20.041998 41.585003 L20.042999358 41.585999z" stroke-width="1.0" stroke-linejoin="round" stroke="#323232"/><path fill="url(#id45)" d="M0.0 18.379998999999998 Q0.0 14.379999 4.0 14.379999 Q8.0 14.379999 8.0 18.379998999999998 Q8.0 22.379998999999998 4.0 22.379998999999998 Q0.0 22.379998999999998 0.0 18.379998999999998 L0.0 18.379998999999998z" stroke-width="1.0" stroke-linejoin="round" stroke="#ffd0a2"/><path fill="url(#id46)" d="M31.0 18.379998999999998 Q31.0 14.379999 35.0 14.379999 Q39.0 14.379999 39.0 18.379998999999998 Q39.0 22.379998999999998 35.0 22.379998999999998 Q31.0 22.379998999999998 31.0 18.379998999999998 L31.0 18.379998999999998z" stroke-width="1.0" stroke-linejoin="round" stroke="#ffd0a2"/><path fill="url(#id47)" d="M4.0 16.07000073 Q4.0 9.63414373 8.495000000000001 5.0825004300000005 Q12.990848 0.52999973 19.35 0.52999973 Q25.709154 0.52999973 30.205002 5.08249973 Q34.7 9.63414073 34.7 16.07000073 Q34.7 22.50585673 30.204998 27.05749973 Q25.709154 31.61000173 19.35 31.61000173 Q12.990848 31.61000173 8.495001 27.05749973 Q4.0 22.50585673 4.0 16.07000073 L4.0 16.07000073z" stroke-width="1.0" stroke-linejoin="round" stroke="#ffd0a2"/><path fill="#ffc28d" fill-opacity="1.0" d="M9.278999953674301 25.931 Q9.278999953674301 26.9182875 12.37275 28.806 Q15.855388300000001 30.931 19.028999 30.931 Q23.091499 30.931 25.966499 29.181 Q27.403999 28.306 28.028999 27.431 Q27.763374 27.556 27.286811 27.7395938 Q26.333686999999998 28.1067812 25.278999 28.39975 Q21.903999 29.33725 18.778999 29.181 Q14.531444 28.971889700000002 9.278999 25.931 L9.278999953674301 25.931z" stroke="none"/><path fill="url(#id48)" d="M34.675 14.451 Q34.447285 8.465641 29.876373 4.2093754 Q25.35582 0.0 19.35 0.0 Q13.321996 0.0 8.813749999999999 4.13875 Q4.20823845 8.366794 4.09 14.36 Q4.90972265 14.207601 6.135249999999999 12.923374 Q7.7683218 11.212084 8.5930003 8.650999 Q13.100286 10.257477 19.506999999999998 8.997999 Q24.52177 8.01216 28.636 5.855999 Q28.791437 6.393249 29.080093 7.199124 Q29.657405999999998 8.810873 30.3235 10.153999 Q32.455002 14.451999 34.675 14.451999 L34.675 14.451z" stroke-width="1.0" stroke-linejoin="round" stroke="#646464"/><path fill="url(#id49)" d="M19.6189996 23.607 Q14.2526332 23.607 13.709999159999999 26.037999799999998 Q13.244114 28.128999399999998 15.8019982 28.128999399999998 Q16.8879567 28.128999399999998 17.513998 27.2329995 Q18.217308 28.468 19.6189977 28.468 Q21.020256 28.468 21.722998 27.2340008 Q22.351154 28.1290013 23.435997 28.1290013 Q26.423643 28.1290013 25.526997 26.0380017 Q25.056252 24.9389626 24.031122 24.3908764 Q22.564974 23.6070019073486 19.619996999999998 23.6070019073486 L19.6189996 23.607z" stroke-width="1.0" stroke-linejoin="round" stroke="#646464"/></g><g transform="translate(59.0 71.27800000000002)"><path fill="url(#id50)" d="M6.07 40.689998 Q6.07 34.996596999999994 10.1137503 30.972873 Q14.157652 26.948997 19.880001 26.948997 Q25.603304 26.948997 29.651251000000002 30.972873 Q33.700001 34.997543 33.700001 40.689998 Q33.700001 43.377769 29.38297 44.958811999999995 Q25.497643 46.381747 19.885502000000002 46.381747 Q14.27336 46.381747 10.388031000000002 44.958811999999995 Q6.071000881200001 43.377769 6.071000881200001 40.689998 L6.07 40.689998z" stroke-width="1.0" stroke-linejoin="round" stroke="#c8c8c8"/><path fill="#ffffff" fill-opacity="1.0" d="M30.0 34.38 Q30.5625 35.4425 31.09375 36.72375 Q32.15625 39.28625 32.0 40.38 Q31.774006 41.9610585 29.25 43.222876 Q26.256298 44.719504 22.0 44.379001 Q23.082500500000002 44.214 24.4987507 43.756625 Q27.331249 42.841876 29.0 41.38 Q30.25 40.28625 30.25 37.22375 Q30.25 36.2667188 30.125 35.22765625 Q30.0625 34.708125 30.0 34.38 L30.0 34.38z" stroke="none"/><path fill="#92c9ff" fill-opacity="1.0" d="M23.2089997 46.217999000000006 L20.7210007 34.688999700000004 L22.708000000000002 32.876 L19.816000000000003 30.053 L17.24300006 32.5550008 L19.362999000000002 34.689999 L17.007 46.218998 L20.1739998 48.723 L23.2089997 46.218998 L23.2089997 46.217999000000006z" stroke-width="1.0" stroke-linejoin="round" stroke="#424a70"/><path fill="url(#id51)" d="M27.839999999999996 29.3799993 L19.92 25.962 L11.99999975 29.3799993 Q11.675184 31.7922364 16.749999799999998 34.801998 L19.92 32.086998 L23.09 34.801998 Q26.544376 33.3176232 27.537624 31.200373 Q28.03425 30.1417485 27.839999999999996 29.3799974 L27.839999999999996 29.3799993z" stroke-width="1.0" stroke-linejoin="round" stroke="#c8c8c8"/><path fill="url(#id52)" d="M0.0 18.378999999999998 Q0.0 14.379 4.0 14.379 Q8.0 14.379 8.0 18.378999999999998 Q8.0 22.378999999999998 4.0 22.378999999999998 Q0.0 22.378999999999998 0.0 18.378999999999998 L0.0 18.378999999999998z" stroke-width="1.0" stroke-linejoin="round" stroke="#ffd0a2"/><path fill="url(#id53)" d="M31.0 18.378999999999998 Q31.0 14.379 35.0 14.379 Q39.0 14.379 39.0 18.378999999999998 Q39.0 22.378999999999998 35.0 22.378999999999998 Q31.0 22.378999999999998 31.0 18.378999999999998 L31.0 18.378999999999998z" stroke-width="1.0" stroke-linejoin="round" stroke="#ffd0a2"/><path fill="url(#id54)" d="M4.0 16.07000073 Q4.0 9.63414373 8.495000000000001 5.0825004300000005 Q12.990848 0.52999973 19.35 0.52999973 Q25.709154 0.52999973 30.205002 5.08249973 Q34.7 9.63414073 34.7 16.07000073 Q34.7 22.50595173 30.205002 27.05799973 Q25.70906 31.61100073 19.35 31.61100073 Q12.99111 31.61100073 8.494999 27.05762573 Q4.0 22.50537573 4.0 16.07000073 L4.0 16.07000073z" stroke-width="1.0" stroke-linejoin="round" stroke="#ffd0a2"/><path fill="#ffc28d" fill-opacity="1.0" d="M9.278999953674301 25.931 Q9.278999953674301 26.9182875 12.37275 28.806 Q15.855388300000001 30.931 19.028999 30.931 Q23.091499 30.931 25.966499 29.181 Q27.403999 28.306 28.028999 27.431 Q27.763374 27.556 27.286811 27.7395938 Q26.333686999999998 28.1067812 25.278999 28.39975 Q21.903999 29.33725 18.778999 29.181 Q14.528976 28.9704611 9.278999 25.931 L9.278999953674301 25.931z" stroke="none"/><path fill="url(#id55)" d="M19.35 0.0 Q13.321996 0.0 8.813749999999999 4.13875 Q4.20823845 8.366794 4.09 14.36 Q5.00807127 14.189713 6.493594 13.7231245 Q8.7768343 13.005981 10.85375 12.002501 Q13.630605 10.660837 15.684531999999999 8.965626 Q18.203478 6.88661 19.5 4.38 Q19.958123999999998 4.973125 20.767984 5.885625 Q22.387703 7.7106247 24.146374 9.3075 Q26.608515 11.543124 28.996828 13.003125 Q31.982219999999998 14.828124 34.681 15.33 Q34.828617 9.06195 30.176374 4.49625 Q25.594896 0.0 19.35 0.0 L19.35 0.0z" stroke-width="1.0" stroke-linejoin="round" stroke="#532600"/></g><path fill="none" stroke-linejoin="round" d="M19.5 70.0 L29.0 50.13900000000001" stroke="#000000" marker-start="url(#id56)" stroke-width="1.0" marker-end="url(#id57)"/><path fill="none" stroke-linejoin="round" d="M78.5 71.27800000000002 L69.0 50.13900000000001" stroke="#000000" marker-start="url(#id58)" stroke-width="1.0" marker-end="url(#id59)"/></g><g transform="translate(450.0 50.0)"><path fill="#ffffff" fill-opacity="1.0" d="M110.2983915001058 25.6139567132428 Q110.2983915001058 13.180026212439769 91.61853878232634 12.683601916922173 Q90.2490699343922 -0.0029213150553657466 71.12947323597886 -0.0029213150553657466 Q60.82424740311611 -0.0029213150553657466 54.65576586941426 5.498610823331872 Q48.48458257788844 -0.002921663162505475 38.18205630986441 -0.002921663162505475 Q19.017494641951743 -0.002921663162505475 17.690802164240683 12.718643528836322 Q-0.00878176227142403 13.776200836472476 -0.00878176227142403 25.615416780405887 Q-0.00878176227142403 30.984083739085985 5.69106101718537 34.778979344283826 Q11.390355550330478 38.57351285282522 19.451769317380222 38.57351285282522 Q19.0087862975369 38.57351285282522 19.8903641737448 38.55599204686814 Q22.716558559596 50.00292444575849 40.16013119541737 50.00292444575849 Q49.3994653210387 50.00292444575849 55.5461134936239 45.386189155935156 Q61.6860116576196 50.00292444575849 70.92990499956895 50.00292444575849 Q88.37124956237962 50.00292444575849 91.20186062051778 38.55891656139582 Q99.14264704108483 38.460240842312736 104.71448746467412 34.69046861279018 Q110.29618316396231 30.91402679646663 110.29618316396231 25.613962553511453 L110.2983915001058 25.6139567132428z" stroke-width="1.0" stroke-linejoin="round" stroke="#000000"/><g transform="translate(20.31581519203461 7.236092643052717)"><clipPath id="id60"><path d="M0 0 L68.59000049951646 0 L68.59000049951646 36.95722043314089 L0 36.95722043314089z"/></clipPath><text font-size="12" clip-path="url(#id60)" text-decoration="none" fill="#000000" font-family="Arial,Arial" font-style="normal" font-weight="normal"><tspan x="12.0" xml:space="preserve" y="15.478610216570445" textLength="48.0">journals, </tspan><tspan x="16.0" xml:space="preserve" y="29.478610216570445" textLength="36.0">papers</tspan></text></g></g><path fill="none" stroke-linejoin="round" d="M400.0 130.0 L477.5734999999999 100.0" stroke="#000000" marker-start="url(#id61)" stroke-width="1.0" marker-end="url(#id62)"/><path fill="none" stroke-linejoin="round" d="M509.0 130.0 L505.147 100.0" stroke="#000000" marker-start="url(#id63)" stroke-width="1.0" marker-end="url(#id64)"/><path fill="none" stroke-linejoin="round" d="M619.0 130.0 L532.7205 100.0" stroke="#000000" marker-start="url(#id65)" stroke-width="1.0" marker-end="url(#id66)"/></g></svg>