<?xml version="1.0" encoding="utf-8"?>
<svg contentScriptType="text/ecmascript" xmlns:xlink="http://www.w3.org/1999/xlink" zoomAndPan="magnify" contentStyleType="text/css" viewBox="412.0 199.0 232.0 130.0" xmlns:cacoo="http://cacoo.com/" preserveAspectRatio="xMidYMin meet" xmlns="http://www.w3.org/2000/svg" version="1.1"><defs><linearGradient x1="0%" xmlns:xlink="http://www.w3.org/1999/xlink" y1="0%" x2="0%" y2="100%" xlink:type="simple" xlink:actuate="onLoad" id="id1" xlink:show="other"><stop stop-opacity="1.0" stop-color="#f3f2f4" offset="0%"/><stop stop-opacity="1.0" stop-color="#999999" offset="96%"/></linearGradient><linearGradient x1="0%" xmlns:xlink="http://www.w3.org/1999/xlink" y1="0%" x2="0%" y2="100%" xlink:type="simple" xlink:actuate="onLoad" id="id2" xlink:show="other"><stop stop-opacity="1.0" stop-color="#f3f2f4" offset="0%"/><stop stop-opacity="1.0" stop-color="#999999" offset="96%"/></linearGradient><linearGradient x1="0%" xmlns:xlink="http://www.w3.org/1999/xlink" y1="0%" x2="0%" y2="100%" xlink:type="simple" xlink:actuate="onLoad" id="id3" xlink:show="other"><stop stop-opacity="1.0" stop-color="#f3f2f4" offset="0%"/><stop stop-opacity="1.0" stop-color="#999999" offset="96%"/></linearGradient></defs><g><g transform="translate(427.0 214.0)"><g transform="translate(0.0 32.0)"><path fill="#ffffff" fill-opacity="1.0" d="M0.0 18.0 L22.0 0.0 L22.0 10.0 L51.0 10.0 L51.0 0.0 L73.0 18.0 L51.0 36.0 L51.0 26.0 L22.0 26.0 L22.0 36.0 L0.0 18.0z" stroke-width="1.0" stroke-linejoin="round" stroke="#000000"/><g transform="translate(10.0 10.0)"><clipPath id="id0"><path d="M0 0 L53.0 0 L53.0 16.0 L0 16.0z"/></clipPath><text font-size="10" clip-path="url(#id0)" text-decoration="none" fill="#000000" font-family="Arial,Arial" font-style="normal" font-weight="normal"/></g></g><g transform="translate(82.0 0.0)"><path fill="url(#id1)" d="M120.0 0.0 L20.0 0.0 L20.0 73.0 Q45.0 83.0 70.0 73.0 Q95.0 63.0 120.0 63.0 L120.0 0.0z" stroke-width="1.0" stroke-linejoin="round" stroke="#cccccc"/><path fill="url(#id2)" d="M110.0 10.0 L10.0 10.0 L10.0 83.0 Q35.0 93.0 60.0 83.0 Q85.0 73.0 110.0 73.0 L110.0 10.0z" stroke-width="1.0" stroke-linejoin="round" stroke="#cccccc"/><path fill="url(#id3)" d="M100.0 20.0 L0.0 20.0 L0.0 93.0 Q25.0 103.0 50.0 93.0 Q75.0 83.0 100.0 83.0 L100.0 20.0z" stroke-width="1.0" stroke-linejoin="round" stroke="#cccccc"/><g transform="translate(0.0 20.0)"><clipPath id="id4"><path d="M0 0 L100.0 0 L100.0 65.0 L0 65.0z"/></clipPath><text font-size="14" clip-path="url(#id4)" text-decoration="none" fill="#000000" font-family="Arial,Arial" font-style="normal" font-weight="normal"><tspan x="28.0" xml:space="preserve" y="37.5" textLength="44.0">papers</tspan></text></g></g></g></g></svg>