<svg xmlns:xlink="http://www.w3.org/1999/xlink" xmlns="http://www.w3.org/2000/svg" version="1.1" width="835" height="500"><defs><clipPath id="highcharts-8"><rect rx="0" ry="0" fill="none" x="0" y="0" width="9999" height="500" stroke-width="0.000001"></rect></clipPath><clipPath id="highcharts-9"><rect fill="none" x="0" y="0" width="697" height="400"></rect></clipPath></defs><rect rx="5" ry="5" fill="#FFFFFF" x="0" y="0" width="835" height="500" stroke-width="0.000001"></rect><g class="highcharts-grid" ></g><g class="highcharts-grid" ><path fill="none" d="M 98 373.5 L 795 373.5" stroke="#C0C0C0" stroke-width="1" ></path><path fill="none" d="M 98 307.5 L 795 307.5" stroke="#C0C0C0" stroke-width="1" ></path><path fill="none" d="M 98 240.5 L 795 240.5" stroke="#C0C0C0" stroke-width="1" ></path><path fill="none" d="M 98 173.5 L 795 173.5" stroke="#C0C0C0" stroke-width="1" ></path><path fill="none" d="M 98 107.5 L 795 107.5" stroke="#C0C0C0" stroke-width="1" ></path><path fill="none" d="M 98 40.5 L 795 40.5" stroke="#C0C0C0" stroke-width="1" ></path><path fill="none" d="M 98 440.5 L 795 440.5" stroke="#C0C0C0" stroke-width="1" ></path></g><g class="highcharts-axis" ><path fill="none" d="M 262.5 440 L 262.5 445" stroke="#C0D0E0" stroke-width="1"></path><path fill="none" d="M 351.5 440 L 351.5 445" stroke="#C0D0E0" stroke-width="1"></path><path fill="none" d="M 439.5 440 L 439.5 445" stroke="#C0D0E0" stroke-width="1"></path><path fill="none" d="M 528.5 440 L 528.5 445" stroke="#C0D0E0" stroke-width="1"></path><path fill="none" d="M 617.5 440 L 617.5 445" stroke="#C0D0E0" stroke-width="1"></path><path fill="none" d="M 705.5 440 L 705.5 445" stroke="#C0D0E0" stroke-width="1"></path><path fill="none" d="M 794.5 440 L 794.5 445" stroke="#C0D0E0" stroke-width="1"></path><path fill="none" d="M 173.5 440 L 173.5 445" stroke="#C0D0E0" stroke-width="1"></path><text x="446.5" y="491" style="font-family:'lucida grande', 'lucida sans unicode', verdana, arial, helvetica, sans-serif;font-size:24px;color:#6d869f;font-weight:bold;fill:#6d869f;"  text-anchor="middle" visibility="visible"><tspan x="446.5">Recall</tspan></text><path fill="none" d="M 98 440.5 L 795 440.5" stroke="#C0D0E0" stroke-width="1"  visibility="visible"></path></g><g class="highcharts-axis" ><text x="40" y="240" style="font-family:'lucida grande', 'lucida sans unicode', verdana, arial, helvetica, sans-serif;font-size:24px;color:#6d869f;font-weight:bold;fill:#6d869f;"  transform="rotate(270 40 240)" text-anchor="middle" visibility="visible"><tspan x="40">Precision</tspan></text></g><g class="highcharts-series-group" ><g class="highcharts-series" visibility="visible"  transform="translate(98,40)" clip-path="url(#highcharts-9)"><path fill="none" d="M 7.096188700922802 81.7 L 178.75274169065005 131.2 L 335.0083468476826 174.6 L 463.1887489383356 230.5 L 579.200028255593 275.4 L 669.2790303485498 331.1 L 745.9388833005959 378.9 L 807.8227092582275 426.4 L 863.0125934107721 467.4 L 910.2333265775886 503.7 L 951.8925758374772 536.1 L 990.4129683145475 564.7 L 1028.498375176012 589.4 L 1057.117944695655 614.7 L 1085.5202217516382 636.3 L 1111.7104848175454 656.9 L 1133.599299866421 676.9 L 1155.7574266010658 694.4 L 1180.1499235114225 709.1 L 1197.0279793473103 724.7 L 1212.2916548201713 738.6 L 1231.091823671798 750.7 L 1246.1849082856077 763.1 L 1257.5346216047333 775.1 L 1270.524610708392 785.8 L 1281.679162599267 796.4 L 1294.5292786371401 805.5 L 1307.9708734287149 813.6 L 1321.166715946411 821.4 L 1331.2755408864127 829.3 L 1342.975216250511 836.5 L 1349.654760526794 843.8 L 1359.4713983556594 850.3 L 1366.5847571043007 856.8 L 1372.7459611384138 862.9 L 1378.9520440495355 868.9 L 1384.2245847664603 874.7 L 1390.7985352695102 880 L 1396.9709384399437 884.8 L 1402.2018565100593 889.5" stroke="black" stroke-width="5"   stroke-opacity="0.049999999999999996" transform="translate(1, 1)"></path><path fill="none" d="M 7.096188700922802 81.7 L 178.75274169065005 131.2 L 335.0083468476826 174.6 L 463.1887489383356 230.5 L 579.200028255593 275.4 L 669.2790303485498 331.1 L 745.9388833005959 378.9 L 807.8227092582275 426.4 L 863.0125934107721 467.4 L 910.2333265775886 503.7 L 951.8925758374772 536.1 L 990.4129683145475 564.7 L 1028.498375176012 589.4 L 1057.117944695655 614.7 L 1085.5202217516382 636.3 L 1111.7104848175454 656.9 L 1133.599299866421 676.9 L 1155.7574266010658 694.4 L 1180.1499235114225 709.1 L 1197.0279793473103 724.7 L 1212.2916548201713 738.6 L 1231.091823671798 750.7 L 1246.1849082856077 763.1 L 1257.5346216047333 775.1 L 1270.524610708392 785.8 L 1281.679162599267 796.4 L 1294.5292786371401 805.5 L 1307.9708734287149 813.6 L 1321.166715946411 821.4 L 1331.2755408864127 829.3 L 1342.975216250511 836.5 L 1349.654760526794 843.8 L 1359.4713983556594 850.3 L 1366.5847571043007 856.8 L 1372.7459611384138 862.9 L 1378.9520440495355 868.9 L 1384.2245847664603 874.7 L 1390.7985352695102 880 L 1396.9709384399437 884.8 L 1402.2018565100593 889.5" stroke="black" stroke-width="3"   stroke-opacity="0.09999999999999999" transform="translate(1, 1)"></path><path fill="none" d="M 7.096188700922802 81.7 L 178.75274169065005 131.2 L 335.0083468476826 174.6 L 463.1887489383356 230.5 L 579.200028255593 275.4 L 669.2790303485498 331.1 L 745.9388833005959 378.9 L 807.8227092582275 426.4 L 863.0125934107721 467.4 L 910.2333265775886 503.7 L 951.8925758374772 536.1 L 990.4129683145475 564.7 L 1028.498375176012 589.4 L 1057.117944695655 614.7 L 1085.5202217516382 636.3 L 1111.7104848175454 656.9 L 1133.599299866421 676.9 L 1155.7574266010658 694.4 L 1180.1499235114225 709.1 L 1197.0279793473103 724.7 L 1212.2916548201713 738.6 L 1231.091823671798 750.7 L 1246.1849082856077 763.1 L 1257.5346216047333 775.1 L 1270.524610708392 785.8 L 1281.679162599267 796.4 L 1294.5292786371401 805.5 L 1307.9708734287149 813.6 L 1321.166715946411 821.4 L 1331.2755408864127 829.3 L 1342.975216250511 836.5 L 1349.654760526794 843.8 L 1359.4713983556594 850.3 L 1366.5847571043007 856.8 L 1372.7459611384138 862.9 L 1378.9520440495355 868.9 L 1384.2245847664603 874.7 L 1390.7985352695102 880 L 1396.9709384399437 884.8 L 1402.2018565100593 889.5" stroke="black" stroke-width="1"   stroke-opacity="0.15" transform="translate(1, 1)"></path><path fill="none" d="M 7.096188700922802 81.7 L 178.75274169065005 131.2 L 335.0083468476826 174.6 L 463.1887489383356 230.5 L 579.200028255593 275.4 L 669.2790303485498 331.1 L 745.9388833005959 378.9 L 807.8227092582275 426.4 L 863.0125934107721 467.4 L 910.2333265775886 503.7 L 951.8925758374772 536.1 L 990.4129683145475 564.7 L 1028.498375176012 589.4 L 1057.117944695655 614.7 L 1085.5202217516382 636.3 L 1111.7104848175454 656.9 L 1133.599299866421 676.9 L 1155.7574266010658 694.4 L 1180.1499235114225 709.1 L 1197.0279793473103 724.7 L 1212.2916548201713 738.6 L 1231.091823671798 750.7 L 1246.1849082856077 763.1 L 1257.5346216047333 775.1 L 1270.524610708392 785.8 L 1281.679162599267 796.4 L 1294.5292786371401 805.5 L 1307.9708734287149 813.6 L 1321.166715946411 821.4 L 1331.2755408864127 829.3 L 1342.975216250511 836.5 L 1349.654760526794 843.8 L 1359.4713983556594 850.3 L 1366.5847571043007 856.8 L 1372.7459611384138 862.9 L 1378.9520440495355 868.9 L 1384.2245847664603 874.7 L 1390.7985352695102 880 L 1396.9709384399437 884.8 L 1402.2018565100593 889.5" stroke="#4572A7" stroke-width="2" ></path></g><g class="highcharts-markers" visibility="visible"  transform="translate(98,40)" clip-path="none"><path fill="#4572A7" d="M 669.2790303485498 327.1 C 674.6070303485498 327.1 674.6070303485498 335.1 669.2790303485498 335.1 C 663.9510303485498 335.1 663.9510303485498 327.1 669.2790303485498 327.1 Z" stroke="#FFFFFF" stroke-width="0.000001"></path><path fill="#4572A7" d="M 579.200028255593 271.4 C 584.528028255593 271.4 584.528028255593 279.4 579.200028255593 279.4 C 573.872028255593 279.4 573.872028255593 271.4 579.200028255593 271.4 Z" stroke="#FFFFFF" stroke-width="0.000001"></path><path fill="#4572A7" d="M 463.1887489383356 226.5 C 468.5167489383356 226.5 468.5167489383356 234.5 463.1887489383356 234.5 C 457.86074893833563 234.5 457.86074893833563 226.5 463.1887489383356 226.5 Z" stroke="#FFFFFF" stroke-width="0.000001"></path><path fill="#4572A7" d="M 335.0083468476826 170.6 C 340.3363468476826 170.6 340.3363468476826 178.6 335.0083468476826 178.6 C 329.68034684768264 178.6 329.68034684768264 170.6 335.0083468476826 170.6 Z" stroke="#FFFFFF" stroke-width="0.000001"></path><path fill="#4572A7" d="M 178.75274169065005 127.19999999999999 C 184.08074169065006 127.19999999999999 184.08074169065006 135.2 178.75274169065005 135.2 C 173.42474169065005 135.2 173.42474169065005 127.19999999999999 178.75274169065005 127.19999999999999 Z" stroke="#FFFFFF" stroke-width="0.000001"></path><path fill="#4572A7" d="M 7.096188700922802 77.7 C 12.424188700922802 77.7 12.424188700922802 85.7 7.096188700922802 85.7 C 1.7681887009228021 85.7 1.7681887009228021 77.7 7.096188700922802 77.7 Z" stroke="#FFFFFF" stroke-width="0.000001"></path></g><g class="highcharts-series" visibility="visible"  transform="translate(98,40)" clip-path="url(#highcharts-9)"><path fill="none" d="M 10.476518809307501 60.2 L 182.99790768692472 116.1 L 339.56212757723426 159.5 L 466.8634653545649 219.9 L 581.8385000901218 266.8 L 669.8714960953491 325 L 746.5875253878535 373.8 L 806.9082095487904 422.3 L 860.7811445955459 464.2 L 908.0658752215345 500.6 L 949.6637380300865 532.9 L 987.328331142089 562.1 L 1025.1277493546104 587.4 L 1053.5967985339178 612.9 L 1081.7130869427308 634.8 L 1107.903350006865 655.6 L 1129.0295286621051 675.9 L 1151.18765539675 693.5 L 1175.2226664954844 708.4 L 1191.9100632338498 724.1 L 1207.173738706711 738.1 L 1225.9739075565644 750.3 L 1241.0669921721471 762.7 L 1252.2124278841247 774.9 L 1264.4080040758258 785.7 L 1275.383813062663 796.3 L 1288.0657004827808 805.5 L 1301.0966449088246 813.6 L 1313.815839680055 821.5 L 1323.6386759711138 829.6 L 1335.3870993991436 836.6 L 1341.8759845779045 844 L 1351.5138795009586 850.6 L 1357.9326943899075 857.2 L 1364.0938984257937 863.4 L 1370.2999813369152 869.3 L 1375.5725220520671 875.2 L 1382.0663464252316 880.4 L 1388.2387495956648 885.2 L 1393.4696676657807 890" stroke="black" stroke-width="5"   stroke-opacity="0.049999999999999996" transform="translate(1, 1)"></path><path fill="none" d="M 10.476518809307501 60.2 L 182.99790768692472 116.1 L 339.56212757723426 159.5 L 466.8634653545649 219.9 L 581.8385000901218 266.8 L 669.8714960953491 325 L 746.5875253878535 373.8 L 806.9082095487904 422.3 L 860.7811445955459 464.2 L 908.0658752215345 500.6 L 949.6637380300865 532.9 L 987.328331142089 562.1 L 1025.1277493546104 587.4 L 1053.5967985339178 612.9 L 1081.7130869427308 634.8 L 1107.903350006865 655.6 L 1129.0295286621051 675.9 L 1151.18765539675 693.5 L 1175.2226664954844 708.4 L 1191.9100632338498 724.1 L 1207.173738706711 738.1 L 1225.9739075565644 750.3 L 1241.0669921721471 762.7 L 1252.2124278841247 774.9 L 1264.4080040758258 785.7 L 1275.383813062663 796.3 L 1288.0657004827808 805.5 L 1301.0966449088246 813.6 L 1313.815839680055 821.5 L 1323.6386759711138 829.6 L 1335.3870993991436 836.6 L 1341.8759845779045 844 L 1351.5138795009586 850.6 L 1357.9326943899075 857.2 L 1364.0938984257937 863.4 L 1370.2999813369152 869.3 L 1375.5725220520671 875.2 L 1382.0663464252316 880.4 L 1388.2387495956648 885.2 L 1393.4696676657807 890" stroke="black" stroke-width="3"   stroke-opacity="0.09999999999999999" transform="translate(1, 1)"></path><path fill="none" d="M 10.476518809307501 60.2 L 182.99790768692472 116.1 L 339.56212757723426 159.5 L 466.8634653545649 219.9 L 581.8385000901218 266.8 L 669.8714960953491 325 L 746.5875253878535 373.8 L 806.9082095487904 422.3 L 860.7811445955459 464.2 L 908.0658752215345 500.6 L 949.6637380300865 532.9 L 987.328331142089 562.1 L 1025.1277493546104 587.4 L 1053.5967985339178 612.9 L 1081.7130869427308 634.8 L 1107.903350006865 655.6 L 1129.0295286621051 675.9 L 1151.18765539675 693.5 L 1175.2226664954844 708.4 L 1191.9100632338498 724.1 L 1207.173738706711 738.1 L 1225.9739075565644 750.3 L 1241.0669921721471 762.7 L 1252.2124278841247 774.9 L 1264.4080040758258 785.7 L 1275.383813062663 796.3 L 1288.0657004827808 805.5 L 1301.0966449088246 813.6 L 1313.815839680055 821.5 L 1323.6386759711138 829.6 L 1335.3870993991436 836.6 L 1341.8759845779045 844 L 1351.5138795009586 850.6 L 1357.9326943899075 857.2 L 1364.0938984257937 863.4 L 1370.2999813369152 869.3 L 1375.5725220520671 875.2 L 1382.0663464252316 880.4 L 1388.2387495956648 885.2 L 1393.4696676657807 890" stroke="black" stroke-width="1"   stroke-opacity="0.15" transform="translate(1, 1)"></path><path fill="none" d="M 10.476518809307501 60.2 L 182.99790768692472 116.1 L 339.56212757723426 159.5 L 466.8634653545649 219.9 L 581.8385000901218 266.8 L 669.8714960953491 325 L 746.5875253878535 373.8 L 806.9082095487904 422.3 L 860.7811445955459 464.2 L 908.0658752215345 500.6 L 949.6637380300865 532.9 L 987.328331142089 562.1 L 1025.1277493546104 587.4 L 1053.5967985339178 612.9 L 1081.7130869427308 634.8 L 1107.903350006865 655.6 L 1129.0295286621051 675.9 L 1151.18765539675 693.5 L 1175.2226664954844 708.4 L 1191.9100632338498 724.1 L 1207.173738706711 738.1 L 1225.9739075565644 750.3 L 1241.0669921721471 762.7 L 1252.2124278841247 774.9 L 1264.4080040758258 785.7 L 1275.383813062663 796.3 L 1288.0657004827808 805.5 L 1301.0966449088246 813.6 L 1313.815839680055 821.5 L 1323.6386759711138 829.6 L 1335.3870993991436 836.6 L 1341.8759845779045 844 L 1351.5138795009586 850.6 L 1357.9326943899075 857.2 L 1364.0938984257937 863.4 L 1370.2999813369152 869.3 L 1375.5725220520671 875.2 L 1382.0663464252316 880.4 L 1388.2387495956648 885.2 L 1393.4696676657807 890" stroke="#AA4643" stroke-width="2" ></path></g><g class="highcharts-markers" visibility="visible"  transform="translate(98,40)" clip-path="none"><path fill="#AA4643" d="M 669.8714960953491 321 L 673.8714960953491 325 669.8714960953491 329 665.8714960953491 325 Z" stroke="#FFFFFF" stroke-width="0.000001"></path><path fill="#AA4643" d="M 581.8385000901218 262.8 L 585.8385000901218 266.8 581.8385000901218 270.8 577.8385000901218 266.8 Z" stroke="#FFFFFF" stroke-width="0.000001"></path><path fill="#AA4643" d="M 466.8634653545649 215.9 L 470.8634653545649 219.9 466.8634653545649 223.9 462.8634653545649 219.9 Z" stroke="#FFFFFF" stroke-width="0.000001"></path><path fill="#AA4643" d="M 339.56212757723426 155.5 L 343.56212757723426 159.5 339.56212757723426 163.5 335.56212757723426 159.5 Z" stroke="#FFFFFF" stroke-width="0.000001"></path><path fill="#AA4643" d="M 182.99790768692472 112.1 L 186.99790768692472 116.1 182.99790768692472 120.1 178.99790768692472 116.1 Z" stroke="#FFFFFF" stroke-width="0.000001"></path><path fill="#AA4643" d="M 10.476518809307501 56.2 L 14.476518809307501 60.2 10.476518809307501 64.2 6.4765188093075015 60.2 Z" stroke="#FFFFFF" stroke-width="0.000001"></path></g><g class="highcharts-series" visibility="visible"  transform="translate(98,40)" clip-path="url(#highcharts-9)"><path fill="none" d="M 6.90099009900989 83.9 L 178.0469097633212 134.4 L 332.00666160454745 181 L 459.77433007790734 235.8 L 575.2544876208358 280.3 L 665.1666630032389 335 L 741.8426938853124 381.7 L 802.9123959338054 429.3 L 857.3873084648785 470 L 904.1334890400113 506 L 946.1502241097492 537.9 L 984.0748069037375 566.5 L 1021.8742251162587 591.3 L 1050.1049504205603 616.6 L 1078.5072274783165 638 L 1104.6974905424504 658.6 L 1126.3003169441563 678.5 L 1148.662721285949 695.9 L 1172.6977323846834 710.7 L 1189.3851291230487 726.2 L 1204.648804594137 740.1 L 1223.4489734457634 752.1 L 1238.542058059573 764.4 L 1249.6874937733237 776.5 L 1262.3597177114905 787.1 L 1273.5142696023652 797.6 L 1286.196157024256 806.8 L 1299.7037491967653 814.8 L 1312.422943967996 822.6 L 1322.2457802590548 830.6 L 1333.945455623153 837.7 L 1340.4343408001405 845 L 1350.072235724968 851.5 L 1356.4910506121435 858.1 L 1362.3662659990866 864.3 L 1368.5723489102081 870.2 L 1373.8448896271332 876 L 1380.41884012841 881.3 L 1386.5912432988434 886 L 1391.822161368959 890.8" stroke="black" stroke-width="5"   stroke-opacity="0.049999999999999996" transform="translate(1, 1)"></path><path fill="none" d="M 6.90099009900989 83.9 L 178.0469097633212 134.4 L 332.00666160454745 181 L 459.77433007790734 235.8 L 575.2544876208358 280.3 L 665.1666630032389 335 L 741.8426938853124 381.7 L 802.9123959338054 429.3 L 857.3873084648785 470 L 904.1334890400113 506 L 946.1502241097492 537.9 L 984.0748069037375 566.5 L 1021.8742251162587 591.3 L 1050.1049504205603 616.6 L 1078.5072274783165 638 L 1104.6974905424504 658.6 L 1126.3003169441563 678.5 L 1148.662721285949 695.9 L 1172.6977323846834 710.7 L 1189.3851291230487 726.2 L 1204.648804594137 740.1 L 1223.4489734457634 752.1 L 1238.542058059573 764.4 L 1249.6874937733237 776.5 L 1262.3597177114905 787.1 L 1273.5142696023652 797.6 L 1286.196157024256 806.8 L 1299.7037491967653 814.8 L 1312.422943967996 822.6 L 1322.2457802590548 830.6 L 1333.945455623153 837.7 L 1340.4343408001405 845 L 1350.072235724968 851.5 L 1356.4910506121435 858.1 L 1362.3662659990866 864.3 L 1368.5723489102081 870.2 L 1373.8448896271332 876 L 1380.41884012841 881.3 L 1386.5912432988434 886 L 1391.822161368959 890.8" stroke="black" stroke-width="3"   stroke-opacity="0.09999999999999999" transform="translate(1, 1)"></path><path fill="none" d="M 6.90099009900989 83.9 L 178.0469097633212 134.4 L 332.00666160454745 181 L 459.77433007790734 235.8 L 575.2544876208358 280.3 L 665.1666630032389 335 L 741.8426938853124 381.7 L 802.9123959338054 429.3 L 857.3873084648785 470 L 904.1334890400113 506 L 946.1502241097492 537.9 L 984.0748069037375 566.5 L 1021.8742251162587 591.3 L 1050.1049504205603 616.6 L 1078.5072274783165 638 L 1104.6974905424504 658.6 L 1126.3003169441563 678.5 L 1148.662721285949 695.9 L 1172.6977323846834 710.7 L 1189.3851291230487 726.2 L 1204.648804594137 740.1 L 1223.4489734457634 752.1 L 1238.542058059573 764.4 L 1249.6874937733237 776.5 L 1262.3597177114905 787.1 L 1273.5142696023652 797.6 L 1286.196157024256 806.8 L 1299.7037491967653 814.8 L 1312.422943967996 822.6 L 1322.2457802590548 830.6 L 1333.945455623153 837.7 L 1340.4343408001405 845 L 1350.072235724968 851.5 L 1356.4910506121435 858.1 L 1362.3662659990866 864.3 L 1368.5723489102081 870.2 L 1373.8448896271332 876 L 1380.41884012841 881.3 L 1386.5912432988434 886 L 1391.822161368959 890.8" stroke="black" stroke-width="1"   stroke-opacity="0.15" transform="translate(1, 1)"></path><path fill="none" d="M 6.90099009900989 83.9 L 178.0469097633212 134.4 L 332.00666160454745 181 L 459.77433007790734 235.8 L 575.2544876208358 280.3 L 665.1666630032389 335 L 741.8426938853124 381.7 L 802.9123959338054 429.3 L 857.3873084648785 470 L 904.1334890400113 506 L 946.1502241097492 537.9 L 984.0748069037375 566.5 L 1021.8742251162587 591.3 L 1050.1049504205603 616.6 L 1078.5072274783165 638 L 1104.6974905424504 658.6 L 1126.3003169441563 678.5 L 1148.662721285949 695.9 L 1172.6977323846834 710.7 L 1189.3851291230487 726.2 L 1204.648804594137 740.1 L 1223.4489734457634 752.1 L 1238.542058059573 764.4 L 1249.6874937733237 776.5 L 1262.3597177114905 787.1 L 1273.5142696023652 797.6 L 1286.196157024256 806.8 L 1299.7037491967653 814.8 L 1312.422943967996 822.6 L 1322.2457802590548 830.6 L 1333.945455623153 837.7 L 1340.4343408001405 845 L 1350.072235724968 851.5 L 1356.4910506121435 858.1 L 1362.3662659990866 864.3 L 1368.5723489102081 870.2 L 1373.8448896271332 876 L 1380.41884012841 881.3 L 1386.5912432988434 886 L 1391.822161368959 890.8" stroke="#89A54E" stroke-width="2" ></path></g><g class="highcharts-markers" visibility="visible"  transform="translate(98,40)" clip-path="none"><path fill="#89A54E" d="M 661.1666630032389 331 L 669.1666630032389 331 669.1666630032389 339 661.1666630032389 339 Z" stroke="#FFFFFF" stroke-width="0.000001"></path><path fill="#89A54E" d="M 571.2544876208358 276.3 L 579.2544876208358 276.3 579.2544876208358 284.3 571.2544876208358 284.3 Z" stroke="#FFFFFF" stroke-width="0.000001"></path><path fill="#89A54E" d="M 455.77433007790734 231.8 L 463.77433007790734 231.8 463.77433007790734 239.8 455.77433007790734 239.8 Z" stroke="#FFFFFF" stroke-width="0.000001"></path><path fill="#89A54E" d="M 328.00666160454745 177 L 336.00666160454745 177 336.00666160454745 185 328.00666160454745 185 Z" stroke="#FFFFFF" stroke-width="0.000001"></path><path fill="#89A54E" d="M 174.0469097633212 130.4 L 182.0469097633212 130.4 182.0469097633212 138.4 174.0469097633212 138.4 Z" stroke="#FFFFFF" stroke-width="0.000001"></path><path fill="#89A54E" d="M 2.9009900990098902 79.9 L 10.90099009900989 79.9 10.90099009900989 87.9 2.9009900990098902 87.9 Z" stroke="#FFFFFF" stroke-width="0.000001"></path></g><g class="highcharts-series" visibility="visible"  transform="translate(98,40)" clip-path="url(#highcharts-9)"><path fill="none" d="M 12.92000912086312 45.2 L 186.39263008274244 102.2 L 345.49401367622437 145.2 L 474.77369209929964 205.7 L 591.3012366396055 253.6 L 681.4126858573721 311 L 758.6261835003072 361.4 L 819.9134667205176 410.3 L 874.307699915903 453.2 L 921.2989158761975 491.3 L 963.4785055943581 524 L 1001.9869248611881 553.6 L 1038.7778567883172 580 L 1068.3723876096444 605.5 L 1096.3586811783512 627.7 L 1122.5229452737547 649 L 1144.5785870367301 669.3 L 1166.1816048530977 687.6 L 1190.2567547090184 702.9 L 1207.8540583131453 718.3 L 1222.6410860377678 732.8 L 1241.767382295524 745.2 L 1256.4151775665878 757.8 L 1267.6921556760597 770.1 L 1280.3354918733596 781.1 L 1291.6200386043406 791.7 L 1303.7007569063876 801.3 L 1317.5010990682576 809.2 L 1330.090298999382 817.3 L 1340.8057665259557 825.2 L 1352.1221027634335 832.7 L 1358.887545591303 840.1 L 1368.2759651239735 846.8 L 1375.6615483599728 853.2 L 1381.8227523958594 859.5 L 1387.6202800944582 865.6 L 1392.7140779055721 871.6 L 1399.2079022787366 876.9 L 1405.3908197372255 881.8 L 1410.5993073258012 886.6" stroke="black" stroke-width="5"   stroke-opacity="0.049999999999999996" transform="translate(1, 1)"></path><path fill="none" d="M 12.92000912086312 45.2 L 186.39263008274244 102.2 L 345.49401367622437 145.2 L 474.77369209929964 205.7 L 591.3012366396055 253.6 L 681.4126858573721 311 L 758.6261835003072 361.4 L 819.9134667205176 410.3 L 874.307699915903 453.2 L 921.2989158761975 491.3 L 963.4785055943581 524 L 1001.9869248611881 553.6 L 1038.7778567883172 580 L 1068.3723876096444 605.5 L 1096.3586811783512 627.7 L 1122.5229452737547 649 L 1144.5785870367301 669.3 L 1166.1816048530977 687.6 L 1190.2567547090184 702.9 L 1207.8540583131453 718.3 L 1222.6410860377678 732.8 L 1241.767382295524 745.2 L 1256.4151775665878 757.8 L 1267.6921556760597 770.1 L 1280.3354918733596 781.1 L 1291.6200386043406 791.7 L 1303.7007569063876 801.3 L 1317.5010990682576 809.2 L 1330.090298999382 817.3 L 1340.8057665259557 825.2 L 1352.1221027634335 832.7 L 1358.887545591303 840.1 L 1368.2759651239735 846.8 L 1375.6615483599728 853.2 L 1381.8227523958594 859.5 L 1387.6202800944582 865.6 L 1392.7140779055721 871.6 L 1399.2079022787366 876.9 L 1405.3908197372255 881.8 L 1410.5993073258012 886.6" stroke="black" stroke-width="3"   stroke-opacity="0.09999999999999999" transform="translate(1, 1)"></path><path fill="none" d="M 12.92000912086312 45.2 L 186.39263008274244 102.2 L 345.49401367622437 145.2 L 474.77369209929964 205.7 L 591.3012366396055 253.6 L 681.4126858573721 311 L 758.6261835003072 361.4 L 819.9134667205176 410.3 L 874.307699915903 453.2 L 921.2989158761975 491.3 L 963.4785055943581 524 L 1001.9869248611881 553.6 L 1038.7778567883172 580 L 1068.3723876096444 605.5 L 1096.3586811783512 627.7 L 1122.5229452737547 649 L 1144.5785870367301 669.3 L 1166.1816048530977 687.6 L 1190.2567547090184 702.9 L 1207.8540583131453 718.3 L 1222.6410860377678 732.8 L 1241.767382295524 745.2 L 1256.4151775665878 757.8 L 1267.6921556760597 770.1 L 1280.3354918733596 781.1 L 1291.6200386043406 791.7 L 1303.7007569063876 801.3 L 1317.5010990682576 809.2 L 1330.090298999382 817.3 L 1340.8057665259557 825.2 L 1352.1221027634335 832.7 L 1358.887545591303 840.1 L 1368.2759651239735 846.8 L 1375.6615483599728 853.2 L 1381.8227523958594 859.5 L 1387.6202800944582 865.6 L 1392.7140779055721 871.6 L 1399.2079022787366 876.9 L 1405.3908197372255 881.8 L 1410.5993073258012 886.6" stroke="black" stroke-width="1"   stroke-opacity="0.15" transform="translate(1, 1)"></path><path fill="none" d="M 12.92000912086312 45.2 L 186.39263008274244 102.2 L 345.49401367622437 145.2 L 474.77369209929964 205.7 L 591.3012366396055 253.6 L 681.4126858573721 311 L 758.6261835003072 361.4 L 819.9134667205176 410.3 L 874.307699915903 453.2 L 921.2989158761975 491.3 L 963.4785055943581 524 L 1001.9869248611881 553.6 L 1038.7778567883172 580 L 1068.3723876096444 605.5 L 1096.3586811783512 627.7 L 1122.5229452737547 649 L 1144.5785870367301 669.3 L 1166.1816048530977 687.6 L 1190.2567547090184 702.9 L 1207.8540583131453 718.3 L 1222.6410860377678 732.8 L 1241.767382295524 745.2 L 1256.4151775665878 757.8 L 1267.6921556760597 770.1 L 1280.3354918733596 781.1 L 1291.6200386043406 791.7 L 1303.7007569063876 801.3 L 1317.5010990682576 809.2 L 1330.090298999382 817.3 L 1340.8057665259557 825.2 L 1352.1221027634335 832.7 L 1358.887545591303 840.1 L 1368.2759651239735 846.8 L 1375.6615483599728 853.2 L 1381.8227523958594 859.5 L 1387.6202800944582 865.6 L 1392.7140779055721 871.6 L 1399.2079022787366 876.9 L 1405.3908197372255 881.8 L 1410.5993073258012 886.6" stroke="#80699B" stroke-width="2" ></path></g><g class="highcharts-markers" visibility="visible"  transform="translate(98,40)" clip-path="none"><path fill="#80699B" d="M 681.4126858573721 307 L 685.4126858573721 315 677.4126858573721 315 Z" stroke="#FFFFFF" stroke-width="0.000001"></path><path fill="#80699B" d="M 591.3012366396055 249.6 L 595.3012366396055 257.6 587.3012366396055 257.6 Z" stroke="#FFFFFF" stroke-width="0.000001"></path><path fill="#80699B" d="M 474.77369209929964 201.7 L 478.77369209929964 209.7 470.77369209929964 209.7 Z" stroke="#FFFFFF" stroke-width="0.000001"></path><path fill="#80699B" d="M 345.49401367622437 141.2 L 349.49401367622437 149.2 341.49401367622437 149.2 Z" stroke="#FFFFFF" stroke-width="0.000001"></path><path fill="#80699B" d="M 186.39263008274244 98.2 L 190.39263008274244 106.2 182.39263008274244 106.2 Z" stroke="#FFFFFF" stroke-width="0.000001"></path><path fill="#80699B" d="M 12.92000912086312 41.2 L 16.92000912086312 49.2 8.92000912086312 49.2 Z" stroke="#FFFFFF" stroke-width="0.000001"></path></g></g><g class="highcharts-legend"  transform="translate(492,80)"><g  clip-path="url(#highcharts-8)"><g><g class="highcharts-legend-item"  transform="translate(8,3)"><path fill="none" d="M 0 23 L 16 23" stroke-width="2" stroke="#4572A7"></path><path fill="#4572A7" d="M 8 19 C 13.328 19 13.328 27 8 27 C 2.6719999999999997 27 2.6719999999999997 19 8 19 Z" stroke="#FFFFFF" stroke-width="0.000001"></path><text x="21" y="27" style="font-family:'lucida grande', 'lucida sans unicode', verdana, arial, helvetica, sans-serif;font-size:24px;cursor:pointer;color:#3e576f;fill:#3e576f;" text-anchor="start" ><tspan x="21">tfidf_title</tspan></text></g><g class="highcharts-legend-item"  transform="translate(8,33)"><path fill="none" d="M 0 23 L 16 23" stroke-width="2" stroke="#AA4643"></path><path fill="#AA4643" d="M 8 19 L 12 23 8 27 4 23 Z" stroke="#FFFFFF" stroke-width="0.000001"></path><text x="21" y="27" style="font-family:'lucida grande', 'lucida sans unicode', verdana, arial, helvetica, sans-serif;font-size:24px;cursor:pointer;color:#3e576f;fill:#3e576f;" text-anchor="start" ><tspan x="21">LDA disambiguation</tspan></text></g><g class="highcharts-legend-item"  transform="translate(8,63)"><path fill="none" d="M 0 23 L 16 23" stroke-width="2" stroke="#89A54E"></path><path fill="#89A54E" d="M 4 19 L 12 19 12 27 4 27 Z" stroke="#FFFFFF" stroke-width="0.000001"></path><text x="21" y="27" style="font-family:'lucida grande', 'lucida sans unicode', verdana, arial, helvetica, sans-serif;font-size:24px;cursor:pointer;color:#3e576f;fill:#3e576f;" text-anchor="start" ><tspan x="21">K-means disambiguation</tspan></text></g><g class="highcharts-legend-item"  transform="translate(8,93)"><path fill="none" d="M 0 23 L 16 23" stroke-width="2" stroke="#80699B"></path><path fill="#80699B" d="M 8 19 L 12 27 4 27 Z" stroke="#FFFFFF" stroke-width="0.000001"></path><text x="21" y="27" style="font-family:'lucida grande', 'lucida sans unicode', verdana, arial, helvetica, sans-serif;font-size:24px;cursor:pointer;color:#3e576f;fill:#3e576f;" text-anchor="start" ><tspan x="21">GOLD disambiguation</tspan></text></g></g></g></g><g class="highcharts-axis-labels" ><text x="174.4046334069452" y="460" style="font-family:'lucida grande', 'lucida sans unicode', verdana, arial, helvetica, sans-serif;font-size:18px;color:#666;line-height:14px;fill:#666;" text-anchor="middle" visibility="visible"><tspan x="174.4046334069452">0.15</tspan></text><text x="263.0611143488102" y="460" style="font-family:'lucida grande', 'lucida sans unicode', verdana, arial, helvetica, sans-serif;font-size:18px;color:#666;line-height:14px;fill:#666;" text-anchor="middle" visibility="visible"><tspan x="263.0611143488102">0.2</tspan></text><text x="351.71759529067515" y="460" style="font-family:'lucida grande', 'lucida sans unicode', verdana, arial, helvetica, sans-serif;font-size:18px;color:#666;line-height:14px;fill:#666;" text-anchor="middle" visibility="visible"><tspan x="351.71759529067515">0.25</tspan></text><text x="440.3740762325401" y="460" style="font-family:'lucida grande', 'lucida sans unicode', verdana, arial, helvetica, sans-serif;font-size:18px;color:#666;line-height:14px;fill:#666;" text-anchor="middle" visibility="visible"><tspan x="440.3740762325401">0.3</tspan></text><text x="529.030557174405" y="460" style="font-family:'lucida grande', 'lucida sans unicode', verdana, arial, helvetica, sans-serif;font-size:18px;color:#666;line-height:14px;fill:#666;" text-anchor="middle" visibility="visible"><tspan x="529.030557174405">0.35</tspan></text><text x="617.6870381162701" y="460" style="font-family:'lucida grande', 'lucida sans unicode', verdana, arial, helvetica, sans-serif;font-size:18px;color:#666;line-height:14px;fill:#666;" text-anchor="middle" visibility="visible"><tspan x="617.6870381162701">0.4</tspan></text><text x="706.343519058135" y="460" style="font-family:'lucida grande', 'lucida sans unicode', verdana, arial, helvetica, sans-serif;font-size:18px;color:#666;line-height:14px;fill:#666;" text-anchor="middle" visibility="visible"><tspan x="706.343519058135">0.45</tspan></text><text x="795" y="460" style="font-family:'lucida grande', 'lucida sans unicode', verdana, arial, helvetica, sans-serif;font-size:18px;color:#666;line-height:14px;fill:#666;" text-anchor="middle" visibility="visible"><tspan x="795">0.5</tspan></text></g><g class="highcharts-axis-labels" ><text x="90" y="441.6" style="font-family:'lucida grande', 'lucida sans unicode', verdana, arial, helvetica, sans-serif;font-size:18px;width:329px;color:#666;line-height:14px;fill:#666;" text-anchor="end" visibility="visible"><tspan x="90">0.6</tspan></text><text x="90" y="374.9333333333333" style="font-family:'lucida grande', 'lucida sans unicode', verdana, arial, helvetica, sans-serif;font-size:18px;width:329px;color:#666;line-height:14px;fill:#666;" text-anchor="end" visibility="visible"><tspan x="90">0.65</tspan></text><text x="90" y="308.26666666666677" style="font-family:'lucida grande', 'lucida sans unicode', verdana, arial, helvetica, sans-serif;font-size:18px;width:329px;color:#666;line-height:14px;fill:#666;" text-anchor="end" visibility="visible"><tspan x="90">0.7</tspan></text><text x="90" y="241.6" style="font-family:'lucida grande', 'lucida sans unicode', verdana, arial, helvetica, sans-serif;font-size:18px;width:329px;color:#666;line-height:14px;fill:#666;" text-anchor="end" visibility="visible"><tspan x="90">0.75</tspan></text><text x="90" y="174.9333333333333" style="font-family:'lucida grande', 'lucida sans unicode', verdana, arial, helvetica, sans-serif;font-size:18px;width:329px;color:#666;line-height:14px;fill:#666;" text-anchor="end" visibility="visible"><tspan x="90">0.8</tspan></text><text x="90" y="108.26666666666674" style="font-family:'lucida grande', 'lucida sans unicode', verdana, arial, helvetica, sans-serif;font-size:18px;width:329px;color:#666;line-height:14px;fill:#666;" text-anchor="end" visibility="visible"><tspan x="90">0.85</tspan></text><text x="90" y="41.60000000000006" style="font-family:'lucida grande', 'lucida sans unicode', verdana, arial, helvetica, sans-serif;font-size:18px;width:329px;color:#666;line-height:14px;fill:#666;" text-anchor="end" visibility="visible"><tspan x="90">0.9</tspan></text></g><g class="highcharts-tooltip"  style="padding:0;white-space:nowrap;" visibility="hidden"><rect rx="5" ry="5" fill="none" x="0" y="0" width="10" height="10" stroke-width="5" fill-opacity="0.85"  stroke="black" stroke-opacity="0.049999999999999996" transform="translate(1, 1)"></rect><rect rx="5" ry="5" fill="none" x="0" y="0" width="10" height="10" stroke-width="3" fill-opacity="0.85"  stroke="black" stroke-opacity="0.09999999999999999" transform="translate(1, 1)"></rect><rect rx="5" ry="5" fill="none" x="0" y="0" width="10" height="10" stroke-width="1" fill-opacity="0.85"  stroke="black" stroke-opacity="0.15" transform="translate(1, 1)"></rect><rect rx="5" ry="5" fill="rgb(255,255,255)" x="0" y="0" width="10" height="10" stroke-width="2" fill-opacity="0.85"></rect><text x="5" y="18" style="font-family:'lucida grande', 'lucida sans unicode', verdana, arial, helvetica, sans-serif;font-size:12px;color:#333333;fill:#333333;" ></text></g><g class="highcharts-tracker" ><g visibility="visible"  transform="translate(98,40)" clip-path="url(#highcharts-9)"><path fill="none" d="M -2.903811299077198 81.7 L 7.096188700922802 81.7 L 178.75274169065005 131.2 L 335.0083468476826 174.6 L 463.1887489383356 230.5 L 579.200028255593 275.4 L 669.2790303485498 331.1 L 745.9388833005959 378.9 L 807.8227092582275 426.4 L 863.0125934107721 467.4 L 910.2333265775886 503.7 L 951.8925758374772 536.1 L 990.4129683145475 564.7 L 1028.498375176012 589.4 L 1057.117944695655 614.7 L 1085.5202217516382 636.3 L 1111.7104848175454 656.9 L 1133.599299866421 676.9 L 1155.7574266010658 694.4 L 1180.1499235114225 709.1 L 1197.0279793473103 724.7 L 1212.2916548201713 738.6 L 1231.091823671798 750.7 L 1246.1849082856077 763.1 L 1257.5346216047333 775.1 L 1270.524610708392 785.8 L 1281.679162599267 796.4 L 1294.5292786371401 805.5 L 1307.9708734287149 813.6 L 1321.166715946411 821.4 L 1331.2755408864127 829.3 L 1342.975216250511 836.5 L 1349.654760526794 843.8 L 1359.4713983556594 850.3 L 1366.5847571043007 856.8 L 1372.7459611384138 862.9 L 1378.9520440495355 868.9 L 1384.2245847664603 874.7 L 1390.7985352695102 880 L 1396.9709384399437 884.8 L 1402.2018565100593 889.5 L 1412.2018565100593 889.5"  stroke-linejoin="bevel" visibility="visible" stroke-opacity="0.000001" stroke="rgb(192,192,192)" stroke-width="22" style=""></path></g><g visibility="visible"  transform="translate(98,40)" clip-path="url(#highcharts-9)"><path fill="none" d="M 0.47651880930750146 60.2 L 10.476518809307501 60.2 L 182.99790768692472 116.1 L 339.56212757723426 159.5 L 466.8634653545649 219.9 L 581.8385000901218 266.8 L 669.8714960953491 325 L 746.5875253878535 373.8 L 806.9082095487904 422.3 L 860.7811445955459 464.2 L 908.0658752215345 500.6 L 949.6637380300865 532.9 L 987.328331142089 562.1 L 1025.1277493546104 587.4 L 1053.5967985339178 612.9 L 1081.7130869427308 634.8 L 1107.903350006865 655.6 L 1129.0295286621051 675.9 L 1151.18765539675 693.5 L 1175.2226664954844 708.4 L 1191.9100632338498 724.1 L 1207.173738706711 738.1 L 1225.9739075565644 750.3 L 1241.0669921721471 762.7 L 1252.2124278841247 774.9 L 1264.4080040758258 785.7 L 1275.383813062663 796.3 L 1288.0657004827808 805.5 L 1301.0966449088246 813.6 L 1313.815839680055 821.5 L 1323.6386759711138 829.6 L 1335.3870993991436 836.6 L 1341.8759845779045 844 L 1351.5138795009586 850.6 L 1357.9326943899075 857.2 L 1364.0938984257937 863.4 L 1370.2999813369152 869.3 L 1375.5725220520671 875.2 L 1382.0663464252316 880.4 L 1388.2387495956648 885.2 L 1393.4696676657807 890 L 1403.4696676657807 890"  stroke-linejoin="bevel" visibility="visible" stroke-opacity="0.000001" stroke="rgb(192,192,192)" stroke-width="22" style=""></path></g><g visibility="visible"  transform="translate(98,40)" clip-path="url(#highcharts-9)"><path fill="none" d="M -3.0990099009901098 83.9 L 6.90099009900989 83.9 L 178.0469097633212 134.4 L 332.00666160454745 181 L 459.77433007790734 235.8 L 575.2544876208358 280.3 L 665.1666630032389 335 L 741.8426938853124 381.7 L 802.9123959338054 429.3 L 857.3873084648785 470 L 904.1334890400113 506 L 946.1502241097492 537.9 L 984.0748069037375 566.5 L 1021.8742251162587 591.3 L 1050.1049504205603 616.6 L 1078.5072274783165 638 L 1104.6974905424504 658.6 L 1126.3003169441563 678.5 L 1148.662721285949 695.9 L 1172.6977323846834 710.7 L 1189.3851291230487 726.2 L 1204.648804594137 740.1 L 1223.4489734457634 752.1 L 1238.542058059573 764.4 L 1249.6874937733237 776.5 L 1262.3597177114905 787.1 L 1273.5142696023652 797.6 L 1286.196157024256 806.8 L 1299.7037491967653 814.8 L 1312.422943967996 822.6 L 1322.2457802590548 830.6 L 1333.945455623153 837.7 L 1340.4343408001405 845 L 1350.072235724968 851.5 L 1356.4910506121435 858.1 L 1362.3662659990866 864.3 L 1368.5723489102081 870.2 L 1373.8448896271332 876 L 1380.41884012841 881.3 L 1386.5912432988434 886 L 1391.822161368959 890.8 L 1401.822161368959 890.8"  stroke-linejoin="bevel" visibility="visible" stroke-opacity="0.000001" stroke="rgb(192,192,192)" stroke-width="22" style=""></path></g><g visibility="visible"  transform="translate(98,40)" clip-path="url(#highcharts-9)"><path fill="none" d="M 2.9200091208631207 45.2 L 12.92000912086312 45.2 L 186.39263008274244 102.2 L 345.49401367622437 145.2 L 474.77369209929964 205.7 L 591.3012366396055 253.6 L 681.4126858573721 311 L 758.6261835003072 361.4 L 819.9134667205176 410.3 L 874.307699915903 453.2 L 921.2989158761975 491.3 L 963.4785055943581 524 L 1001.9869248611881 553.6 L 1038.7778567883172 580 L 1068.3723876096444 605.5 L 1096.3586811783512 627.7 L 1122.5229452737547 649 L 1144.5785870367301 669.3 L 1166.1816048530977 687.6 L 1190.2567547090184 702.9 L 1207.8540583131453 718.3 L 1222.6410860377678 732.8 L 1241.767382295524 745.2 L 1256.4151775665878 757.8 L 1267.6921556760597 770.1 L 1280.3354918733596 781.1 L 1291.6200386043406 791.7 L 1303.7007569063876 801.3 L 1317.5010990682576 809.2 L 1330.090298999382 817.3 L 1340.8057665259557 825.2 L 1352.1221027634335 832.7 L 1358.887545591303 840.1 L 1368.2759651239735 846.8 L 1375.6615483599728 853.2 L 1381.8227523958594 859.5 L 1387.6202800944582 865.6 L 1392.7140779055721 871.6 L 1399.2079022787366 876.9 L 1405.3908197372255 881.8 L 1410.5993073258012 886.6 L 1420.5993073258012 886.6"  stroke-linejoin="bevel" visibility="visible" stroke-opacity="0.000001" stroke="rgb(192,192,192)" stroke-width="22" style=""></path></g></g></svg>