<svg xmlns:xlink="http://www.w3.org/1999/xlink" xmlns="http://www.w3.org/2000/svg" version="1.1" width="600" height="500"><defs><clipPath id="highcharts-8"><rect rx="0" ry="0" fill="none" x="0" y="0" width="9999" height="500" stroke-width="0.000001"></rect></clipPath><clipPath id="highcharts-9"><rect fill="none" x="0" y="0" width="516" height="380"></rect></clipPath></defs><rect rx="5" ry="5" fill="#FFFFFF" x="0" y="0" width="600" height="500" stroke-width="0.000001"></rect><g class="highcharts-grid" ></g><g class="highcharts-grid" ><path fill="none" d="M 84 366.5 L 600 366.5" stroke="#C0C0C0" stroke-width="1" ></path><path fill="none" d="M 84 311.5 L 600 311.5" stroke="#C0C0C0" stroke-width="1" ></path><path fill="none" d="M 84 257.5 L 600 257.5" stroke="#C0C0C0" stroke-width="1" ></path><path fill="none" d="M 84 203.5 L 600 203.5" stroke="#C0C0C0" stroke-width="1" ></path><path fill="none" d="M 84 149.5 L 600 149.5" stroke="#C0C0C0" stroke-width="1" ></path><path fill="none" d="M 84 94.5 L 600 94.5" stroke="#C0C0C0" stroke-width="1" ></path><path fill="none" d="M 84 40.5 L 600 40.5" stroke="#C0C0C0" stroke-width="1" ></path><path fill="none" d="M 84 420.5 L 600 420.5" stroke="#C0C0C0" stroke-width="1" ></path></g><g class="highcharts-axis" ><path fill="none" d="M 122.5 420 L 122.5 425" stroke="#C0D0E0" stroke-width="1"></path><path fill="none" d="M 148.5 420 L 148.5 425" stroke="#C0D0E0" stroke-width="1"></path><path fill="none" d="M 173.5 420 L 173.5 425" stroke="#C0D0E0" stroke-width="1"></path><path fill="none" d="M 199.5 420 L 199.5 425" stroke="#C0D0E0" stroke-width="1"></path><path fill="none" d="M 225.5 420 L 225.5 425" stroke="#C0D0E0" stroke-width="1"></path><path fill="none" d="M 251.5 420 L 251.5 425" stroke="#C0D0E0" stroke-width="1"></path><path fill="none" d="M 277.5 420 L 277.5 425" stroke="#C0D0E0" stroke-width="1"></path><path fill="none" d="M 302.5 420 L 302.5 425" stroke="#C0D0E0" stroke-width="1"></path><path fill="none" d="M 328.5 420 L 328.5 425" stroke="#C0D0E0" stroke-width="1"></path><path fill="none" d="M 354.5 420 L 354.5 425" stroke="#C0D0E0" stroke-width="1"></path><path fill="none" d="M 380.5 420 L 380.5 425" stroke="#C0D0E0" stroke-width="1"></path><path fill="none" d="M 406.5 420 L 406.5 425" stroke="#C0D0E0" stroke-width="1"></path><path fill="none" d="M 431.5 420 L 431.5 425" stroke="#C0D0E0" stroke-width="1"></path><path fill="none" d="M 457.5 420 L 457.5 425" stroke="#C0D0E0" stroke-width="1"></path><path fill="none" d="M 483.5 420 L 483.5 425" stroke="#C0D0E0" stroke-width="1"></path><path fill="none" d="M 509.5 420 L 509.5 425" stroke="#C0D0E0" stroke-width="1"></path><path fill="none" d="M 535.5 420 L 535.5 425" stroke="#C0D0E0" stroke-width="1"></path><path fill="none" d="M 560.5 420 L 560.5 425" stroke="#C0D0E0" stroke-width="1"></path><path fill="none" d="M 586.5 420 L 586.5 425" stroke="#C0D0E0" stroke-width="1"></path><path fill="none" d="M 96.5 420 L 96.5 425" stroke="#C0D0E0" stroke-width="1"></path><text x="342" y="471" style="font-family:'lucida grande', 'lucida sans unicode', verdana, arial, helvetica, sans-serif;font-size:24px;color:#6d869f;font-weight:bold;fill:#6d869f;"  text-anchor="middle" visibility="visible"><tspan x="342">Number of concepts</tspan></text><path fill="none" d="M 84 420.5 L 600 420.5" stroke="#C0D0E0" stroke-width="1"  visibility="visible"></path></g><g class="highcharts-axis" ><text x="38" y="230" style="font-family:'lucida grande', 'lucida sans unicode', verdana, arial, helvetica, sans-serif;font-size:24px;color:#6d869f;font-weight:bold;fill:#6d869f;"  transform="rotate(270 38 230)" text-anchor="middle" visibility="visible"><tspan x="38">Precision</tspan></text></g><g class="highcharts-series-group" ><g class="highcharts-series" visibility="visible"  transform="translate(84,40)" clip-path="url(#highcharts-9)"><path fill="none" d="M 6.45 24.7 L 19.35 45.3 L 32.25 66.4 L 45.150000000000006 88.1 L 58.050000000000004 106.2 L 70.95 125.3 L 83.85000000000001 143.3 L 96.75 161 L 109.65 177.9 L 122.55000000000001 192.3 L 135.45 204.9 L 148.35 216.9 L 161.25 227.9 L 174.15 237.6 L 187.04999999999998 246.3 L 199.95 254.4 L 212.85 262.4 L 225.75 269.4 L 238.65 275.6 L 251.54999999999998 281.5 L 264.45 287.2 L 277.35 292.4 L 290.25 297.3 L 303.15 302.4 L 316.05 307 L 328.95 311.7 L 341.85 315.6 L 354.75 319.3 L 367.65 322.9 L 380.55 326.3 L 393.45 329.5 L 406.35 332.7 L 419.25 335.5 L 432.15 338.4 L 445.05 341.1 L 457.95 343.7 L 470.85 346.3 L 483.75 348.8 L 496.65 350.9 L 509.55 353.1" stroke="black" stroke-width="5"   stroke-opacity="0.049999999999999996" transform="translate(1, 1)"></path><path fill="none" d="M 6.45 24.7 L 19.35 45.3 L 32.25 66.4 L 45.150000000000006 88.1 L 58.050000000000004 106.2 L 70.95 125.3 L 83.85000000000001 143.3 L 96.75 161 L 109.65 177.9 L 122.55000000000001 192.3 L 135.45 204.9 L 148.35 216.9 L 161.25 227.9 L 174.15 237.6 L 187.04999999999998 246.3 L 199.95 254.4 L 212.85 262.4 L 225.75 269.4 L 238.65 275.6 L 251.54999999999998 281.5 L 264.45 287.2 L 277.35 292.4 L 290.25 297.3 L 303.15 302.4 L 316.05 307 L 328.95 311.7 L 341.85 315.6 L 354.75 319.3 L 367.65 322.9 L 380.55 326.3 L 393.45 329.5 L 406.35 332.7 L 419.25 335.5 L 432.15 338.4 L 445.05 341.1 L 457.95 343.7 L 470.85 346.3 L 483.75 348.8 L 496.65 350.9 L 509.55 353.1" stroke="black" stroke-width="3"   stroke-opacity="0.09999999999999999" transform="translate(1, 1)"></path><path fill="none" d="M 6.45 24.7 L 19.35 45.3 L 32.25 66.4 L 45.150000000000006 88.1 L 58.050000000000004 106.2 L 70.95 125.3 L 83.85000000000001 143.3 L 96.75 161 L 109.65 177.9 L 122.55000000000001 192.3 L 135.45 204.9 L 148.35 216.9 L 161.25 227.9 L 174.15 237.6 L 187.04999999999998 246.3 L 199.95 254.4 L 212.85 262.4 L 225.75 269.4 L 238.65 275.6 L 251.54999999999998 281.5 L 264.45 287.2 L 277.35 292.4 L 290.25 297.3 L 303.15 302.4 L 316.05 307 L 328.95 311.7 L 341.85 315.6 L 354.75 319.3 L 367.65 322.9 L 380.55 326.3 L 393.45 329.5 L 406.35 332.7 L 419.25 335.5 L 432.15 338.4 L 445.05 341.1 L 457.95 343.7 L 470.85 346.3 L 483.75 348.8 L 496.65 350.9 L 509.55 353.1" stroke="black" stroke-width="1"   stroke-opacity="0.15" transform="translate(1, 1)"></path><path fill="none" d="M 6.45 24.7 L 19.35 45.3 L 32.25 66.4 L 45.150000000000006 88.1 L 58.050000000000004 106.2 L 70.95 125.3 L 83.85000000000001 143.3 L 96.75 161 L 109.65 177.9 L 122.55000000000001 192.3 L 135.45 204.9 L 148.35 216.9 L 161.25 227.9 L 174.15 237.6 L 187.04999999999998 246.3 L 199.95 254.4 L 212.85 262.4 L 225.75 269.4 L 238.65 275.6 L 251.54999999999998 281.5 L 264.45 287.2 L 277.35 292.4 L 290.25 297.3 L 303.15 302.4 L 316.05 307 L 328.95 311.7 L 341.85 315.6 L 354.75 319.3 L 367.65 322.9 L 380.55 326.3 L 393.45 329.5 L 406.35 332.7 L 419.25 335.5 L 432.15 338.4 L 445.05 341.1 L 457.95 343.7 L 470.85 346.3 L 483.75 348.8 L 496.65 350.9 L 509.55 353.1" stroke="#4572A7" stroke-width="2" ></path></g><g class="highcharts-markers" visibility="visible"  transform="translate(84,40)" clip-path="none"><path fill="#4572A7" d="M 509.55 349.1 C 514.8779999999999 349.1 514.8779999999999 357.1 509.55 357.1 C 504.22200000000004 357.1 504.22200000000004 349.1 509.55 349.1 Z" stroke="#FFFFFF" stroke-width="0.000001"></path><path fill="#4572A7" d="M 496.65 346.9 C 501.97799999999995 346.9 501.97799999999995 354.9 496.65 354.9 C 491.322 354.9 491.322 346.9 496.65 346.9 Z" stroke="#FFFFFF" stroke-width="0.000001"></path><path fill="#4572A7" d="M 483.75 344.8 C 489.078 344.8 489.078 352.8 483.75 352.8 C 478.422 352.8 478.422 344.8 483.75 344.8 Z" stroke="#FFFFFF" stroke-width="0.000001"></path><path fill="#4572A7" d="M 470.85 342.3 C 476.178 342.3 476.178 350.3 470.85 350.3 C 465.52200000000005 350.3 465.52200000000005 342.3 470.85 342.3 Z" stroke="#FFFFFF" stroke-width="0.000001"></path><path fill="#4572A7" d="M 457.95 339.7 C 463.27799999999996 339.7 463.27799999999996 347.7 457.95 347.7 C 452.622 347.7 452.622 339.7 457.95 339.7 Z" stroke="#FFFFFF" stroke-width="0.000001"></path><path fill="#4572A7" d="M 445.05 337.1 C 450.378 337.1 450.378 345.1 445.05 345.1 C 439.72200000000004 345.1 439.72200000000004 337.1 445.05 337.1 Z" stroke="#FFFFFF" stroke-width="0.000001"></path><path fill="#4572A7" d="M 432.15 334.4 C 437.47799999999995 334.4 437.47799999999995 342.4 432.15 342.4 C 426.822 342.4 426.822 334.4 432.15 334.4 Z" stroke="#FFFFFF" stroke-width="0.000001"></path><path fill="#4572A7" d="M 419.25 331.5 C 424.578 331.5 424.578 339.5 419.25 339.5 C 413.922 339.5 413.922 331.5 419.25 331.5 Z" stroke="#FFFFFF" stroke-width="0.000001"></path><path fill="#4572A7" d="M 406.35 328.7 C 411.678 328.7 411.678 336.7 406.35 336.7 C 401.02200000000005 336.7 401.02200000000005 328.7 406.35 328.7 Z" stroke="#FFFFFF" stroke-width="0.000001"></path><path fill="#4572A7" d="M 393.45 325.5 C 398.77799999999996 325.5 398.77799999999996 333.5 393.45 333.5 C 388.122 333.5 388.122 325.5 393.45 325.5 Z" stroke="#FFFFFF" stroke-width="0.000001"></path><path fill="#4572A7" d="M 380.55 322.3 C 385.878 322.3 385.878 330.3 380.55 330.3 C 375.22200000000004 330.3 375.22200000000004 322.3 380.55 322.3 Z" stroke="#FFFFFF" stroke-width="0.000001"></path><path fill="#4572A7" d="M 367.65 318.9 C 372.97799999999995 318.9 372.97799999999995 326.9 367.65 326.9 C 362.322 326.9 362.322 318.9 367.65 318.9 Z" stroke="#FFFFFF" stroke-width="0.000001"></path><path fill="#4572A7" d="M 354.75 315.3 C 360.078 315.3 360.078 323.3 354.75 323.3 C 349.422 323.3 349.422 315.3 354.75 315.3 Z" stroke="#FFFFFF" stroke-width="0.000001"></path><path fill="#4572A7" d="M 341.85 311.6 C 347.178 311.6 347.178 319.6 341.85 319.6 C 336.52200000000005 319.6 336.52200000000005 311.6 341.85 311.6 Z" stroke="#FFFFFF" stroke-width="0.000001"></path><path fill="#4572A7" d="M 328.95 307.7 C 334.27799999999996 307.7 334.27799999999996 315.7 328.95 315.7 C 323.622 315.7 323.622 307.7 328.95 307.7 Z" stroke="#FFFFFF" stroke-width="0.000001"></path><path fill="#4572A7" d="M 316.05 303 C 321.378 303 321.378 311 316.05 311 C 310.72200000000004 311 310.72200000000004 303 316.05 303 Z" stroke="#FFFFFF" stroke-width="0.000001"></path><path fill="#4572A7" d="M 303.15 298.4 C 308.47799999999995 298.4 308.47799999999995 306.4 303.15 306.4 C 297.822 306.4 297.822 298.4 303.15 298.4 Z" stroke="#FFFFFF" stroke-width="0.000001"></path><path fill="#4572A7" d="M 290.25 293.3 C 295.578 293.3 295.578 301.3 290.25 301.3 C 284.922 301.3 284.922 293.3 290.25 293.3 Z" stroke="#FFFFFF" stroke-width="0.000001"></path><path fill="#4572A7" d="M 277.35 288.4 C 282.678 288.4 282.678 296.4 277.35 296.4 C 272.02200000000005 296.4 272.02200000000005 288.4 277.35 288.4 Z" stroke="#FFFFFF" stroke-width="0.000001"></path><path fill="#4572A7" d="M 264.45 283.2 C 269.77799999999996 283.2 269.77799999999996 291.2 264.45 291.2 C 259.122 291.2 259.122 283.2 264.45 283.2 Z" stroke="#FFFFFF" stroke-width="0.000001"></path><path fill="#4572A7" d="M 251.54999999999998 277.5 C 256.878 277.5 256.878 285.5 251.54999999999998 285.5 C 246.22199999999998 285.5 246.22199999999998 277.5 251.54999999999998 277.5 Z" stroke="#FFFFFF" stroke-width="0.000001"></path><path fill="#4572A7" d="M 238.65 271.6 C 243.978 271.6 243.978 279.6 238.65 279.6 C 233.322 279.6 233.322 271.6 238.65 271.6 Z" stroke="#FFFFFF" stroke-width="0.000001"></path><path fill="#4572A7" d="M 225.75 265.4 C 231.078 265.4 231.078 273.4 225.75 273.4 C 220.422 273.4 220.422 265.4 225.75 265.4 Z" stroke="#FFFFFF" stroke-width="0.000001"></path><path fill="#4572A7" d="M 212.85 258.4 C 218.178 258.4 218.178 266.4 212.85 266.4 C 207.522 266.4 207.522 258.4 212.85 258.4 Z" stroke="#FFFFFF" stroke-width="0.000001"></path><path fill="#4572A7" d="M 199.95 250.4 C 205.278 250.4 205.278 258.4 199.95 258.4 C 194.62199999999999 258.4 194.62199999999999 250.4 199.95 250.4 Z" stroke="#FFFFFF" stroke-width="0.000001"></path><path fill="#4572A7" d="M 187.04999999999998 242.3 C 192.378 242.3 192.378 250.3 187.04999999999998 250.3 C 181.72199999999998 250.3 181.72199999999998 242.3 187.04999999999998 242.3 Z" stroke="#FFFFFF" stroke-width="0.000001"></path><path fill="#4572A7" d="M 174.15 233.6 C 179.478 233.6 179.478 241.6 174.15 241.6 C 168.822 241.6 168.822 233.6 174.15 233.6 Z" stroke="#FFFFFF" stroke-width="0.000001"></path><path fill="#4572A7" d="M 161.25 223.9 C 166.578 223.9 166.578 231.9 161.25 231.9 C 155.922 231.9 155.922 223.9 161.25 223.9 Z" stroke="#FFFFFF" stroke-width="0.000001"></path><path fill="#4572A7" d="M 148.35 212.9 C 153.678 212.9 153.678 220.9 148.35 220.9 C 143.022 220.9 143.022 212.9 148.35 212.9 Z" stroke="#FFFFFF" stroke-width="0.000001"></path><path fill="#4572A7" d="M 135.45 200.9 C 140.778 200.9 140.778 208.9 135.45 208.9 C 130.12199999999999 208.9 130.12199999999999 200.9 135.45 200.9 Z" stroke="#FFFFFF" stroke-width="0.000001"></path><path fill="#4572A7" d="M 122.55000000000001 188.3 C 127.87800000000001 188.3 127.87800000000001 196.3 122.55000000000001 196.3 C 117.22200000000001 196.3 117.22200000000001 188.3 122.55000000000001 188.3 Z" stroke="#FFFFFF" stroke-width="0.000001"></path><path fill="#4572A7" d="M 109.65 173.9 C 114.97800000000001 173.9 114.97800000000001 181.9 109.65 181.9 C 104.322 181.9 104.322 173.9 109.65 173.9 Z" stroke="#FFFFFF" stroke-width="0.000001"></path><path fill="#4572A7" d="M 96.75 157 C 102.078 157 102.078 165 96.75 165 C 91.422 165 91.422 157 96.75 157 Z" stroke="#FFFFFF" stroke-width="0.000001"></path><path fill="#4572A7" d="M 83.85000000000001 139.3 C 89.17800000000001 139.3 89.17800000000001 147.3 83.85000000000001 147.3 C 78.522 147.3 78.522 139.3 83.85000000000001 139.3 Z" stroke="#FFFFFF" stroke-width="0.000001"></path><path fill="#4572A7" d="M 70.95 121.3 C 76.278 121.3 76.278 129.3 70.95 129.3 C 65.622 129.3 65.622 121.3 70.95 121.3 Z" stroke="#FFFFFF" stroke-width="0.000001"></path><path fill="#4572A7" d="M 58.050000000000004 102.2 C 63.37800000000001 102.2 63.37800000000001 110.2 58.050000000000004 110.2 C 52.722 110.2 52.722 102.2 58.050000000000004 102.2 Z" stroke="#FFFFFF" stroke-width="0.000001"></path><path fill="#4572A7" d="M 45.150000000000006 84.1 C 50.47800000000001 84.1 50.47800000000001 92.1 45.150000000000006 92.1 C 39.822 92.1 39.822 84.1 45.150000000000006 84.1 Z" stroke="#FFFFFF" stroke-width="0.000001"></path><path fill="#4572A7" d="M 32.25 62.400000000000006 C 37.578 62.400000000000006 37.578 70.4 32.25 70.4 C 26.922 70.4 26.922 62.400000000000006 32.25 62.400000000000006 Z" stroke="#FFFFFF" stroke-width="0.000001"></path><path fill="#4572A7" d="M 19.35 41.3 C 24.678 41.3 24.678 49.3 19.35 49.3 C 14.022000000000002 49.3 14.022000000000002 41.3 19.35 41.3 Z" stroke="#FFFFFF" stroke-width="0.000001"></path><path fill="#4572A7" d="M 6.45 20.7 C 11.777999999999999 20.7 11.777999999999999 28.7 6.45 28.7 C 1.122 28.7 1.122 20.7 6.45 20.7 Z" stroke="#FFFFFF" stroke-width="0.000001"></path></g><g class="highcharts-series" visibility="visible"  transform="translate(84,40)" clip-path="url(#highcharts-9)"><path fill="none" d="M 6.45 89.4 L 19.35 115 L 32.25 144 L 45.150000000000006 160.2 L 58.050000000000004 178.2 L 70.95 193.3 L 83.85000000000001 206.8 L 96.75 218.6 L 109.65 229.6 L 122.55000000000001 240.8 L 135.45 249.4 L 148.35 258.2 L 161.25 265.7 L 174.15 272 L 187.04999999999998 278.2 L 199.95 284.1 L 212.85 290 L 225.75 295.3 L 238.65 300 L 251.54999999999998 304.4 L 264.45 308.9 L 277.35 313 L 290.25 316.6 L 303.15 320.1 L 316.05 323.3 L 328.95 326.9 L 341.85 329.9 L 354.75 332.9 L 367.65 335.7 L 380.55 338.6 L 393.45 341 L 406.35 343.6 L 419.25 345.9 L 432.15 348.2 L 445.05 350.5 L 457.95 352.6 L 470.85 354.3 L 483.75 356.3 L 496.65 358.1 L 509.55 359.8" stroke="black" stroke-width="5"   stroke-opacity="0.049999999999999996" transform="translate(1, 1)"></path><path fill="none" d="M 6.45 89.4 L 19.35 115 L 32.25 144 L 45.150000000000006 160.2 L 58.050000000000004 178.2 L 70.95 193.3 L 83.85000000000001 206.8 L 96.75 218.6 L 109.65 229.6 L 122.55000000000001 240.8 L 135.45 249.4 L 148.35 258.2 L 161.25 265.7 L 174.15 272 L 187.04999999999998 278.2 L 199.95 284.1 L 212.85 290 L 225.75 295.3 L 238.65 300 L 251.54999999999998 304.4 L 264.45 308.9 L 277.35 313 L 290.25 316.6 L 303.15 320.1 L 316.05 323.3 L 328.95 326.9 L 341.85 329.9 L 354.75 332.9 L 367.65 335.7 L 380.55 338.6 L 393.45 341 L 406.35 343.6 L 419.25 345.9 L 432.15 348.2 L 445.05 350.5 L 457.95 352.6 L 470.85 354.3 L 483.75 356.3 L 496.65 358.1 L 509.55 359.8" stroke="black" stroke-width="3"   stroke-opacity="0.09999999999999999" transform="translate(1, 1)"></path><path fill="none" d="M 6.45 89.4 L 19.35 115 L 32.25 144 L 45.150000000000006 160.2 L 58.050000000000004 178.2 L 70.95 193.3 L 83.85000000000001 206.8 L 96.75 218.6 L 109.65 229.6 L 122.55000000000001 240.8 L 135.45 249.4 L 148.35 258.2 L 161.25 265.7 L 174.15 272 L 187.04999999999998 278.2 L 199.95 284.1 L 212.85 290 L 225.75 295.3 L 238.65 300 L 251.54999999999998 304.4 L 264.45 308.9 L 277.35 313 L 290.25 316.6 L 303.15 320.1 L 316.05 323.3 L 328.95 326.9 L 341.85 329.9 L 354.75 332.9 L 367.65 335.7 L 380.55 338.6 L 393.45 341 L 406.35 343.6 L 419.25 345.9 L 432.15 348.2 L 445.05 350.5 L 457.95 352.6 L 470.85 354.3 L 483.75 356.3 L 496.65 358.1 L 509.55 359.8" stroke="black" stroke-width="1"   stroke-opacity="0.15" transform="translate(1, 1)"></path><path fill="none" d="M 6.45 89.4 L 19.35 115 L 32.25 144 L 45.150000000000006 160.2 L 58.050000000000004 178.2 L 70.95 193.3 L 83.85000000000001 206.8 L 96.75 218.6 L 109.65 229.6 L 122.55000000000001 240.8 L 135.45 249.4 L 148.35 258.2 L 161.25 265.7 L 174.15 272 L 187.04999999999998 278.2 L 199.95 284.1 L 212.85 290 L 225.75 295.3 L 238.65 300 L 251.54999999999998 304.4 L 264.45 308.9 L 277.35 313 L 290.25 316.6 L 303.15 320.1 L 316.05 323.3 L 328.95 326.9 L 341.85 329.9 L 354.75 332.9 L 367.65 335.7 L 380.55 338.6 L 393.45 341 L 406.35 343.6 L 419.25 345.9 L 432.15 348.2 L 445.05 350.5 L 457.95 352.6 L 470.85 354.3 L 483.75 356.3 L 496.65 358.1 L 509.55 359.8" stroke="#AA4643" stroke-width="2" ></path></g><g class="highcharts-markers" visibility="visible"  transform="translate(84,40)" clip-path="none"><path fill="#AA4643" d="M 509.55 355.8 L 513.55 359.8 509.55 363.8 505.55 359.8 Z" stroke="#FFFFFF" stroke-width="0.000001"></path><path fill="#AA4643" d="M 496.65 354.1 L 500.65 358.1 496.65 362.1 492.65 358.1 Z" stroke="#FFFFFF" stroke-width="0.000001"></path><path fill="#AA4643" d="M 483.75 352.3 L 487.75 356.3 483.75 360.3 479.75 356.3 Z" stroke="#FFFFFF" stroke-width="0.000001"></path><path fill="#AA4643" d="M 470.85 350.3 L 474.85 354.3 470.85 358.3 466.85 354.3 Z" stroke="#FFFFFF" stroke-width="0.000001"></path><path fill="#AA4643" d="M 457.95 348.6 L 461.95 352.6 457.95 356.6 453.95 352.6 Z" stroke="#FFFFFF" stroke-width="0.000001"></path><path fill="#AA4643" d="M 445.05 346.5 L 449.05 350.5 445.05 354.5 441.05 350.5 Z" stroke="#FFFFFF" stroke-width="0.000001"></path><path fill="#AA4643" d="M 432.15 344.2 L 436.15 348.2 432.15 352.2 428.15 348.2 Z" stroke="#FFFFFF" stroke-width="0.000001"></path><path fill="#AA4643" d="M 419.25 341.9 L 423.25 345.9 419.25 349.9 415.25 345.9 Z" stroke="#FFFFFF" stroke-width="0.000001"></path><path fill="#AA4643" d="M 406.35 339.6 L 410.35 343.6 406.35 347.6 402.35 343.6 Z" stroke="#FFFFFF" stroke-width="0.000001"></path><path fill="#AA4643" d="M 393.45 337 L 397.45 341 393.45 345 389.45 341 Z" stroke="#FFFFFF" stroke-width="0.000001"></path><path fill="#AA4643" d="M 380.55 334.6 L 384.55 338.6 380.55 342.6 376.55 338.6 Z" stroke="#FFFFFF" stroke-width="0.000001"></path><path fill="#AA4643" d="M 367.65 331.7 L 371.65 335.7 367.65 339.7 363.65 335.7 Z" stroke="#FFFFFF" stroke-width="0.000001"></path><path fill="#AA4643" d="M 354.75 328.9 L 358.75 332.9 354.75 336.9 350.75 332.9 Z" stroke="#FFFFFF" stroke-width="0.000001"></path><path fill="#AA4643" d="M 341.85 325.9 L 345.85 329.9 341.85 333.9 337.85 329.9 Z" stroke="#FFFFFF" stroke-width="0.000001"></path><path fill="#AA4643" d="M 328.95 322.9 L 332.95 326.9 328.95 330.9 324.95 326.9 Z" stroke="#FFFFFF" stroke-width="0.000001"></path><path fill="#AA4643" d="M 316.05 319.3 L 320.05 323.3 316.05 327.3 312.05 323.3 Z" stroke="#FFFFFF" stroke-width="0.000001"></path><path fill="#AA4643" d="M 303.15 316.1 L 307.15 320.1 303.15 324.1 299.15 320.1 Z" stroke="#FFFFFF" stroke-width="0.000001"></path><path fill="#AA4643" d="M 290.25 312.6 L 294.25 316.6 290.25 320.6 286.25 316.6 Z" stroke="#FFFFFF" stroke-width="0.000001"></path><path fill="#AA4643" d="M 277.35 309 L 281.35 313 277.35 317 273.35 313 Z" stroke="#FFFFFF" stroke-width="0.000001"></path><path fill="#AA4643" d="M 264.45 304.9 L 268.45 308.9 264.45 312.9 260.45 308.9 Z" stroke="#FFFFFF" stroke-width="0.000001"></path><path fill="#AA4643" d="M 251.54999999999998 300.4 L 255.54999999999998 304.4 251.54999999999998 308.4 247.54999999999998 304.4 Z" stroke="#FFFFFF" stroke-width="0.000001"></path><path fill="#AA4643" d="M 238.65 296 L 242.65 300 238.65 304 234.65 300 Z" stroke="#FFFFFF" stroke-width="0.000001"></path><path fill="#AA4643" d="M 225.75 291.3 L 229.75 295.3 225.75 299.3 221.75 295.3 Z" stroke="#FFFFFF" stroke-width="0.000001"></path><path fill="#AA4643" d="M 212.85 286 L 216.85 290 212.85 294 208.85 290 Z" stroke="#FFFFFF" stroke-width="0.000001"></path><path fill="#AA4643" d="M 199.95 280.1 L 203.95 284.1 199.95 288.1 195.95 284.1 Z" stroke="#FFFFFF" stroke-width="0.000001"></path><path fill="#AA4643" d="M 187.04999999999998 274.2 L 191.04999999999998 278.2 187.04999999999998 282.2 183.04999999999998 278.2 Z" stroke="#FFFFFF" stroke-width="0.000001"></path><path fill="#AA4643" d="M 174.15 268 L 178.15 272 174.15 276 170.15 272 Z" stroke="#FFFFFF" stroke-width="0.000001"></path><path fill="#AA4643" d="M 161.25 261.7 L 165.25 265.7 161.25 269.7 157.25 265.7 Z" stroke="#FFFFFF" stroke-width="0.000001"></path><path fill="#AA4643" d="M 148.35 254.2 L 152.35 258.2 148.35 262.2 144.35 258.2 Z" stroke="#FFFFFF" stroke-width="0.000001"></path><path fill="#AA4643" d="M 135.45 245.4 L 139.45 249.4 135.45 253.4 131.45 249.4 Z" stroke="#FFFFFF" stroke-width="0.000001"></path><path fill="#AA4643" d="M 122.55000000000001 236.8 L 126.55000000000001 240.8 122.55000000000001 244.8 118.55000000000001 240.8 Z" stroke="#FFFFFF" stroke-width="0.000001"></path><path fill="#AA4643" d="M 109.65 225.6 L 113.65 229.6 109.65 233.6 105.65 229.6 Z" stroke="#FFFFFF" stroke-width="0.000001"></path><path fill="#AA4643" d="M 96.75 214.6 L 100.75 218.6 96.75 222.6 92.75 218.6 Z" stroke="#FFFFFF" stroke-width="0.000001"></path><path fill="#AA4643" d="M 83.85000000000001 202.8 L 87.85000000000001 206.8 83.85000000000001 210.8 79.85000000000001 206.8 Z" stroke="#FFFFFF" stroke-width="0.000001"></path><path fill="#AA4643" d="M 70.95 189.3 L 74.95 193.3 70.95 197.3 66.95 193.3 Z" stroke="#FFFFFF" stroke-width="0.000001"></path><path fill="#AA4643" d="M 58.050000000000004 174.2 L 62.050000000000004 178.2 58.050000000000004 182.2 54.050000000000004 178.2 Z" stroke="#FFFFFF" stroke-width="0.000001"></path><path fill="#AA4643" d="M 45.150000000000006 156.2 L 49.150000000000006 160.2 45.150000000000006 164.2 41.150000000000006 160.2 Z" stroke="#FFFFFF" stroke-width="0.000001"></path><path fill="#AA4643" d="M 32.25 140 L 36.25 144 32.25 148 28.25 144 Z" stroke="#FFFFFF" stroke-width="0.000001"></path><path fill="#AA4643" d="M 19.35 111 L 23.35 115 19.35 119 15.350000000000001 115 Z" stroke="#FFFFFF" stroke-width="0.000001"></path><path fill="#AA4643" d="M 6.45 85.4 L 10.45 89.4 6.45 93.4 2.45 89.4 Z" stroke="#FFFFFF" stroke-width="0.000001"></path></g><g class="highcharts-series" visibility="visible"  transform="translate(84,40)" clip-path="url(#highcharts-9)"><path fill="none" d="M 6.45 82.7 L 19.35 89.7 L 32.25 96.9 L 45.150000000000006 110 L 58.050000000000004 121.8 L 70.95 141.3 L 83.85000000000001 159.5 L 96.75 178.5 L 109.65 193.4 L 122.55000000000001 206.2 L 135.45 219.2 L 148.35 231 L 161.25 241.1 L 174.15 249.5 L 187.04999999999998 257.7 L 199.95 264.8 L 212.85 271.8 L 225.75 277.8 L 238.65 283.5 L 251.54999999999998 289.1 L 264.45 294.1 L 277.35 298.9 L 290.25 303.8 L 303.15 308.3 L 316.05 312.9 L 328.95 316.8 L 341.85 320.4 L 354.75 324.1 L 367.65 327.4 L 380.55 330.6 L 393.45 333.5 L 406.35 336.2 L 419.25 339 L 432.15 341.6 L 445.05 344.2 L 457.95 346.8 L 470.85 349.1 L 483.75 351.5 L 496.65 353.6 L 509.55 355.5" stroke="black" stroke-width="5"   stroke-opacity="0.049999999999999996" transform="translate(1, 1)"></path><path fill="none" d="M 6.45 82.7 L 19.35 89.7 L 32.25 96.9 L 45.150000000000006 110 L 58.050000000000004 121.8 L 70.95 141.3 L 83.85000000000001 159.5 L 96.75 178.5 L 109.65 193.4 L 122.55000000000001 206.2 L 135.45 219.2 L 148.35 231 L 161.25 241.1 L 174.15 249.5 L 187.04999999999998 257.7 L 199.95 264.8 L 212.85 271.8 L 225.75 277.8 L 238.65 283.5 L 251.54999999999998 289.1 L 264.45 294.1 L 277.35 298.9 L 290.25 303.8 L 303.15 308.3 L 316.05 312.9 L 328.95 316.8 L 341.85 320.4 L 354.75 324.1 L 367.65 327.4 L 380.55 330.6 L 393.45 333.5 L 406.35 336.2 L 419.25 339 L 432.15 341.6 L 445.05 344.2 L 457.95 346.8 L 470.85 349.1 L 483.75 351.5 L 496.65 353.6 L 509.55 355.5" stroke="black" stroke-width="3"   stroke-opacity="0.09999999999999999" transform="translate(1, 1)"></path><path fill="none" d="M 6.45 82.7 L 19.35 89.7 L 32.25 96.9 L 45.150000000000006 110 L 58.050000000000004 121.8 L 70.95 141.3 L 83.85000000000001 159.5 L 96.75 178.5 L 109.65 193.4 L 122.55000000000001 206.2 L 135.45 219.2 L 148.35 231 L 161.25 241.1 L 174.15 249.5 L 187.04999999999998 257.7 L 199.95 264.8 L 212.85 271.8 L 225.75 277.8 L 238.65 283.5 L 251.54999999999998 289.1 L 264.45 294.1 L 277.35 298.9 L 290.25 303.8 L 303.15 308.3 L 316.05 312.9 L 328.95 316.8 L 341.85 320.4 L 354.75 324.1 L 367.65 327.4 L 380.55 330.6 L 393.45 333.5 L 406.35 336.2 L 419.25 339 L 432.15 341.6 L 445.05 344.2 L 457.95 346.8 L 470.85 349.1 L 483.75 351.5 L 496.65 353.6 L 509.55 355.5" stroke="black" stroke-width="1"   stroke-opacity="0.15" transform="translate(1, 1)"></path><path fill="none" d="M 6.45 82.7 L 19.35 89.7 L 32.25 96.9 L 45.150000000000006 110 L 58.050000000000004 121.8 L 70.95 141.3 L 83.85000000000001 159.5 L 96.75 178.5 L 109.65 193.4 L 122.55000000000001 206.2 L 135.45 219.2 L 148.35 231 L 161.25 241.1 L 174.15 249.5 L 187.04999999999998 257.7 L 199.95 264.8 L 212.85 271.8 L 225.75 277.8 L 238.65 283.5 L 251.54999999999998 289.1 L 264.45 294.1 L 277.35 298.9 L 290.25 303.8 L 303.15 308.3 L 316.05 312.9 L 328.95 316.8 L 341.85 320.4 L 354.75 324.1 L 367.65 327.4 L 380.55 330.6 L 393.45 333.5 L 406.35 336.2 L 419.25 339 L 432.15 341.6 L 445.05 344.2 L 457.95 346.8 L 470.85 349.1 L 483.75 351.5 L 496.65 353.6 L 509.55 355.5" stroke="#89A54E" stroke-width="2" ></path></g><g class="highcharts-markers" visibility="visible"  transform="translate(84,40)" clip-path="none"><path fill="#89A54E" d="M 505.55 351.5 L 513.55 351.5 513.55 359.5 505.55 359.5 Z" stroke="#FFFFFF" stroke-width="0.000001"></path><path fill="#89A54E" d="M 492.65 349.6 L 500.65 349.6 500.65 357.6 492.65 357.6 Z" stroke="#FFFFFF" stroke-width="0.000001"></path><path fill="#89A54E" d="M 479.75 347.5 L 487.75 347.5 487.75 355.5 479.75 355.5 Z" stroke="#FFFFFF" stroke-width="0.000001"></path><path fill="#89A54E" d="M 466.85 345.1 L 474.85 345.1 474.85 353.1 466.85 353.1 Z" stroke="#FFFFFF" stroke-width="0.000001"></path><path fill="#89A54E" d="M 453.95 342.8 L 461.95 342.8 461.95 350.8 453.95 350.8 Z" stroke="#FFFFFF" stroke-width="0.000001"></path><path fill="#89A54E" d="M 441.05 340.2 L 449.05 340.2 449.05 348.2 441.05 348.2 Z" stroke="#FFFFFF" stroke-width="0.000001"></path><path fill="#89A54E" d="M 428.15 337.6 L 436.15 337.6 436.15 345.6 428.15 345.6 Z" stroke="#FFFFFF" stroke-width="0.000001"></path><path fill="#89A54E" d="M 415.25 335 L 423.25 335 423.25 343 415.25 343 Z" stroke="#FFFFFF" stroke-width="0.000001"></path><path fill="#89A54E" d="M 402.35 332.2 L 410.35 332.2 410.35 340.2 402.35 340.2 Z" stroke="#FFFFFF" stroke-width="0.000001"></path><path fill="#89A54E" d="M 389.45 329.5 L 397.45 329.5 397.45 337.5 389.45 337.5 Z" stroke="#FFFFFF" stroke-width="0.000001"></path><path fill="#89A54E" d="M 376.55 326.6 L 384.55 326.6 384.55 334.6 376.55 334.6 Z" stroke="#FFFFFF" stroke-width="0.000001"></path><path fill="#89A54E" d="M 363.65 323.4 L 371.65 323.4 371.65 331.4 363.65 331.4 Z" stroke="#FFFFFF" stroke-width="0.000001"></path><path fill="#89A54E" d="M 350.75 320.1 L 358.75 320.1 358.75 328.1 350.75 328.1 Z" stroke="#FFFFFF" stroke-width="0.000001"></path><path fill="#89A54E" d="M 337.85 316.4 L 345.85 316.4 345.85 324.4 337.85 324.4 Z" stroke="#FFFFFF" stroke-width="0.000001"></path><path fill="#89A54E" d="M 324.95 312.8 L 332.95 312.8 332.95 320.8 324.95 320.8 Z" stroke="#FFFFFF" stroke-width="0.000001"></path><path fill="#89A54E" d="M 312.05 308.9 L 320.05 308.9 320.05 316.9 312.05 316.9 Z" stroke="#FFFFFF" stroke-width="0.000001"></path><path fill="#89A54E" d="M 299.15 304.3 L 307.15 304.3 307.15 312.3 299.15 312.3 Z" stroke="#FFFFFF" stroke-width="0.000001"></path><path fill="#89A54E" d="M 286.25 299.8 L 294.25 299.8 294.25 307.8 286.25 307.8 Z" stroke="#FFFFFF" stroke-width="0.000001"></path><path fill="#89A54E" d="M 273.35 294.9 L 281.35 294.9 281.35 302.9 273.35 302.9 Z" stroke="#FFFFFF" stroke-width="0.000001"></path><path fill="#89A54E" d="M 260.45 290.1 L 268.45 290.1 268.45 298.1 260.45 298.1 Z" stroke="#FFFFFF" stroke-width="0.000001"></path><path fill="#89A54E" d="M 247.54999999999998 285.1 L 255.54999999999998 285.1 255.54999999999998 293.1 247.54999999999998 293.1 Z" stroke="#FFFFFF" stroke-width="0.000001"></path><path fill="#89A54E" d="M 234.65 279.5 L 242.65 279.5 242.65 287.5 234.65 287.5 Z" stroke="#FFFFFF" stroke-width="0.000001"></path><path fill="#89A54E" d="M 221.75 273.8 L 229.75 273.8 229.75 281.8 221.75 281.8 Z" stroke="#FFFFFF" stroke-width="0.000001"></path><path fill="#89A54E" d="M 208.85 267.8 L 216.85 267.8 216.85 275.8 208.85 275.8 Z" stroke="#FFFFFF" stroke-width="0.000001"></path><path fill="#89A54E" d="M 195.95 260.8 L 203.95 260.8 203.95 268.8 195.95 268.8 Z" stroke="#FFFFFF" stroke-width="0.000001"></path><path fill="#89A54E" d="M 183.04999999999998 253.7 L 191.04999999999998 253.7 191.04999999999998 261.7 183.04999999999998 261.7 Z" stroke="#FFFFFF" stroke-width="0.000001"></path><path fill="#89A54E" d="M 170.15 245.5 L 178.15 245.5 178.15 253.5 170.15 253.5 Z" stroke="#FFFFFF" stroke-width="0.000001"></path><path fill="#89A54E" d="M 157.25 237.1 L 165.25 237.1 165.25 245.1 157.25 245.1 Z" stroke="#FFFFFF" stroke-width="0.000001"></path><path fill="#89A54E" d="M 144.35 227 L 152.35 227 152.35 235 144.35 235 Z" stroke="#FFFFFF" stroke-width="0.000001"></path><path fill="#89A54E" d="M 131.45 215.2 L 139.45 215.2 139.45 223.2 131.45 223.2 Z" stroke="#FFFFFF" stroke-width="0.000001"></path><path fill="#89A54E" d="M 118.55000000000001 202.2 L 126.55000000000001 202.2 126.55000000000001 210.2 118.55000000000001 210.2 Z" stroke="#FFFFFF" stroke-width="0.000001"></path><path fill="#89A54E" d="M 105.65 189.4 L 113.65 189.4 113.65 197.4 105.65 197.4 Z" stroke="#FFFFFF" stroke-width="0.000001"></path><path fill="#89A54E" d="M 92.75 174.5 L 100.75 174.5 100.75 182.5 92.75 182.5 Z" stroke="#FFFFFF" stroke-width="0.000001"></path><path fill="#89A54E" d="M 79.85000000000001 155.5 L 87.85000000000001 155.5 87.85000000000001 163.5 79.85000000000001 163.5 Z" stroke="#FFFFFF" stroke-width="0.000001"></path><path fill="#89A54E" d="M 66.95 137.3 L 74.95 137.3 74.95 145.3 66.95 145.3 Z" stroke="#FFFFFF" stroke-width="0.000001"></path><path fill="#89A54E" d="M 54.050000000000004 117.8 L 62.050000000000004 117.8 62.050000000000004 125.8 54.050000000000004 125.8 Z" stroke="#FFFFFF" stroke-width="0.000001"></path><path fill="#89A54E" d="M 41.150000000000006 106 L 49.150000000000006 106 49.150000000000006 114 41.150000000000006 114 Z" stroke="#FFFFFF" stroke-width="0.000001"></path><path fill="#89A54E" d="M 28.25 92.9 L 36.25 92.9 36.25 100.9 28.25 100.9 Z" stroke="#FFFFFF" stroke-width="0.000001"></path><path fill="#89A54E" d="M 15.350000000000001 85.7 L 23.35 85.7 23.35 93.7 15.350000000000001 93.7 Z" stroke="#FFFFFF" stroke-width="0.000001"></path><path fill="#89A54E" d="M 2.45 78.7 L 10.45 78.7 10.45 86.7 2.45 86.7 Z" stroke="#FFFFFF" stroke-width="0.000001"></path></g><g class="highcharts-series" visibility="visible"  transform="translate(84,40)" clip-path="url(#highcharts-9)"><path fill="none" d="M 6.45 35.8 L 19.35 55.6 L 32.25 74.3 L 45.150000000000006 93 L 58.050000000000004 106.2 L 70.95 126.4 L 83.85000000000001 147.8 L 96.75 167.7 L 109.65 185.3 L 122.55000000000001 199.3 L 135.45 213.1 L 148.35 225.9 L 161.25 237.6 L 174.15 246 L 187.04999999999998 254.7 L 199.95 262.3 L 212.85 269.6 L 225.75 275.7 L 238.65 281.8 L 251.54999999999998 287.5 L 264.45 292.7 L 277.35 297.7 L 290.25 302.6 L 303.15 307.2 L 316.05 311.9 L 328.95 316 L 341.85 319.6 L 354.75 323.2 L 367.65 326.7 L 380.55 330 L 393.45 332.9 L 406.35 335.7 L 419.25 338.5 L 432.15 341.1 L 445.05 343.8 L 457.95 346.4 L 470.85 348.7 L 483.75 351.1 L 496.65 353.3 L 509.55 355.2" stroke="black" stroke-width="5"   stroke-opacity="0.049999999999999996" transform="translate(1, 1)"></path><path fill="none" d="M 6.45 35.8 L 19.35 55.6 L 32.25 74.3 L 45.150000000000006 93 L 58.050000000000004 106.2 L 70.95 126.4 L 83.85000000000001 147.8 L 96.75 167.7 L 109.65 185.3 L 122.55000000000001 199.3 L 135.45 213.1 L 148.35 225.9 L 161.25 237.6 L 174.15 246 L 187.04999999999998 254.7 L 199.95 262.3 L 212.85 269.6 L 225.75 275.7 L 238.65 281.8 L 251.54999999999998 287.5 L 264.45 292.7 L 277.35 297.7 L 290.25 302.6 L 303.15 307.2 L 316.05 311.9 L 328.95 316 L 341.85 319.6 L 354.75 323.2 L 367.65 326.7 L 380.55 330 L 393.45 332.9 L 406.35 335.7 L 419.25 338.5 L 432.15 341.1 L 445.05 343.8 L 457.95 346.4 L 470.85 348.7 L 483.75 351.1 L 496.65 353.3 L 509.55 355.2" stroke="black" stroke-width="3"   stroke-opacity="0.09999999999999999" transform="translate(1, 1)"></path><path fill="none" d="M 6.45 35.8 L 19.35 55.6 L 32.25 74.3 L 45.150000000000006 93 L 58.050000000000004 106.2 L 70.95 126.4 L 83.85000000000001 147.8 L 96.75 167.7 L 109.65 185.3 L 122.55000000000001 199.3 L 135.45 213.1 L 148.35 225.9 L 161.25 237.6 L 174.15 246 L 187.04999999999998 254.7 L 199.95 262.3 L 212.85 269.6 L 225.75 275.7 L 238.65 281.8 L 251.54999999999998 287.5 L 264.45 292.7 L 277.35 297.7 L 290.25 302.6 L 303.15 307.2 L 316.05 311.9 L 328.95 316 L 341.85 319.6 L 354.75 323.2 L 367.65 326.7 L 380.55 330 L 393.45 332.9 L 406.35 335.7 L 419.25 338.5 L 432.15 341.1 L 445.05 343.8 L 457.95 346.4 L 470.85 348.7 L 483.75 351.1 L 496.65 353.3 L 509.55 355.2" stroke="black" stroke-width="1"   stroke-opacity="0.15" transform="translate(1, 1)"></path><path fill="none" d="M 6.45 35.8 L 19.35 55.6 L 32.25 74.3 L 45.150000000000006 93 L 58.050000000000004 106.2 L 70.95 126.4 L 83.85000000000001 147.8 L 96.75 167.7 L 109.65 185.3 L 122.55000000000001 199.3 L 135.45 213.1 L 148.35 225.9 L 161.25 237.6 L 174.15 246 L 187.04999999999998 254.7 L 199.95 262.3 L 212.85 269.6 L 225.75 275.7 L 238.65 281.8 L 251.54999999999998 287.5 L 264.45 292.7 L 277.35 297.7 L 290.25 302.6 L 303.15 307.2 L 316.05 311.9 L 328.95 316 L 341.85 319.6 L 354.75 323.2 L 367.65 326.7 L 380.55 330 L 393.45 332.9 L 406.35 335.7 L 419.25 338.5 L 432.15 341.1 L 445.05 343.8 L 457.95 346.4 L 470.85 348.7 L 483.75 351.1 L 496.65 353.3 L 509.55 355.2" stroke="#80699B" stroke-width="2" ></path></g><g class="highcharts-markers" visibility="visible"  transform="translate(84,40)" clip-path="none"><path fill="#80699B" d="M 509.55 351.2 L 513.55 359.2 505.55 359.2 Z" stroke="#FFFFFF" stroke-width="0.000001"></path><path fill="#80699B" d="M 496.65 349.3 L 500.65 357.3 492.65 357.3 Z" stroke="#FFFFFF" stroke-width="0.000001"></path><path fill="#80699B" d="M 483.75 347.1 L 487.75 355.1 479.75 355.1 Z" stroke="#FFFFFF" stroke-width="0.000001"></path><path fill="#80699B" d="M 470.85 344.7 L 474.85 352.7 466.85 352.7 Z" stroke="#FFFFFF" stroke-width="0.000001"></path><path fill="#80699B" d="M 457.95 342.4 L 461.95 350.4 453.95 350.4 Z" stroke="#FFFFFF" stroke-width="0.000001"></path><path fill="#80699B" d="M 445.05 339.8 L 449.05 347.8 441.05 347.8 Z" stroke="#FFFFFF" stroke-width="0.000001"></path><path fill="#80699B" d="M 432.15 337.1 L 436.15 345.1 428.15 345.1 Z" stroke="#FFFFFF" stroke-width="0.000001"></path><path fill="#80699B" d="M 419.25 334.5 L 423.25 342.5 415.25 342.5 Z" stroke="#FFFFFF" stroke-width="0.000001"></path><path fill="#80699B" d="M 406.35 331.7 L 410.35 339.7 402.35 339.7 Z" stroke="#FFFFFF" stroke-width="0.000001"></path><path fill="#80699B" d="M 393.45 328.9 L 397.45 336.9 389.45 336.9 Z" stroke="#FFFFFF" stroke-width="0.000001"></path><path fill="#80699B" d="M 380.55 326 L 384.55 334 376.55 334 Z" stroke="#FFFFFF" stroke-width="0.000001"></path><path fill="#80699B" d="M 367.65 322.7 L 371.65 330.7 363.65 330.7 Z" stroke="#FFFFFF" stroke-width="0.000001"></path><path fill="#80699B" d="M 354.75 319.2 L 358.75 327.2 350.75 327.2 Z" stroke="#FFFFFF" stroke-width="0.000001"></path><path fill="#80699B" d="M 341.85 315.6 L 345.85 323.6 337.85 323.6 Z" stroke="#FFFFFF" stroke-width="0.000001"></path><path fill="#80699B" d="M 328.95 312 L 332.95 320 324.95 320 Z" stroke="#FFFFFF" stroke-width="0.000001"></path><path fill="#80699B" d="M 316.05 307.9 L 320.05 315.9 312.05 315.9 Z" stroke="#FFFFFF" stroke-width="0.000001"></path><path fill="#80699B" d="M 303.15 303.2 L 307.15 311.2 299.15 311.2 Z" stroke="#FFFFFF" stroke-width="0.000001"></path><path fill="#80699B" d="M 290.25 298.6 L 294.25 306.6 286.25 306.6 Z" stroke="#FFFFFF" stroke-width="0.000001"></path><path fill="#80699B" d="M 277.35 293.7 L 281.35 301.7 273.35 301.7 Z" stroke="#FFFFFF" stroke-width="0.000001"></path><path fill="#80699B" d="M 264.45 288.7 L 268.45 296.7 260.45 296.7 Z" stroke="#FFFFFF" stroke-width="0.000001"></path><path fill="#80699B" d="M 251.54999999999998 283.5 L 255.54999999999998 291.5 247.54999999999998 291.5 Z" stroke="#FFFFFF" stroke-width="0.000001"></path><path fill="#80699B" d="M 238.65 277.8 L 242.65 285.8 234.65 285.8 Z" stroke="#FFFFFF" stroke-width="0.000001"></path><path fill="#80699B" d="M 225.75 271.7 L 229.75 279.7 221.75 279.7 Z" stroke="#FFFFFF" stroke-width="0.000001"></path><path fill="#80699B" d="M 212.85 265.6 L 216.85 273.6 208.85 273.6 Z" stroke="#FFFFFF" stroke-width="0.000001"></path><path fill="#80699B" d="M 199.95 258.3 L 203.95 266.3 195.95 266.3 Z" stroke="#FFFFFF" stroke-width="0.000001"></path><path fill="#80699B" d="M 187.04999999999998 250.7 L 191.04999999999998 258.7 183.04999999999998 258.7 Z" stroke="#FFFFFF" stroke-width="0.000001"></path><path fill="#80699B" d="M 174.15 242 L 178.15 250 170.15 250 Z" stroke="#FFFFFF" stroke-width="0.000001"></path><path fill="#80699B" d="M 161.25 233.6 L 165.25 241.6 157.25 241.6 Z" stroke="#FFFFFF" stroke-width="0.000001"></path><path fill="#80699B" d="M 148.35 221.9 L 152.35 229.9 144.35 229.9 Z" stroke="#FFFFFF" stroke-width="0.000001"></path><path fill="#80699B" d="M 135.45 209.1 L 139.45 217.1 131.45 217.1 Z" stroke="#FFFFFF" stroke-width="0.000001"></path><path fill="#80699B" d="M 122.55000000000001 195.3 L 126.55000000000001 203.3 118.55000000000001 203.3 Z" stroke="#FFFFFF" stroke-width="0.000001"></path><path fill="#80699B" d="M 109.65 181.3 L 113.65 189.3 105.65 189.3 Z" stroke="#FFFFFF" stroke-width="0.000001"></path><path fill="#80699B" d="M 96.75 163.7 L 100.75 171.7 92.75 171.7 Z" stroke="#FFFFFF" stroke-width="0.000001"></path><path fill="#80699B" d="M 83.85000000000001 143.8 L 87.85000000000001 151.8 79.85000000000001 151.8 Z" stroke="#FFFFFF" stroke-width="0.000001"></path><path fill="#80699B" d="M 70.95 122.4 L 74.95 130.4 66.95 130.4 Z" stroke="#FFFFFF" stroke-width="0.000001"></path><path fill="#80699B" d="M 58.050000000000004 102.2 L 62.050000000000004 110.2 54.050000000000004 110.2 Z" stroke="#FFFFFF" stroke-width="0.000001"></path><path fill="#80699B" d="M 45.150000000000006 89 L 49.150000000000006 97 41.150000000000006 97 Z" stroke="#FFFFFF" stroke-width="0.000001"></path><path fill="#80699B" d="M 32.25 70.3 L 36.25 78.3 28.25 78.3 Z" stroke="#FFFFFF" stroke-width="0.000001"></path><path fill="#80699B" d="M 19.35 51.6 L 23.35 59.6 15.350000000000001 59.6 Z" stroke="#FFFFFF" stroke-width="0.000001"></path><path fill="#80699B" d="M 6.45 31.799999999999997 L 10.45 39.8 2.45 39.8 Z" stroke="#FFFFFF" stroke-width="0.000001"></path></g><g class="highcharts-series" visibility="visible"  transform="translate(84,40)" clip-path="url(#highcharts-9)"><path fill="none" d="M 6.45 231.7 L 19.35 250.3 L 32.25 256.8 L 45.150000000000006 264.9 L 58.050000000000004 266.4 L 70.95 268.8 L 83.85000000000001 272.4 L 96.75 277.3 L 109.65 281.3 L 122.55000000000001 285.2 L 135.45 288.8 L 148.35 293.3 L 161.25 297.8 L 174.15 302.2 L 187.04999999999998 305.4 L 199.95 309.8 L 212.85 314.4 L 225.75 318.5 L 238.65 321.8 L 251.54999999999998 325.2 L 264.45 328.5 L 277.35 331.4 L 290.25 334 L 303.15 336.6 L 316.05 339 L 328.95 341.2 L 341.85 343.5 L 354.75 346 L 367.65 347.9 L 380.55 349.8 L 393.45 351.7 L 406.35 353.8 L 419.25 356 L 432.15 357.8 L 445.05 359.5 L 457.95 361 L 470.85 362.5 L 483.75 364 L 496.65 365.5 L 509.55 366.7" stroke="black" stroke-width="5"   stroke-opacity="0.049999999999999996" transform="translate(1, 1)"></path><path fill="none" d="M 6.45 231.7 L 19.35 250.3 L 32.25 256.8 L 45.150000000000006 264.9 L 58.050000000000004 266.4 L 70.95 268.8 L 83.85000000000001 272.4 L 96.75 277.3 L 109.65 281.3 L 122.55000000000001 285.2 L 135.45 288.8 L 148.35 293.3 L 161.25 297.8 L 174.15 302.2 L 187.04999999999998 305.4 L 199.95 309.8 L 212.85 314.4 L 225.75 318.5 L 238.65 321.8 L 251.54999999999998 325.2 L 264.45 328.5 L 277.35 331.4 L 290.25 334 L 303.15 336.6 L 316.05 339 L 328.95 341.2 L 341.85 343.5 L 354.75 346 L 367.65 347.9 L 380.55 349.8 L 393.45 351.7 L 406.35 353.8 L 419.25 356 L 432.15 357.8 L 445.05 359.5 L 457.95 361 L 470.85 362.5 L 483.75 364 L 496.65 365.5 L 509.55 366.7" stroke="black" stroke-width="3"   stroke-opacity="0.09999999999999999" transform="translate(1, 1)"></path><path fill="none" d="M 6.45 231.7 L 19.35 250.3 L 32.25 256.8 L 45.150000000000006 264.9 L 58.050000000000004 266.4 L 70.95 268.8 L 83.85000000000001 272.4 L 96.75 277.3 L 109.65 281.3 L 122.55000000000001 285.2 L 135.45 288.8 L 148.35 293.3 L 161.25 297.8 L 174.15 302.2 L 187.04999999999998 305.4 L 199.95 309.8 L 212.85 314.4 L 225.75 318.5 L 238.65 321.8 L 251.54999999999998 325.2 L 264.45 328.5 L 277.35 331.4 L 290.25 334 L 303.15 336.6 L 316.05 339 L 328.95 341.2 L 341.85 343.5 L 354.75 346 L 367.65 347.9 L 380.55 349.8 L 393.45 351.7 L 406.35 353.8 L 419.25 356 L 432.15 357.8 L 445.05 359.5 L 457.95 361 L 470.85 362.5 L 483.75 364 L 496.65 365.5 L 509.55 366.7" stroke="black" stroke-width="1"   stroke-opacity="0.15" transform="translate(1, 1)"></path><path fill="none" d="M 6.45 231.7 L 19.35 250.3 L 32.25 256.8 L 45.150000000000006 264.9 L 58.050000000000004 266.4 L 70.95 268.8 L 83.85000000000001 272.4 L 96.75 277.3 L 109.65 281.3 L 122.55000000000001 285.2 L 135.45 288.8 L 148.35 293.3 L 161.25 297.8 L 174.15 302.2 L 187.04999999999998 305.4 L 199.95 309.8 L 212.85 314.4 L 225.75 318.5 L 238.65 321.8 L 251.54999999999998 325.2 L 264.45 328.5 L 277.35 331.4 L 290.25 334 L 303.15 336.6 L 316.05 339 L 328.95 341.2 L 341.85 343.5 L 354.75 346 L 367.65 347.9 L 380.55 349.8 L 393.45 351.7 L 406.35 353.8 L 419.25 356 L 432.15 357.8 L 445.05 359.5 L 457.95 361 L 470.85 362.5 L 483.75 364 L 496.65 365.5 L 509.55 366.7" stroke="#3D96AE" stroke-width="2" ></path></g><g class="highcharts-markers" visibility="visible"  transform="translate(84,40)" clip-path="none"><path fill="#3D96AE" d="M 505.55 362.7 L 513.55 362.7 509.55 370.7 Z" stroke="#FFFFFF" stroke-width="0.000001"></path><path fill="#3D96AE" d="M 492.65 361.5 L 500.65 361.5 496.65 369.5 Z" stroke="#FFFFFF" stroke-width="0.000001"></path><path fill="#3D96AE" d="M 479.75 360 L 487.75 360 483.75 368 Z" stroke="#FFFFFF" stroke-width="0.000001"></path><path fill="#3D96AE" d="M 466.85 358.5 L 474.85 358.5 470.85 366.5 Z" stroke="#FFFFFF" stroke-width="0.000001"></path><path fill="#3D96AE" d="M 453.95 357 L 461.95 357 457.95 365 Z" stroke="#FFFFFF" stroke-width="0.000001"></path><path fill="#3D96AE" d="M 441.05 355.5 L 449.05 355.5 445.05 363.5 Z" stroke="#FFFFFF" stroke-width="0.000001"></path><path fill="#3D96AE" d="M 428.15 353.8 L 436.15 353.8 432.15 361.8 Z" stroke="#FFFFFF" stroke-width="0.000001"></path><path fill="#3D96AE" d="M 415.25 352 L 423.25 352 419.25 360 Z" stroke="#FFFFFF" stroke-width="0.000001"></path><path fill="#3D96AE" d="M 402.35 349.8 L 410.35 349.8 406.35 357.8 Z" stroke="#FFFFFF" stroke-width="0.000001"></path><path fill="#3D96AE" d="M 389.45 347.7 L 397.45 347.7 393.45 355.7 Z" stroke="#FFFFFF" stroke-width="0.000001"></path><path fill="#3D96AE" d="M 376.55 345.8 L 384.55 345.8 380.55 353.8 Z" stroke="#FFFFFF" stroke-width="0.000001"></path><path fill="#3D96AE" d="M 363.65 343.9 L 371.65 343.9 367.65 351.9 Z" stroke="#FFFFFF" stroke-width="0.000001"></path><path fill="#3D96AE" d="M 350.75 342 L 358.75 342 354.75 350 Z" stroke="#FFFFFF" stroke-width="0.000001"></path><path fill="#3D96AE" d="M 337.85 339.5 L 345.85 339.5 341.85 347.5 Z" stroke="#FFFFFF" stroke-width="0.000001"></path><path fill="#3D96AE" d="M 324.95 337.2 L 332.95 337.2 328.95 345.2 Z" stroke="#FFFFFF" stroke-width="0.000001"></path><path fill="#3D96AE" d="M 312.05 335 L 320.05 335 316.05 343 Z" stroke="#FFFFFF" stroke-width="0.000001"></path><path fill="#3D96AE" d="M 299.15 332.6 L 307.15 332.6 303.15 340.6 Z" stroke="#FFFFFF" stroke-width="0.000001"></path><path fill="#3D96AE" d="M 286.25 330 L 294.25 330 290.25 338 Z" stroke="#FFFFFF" stroke-width="0.000001"></path><path fill="#3D96AE" d="M 273.35 327.4 L 281.35 327.4 277.35 335.4 Z" stroke="#FFFFFF" stroke-width="0.000001"></path><path fill="#3D96AE" d="M 260.45 324.5 L 268.45 324.5 264.45 332.5 Z" stroke="#FFFFFF" stroke-width="0.000001"></path><path fill="#3D96AE" d="M 247.54999999999998 321.2 L 255.54999999999998 321.2 251.54999999999998 329.2 Z" stroke="#FFFFFF" stroke-width="0.000001"></path><path fill="#3D96AE" d="M 234.65 317.8 L 242.65 317.8 238.65 325.8 Z" stroke="#FFFFFF" stroke-width="0.000001"></path><path fill="#3D96AE" d="M 221.75 314.5 L 229.75 314.5 225.75 322.5 Z" stroke="#FFFFFF" stroke-width="0.000001"></path><path fill="#3D96AE" d="M 208.85 310.4 L 216.85 310.4 212.85 318.4 Z" stroke="#FFFFFF" stroke-width="0.000001"></path><path fill="#3D96AE" d="M 195.95 305.8 L 203.95 305.8 199.95 313.8 Z" stroke="#FFFFFF" stroke-width="0.000001"></path><path fill="#3D96AE" d="M 183.04999999999998 301.4 L 191.04999999999998 301.4 187.04999999999998 309.4 Z" stroke="#FFFFFF" stroke-width="0.000001"></path><path fill="#3D96AE" d="M 170.15 298.2 L 178.15 298.2 174.15 306.2 Z" stroke="#FFFFFF" stroke-width="0.000001"></path><path fill="#3D96AE" d="M 157.25 293.8 L 165.25 293.8 161.25 301.8 Z" stroke="#FFFFFF" stroke-width="0.000001"></path><path fill="#3D96AE" d="M 144.35 289.3 L 152.35 289.3 148.35 297.3 Z" stroke="#FFFFFF" stroke-width="0.000001"></path><path fill="#3D96AE" d="M 131.45 284.8 L 139.45 284.8 135.45 292.8 Z" stroke="#FFFFFF" stroke-width="0.000001"></path><path fill="#3D96AE" d="M 118.55000000000001 281.2 L 126.55000000000001 281.2 122.55000000000001 289.2 Z" stroke="#FFFFFF" stroke-width="0.000001"></path><path fill="#3D96AE" d="M 105.65 277.3 L 113.65 277.3 109.65 285.3 Z" stroke="#FFFFFF" stroke-width="0.000001"></path><path fill="#3D96AE" d="M 92.75 273.3 L 100.75 273.3 96.75 281.3 Z" stroke="#FFFFFF" stroke-width="0.000001"></path><path fill="#3D96AE" d="M 79.85000000000001 268.4 L 87.85000000000001 268.4 83.85000000000001 276.4 Z" stroke="#FFFFFF" stroke-width="0.000001"></path><path fill="#3D96AE" d="M 66.95 264.8 L 74.95 264.8 70.95 272.8 Z" stroke="#FFFFFF" stroke-width="0.000001"></path><path fill="#3D96AE" d="M 54.050000000000004 262.4 L 62.050000000000004 262.4 58.050000000000004 270.4 Z" stroke="#FFFFFF" stroke-width="0.000001"></path><path fill="#3D96AE" d="M 41.150000000000006 260.9 L 49.150000000000006 260.9 45.150000000000006 268.9 Z" stroke="#FFFFFF" stroke-width="0.000001"></path><path fill="#3D96AE" d="M 28.25 252.8 L 36.25 252.8 32.25 260.8 Z" stroke="#FFFFFF" stroke-width="0.000001"></path><path fill="#3D96AE" d="M 15.350000000000001 246.3 L 23.35 246.3 19.35 254.3 Z" stroke="#FFFFFF" stroke-width="0.000001"></path><path fill="#3D96AE" d="M 2.45 227.7 L 10.45 227.7 6.45 235.7 Z" stroke="#FFFFFF" stroke-width="0.000001"></path></g><g class="highcharts-series" visibility="visible"  transform="translate(84,40)" clip-path="url(#highcharts-9)"><path fill="none" d="M 6.45 56.2 L 19.35 116.8 L 32.25 166.9 L 45.150000000000006 203.7 L 58.050000000000004 224.9 L 70.95 239.2 L 83.85000000000001 248.9 L 96.75 258.5 L 109.65 265.9 L 122.55000000000001 273.3 L 135.45 278.3 L 148.35 283.7 L 161.25 290 L 174.15 295 L 187.04999999999998 300.1 L 199.95 304.5 L 212.85 310 L 225.75 314.6 L 238.65 318.4 L 251.54999999999998 321.9 L 264.45 325.5 L 277.35 328.8 L 290.25 331.8 L 303.15 334.6 L 316.05 337.2 L 328.95 339.6 L 341.85 342 L 354.75 344.5 L 367.65 346.7 L 380.55 348.7 L 393.45 350.6 L 406.35 352.7 L 419.25 354.9 L 432.15 356.9 L 445.05 358.6 L 457.95 360.2 L 470.85 361.8 L 483.75 363.3 L 496.65 364.8 L 509.55 366.1" stroke="black" stroke-width="5"   stroke-opacity="0.049999999999999996" transform="translate(1, 1)"></path><path fill="none" d="M 6.45 56.2 L 19.35 116.8 L 32.25 166.9 L 45.150000000000006 203.7 L 58.050000000000004 224.9 L 70.95 239.2 L 83.85000000000001 248.9 L 96.75 258.5 L 109.65 265.9 L 122.55000000000001 273.3 L 135.45 278.3 L 148.35 283.7 L 161.25 290 L 174.15 295 L 187.04999999999998 300.1 L 199.95 304.5 L 212.85 310 L 225.75 314.6 L 238.65 318.4 L 251.54999999999998 321.9 L 264.45 325.5 L 277.35 328.8 L 290.25 331.8 L 303.15 334.6 L 316.05 337.2 L 328.95 339.6 L 341.85 342 L 354.75 344.5 L 367.65 346.7 L 380.55 348.7 L 393.45 350.6 L 406.35 352.7 L 419.25 354.9 L 432.15 356.9 L 445.05 358.6 L 457.95 360.2 L 470.85 361.8 L 483.75 363.3 L 496.65 364.8 L 509.55 366.1" stroke="black" stroke-width="3"   stroke-opacity="0.09999999999999999" transform="translate(1, 1)"></path><path fill="none" d="M 6.45 56.2 L 19.35 116.8 L 32.25 166.9 L 45.150000000000006 203.7 L 58.050000000000004 224.9 L 70.95 239.2 L 83.85000000000001 248.9 L 96.75 258.5 L 109.65 265.9 L 122.55000000000001 273.3 L 135.45 278.3 L 148.35 283.7 L 161.25 290 L 174.15 295 L 187.04999999999998 300.1 L 199.95 304.5 L 212.85 310 L 225.75 314.6 L 238.65 318.4 L 251.54999999999998 321.9 L 264.45 325.5 L 277.35 328.8 L 290.25 331.8 L 303.15 334.6 L 316.05 337.2 L 328.95 339.6 L 341.85 342 L 354.75 344.5 L 367.65 346.7 L 380.55 348.7 L 393.45 350.6 L 406.35 352.7 L 419.25 354.9 L 432.15 356.9 L 445.05 358.6 L 457.95 360.2 L 470.85 361.8 L 483.75 363.3 L 496.65 364.8 L 509.55 366.1" stroke="black" stroke-width="1"   stroke-opacity="0.15" transform="translate(1, 1)"></path><path fill="none" d="M 6.45 56.2 L 19.35 116.8 L 32.25 166.9 L 45.150000000000006 203.7 L 58.050000000000004 224.9 L 70.95 239.2 L 83.85000000000001 248.9 L 96.75 258.5 L 109.65 265.9 L 122.55000000000001 273.3 L 135.45 278.3 L 148.35 283.7 L 161.25 290 L 174.15 295 L 187.04999999999998 300.1 L 199.95 304.5 L 212.85 310 L 225.75 314.6 L 238.65 318.4 L 251.54999999999998 321.9 L 264.45 325.5 L 277.35 328.8 L 290.25 331.8 L 303.15 334.6 L 316.05 337.2 L 328.95 339.6 L 341.85 342 L 354.75 344.5 L 367.65 346.7 L 380.55 348.7 L 393.45 350.6 L 406.35 352.7 L 419.25 354.9 L 432.15 356.9 L 445.05 358.6 L 457.95 360.2 L 470.85 361.8 L 483.75 363.3 L 496.65 364.8 L 509.55 366.1" stroke="#DB843D" stroke-width="2" ></path></g><g class="highcharts-markers" visibility="visible"  transform="translate(84,40)" clip-path="none"><path fill="#DB843D" d="M 509.55 362.1 C 514.8779999999999 362.1 514.8779999999999 370.1 509.55 370.1 C 504.22200000000004 370.1 504.22200000000004 362.1 509.55 362.1 Z" stroke="#FFFFFF" stroke-width="0.000001"></path><path fill="#DB843D" d="M 496.65 360.8 C 501.97799999999995 360.8 501.97799999999995 368.8 496.65 368.8 C 491.322 368.8 491.322 360.8 496.65 360.8 Z" stroke="#FFFFFF" stroke-width="0.000001"></path><path fill="#DB843D" d="M 483.75 359.3 C 489.078 359.3 489.078 367.3 483.75 367.3 C 478.422 367.3 478.422 359.3 483.75 359.3 Z" stroke="#FFFFFF" stroke-width="0.000001"></path><path fill="#DB843D" d="M 470.85 357.8 C 476.178 357.8 476.178 365.8 470.85 365.8 C 465.52200000000005 365.8 465.52200000000005 357.8 470.85 357.8 Z" stroke="#FFFFFF" stroke-width="0.000001"></path><path fill="#DB843D" d="M 457.95 356.2 C 463.27799999999996 356.2 463.27799999999996 364.2 457.95 364.2 C 452.622 364.2 452.622 356.2 457.95 356.2 Z" stroke="#FFFFFF" stroke-width="0.000001"></path><path fill="#DB843D" d="M 445.05 354.6 C 450.378 354.6 450.378 362.6 445.05 362.6 C 439.72200000000004 362.6 439.72200000000004 354.6 445.05 354.6 Z" stroke="#FFFFFF" stroke-width="0.000001"></path><path fill="#DB843D" d="M 432.15 352.9 C 437.47799999999995 352.9 437.47799999999995 360.9 432.15 360.9 C 426.822 360.9 426.822 352.9 432.15 352.9 Z" stroke="#FFFFFF" stroke-width="0.000001"></path><path fill="#DB843D" d="M 419.25 350.9 C 424.578 350.9 424.578 358.9 419.25 358.9 C 413.922 358.9 413.922 350.9 419.25 350.9 Z" stroke="#FFFFFF" stroke-width="0.000001"></path><path fill="#DB843D" d="M 406.35 348.7 C 411.678 348.7 411.678 356.7 406.35 356.7 C 401.02200000000005 356.7 401.02200000000005 348.7 406.35 348.7 Z" stroke="#FFFFFF" stroke-width="0.000001"></path><path fill="#DB843D" d="M 393.45 346.6 C 398.77799999999996 346.6 398.77799999999996 354.6 393.45 354.6 C 388.122 354.6 388.122 346.6 393.45 346.6 Z" stroke="#FFFFFF" stroke-width="0.000001"></path><path fill="#DB843D" d="M 380.55 344.7 C 385.878 344.7 385.878 352.7 380.55 352.7 C 375.22200000000004 352.7 375.22200000000004 344.7 380.55 344.7 Z" stroke="#FFFFFF" stroke-width="0.000001"></path><path fill="#DB843D" d="M 367.65 342.7 C 372.97799999999995 342.7 372.97799999999995 350.7 367.65 350.7 C 362.322 350.7 362.322 342.7 367.65 342.7 Z" stroke="#FFFFFF" stroke-width="0.000001"></path><path fill="#DB843D" d="M 354.75 340.5 C 360.078 340.5 360.078 348.5 354.75 348.5 C 349.422 348.5 349.422 340.5 354.75 340.5 Z" stroke="#FFFFFF" stroke-width="0.000001"></path><path fill="#DB843D" d="M 341.85 338 C 347.178 338 347.178 346 341.85 346 C 336.52200000000005 346 336.52200000000005 338 341.85 338 Z" stroke="#FFFFFF" stroke-width="0.000001"></path><path fill="#DB843D" d="M 328.95 335.6 C 334.27799999999996 335.6 334.27799999999996 343.6 328.95 343.6 C 323.622 343.6 323.622 335.6 328.95 335.6 Z" stroke="#FFFFFF" stroke-width="0.000001"></path><path fill="#DB843D" d="M 316.05 333.2 C 321.378 333.2 321.378 341.2 316.05 341.2 C 310.72200000000004 341.2 310.72200000000004 333.2 316.05 333.2 Z" stroke="#FFFFFF" stroke-width="0.000001"></path><path fill="#DB843D" d="M 303.15 330.6 C 308.47799999999995 330.6 308.47799999999995 338.6 303.15 338.6 C 297.822 338.6 297.822 330.6 303.15 330.6 Z" stroke="#FFFFFF" stroke-width="0.000001"></path><path fill="#DB843D" d="M 290.25 327.8 C 295.578 327.8 295.578 335.8 290.25 335.8 C 284.922 335.8 284.922 327.8 290.25 327.8 Z" stroke="#FFFFFF" stroke-width="0.000001"></path><path fill="#DB843D" d="M 277.35 324.8 C 282.678 324.8 282.678 332.8 277.35 332.8 C 272.02200000000005 332.8 272.02200000000005 324.8 277.35 324.8 Z" stroke="#FFFFFF" stroke-width="0.000001"></path><path fill="#DB843D" d="M 264.45 321.5 C 269.77799999999996 321.5 269.77799999999996 329.5 264.45 329.5 C 259.122 329.5 259.122 321.5 264.45 321.5 Z" stroke="#FFFFFF" stroke-width="0.000001"></path><path fill="#DB843D" d="M 251.54999999999998 317.9 C 256.878 317.9 256.878 325.9 251.54999999999998 325.9 C 246.22199999999998 325.9 246.22199999999998 317.9 251.54999999999998 317.9 Z" stroke="#FFFFFF" stroke-width="0.000001"></path><path fill="#DB843D" d="M 238.65 314.4 C 243.978 314.4 243.978 322.4 238.65 322.4 C 233.322 322.4 233.322 314.4 238.65 314.4 Z" stroke="#FFFFFF" stroke-width="0.000001"></path><path fill="#DB843D" d="M 225.75 310.6 C 231.078 310.6 231.078 318.6 225.75 318.6 C 220.422 318.6 220.422 310.6 225.75 310.6 Z" stroke="#FFFFFF" stroke-width="0.000001"></path><path fill="#DB843D" d="M 212.85 306 C 218.178 306 218.178 314 212.85 314 C 207.522 314 207.522 306 212.85 306 Z" stroke="#FFFFFF" stroke-width="0.000001"></path><path fill="#DB843D" d="M 199.95 300.5 C 205.278 300.5 205.278 308.5 199.95 308.5 C 194.62199999999999 308.5 194.62199999999999 300.5 199.95 300.5 Z" stroke="#FFFFFF" stroke-width="0.000001"></path><path fill="#DB843D" d="M 187.04999999999998 296.1 C 192.378 296.1 192.378 304.1 187.04999999999998 304.1 C 181.72199999999998 304.1 181.72199999999998 296.1 187.04999999999998 296.1 Z" stroke="#FFFFFF" stroke-width="0.000001"></path><path fill="#DB843D" d="M 174.15 291 C 179.478 291 179.478 299 174.15 299 C 168.822 299 168.822 291 174.15 291 Z" stroke="#FFFFFF" stroke-width="0.000001"></path><path fill="#DB843D" d="M 161.25 286 C 166.578 286 166.578 294 161.25 294 C 155.922 294 155.922 286 161.25 286 Z" stroke="#FFFFFF" stroke-width="0.000001"></path><path fill="#DB843D" d="M 148.35 279.7 C 153.678 279.7 153.678 287.7 148.35 287.7 C 143.022 287.7 143.022 279.7 148.35 279.7 Z" stroke="#FFFFFF" stroke-width="0.000001"></path><path fill="#DB843D" d="M 135.45 274.3 C 140.778 274.3 140.778 282.3 135.45 282.3 C 130.12199999999999 282.3 130.12199999999999 274.3 135.45 274.3 Z" stroke="#FFFFFF" stroke-width="0.000001"></path><path fill="#DB843D" d="M 122.55000000000001 269.3 C 127.87800000000001 269.3 127.87800000000001 277.3 122.55000000000001 277.3 C 117.22200000000001 277.3 117.22200000000001 269.3 122.55000000000001 269.3 Z" stroke="#FFFFFF" stroke-width="0.000001"></path><path fill="#DB843D" d="M 109.65 261.9 C 114.97800000000001 261.9 114.97800000000001 269.9 109.65 269.9 C 104.322 269.9 104.322 261.9 109.65 261.9 Z" stroke="#FFFFFF" stroke-width="0.000001"></path><path fill="#DB843D" d="M 96.75 254.5 C 102.078 254.5 102.078 262.5 96.75 262.5 C 91.422 262.5 91.422 254.5 96.75 254.5 Z" stroke="#FFFFFF" stroke-width="0.000001"></path><path fill="#DB843D" d="M 83.85000000000001 244.9 C 89.17800000000001 244.9 89.17800000000001 252.9 83.85000000000001 252.9 C 78.522 252.9 78.522 244.9 83.85000000000001 244.9 Z" stroke="#FFFFFF" stroke-width="0.000001"></path><path fill="#DB843D" d="M 70.95 235.2 C 76.278 235.2 76.278 243.2 70.95 243.2 C 65.622 243.2 65.622 235.2 70.95 235.2 Z" stroke="#FFFFFF" stroke-width="0.000001"></path><path fill="#DB843D" d="M 58.050000000000004 220.9 C 63.37800000000001 220.9 63.37800000000001 228.9 58.050000000000004 228.9 C 52.722 228.9 52.722 220.9 58.050000000000004 220.9 Z" stroke="#FFFFFF" stroke-width="0.000001"></path><path fill="#DB843D" d="M 45.150000000000006 199.7 C 50.47800000000001 199.7 50.47800000000001 207.7 45.150000000000006 207.7 C 39.822 207.7 39.822 199.7 45.150000000000006 199.7 Z" stroke="#FFFFFF" stroke-width="0.000001"></path><path fill="#DB843D" d="M 32.25 162.9 C 37.578 162.9 37.578 170.9 32.25 170.9 C 26.922 170.9 26.922 162.9 32.25 162.9 Z" stroke="#FFFFFF" stroke-width="0.000001"></path><path fill="#DB843D" d="M 19.35 112.8 C 24.678 112.8 24.678 120.8 19.35 120.8 C 14.022000000000002 120.8 14.022000000000002 112.8 19.35 112.8 Z" stroke="#FFFFFF" stroke-width="0.000001"></path><path fill="#DB843D" d="M 6.45 52.2 C 11.777999999999999 52.2 11.777999999999999 60.2 6.45 60.2 C 1.122 60.2 1.122 52.2 6.45 52.2 Z" stroke="#FFFFFF" stroke-width="0.000001"></path></g><g class="highcharts-series" visibility="visible"  transform="translate(84,40)" clip-path="url(#highcharts-9)"><path fill="none" d="M 6.45 121.9 L 19.35 138.8 L 32.25 147.6 L 45.150000000000006 162.3 L 58.050000000000004 175.4 L 70.95 193.7 L 83.85000000000001 209.6 L 96.75 221.5 L 109.65 233.6 L 122.55000000000001 245.2 L 135.45 254.7 L 148.35 264.6 L 161.25 272.6 L 174.15 280.3 L 187.04999999999998 287.3 L 199.95 293.3 L 212.85 299.4 L 225.75 304.3 L 238.65 309.4 L 251.54999999999998 314.5 L 264.45 319 L 277.35 322.9 L 290.25 327.1 L 303.15 331.1 L 316.05 334.7 L 328.95 338 L 341.85 340.9 L 354.75 343.9 L 367.65 346.6 L 380.55 349.5 L 393.45 352 L 406.35 354.5 L 419.25 356.7 L 432.15 359.1 L 445.05 361.3 L 457.95 363.4 L 470.85 365.2 L 483.75 366.9 L 496.65 368.5 L 509.55 370.1" stroke="black" stroke-width="5"   stroke-opacity="0.049999999999999996" transform="translate(1, 1)"></path><path fill="none" d="M 6.45 121.9 L 19.35 138.8 L 32.25 147.6 L 45.150000000000006 162.3 L 58.050000000000004 175.4 L 70.95 193.7 L 83.85000000000001 209.6 L 96.75 221.5 L 109.65 233.6 L 122.55000000000001 245.2 L 135.45 254.7 L 148.35 264.6 L 161.25 272.6 L 174.15 280.3 L 187.04999999999998 287.3 L 199.95 293.3 L 212.85 299.4 L 225.75 304.3 L 238.65 309.4 L 251.54999999999998 314.5 L 264.45 319 L 277.35 322.9 L 290.25 327.1 L 303.15 331.1 L 316.05 334.7 L 328.95 338 L 341.85 340.9 L 354.75 343.9 L 367.65 346.6 L 380.55 349.5 L 393.45 352 L 406.35 354.5 L 419.25 356.7 L 432.15 359.1 L 445.05 361.3 L 457.95 363.4 L 470.85 365.2 L 483.75 366.9 L 496.65 368.5 L 509.55 370.1" stroke="black" stroke-width="3"   stroke-opacity="0.09999999999999999" transform="translate(1, 1)"></path><path fill="none" d="M 6.45 121.9 L 19.35 138.8 L 32.25 147.6 L 45.150000000000006 162.3 L 58.050000000000004 175.4 L 70.95 193.7 L 83.85000000000001 209.6 L 96.75 221.5 L 109.65 233.6 L 122.55000000000001 245.2 L 135.45 254.7 L 148.35 264.6 L 161.25 272.6 L 174.15 280.3 L 187.04999999999998 287.3 L 199.95 293.3 L 212.85 299.4 L 225.75 304.3 L 238.65 309.4 L 251.54999999999998 314.5 L 264.45 319 L 277.35 322.9 L 290.25 327.1 L 303.15 331.1 L 316.05 334.7 L 328.95 338 L 341.85 340.9 L 354.75 343.9 L 367.65 346.6 L 380.55 349.5 L 393.45 352 L 406.35 354.5 L 419.25 356.7 L 432.15 359.1 L 445.05 361.3 L 457.95 363.4 L 470.85 365.2 L 483.75 366.9 L 496.65 368.5 L 509.55 370.1" stroke="black" stroke-width="1"   stroke-opacity="0.15" transform="translate(1, 1)"></path><path fill="none" d="M 6.45 121.9 L 19.35 138.8 L 32.25 147.6 L 45.150000000000006 162.3 L 58.050000000000004 175.4 L 70.95 193.7 L 83.85000000000001 209.6 L 96.75 221.5 L 109.65 233.6 L 122.55000000000001 245.2 L 135.45 254.7 L 148.35 264.6 L 161.25 272.6 L 174.15 280.3 L 187.04999999999998 287.3 L 199.95 293.3 L 212.85 299.4 L 225.75 304.3 L 238.65 309.4 L 251.54999999999998 314.5 L 264.45 319 L 277.35 322.9 L 290.25 327.1 L 303.15 331.1 L 316.05 334.7 L 328.95 338 L 341.85 340.9 L 354.75 343.9 L 367.65 346.6 L 380.55 349.5 L 393.45 352 L 406.35 354.5 L 419.25 356.7 L 432.15 359.1 L 445.05 361.3 L 457.95 363.4 L 470.85 365.2 L 483.75 366.9 L 496.65 368.5 L 509.55 370.1" stroke="#92A8CD" stroke-width="2" ></path></g><g class="highcharts-markers" visibility="visible"  transform="translate(84,40)" clip-path="none"><path fill="#92A8CD" d="M 509.55 366.1 L 513.55 370.1 509.55 374.1 505.55 370.1 Z" stroke="#FFFFFF" stroke-width="0.000001"></path><path fill="#92A8CD" d="M 496.65 364.5 L 500.65 368.5 496.65 372.5 492.65 368.5 Z" stroke="#FFFFFF" stroke-width="0.000001"></path><path fill="#92A8CD" d="M 483.75 362.9 L 487.75 366.9 483.75 370.9 479.75 366.9 Z" stroke="#FFFFFF" stroke-width="0.000001"></path><path fill="#92A8CD" d="M 470.85 361.2 L 474.85 365.2 470.85 369.2 466.85 365.2 Z" stroke="#FFFFFF" stroke-width="0.000001"></path><path fill="#92A8CD" d="M 457.95 359.4 L 461.95 363.4 457.95 367.4 453.95 363.4 Z" stroke="#FFFFFF" stroke-width="0.000001"></path><path fill="#92A8CD" d="M 445.05 357.3 L 449.05 361.3 445.05 365.3 441.05 361.3 Z" stroke="#FFFFFF" stroke-width="0.000001"></path><path fill="#92A8CD" d="M 432.15 355.1 L 436.15 359.1 432.15 363.1 428.15 359.1 Z" stroke="#FFFFFF" stroke-width="0.000001"></path><path fill="#92A8CD" d="M 419.25 352.7 L 423.25 356.7 419.25 360.7 415.25 356.7 Z" stroke="#FFFFFF" stroke-width="0.000001"></path><path fill="#92A8CD" d="M 406.35 350.5 L 410.35 354.5 406.35 358.5 402.35 354.5 Z" stroke="#FFFFFF" stroke-width="0.000001"></path><path fill="#92A8CD" d="M 393.45 348 L 397.45 352 393.45 356 389.45 352 Z" stroke="#FFFFFF" stroke-width="0.000001"></path><path fill="#92A8CD" d="M 380.55 345.5 L 384.55 349.5 380.55 353.5 376.55 349.5 Z" stroke="#FFFFFF" stroke-width="0.000001"></path><path fill="#92A8CD" d="M 367.65 342.6 L 371.65 346.6 367.65 350.6 363.65 346.6 Z" stroke="#FFFFFF" stroke-width="0.000001"></path><path fill="#92A8CD" d="M 354.75 339.9 L 358.75 343.9 354.75 347.9 350.75 343.9 Z" stroke="#FFFFFF" stroke-width="0.000001"></path><path fill="#92A8CD" d="M 341.85 336.9 L 345.85 340.9 341.85 344.9 337.85 340.9 Z" stroke="#FFFFFF" stroke-width="0.000001"></path><path fill="#92A8CD" d="M 328.95 334 L 332.95 338 328.95 342 324.95 338 Z" stroke="#FFFFFF" stroke-width="0.000001"></path><path fill="#92A8CD" d="M 316.05 330.7 L 320.05 334.7 316.05 338.7 312.05 334.7 Z" stroke="#FFFFFF" stroke-width="0.000001"></path><path fill="#92A8CD" d="M 303.15 327.1 L 307.15 331.1 303.15 335.1 299.15 331.1 Z" stroke="#FFFFFF" stroke-width="0.000001"></path><path fill="#92A8CD" d="M 290.25 323.1 L 294.25 327.1 290.25 331.1 286.25 327.1 Z" stroke="#FFFFFF" stroke-width="0.000001"></path><path fill="#92A8CD" d="M 277.35 318.9 L 281.35 322.9 277.35 326.9 273.35 322.9 Z" stroke="#FFFFFF" stroke-width="0.000001"></path><path fill="#92A8CD" d="M 264.45 315 L 268.45 319 264.45 323 260.45 319 Z" stroke="#FFFFFF" stroke-width="0.000001"></path><path fill="#92A8CD" d="M 251.54999999999998 310.5 L 255.54999999999998 314.5 251.54999999999998 318.5 247.54999999999998 314.5 Z" stroke="#FFFFFF" stroke-width="0.000001"></path><path fill="#92A8CD" d="M 238.65 305.4 L 242.65 309.4 238.65 313.4 234.65 309.4 Z" stroke="#FFFFFF" stroke-width="0.000001"></path><path fill="#92A8CD" d="M 225.75 300.3 L 229.75 304.3 225.75 308.3 221.75 304.3 Z" stroke="#FFFFFF" stroke-width="0.000001"></path><path fill="#92A8CD" d="M 212.85 295.4 L 216.85 299.4 212.85 303.4 208.85 299.4 Z" stroke="#FFFFFF" stroke-width="0.000001"></path><path fill="#92A8CD" d="M 199.95 289.3 L 203.95 293.3 199.95 297.3 195.95 293.3 Z" stroke="#FFFFFF" stroke-width="0.000001"></path><path fill="#92A8CD" d="M 187.04999999999998 283.3 L 191.04999999999998 287.3 187.04999999999998 291.3 183.04999999999998 287.3 Z" stroke="#FFFFFF" stroke-width="0.000001"></path><path fill="#92A8CD" d="M 174.15 276.3 L 178.15 280.3 174.15 284.3 170.15 280.3 Z" stroke="#FFFFFF" stroke-width="0.000001"></path><path fill="#92A8CD" d="M 161.25 268.6 L 165.25 272.6 161.25 276.6 157.25 272.6 Z" stroke="#FFFFFF" stroke-width="0.000001"></path><path fill="#92A8CD" d="M 148.35 260.6 L 152.35 264.6 148.35 268.6 144.35 264.6 Z" stroke="#FFFFFF" stroke-width="0.000001"></path><path fill="#92A8CD" d="M 135.45 250.7 L 139.45 254.7 135.45 258.7 131.45 254.7 Z" stroke="#FFFFFF" stroke-width="0.000001"></path><path fill="#92A8CD" d="M 122.55000000000001 241.2 L 126.55000000000001 245.2 122.55000000000001 249.2 118.55000000000001 245.2 Z" stroke="#FFFFFF" stroke-width="0.000001"></path><path fill="#92A8CD" d="M 109.65 229.6 L 113.65 233.6 109.65 237.6 105.65 233.6 Z" stroke="#FFFFFF" stroke-width="0.000001"></path><path fill="#92A8CD" d="M 96.75 217.5 L 100.75 221.5 96.75 225.5 92.75 221.5 Z" stroke="#FFFFFF" stroke-width="0.000001"></path><path fill="#92A8CD" d="M 83.85000000000001 205.6 L 87.85000000000001 209.6 83.85000000000001 213.6 79.85000000000001 209.6 Z" stroke="#FFFFFF" stroke-width="0.000001"></path><path fill="#92A8CD" d="M 70.95 189.7 L 74.95 193.7 70.95 197.7 66.95 193.7 Z" stroke="#FFFFFF" stroke-width="0.000001"></path><path fill="#92A8CD" d="M 58.050000000000004 171.4 L 62.050000000000004 175.4 58.050000000000004 179.4 54.050000000000004 175.4 Z" stroke="#FFFFFF" stroke-width="0.000001"></path><path fill="#92A8CD" d="M 45.150000000000006 158.3 L 49.150000000000006 162.3 45.150000000000006 166.3 41.150000000000006 162.3 Z" stroke="#FFFFFF" stroke-width="0.000001"></path><path fill="#92A8CD" d="M 32.25 143.6 L 36.25 147.6 32.25 151.6 28.25 147.6 Z" stroke="#FFFFFF" stroke-width="0.000001"></path><path fill="#92A8CD" d="M 19.35 134.8 L 23.35 138.8 19.35 142.8 15.350000000000001 138.8 Z" stroke="#FFFFFF" stroke-width="0.000001"></path><path fill="#92A8CD" d="M 6.45 117.9 L 10.45 121.9 6.45 125.9 2.45 121.9 Z" stroke="#FFFFFF" stroke-width="0.000001"></path></g><g class="highcharts-series" visibility="visible"  transform="translate(84,40)" clip-path="url(#highcharts-9)"><path fill="none" d="M 6.45 98.9 L 19.35 119.3 L 32.25 123.4 L 45.150000000000006 126.1 L 58.050000000000004 136.8 L 70.95 152.6 L 83.85000000000001 170.5 L 96.75 187.1 L 109.65 200.1 L 122.55000000000001 213.6 L 135.45 225.1 L 148.35 236.5 L 161.25 245.4 L 174.15 254.9 L 187.04999999999998 263.9 L 199.95 271.3 L 212.85 278.6 L 225.75 285.5 L 238.65 291.4 L 251.54999999999998 297.2 L 264.45 302.2 L 277.35 307 L 290.25 311.7 L 303.15 316.3 L 316.05 320.3 L 328.95 324.3 L 341.85 328.1 L 354.75 331.7 L 367.65 335 L 380.55 338.2 L 393.45 340.9 L 406.35 343.9 L 419.25 346.7 L 432.15 349.3 L 445.05 351.7 L 457.95 354.1 L 470.85 356.4 L 483.75 358.6 L 496.65 360.6 L 509.55 362.6" stroke="black" stroke-width="5"   stroke-opacity="0.049999999999999996" transform="translate(1, 1)"></path><path fill="none" d="M 6.45 98.9 L 19.35 119.3 L 32.25 123.4 L 45.150000000000006 126.1 L 58.050000000000004 136.8 L 70.95 152.6 L 83.85000000000001 170.5 L 96.75 187.1 L 109.65 200.1 L 122.55000000000001 213.6 L 135.45 225.1 L 148.35 236.5 L 161.25 245.4 L 174.15 254.9 L 187.04999999999998 263.9 L 199.95 271.3 L 212.85 278.6 L 225.75 285.5 L 238.65 291.4 L 251.54999999999998 297.2 L 264.45 302.2 L 277.35 307 L 290.25 311.7 L 303.15 316.3 L 316.05 320.3 L 328.95 324.3 L 341.85 328.1 L 354.75 331.7 L 367.65 335 L 380.55 338.2 L 393.45 340.9 L 406.35 343.9 L 419.25 346.7 L 432.15 349.3 L 445.05 351.7 L 457.95 354.1 L 470.85 356.4 L 483.75 358.6 L 496.65 360.6 L 509.55 362.6" stroke="black" stroke-width="3"   stroke-opacity="0.09999999999999999" transform="translate(1, 1)"></path><path fill="none" d="M 6.45 98.9 L 19.35 119.3 L 32.25 123.4 L 45.150000000000006 126.1 L 58.050000000000004 136.8 L 70.95 152.6 L 83.85000000000001 170.5 L 96.75 187.1 L 109.65 200.1 L 122.55000000000001 213.6 L 135.45 225.1 L 148.35 236.5 L 161.25 245.4 L 174.15 254.9 L 187.04999999999998 263.9 L 199.95 271.3 L 212.85 278.6 L 225.75 285.5 L 238.65 291.4 L 251.54999999999998 297.2 L 264.45 302.2 L 277.35 307 L 290.25 311.7 L 303.15 316.3 L 316.05 320.3 L 328.95 324.3 L 341.85 328.1 L 354.75 331.7 L 367.65 335 L 380.55 338.2 L 393.45 340.9 L 406.35 343.9 L 419.25 346.7 L 432.15 349.3 L 445.05 351.7 L 457.95 354.1 L 470.85 356.4 L 483.75 358.6 L 496.65 360.6 L 509.55 362.6" stroke="black" stroke-width="1"   stroke-opacity="0.15" transform="translate(1, 1)"></path><path fill="none" d="M 6.45 98.9 L 19.35 119.3 L 32.25 123.4 L 45.150000000000006 126.1 L 58.050000000000004 136.8 L 70.95 152.6 L 83.85000000000001 170.5 L 96.75 187.1 L 109.65 200.1 L 122.55000000000001 213.6 L 135.45 225.1 L 148.35 236.5 L 161.25 245.4 L 174.15 254.9 L 187.04999999999998 263.9 L 199.95 271.3 L 212.85 278.6 L 225.75 285.5 L 238.65 291.4 L 251.54999999999998 297.2 L 264.45 302.2 L 277.35 307 L 290.25 311.7 L 303.15 316.3 L 316.05 320.3 L 328.95 324.3 L 341.85 328.1 L 354.75 331.7 L 367.65 335 L 380.55 338.2 L 393.45 340.9 L 406.35 343.9 L 419.25 346.7 L 432.15 349.3 L 445.05 351.7 L 457.95 354.1 L 470.85 356.4 L 483.75 358.6 L 496.65 360.6 L 509.55 362.6" stroke="#A47D7C" stroke-width="2" ></path></g><g class="highcharts-markers" visibility="visible"  transform="translate(84,40)" clip-path="none"><path fill="#A47D7C" d="M 505.55 358.6 L 513.55 358.6 513.55 366.6 505.55 366.6 Z" stroke="#FFFFFF" stroke-width="0.000001"></path><path fill="#A47D7C" d="M 492.65 356.6 L 500.65 356.6 500.65 364.6 492.65 364.6 Z" stroke="#FFFFFF" stroke-width="0.000001"></path><path fill="#A47D7C" d="M 479.75 354.6 L 487.75 354.6 487.75 362.6 479.75 362.6 Z" stroke="#FFFFFF" stroke-width="0.000001"></path><path fill="#A47D7C" d="M 466.85 352.4 L 474.85 352.4 474.85 360.4 466.85 360.4 Z" stroke="#FFFFFF" stroke-width="0.000001"></path><path fill="#A47D7C" d="M 453.95 350.1 L 461.95 350.1 461.95 358.1 453.95 358.1 Z" stroke="#FFFFFF" stroke-width="0.000001"></path><path fill="#A47D7C" d="M 441.05 347.7 L 449.05 347.7 449.05 355.7 441.05 355.7 Z" stroke="#FFFFFF" stroke-width="0.000001"></path><path fill="#A47D7C" d="M 428.15 345.3 L 436.15 345.3 436.15 353.3 428.15 353.3 Z" stroke="#FFFFFF" stroke-width="0.000001"></path><path fill="#A47D7C" d="M 415.25 342.7 L 423.25 342.7 423.25 350.7 415.25 350.7 Z" stroke="#FFFFFF" stroke-width="0.000001"></path><path fill="#A47D7C" d="M 402.35 339.9 L 410.35 339.9 410.35 347.9 402.35 347.9 Z" stroke="#FFFFFF" stroke-width="0.000001"></path><path fill="#A47D7C" d="M 389.45 336.9 L 397.45 336.9 397.45 344.9 389.45 344.9 Z" stroke="#FFFFFF" stroke-width="0.000001"></path><path fill="#A47D7C" d="M 376.55 334.2 L 384.55 334.2 384.55 342.2 376.55 342.2 Z" stroke="#FFFFFF" stroke-width="0.000001"></path><path fill="#A47D7C" d="M 363.65 331 L 371.65 331 371.65 339 363.65 339 Z" stroke="#FFFFFF" stroke-width="0.000001"></path><path fill="#A47D7C" d="M 350.75 327.7 L 358.75 327.7 358.75 335.7 350.75 335.7 Z" stroke="#FFFFFF" stroke-width="0.000001"></path><path fill="#A47D7C" d="M 337.85 324.1 L 345.85 324.1 345.85 332.1 337.85 332.1 Z" stroke="#FFFFFF" stroke-width="0.000001"></path><path fill="#A47D7C" d="M 324.95 320.3 L 332.95 320.3 332.95 328.3 324.95 328.3 Z" stroke="#FFFFFF" stroke-width="0.000001"></path><path fill="#A47D7C" d="M 312.05 316.3 L 320.05 316.3 320.05 324.3 312.05 324.3 Z" stroke="#FFFFFF" stroke-width="0.000001"></path><path fill="#A47D7C" d="M 299.15 312.3 L 307.15 312.3 307.15 320.3 299.15 320.3 Z" stroke="#FFFFFF" stroke-width="0.000001"></path><path fill="#A47D7C" d="M 286.25 307.7 L 294.25 307.7 294.25 315.7 286.25 315.7 Z" stroke="#FFFFFF" stroke-width="0.000001"></path><path fill="#A47D7C" d="M 273.35 303 L 281.35 303 281.35 311 273.35 311 Z" stroke="#FFFFFF" stroke-width="0.000001"></path><path fill="#A47D7C" d="M 260.45 298.2 L 268.45 298.2 268.45 306.2 260.45 306.2 Z" stroke="#FFFFFF" stroke-width="0.000001"></path><path fill="#A47D7C" d="M 247.54999999999998 293.2 L 255.54999999999998 293.2 255.54999999999998 301.2 247.54999999999998 301.2 Z" stroke="#FFFFFF" stroke-width="0.000001"></path><path fill="#A47D7C" d="M 234.65 287.4 L 242.65 287.4 242.65 295.4 234.65 295.4 Z" stroke="#FFFFFF" stroke-width="0.000001"></path><path fill="#A47D7C" d="M 221.75 281.5 L 229.75 281.5 229.75 289.5 221.75 289.5 Z" stroke="#FFFFFF" stroke-width="0.000001"></path><path fill="#A47D7C" d="M 208.85 274.6 L 216.85 274.6 216.85 282.6 208.85 282.6 Z" stroke="#FFFFFF" stroke-width="0.000001"></path><path fill="#A47D7C" d="M 195.95 267.3 L 203.95 267.3 203.95 275.3 195.95 275.3 Z" stroke="#FFFFFF" stroke-width="0.000001"></path><path fill="#A47D7C" d="M 183.04999999999998 259.9 L 191.04999999999998 259.9 191.04999999999998 267.9 183.04999999999998 267.9 Z" stroke="#FFFFFF" stroke-width="0.000001"></path><path fill="#A47D7C" d="M 170.15 250.9 L 178.15 250.9 178.15 258.9 170.15 258.9 Z" stroke="#FFFFFF" stroke-width="0.000001"></path><path fill="#A47D7C" d="M 157.25 241.4 L 165.25 241.4 165.25 249.4 157.25 249.4 Z" stroke="#FFFFFF" stroke-width="0.000001"></path><path fill="#A47D7C" d="M 144.35 232.5 L 152.35 232.5 152.35 240.5 144.35 240.5 Z" stroke="#FFFFFF" stroke-width="0.000001"></path><path fill="#A47D7C" d="M 131.45 221.1 L 139.45 221.1 139.45 229.1 131.45 229.1 Z" stroke="#FFFFFF" stroke-width="0.000001"></path><path fill="#A47D7C" d="M 118.55000000000001 209.6 L 126.55000000000001 209.6 126.55000000000001 217.6 118.55000000000001 217.6 Z" stroke="#FFFFFF" stroke-width="0.000001"></path><path fill="#A47D7C" d="M 105.65 196.1 L 113.65 196.1 113.65 204.1 105.65 204.1 Z" stroke="#FFFFFF" stroke-width="0.000001"></path><path fill="#A47D7C" d="M 92.75 183.1 L 100.75 183.1 100.75 191.1 92.75 191.1 Z" stroke="#FFFFFF" stroke-width="0.000001"></path><path fill="#A47D7C" d="M 79.85000000000001 166.5 L 87.85000000000001 166.5 87.85000000000001 174.5 79.85000000000001 174.5 Z" stroke="#FFFFFF" stroke-width="0.000001"></path><path fill="#A47D7C" d="M 66.95 148.6 L 74.95 148.6 74.95 156.6 66.95 156.6 Z" stroke="#FFFFFF" stroke-width="0.000001"></path><path fill="#A47D7C" d="M 54.050000000000004 132.8 L 62.050000000000004 132.8 62.050000000000004 140.8 54.050000000000004 140.8 Z" stroke="#FFFFFF" stroke-width="0.000001"></path><path fill="#A47D7C" d="M 41.150000000000006 122.1 L 49.150000000000006 122.1 49.150000000000006 130.1 41.150000000000006 130.1 Z" stroke="#FFFFFF" stroke-width="0.000001"></path><path fill="#A47D7C" d="M 28.25 119.4 L 36.25 119.4 36.25 127.4 28.25 127.4 Z" stroke="#FFFFFF" stroke-width="0.000001"></path><path fill="#A47D7C" d="M 15.350000000000001 115.3 L 23.35 115.3 23.35 123.3 15.350000000000001 123.3 Z" stroke="#FFFFFF" stroke-width="0.000001"></path><path fill="#A47D7C" d="M 2.45 94.9 L 10.45 94.9 10.45 102.9 2.45 102.9 Z" stroke="#FFFFFF" stroke-width="0.000001"></path></g></g><g class="highcharts-legend"  transform="translate(393,110)"><g  clip-path="url(#highcharts-8)"><g><g class="highcharts-legend-item"  transform="translate(8,3)"><path fill="none" d="M 0 23 L 16 23" stroke-width="2" stroke="#4572A7"></path><path fill="#4572A7" d="M 8 19 C 13.328 19 13.328 27 8 27 C 2.6719999999999997 27 2.6719999999999997 19 8 19 Z" stroke="#FFFFFF" stroke-width="0.000001"></path><text x="21" y="27" style="font-family:'lucida grande', 'lucida sans unicode', verdana, arial, helvetica, sans-serif;font-size:24px;cursor:pointer;color:#3e576f;fill:#3e576f;" text-anchor="start" ><tspan x="21">tfidf_title</tspan></text></g><g class="highcharts-legend-item"  transform="translate(8,31)"><path fill="none" d="M 0 23 L 16 23" stroke-width="2" stroke="#AA4643"></path><path fill="#AA4643" d="M 8 19 L 12 23 8 27 4 23 Z" stroke="#FFFFFF" stroke-width="0.000001"></path><text x="21" y="27" style="font-family:'lucida grande', 'lucida sans unicode', verdana, arial, helvetica, sans-serif;font-size:24px;cursor:pointer;color:#3e576f;fill:#3e576f;" text-anchor="start" ><tspan x="21">tfidf</tspan></text></g><g class="highcharts-legend-item"  transform="translate(8,59)"><path fill="none" d="M 0 23 L 16 23" stroke-width="2" stroke="#89A54E"></path><path fill="#89A54E" d="M 4 19 L 12 19 12 27 4 27 Z" stroke="#FFFFFF" stroke-width="0.000001"></path><text x="21" y="27" style="font-family:'lucida grande', 'lucida sans unicode', verdana, arial, helvetica, sans-serif;font-size:24px;cursor:pointer;color:#3e576f;fill:#3e576f;" text-anchor="start" ><tspan x="21">tf_simpleidf</tspan></text></g><g class="highcharts-legend-item"  transform="translate(8,87)"><path fill="none" d="M 0 23 L 16 23" stroke-width="2" stroke="#80699B"></path><path fill="#80699B" d="M 8 19 L 12 27 4 27 Z" stroke="#FFFFFF" stroke-width="0.000001"></path><text x="21" y="27" style="font-family:'lucida grande', 'lucida sans unicode', verdana, arial, helvetica, sans-serif;font-size:24px;cursor:pointer;color:#3e576f;fill:#3e576f;" text-anchor="start" ><tspan x="21">combined</tspan></text></g><g class="highcharts-legend-item"  transform="translate(8,115)"><path fill="none" d="M 0 23 L 16 23" stroke-width="2" stroke="#3D96AE"></path><path fill="#3D96AE" d="M 4 19 L 12 19 8 27 Z" stroke="#FFFFFF" stroke-width="0.000001"></path><text x="21" y="27" style="font-family:'lucida grande', 'lucida sans unicode', verdana, arial, helvetica, sans-serif;font-size:24px;cursor:pointer;color:#3e576f;fill:#3e576f;" text-anchor="start" ><tspan x="21">tf</tspan></text></g><g class="highcharts-legend-item"  transform="translate(8,143)"><path fill="none" d="M 0 23 L 16 23" stroke-width="2" stroke="#DB843D"></path><path fill="#DB843D" d="M 8 19 C 13.328 19 13.328 27 8 27 C 2.6719999999999997 27 2.6719999999999997 19 8 19 Z" stroke="#FFFFFF" stroke-width="0.000001"></path><text x="21" y="27" style="font-family:'lucida grande', 'lucida sans unicode', verdana, arial, helvetica, sans-serif;font-size:24px;cursor:pointer;color:#3e576f;fill:#3e576f;" text-anchor="start" ><tspan x="21">tf_title</tspan></text></g><g class="highcharts-legend-item"  transform="translate(8,171)"><path fill="none" d="M 0 23 L 16 23" stroke-width="2" stroke="#92A8CD"></path><path fill="#92A8CD" d="M 8 19 L 12 23 8 27 4 23 Z" stroke="#FFFFFF" stroke-width="0.000001"></path><text x="21" y="27" style="font-family:'lucida grande', 'lucida sans unicode', verdana, arial, helvetica, sans-serif;font-size:24px;cursor:pointer;color:#3e576f;fill:#3e576f;" text-anchor="start" ><tspan x="21">ont-depth</tspan></text></g><g class="highcharts-legend-item"  transform="translate(8,199)"><path fill="none" d="M 0 23 L 16 23" stroke-width="2" stroke="#A47D7C"></path><path fill="#A47D7C" d="M 4 19 L 12 19 12 27 4 27 Z" stroke="#FFFFFF" stroke-width="0.000001"></path><text x="21" y="27" style="font-family:'lucida grande', 'lucida sans unicode', verdana, arial, helvetica, sans-serif;font-size:24px;cursor:pointer;color:#3e576f;fill:#3e576f;" text-anchor="start" ><tspan x="21">ont-neighbor</tspan></text></g></g></g></g><g class="highcharts-axis-labels" ><text x="90.45" y="440" style="font-family:'lucida grande', 'lucida sans unicode', verdana, arial, helvetica, sans-serif;font-size:18px;width:6px;color:#666;line-height:14px;fill:#666;" text-anchor="middle" visibility="visible"><tspan x="90.45">1</tspan></text><text x="116.25" y="440" style="font-family:'lucida grande', 'lucida sans unicode', verdana, arial, helvetica, sans-serif;font-size:18px;width:6px;color:#666;line-height:14px;fill:#666;" text-anchor="middle" visibility="visible"><tspan x="116.25">3</tspan></text><text x="142.05" y="440" style="font-family:'lucida grande', 'lucida sans unicode', verdana, arial, helvetica, sans-serif;font-size:18px;width:6px;color:#666;line-height:14px;fill:#666;" text-anchor="middle" visibility="visible"><tspan x="142.05">5</tspan></text><text x="167.85000000000002" y="440" style="font-family:'lucida grande', 'lucida sans unicode', verdana, arial, helvetica, sans-serif;font-size:18px;width:6px;color:#666;line-height:14px;fill:#666;" text-anchor="middle" visibility="visible"><tspan x="167.85000000000002">7</tspan></text><text x="193.65000000000003" y="440" style="font-family:'lucida grande', 'lucida sans unicode', verdana, arial, helvetica, sans-serif;font-size:18px;width:6px;color:#666;line-height:14px;fill:#666;" text-anchor="middle" visibility="visible"><tspan x="193.65000000000003">9</tspan></text><text x="219.45000000000002" y="440" style="font-family:'lucida grande', 'lucida sans unicode', verdana, arial, helvetica, sans-serif;font-size:18px;width:6px;color:#666;line-height:14px;fill:#666;" text-anchor="middle" visibility="visible"><tspan x="219.45000000000002">11</tspan></text><text x="245.25" y="440" style="font-family:'lucida grande', 'lucida sans unicode', verdana, arial, helvetica, sans-serif;font-size:18px;width:6px;color:#666;line-height:14px;fill:#666;" text-anchor="middle" visibility="visible"><tspan x="245.25">13</tspan></text><text x="271.05" y="440" style="font-family:'lucida grande', 'lucida sans unicode', verdana, arial, helvetica, sans-serif;font-size:18px;width:6px;color:#666;line-height:14px;fill:#666;" text-anchor="middle" visibility="visible"><tspan x="271.05">15</tspan></text><text x="296.84999999999997" y="440" style="font-family:'lucida grande', 'lucida sans unicode', verdana, arial, helvetica, sans-serif;font-size:18px;width:6px;color:#666;line-height:14px;fill:#666;" text-anchor="middle" visibility="visible"><tspan x="296.84999999999997">17</tspan></text><text x="322.65000000000003" y="440" style="font-family:'lucida grande', 'lucida sans unicode', verdana, arial, helvetica, sans-serif;font-size:18px;width:6px;color:#666;line-height:14px;fill:#666;" text-anchor="middle" visibility="visible"><tspan x="322.65000000000003">19</tspan></text><text x="348.45" y="440" style="font-family:'lucida grande', 'lucida sans unicode', verdana, arial, helvetica, sans-serif;font-size:18px;width:6px;color:#666;line-height:14px;fill:#666;" text-anchor="middle" visibility="visible"><tspan x="348.45">21</tspan></text><text x="374.25" y="440" style="font-family:'lucida grande', 'lucida sans unicode', verdana, arial, helvetica, sans-serif;font-size:18px;width:6px;color:#666;line-height:14px;fill:#666;" text-anchor="middle" visibility="visible"><tspan x="374.25">23</tspan></text><text x="400.05" y="440" style="font-family:'lucida grande', 'lucida sans unicode', verdana, arial, helvetica, sans-serif;font-size:18px;width:6px;color:#666;line-height:14px;fill:#666;" text-anchor="middle" visibility="visible"><tspan x="400.05">25</tspan></text><text x="425.85" y="440" style="font-family:'lucida grande', 'lucida sans unicode', verdana, arial, helvetica, sans-serif;font-size:18px;width:6px;color:#666;line-height:14px;fill:#666;" text-anchor="middle" visibility="visible"><tspan x="425.85">27</tspan></text><text x="451.65000000000003" y="440" style="font-family:'lucida grande', 'lucida sans unicode', verdana, arial, helvetica, sans-serif;font-size:18px;width:6px;color:#666;line-height:14px;fill:#666;" text-anchor="middle" visibility="visible"><tspan x="451.65000000000003">29</tspan></text><text x="477.45" y="440" style="font-family:'lucida grande', 'lucida sans unicode', verdana, arial, helvetica, sans-serif;font-size:18px;width:6px;color:#666;line-height:14px;fill:#666;" text-anchor="middle" visibility="visible"><tspan x="477.45">31</tspan></text><text x="503.25" y="440" style="font-family:'lucida grande', 'lucida sans unicode', verdana, arial, helvetica, sans-serif;font-size:18px;width:6px;color:#666;line-height:14px;fill:#666;" text-anchor="middle" visibility="visible"><tspan x="503.25">33</tspan></text><text x="529.05" y="440" style="font-family:'lucida grande', 'lucida sans unicode', verdana, arial, helvetica, sans-serif;font-size:18px;width:6px;color:#666;line-height:14px;fill:#666;" text-anchor="middle" visibility="visible"><tspan x="529.05">35</tspan></text><text x="554.8499999999999" y="440" style="font-family:'lucida grande', 'lucida sans unicode', verdana, arial, helvetica, sans-serif;font-size:18px;width:6px;color:#666;line-height:14px;fill:#666;" text-anchor="middle" visibility="visible"><tspan x="554.8499999999999">37</tspan></text><text x="580.65" y="440" style="font-family:'lucida grande', 'lucida sans unicode', verdana, arial, helvetica, sans-serif;font-size:18px;width:6px;color:#666;line-height:14px;fill:#666;" text-anchor="middle" visibility="visible"><tspan x="580.65">39</tspan></text></g><g class="highcharts-axis-labels" ><text x="76" y="421.6" style="font-family:'lucida grande', 'lucida sans unicode', verdana, arial, helvetica, sans-serif;font-size:18px;width:238px;color:#666;line-height:14px;fill:#666;" text-anchor="end" visibility="visible"><tspan x="76">0.2</tspan></text><text x="76" y="367.31428571428575" style="font-family:'lucida grande', 'lucida sans unicode', verdana, arial, helvetica, sans-serif;font-size:18px;width:238px;color:#666;line-height:14px;fill:#666;" text-anchor="end" visibility="visible"><tspan x="76">0.3</tspan></text><text x="76" y="313.02857142857147" style="font-family:'lucida grande', 'lucida sans unicode', verdana, arial, helvetica, sans-serif;font-size:18px;width:238px;color:#666;line-height:14px;fill:#666;" text-anchor="end" visibility="visible"><tspan x="76">0.4</tspan></text><text x="76" y="258.74285714285713" style="font-family:'lucida grande', 'lucida sans unicode', verdana, arial, helvetica, sans-serif;font-size:18px;width:238px;color:#666;line-height:14px;fill:#666;" text-anchor="end" visibility="visible"><tspan x="76">0.5</tspan></text><text x="76" y="204.45714285714288" style="font-family:'lucida grande', 'lucida sans unicode', verdana, arial, helvetica, sans-serif;font-size:18px;width:238px;color:#666;line-height:14px;fill:#666;" text-anchor="end" visibility="visible"><tspan x="76">0.6</tspan></text><text x="76" y="150.1714285714286" style="font-family:'lucida grande', 'lucida sans unicode', verdana, arial, helvetica, sans-serif;font-size:18px;width:238px;color:#666;line-height:14px;fill:#666;" text-anchor="end" visibility="visible"><tspan x="76">0.7</tspan></text><text x="76" y="95.88571428571422" style="font-family:'lucida grande', 'lucida sans unicode', verdana, arial, helvetica, sans-serif;font-size:18px;width:238px;color:#666;line-height:14px;fill:#666;" text-anchor="end" visibility="visible"><tspan x="76">0.8</tspan></text><text x="76" y="41.6" style="font-family:'lucida grande', 'lucida sans unicode', verdana, arial, helvetica, sans-serif;font-size:18px;width:238px;color:#666;line-height:14px;fill:#666;" text-anchor="end" visibility="visible"><tspan x="76">0.9</tspan></text></g><g class="highcharts-tooltip"  style="padding:0;white-space:nowrap;" visibility="hidden"><rect rx="5" ry="5" fill="none" x="0" y="0" width="10" height="10" stroke-width="5" fill-opacity="0.85"  stroke="black" stroke-opacity="0.049999999999999996" transform="translate(1, 1)"></rect><rect rx="5" ry="5" fill="none" x="0" y="0" width="10" height="10" stroke-width="3" fill-opacity="0.85"  stroke="black" stroke-opacity="0.09999999999999999" transform="translate(1, 1)"></rect><rect rx="5" ry="5" fill="none" x="0" y="0" width="10" height="10" stroke-width="1" fill-opacity="0.85"  stroke="black" stroke-opacity="0.15" transform="translate(1, 1)"></rect><rect rx="5" ry="5" fill="rgb(255,255,255)" x="0" y="0" width="10" height="10" stroke-width="2" fill-opacity="0.85"></rect><text x="5" y="18" style="font-family:'lucida grande', 'lucida sans unicode', verdana, arial, helvetica, sans-serif;font-size:12px;color:#333333;fill:#333333;" ></text></g><g class="highcharts-tracker" ><g visibility="visible"  transform="translate(84,40)" clip-path="url(#highcharts-9)"><path fill="none" d="M -3.55 24.7 L 6.45 24.7 L 19.35 45.3 L 32.25 66.4 L 45.150000000000006 88.1 L 58.050000000000004 106.2 L 70.95 125.3 L 83.85000000000001 143.3 L 96.75 161 L 109.65 177.9 L 122.55000000000001 192.3 L 135.45 204.9 L 148.35 216.9 L 161.25 227.9 L 174.15 237.6 L 187.04999999999998 246.3 L 199.95 254.4 L 212.85 262.4 L 225.75 269.4 L 238.65 275.6 L 251.54999999999998 281.5 L 264.45 287.2 L 277.35 292.4 L 290.25 297.3 L 303.15 302.4 L 316.05 307 L 328.95 311.7 L 341.85 315.6 L 354.75 319.3 L 367.65 322.9 L 380.55 326.3 L 393.45 329.5 L 406.35 332.7 L 419.25 335.5 L 432.15 338.4 L 445.05 341.1 L 457.95 343.7 L 470.85 346.3 L 483.75 348.8 L 496.65 350.9 L 509.55 353.1 L 519.55 353.1"  stroke-linejoin="bevel" visibility="visible" stroke-opacity="0.000001" stroke="rgb(192,192,192)" stroke-width="22" style=""></path></g><g visibility="visible"  transform="translate(84,40)" clip-path="url(#highcharts-9)"><path fill="none" d="M -3.55 89.4 L 6.45 89.4 L 19.35 115 L 32.25 144 L 45.150000000000006 160.2 L 58.050000000000004 178.2 L 70.95 193.3 L 83.85000000000001 206.8 L 96.75 218.6 L 109.65 229.6 L 122.55000000000001 240.8 L 135.45 249.4 L 148.35 258.2 L 161.25 265.7 L 174.15 272 L 187.04999999999998 278.2 L 199.95 284.1 L 212.85 290 L 225.75 295.3 L 238.65 300 L 251.54999999999998 304.4 L 264.45 308.9 L 277.35 313 L 290.25 316.6 L 303.15 320.1 L 316.05 323.3 L 328.95 326.9 L 341.85 329.9 L 354.75 332.9 L 367.65 335.7 L 380.55 338.6 L 393.45 341 L 406.35 343.6 L 419.25 345.9 L 432.15 348.2 L 445.05 350.5 L 457.95 352.6 L 470.85 354.3 L 483.75 356.3 L 496.65 358.1 L 509.55 359.8 L 519.55 359.8"  stroke-linejoin="bevel" visibility="visible" stroke-opacity="0.000001" stroke="rgb(192,192,192)" stroke-width="22" style=""></path></g><g visibility="visible"  transform="translate(84,40)" clip-path="url(#highcharts-9)"><path fill="none" d="M -3.55 82.7 L 6.45 82.7 L 19.35 89.7 L 32.25 96.9 L 45.150000000000006 110 L 58.050000000000004 121.8 L 70.95 141.3 L 83.85000000000001 159.5 L 96.75 178.5 L 109.65 193.4 L 122.55000000000001 206.2 L 135.45 219.2 L 148.35 231 L 161.25 241.1 L 174.15 249.5 L 187.04999999999998 257.7 L 199.95 264.8 L 212.85 271.8 L 225.75 277.8 L 238.65 283.5 L 251.54999999999998 289.1 L 264.45 294.1 L 277.35 298.9 L 290.25 303.8 L 303.15 308.3 L 316.05 312.9 L 328.95 316.8 L 341.85 320.4 L 354.75 324.1 L 367.65 327.4 L 380.55 330.6 L 393.45 333.5 L 406.35 336.2 L 419.25 339 L 432.15 341.6 L 445.05 344.2 L 457.95 346.8 L 470.85 349.1 L 483.75 351.5 L 496.65 353.6 L 509.55 355.5 L 519.55 355.5"  stroke-linejoin="bevel" visibility="visible" stroke-opacity="0.000001" stroke="rgb(192,192,192)" stroke-width="22" style=""></path></g><g visibility="visible"  transform="translate(84,40)" clip-path="url(#highcharts-9)"><path fill="none" d="M -3.55 35.8 L 6.45 35.8 L 19.35 55.6 L 32.25 74.3 L 45.150000000000006 93 L 58.050000000000004 106.2 L 70.95 126.4 L 83.85000000000001 147.8 L 96.75 167.7 L 109.65 185.3 L 122.55000000000001 199.3 L 135.45 213.1 L 148.35 225.9 L 161.25 237.6 L 174.15 246 L 187.04999999999998 254.7 L 199.95 262.3 L 212.85 269.6 L 225.75 275.7 L 238.65 281.8 L 251.54999999999998 287.5 L 264.45 292.7 L 277.35 297.7 L 290.25 302.6 L 303.15 307.2 L 316.05 311.9 L 328.95 316 L 341.85 319.6 L 354.75 323.2 L 367.65 326.7 L 380.55 330 L 393.45 332.9 L 406.35 335.7 L 419.25 338.5 L 432.15 341.1 L 445.05 343.8 L 457.95 346.4 L 470.85 348.7 L 483.75 351.1 L 496.65 353.3 L 509.55 355.2 L 519.55 355.2"  stroke-linejoin="bevel" visibility="visible" stroke-opacity="0.000001" stroke="rgb(192,192,192)" stroke-width="22" style=""></path></g><g visibility="visible"  transform="translate(84,40)" clip-path="url(#highcharts-9)"><path fill="none" d="M -3.55 231.7 L 6.45 231.7 L 19.35 250.3 L 32.25 256.8 L 45.150000000000006 264.9 L 58.050000000000004 266.4 L 70.95 268.8 L 83.85000000000001 272.4 L 96.75 277.3 L 109.65 281.3 L 122.55000000000001 285.2 L 135.45 288.8 L 148.35 293.3 L 161.25 297.8 L 174.15 302.2 L 187.04999999999998 305.4 L 199.95 309.8 L 212.85 314.4 L 225.75 318.5 L 238.65 321.8 L 251.54999999999998 325.2 L 264.45 328.5 L 277.35 331.4 L 290.25 334 L 303.15 336.6 L 316.05 339 L 328.95 341.2 L 341.85 343.5 L 354.75 346 L 367.65 347.9 L 380.55 349.8 L 393.45 351.7 L 406.35 353.8 L 419.25 356 L 432.15 357.8 L 445.05 359.5 L 457.95 361 L 470.85 362.5 L 483.75 364 L 496.65 365.5 L 509.55 366.7 L 519.55 366.7"  stroke-linejoin="bevel" visibility="visible" stroke-opacity="0.000001" stroke="rgb(192,192,192)" stroke-width="22" style=""></path></g><g visibility="visible"  transform="translate(84,40)" clip-path="url(#highcharts-9)"><path fill="none" d="M -3.55 56.2 L 6.45 56.2 L 19.35 116.8 L 32.25 166.9 L 45.150000000000006 203.7 L 58.050000000000004 224.9 L 70.95 239.2 L 83.85000000000001 248.9 L 96.75 258.5 L 109.65 265.9 L 122.55000000000001 273.3 L 135.45 278.3 L 148.35 283.7 L 161.25 290 L 174.15 295 L 187.04999999999998 300.1 L 199.95 304.5 L 212.85 310 L 225.75 314.6 L 238.65 318.4 L 251.54999999999998 321.9 L 264.45 325.5 L 277.35 328.8 L 290.25 331.8 L 303.15 334.6 L 316.05 337.2 L 328.95 339.6 L 341.85 342 L 354.75 344.5 L 367.65 346.7 L 380.55 348.7 L 393.45 350.6 L 406.35 352.7 L 419.25 354.9 L 432.15 356.9 L 445.05 358.6 L 457.95 360.2 L 470.85 361.8 L 483.75 363.3 L 496.65 364.8 L 509.55 366.1 L 519.55 366.1"  stroke-linejoin="bevel" visibility="visible" stroke-opacity="0.000001" stroke="rgb(192,192,192)" stroke-width="22" style=""></path></g><g visibility="visible"  transform="translate(84,40)" clip-path="url(#highcharts-9)"><path fill="none" d="M -3.55 121.9 L 6.45 121.9 L 19.35 138.8 L 32.25 147.6 L 45.150000000000006 162.3 L 58.050000000000004 175.4 L 70.95 193.7 L 83.85000000000001 209.6 L 96.75 221.5 L 109.65 233.6 L 122.55000000000001 245.2 L 135.45 254.7 L 148.35 264.6 L 161.25 272.6 L 174.15 280.3 L 187.04999999999998 287.3 L 199.95 293.3 L 212.85 299.4 L 225.75 304.3 L 238.65 309.4 L 251.54999999999998 314.5 L 264.45 319 L 277.35 322.9 L 290.25 327.1 L 303.15 331.1 L 316.05 334.7 L 328.95 338 L 341.85 340.9 L 354.75 343.9 L 367.65 346.6 L 380.55 349.5 L 393.45 352 L 406.35 354.5 L 419.25 356.7 L 432.15 359.1 L 445.05 361.3 L 457.95 363.4 L 470.85 365.2 L 483.75 366.9 L 496.65 368.5 L 509.55 370.1 L 519.55 370.1"  stroke-linejoin="bevel" visibility="visible" stroke-opacity="0.000001" stroke="rgb(192,192,192)" stroke-width="22" style=""></path></g><g visibility="visible"  transform="translate(84,40)" clip-path="url(#highcharts-9)"><path fill="none" d="M -3.55 98.9 L 6.45 98.9 L 19.35 119.3 L 32.25 123.4 L 45.150000000000006 126.1 L 58.050000000000004 136.8 L 70.95 152.6 L 83.85000000000001 170.5 L 96.75 187.1 L 109.65 200.1 L 122.55000000000001 213.6 L 135.45 225.1 L 148.35 236.5 L 161.25 245.4 L 174.15 254.9 L 187.04999999999998 263.9 L 199.95 271.3 L 212.85 278.6 L 225.75 285.5 L 238.65 291.4 L 251.54999999999998 297.2 L 264.45 302.2 L 277.35 307 L 290.25 311.7 L 303.15 316.3 L 316.05 320.3 L 328.95 324.3 L 341.85 328.1 L 354.75 331.7 L 367.65 335 L 380.55 338.2 L 393.45 340.9 L 406.35 343.9 L 419.25 346.7 L 432.15 349.3 L 445.05 351.7 L 457.95 354.1 L 470.85 356.4 L 483.75 358.6 L 496.65 360.6 L 509.55 362.6 L 519.55 362.6"  stroke-linejoin="bevel" visibility="visible" stroke-opacity="0.000001" stroke="rgb(192,192,192)" stroke-width="22" style=""></path></g></g></svg>