<?xml version="1.0" encoding="UTF-8" standalone="no"?>
<!-- Created with Inkscape (http://www.inkscape.org/) -->
<svg
   xmlns:dc="http://purl.org/dc/elements/1.1/"
   xmlns:cc="http://creativecommons.org/ns#"
   xmlns:rdf="http://www.w3.org/1999/02/22-rdf-syntax-ns#"
   xmlns:svg="http://www.w3.org/2000/svg"
   xmlns="http://www.w3.org/2000/svg"
   xmlns:sodipodi="http://sodipodi.sourceforge.net/DTD/sodipodi-0.dtd"
   xmlns:inkscape="http://www.inkscape.org/namespaces/inkscape"
   id="svg2"
   sodipodi:version="0.32"
   inkscape:version="0.46"
   width="84"
   height="83"
   xml:space="preserve"
   sodipodi:docname="Université de Fribourg.svg"
   inkscape:output_extension="org.inkscape.output.svg.inkscape"
   version="1.0"><metadata
     id="metadata7"><rdf:RDF><cc:Work
         rdf:about=""><dc:format>image/svg+xml</dc:format><dc:type
           rdf:resource="http://purl.org/dc/dcmitype/StillImage" /></cc:Work></rdf:RDF></metadata><defs
     id="defs5"><inkscape:perspective
       sodipodi:type="inkscape:persp3d"
       inkscape:vp_x="0 : 526.18109 : 1"
       inkscape:vp_y="0 : 1000 : 0"
       inkscape:vp_z="744.09448 : 526.18109 : 1"
       inkscape:persp3d-origin="372.04724 : 350.78739 : 1"
       id="perspective9" /></defs><sodipodi:namedview
     inkscape:window-height="712"
     inkscape:window-width="1024"
     inkscape:pageshadow="2"
     inkscape:pageopacity="0.0"
     guidetolerance="10.0"
     gridtolerance="10.0"
     objecttolerance="10.0"
     borderopacity="1.0"
     bordercolor="#666666"
     pagecolor="#ffffff"
     id="base"
     showgrid="false"
     inkscape:zoom="5.9878788"
     inkscape:cx="41.875"
     inkscape:cy="41.25"
     inkscape:window-x="-4"
     inkscape:window-y="-4"
     inkscape:current-layer="g11" /><g
     id="g11"
     inkscape:groupmode="layer"
     inkscape:label="Fribourg"
     transform="matrix(1.25,0,0,-1.25,0,82.5)"><g
       id="g13"
       transform="scale(0.1,0.1)"><path
         d="M 165.492,252.07 L 197.082,316.699 L 165.398,316.699 L 165.398,252.227 L 165.492,252.07"
         style="fill:#0c6cac;fill-opacity:1;fill-rule:nonzero;stroke:none"
         id="path15" /><path
         d="M 165.492,166.27 L 197.082,230.918 L 165.398,230.918 L 165.398,166.445 L 165.492,166.27"
         style="fill:#0c6cac;fill-opacity:1;fill-rule:nonzero;stroke:none"
         id="path17" /><path
         d="M 271.445,316.68 L 223.867,316.68 L 247.711,268.066 L 271.445,316.68"
         style="fill:#0c6cac;fill-opacity:1;fill-rule:nonzero;stroke:none"
         id="path19" /><path
         d="M 186.738,251.758 L 234.301,251.758 L 210.484,300.359 L 186.738,251.758"
         style="fill:#0c6cac;fill-opacity:1;fill-rule:nonzero;stroke:none"
         id="path21" /><path
         d="M 284.844,300.359 L 261.098,251.758 L 308.684,251.758 L 284.844,300.359"
         style="fill:#0c6cac;fill-opacity:1;fill-rule:nonzero;stroke:none"
         id="path23" /><path
         d="M 223.867,230.871 L 247.711,182.266 L 271.445,230.871 L 223.867,230.871"
         style="fill:#0c6cac;fill-opacity:1;fill-rule:nonzero;stroke:none"
         id="path25" /><path
         d="M 186.738,165.977 L 234.301,165.977 L 210.484,214.57 L 186.738,165.977"
         style="fill:#0c6cac;fill-opacity:1;fill-rule:nonzero;stroke:none"
         id="path27" /><path
         d="M 261.098,165.977 L 308.684,165.977 L 284.844,214.57 L 261.098,165.977"
         style="fill:#0c6cac;fill-opacity:1;fill-rule:nonzero;stroke:none"
         id="path29" /><path
         d="M 0.765625,1.33984 L 165.39462,1.33984 L 165.39462,165.97684 L 0.765625,165.97684 L 0.765625,1.33984 z"
         style="fill:#0c6cac;fill-opacity:1;fill-rule:nonzero;stroke:none"
         id="path31" /><path
         d="M 165.5,595.238 L 199.234,659.879 L 165.398,659.879 L 165.398,595.406 L 165.5,595.238"
         style="fill:#0c6cac;fill-opacity:1;fill-rule:nonzero;stroke:none"
         id="path33" /><path
         d="M 278.656,659.879 L 227.836,659.879 L 253.297,611.273 L 278.656,659.879"
         style="fill:#0c6cac;fill-opacity:1;fill-rule:nonzero;stroke:none"
         id="path35" /><path
         d="M 358.047,659.879 L 307.266,659.879 L 332.695,611.273 L 358.047,659.879"
         style="fill:#0c6cac;fill-opacity:1;fill-rule:nonzero;stroke:none"
         id="path37" /><path
         d="M 437.473,659.879 L 386.66,659.879 L 412.129,611.273 L 437.473,659.879"
         style="fill:#0c6cac;fill-opacity:1;fill-rule:nonzero;stroke:none"
         id="path39" /><path
         d="M 516.895,659.879 L 466.094,659.879 L 491.543,611.273 L 516.895,659.879"
         style="fill:#0c6cac;fill-opacity:1;fill-rule:nonzero;stroke:none"
         id="path41" /><path
         d="M 596.328,659.879 L 545.508,659.879 L 570.984,611.273 L 596.328,659.879"
         style="fill:#0c6cac;fill-opacity:1;fill-rule:nonzero;stroke:none"
         id="path43" /><path
         d="M 556.66,594.965 L 531.211,643.57 L 505.859,594.965 L 556.66,594.965"
         style="fill:#0c6cac;fill-opacity:1;fill-rule:nonzero;stroke:none"
         id="path45" /><path
         d="M 610.645,643.57 L 585.293,594.965 L 636.094,594.965 L 610.645,643.57"
         style="fill:#0c6cac;fill-opacity:1;fill-rule:nonzero;stroke:none"
         id="path47" /><path
         d="M 477.234,594.965 L 451.777,643.57 L 426.426,594.965 L 477.234,594.965"
         style="fill:#0c6cac;fill-opacity:1;fill-rule:nonzero;stroke:none"
         id="path49" /><path
         d="M 397.812,594.965 L 372.363,643.57 L 347.012,594.965 L 397.812,594.965"
         style="fill:#0c6cac;fill-opacity:1;fill-rule:nonzero;stroke:none"
         id="path51" /><path
         d="M 318.402,594.965 L 292.965,643.57 L 267.598,594.965 L 318.402,594.965"
         style="fill:#0c6cac;fill-opacity:1;fill-rule:nonzero;stroke:none"
         id="path53" /><path
         d="M 238.984,594.965 L 213.539,643.57 L 188.176,594.965 L 238.984,594.965"
         style="fill:#0c6cac;fill-opacity:1;fill-rule:nonzero;stroke:none"
         id="path55" /><path
         d="M 659.219,595.238 L 625.48,659.879 L 659.316,659.879 L 659.316,595.406 L 659.219,595.238"
         style="fill:#0c6cac;fill-opacity:1;fill-rule:nonzero;stroke:none"
         id="path57" /><path
         d="M 165.5,509.441 L 199.234,574.086 L 165.398,574.086 L 165.398,509.609 L 165.5,509.441"
         style="fill:#0c6cac;fill-opacity:1;fill-rule:nonzero;stroke:none"
         id="path59" /><path
         d="M 278.656,574.086 L 227.836,574.086 L 253.297,525.484 L 278.656,574.086"
         style="fill:#0c6cac;fill-opacity:1;fill-rule:nonzero;stroke:none"
         id="path61" /><path
         d="M 358.047,574.086 L 307.266,574.086 L 332.695,525.484 L 358.047,574.086"
         style="fill:#0c6cac;fill-opacity:1;fill-rule:nonzero;stroke:none"
         id="path63" /><path
         d="M 437.473,574.086 L 386.66,574.086 L 412.129,525.484 L 437.473,574.086"
         style="fill:#0c6cac;fill-opacity:1;fill-rule:nonzero;stroke:none"
         id="path65" /><path
         d="M 516.895,574.086 L 466.094,574.086 L 491.543,525.484 L 516.895,574.086"
         style="fill:#0c6cac;fill-opacity:1;fill-rule:nonzero;stroke:none"
         id="path67" /><path
         d="M 596.328,574.086 L 545.508,574.086 L 570.984,525.484 L 596.328,574.086"
         style="fill:#0c6cac;fill-opacity:1;fill-rule:nonzero;stroke:none"
         id="path69" /><path
         d="M 556.66,509.176 L 531.211,557.777 L 505.859,509.176 L 556.66,509.176"
         style="fill:#0c6cac;fill-opacity:1;fill-rule:nonzero;stroke:none"
         id="path71" /><path
         d="M 610.645,557.777 L 585.293,509.176 L 636.094,509.176 L 610.645,557.777"
         style="fill:#0c6cac;fill-opacity:1;fill-rule:nonzero;stroke:none"
         id="path73" /><path
         d="M 477.234,509.176 L 451.777,557.777 L 426.426,509.176 L 477.234,509.176"
         style="fill:#0c6cac;fill-opacity:1;fill-rule:nonzero;stroke:none"
         id="path75" /><path
         d="M 397.812,509.176 L 372.363,557.777 L 347.012,509.176 L 397.812,509.176"
         style="fill:#0c6cac;fill-opacity:1;fill-rule:nonzero;stroke:none"
         id="path77" /><path
         d="M 318.402,509.176 L 292.965,557.777 L 267.598,509.176 L 318.402,509.176"
         style="fill:#0c6cac;fill-opacity:1;fill-rule:nonzero;stroke:none"
         id="path79" /><path
         d="M 238.984,509.176 L 213.539,557.777 L 188.176,509.176 L 238.984,509.176"
         style="fill:#0c6cac;fill-opacity:1;fill-rule:nonzero;stroke:none"
         id="path81" /><path
         d="M 659.219,509.441 L 625.48,574.086 L 659.316,574.086 L 659.316,509.609 L 659.219,509.441"
         style="fill:#0c6cac;fill-opacity:1;fill-rule:nonzero;stroke:none"
         id="path83" /><path
         d="M 165.5,423.648 L 198.672,488.285 L 165.398,488.285 L 165.398,423.812 L 165.5,423.648"
         style="fill:#0c6cac;fill-opacity:1;fill-rule:nonzero;stroke:none"
         id="path85" /><path
         d="M 165.5,337.859 L 198.672,402.5 L 165.398,402.5 L 165.398,338.023 L 165.5,337.859"
         style="fill:#0c6cac;fill-opacity:1;fill-rule:nonzero;stroke:none"
         id="path87" /><path
         d="M 226.801,488.285 L 251.84,439.672 L 276.777,488.285 L 226.801,488.285"
         style="fill:#0c6cac;fill-opacity:1;fill-rule:nonzero;stroke:none"
         id="path89" /><path
         d="M 354.863,488.285 L 304.918,488.285 L 329.918,439.672 L 354.863,488.285"
         style="fill:#0c6cac;fill-opacity:1;fill-rule:nonzero;stroke:none"
         id="path91" /><path
         d="M 432.969,488.285 L 383,488.285 L 408.039,439.672 L 432.969,488.285"
         style="fill:#0c6cac;fill-opacity:1;fill-rule:nonzero;stroke:none"
         id="path93" /><path
         d="M 368.938,471.988 L 344.004,423.371 L 393.965,423.371 L 368.938,471.988"
         style="fill:#0c6cac;fill-opacity:1;fill-rule:nonzero;stroke:none"
         id="path95" /><path
         d="M 447.043,471.988 L 422.109,423.371 L 472.07,423.371 L 447.043,471.988"
         style="fill:#0c6cac;fill-opacity:1;fill-rule:nonzero;stroke:none"
         id="path97" /><path
         d="M 290.852,471.988 L 265.906,423.371 L 315.863,423.371 L 290.852,471.988"
         style="fill:#0c6cac;fill-opacity:1;fill-rule:nonzero;stroke:none"
         id="path99" /><path
         d="M 237.766,423.371 L 212.738,471.988 L 187.793,423.371 L 237.766,423.371"
         style="fill:#0c6cac;fill-opacity:1;fill-rule:nonzero;stroke:none"
         id="path101" /><path
         d="M 251.84,353.879 L 276.777,402.484 L 226.801,402.484 L 251.84,353.879"
         style="fill:#0c6cac;fill-opacity:1;fill-rule:nonzero;stroke:none"
         id="path103" /><path
         d="M 354.863,402.484 L 304.918,402.484 L 329.918,353.879 L 354.863,402.484"
         style="fill:#0c6cac;fill-opacity:1;fill-rule:nonzero;stroke:none"
         id="path105" /><path
         d="M 432.969,402.484 L 383,402.484 L 408.039,353.879 L 432.969,402.484"
         style="fill:#0c6cac;fill-opacity:1;fill-rule:nonzero;stroke:none"
         id="path107" /><path
         d="M 368.938,386.168 L 344.004,337.555 L 393.965,337.555 L 368.938,386.168"
         style="fill:#0c6cac;fill-opacity:1;fill-rule:nonzero;stroke:none"
         id="path109" /><path
         d="M 422.109,337.555 L 472.07,337.555 L 447.043,386.168 L 422.109,337.555"
         style="fill:#0c6cac;fill-opacity:1;fill-rule:nonzero;stroke:none"
         id="path111" /><path
         d="M 290.852,386.168 L 265.906,337.555 L 315.863,337.555 L 290.852,386.168"
         style="fill:#0c6cac;fill-opacity:1;fill-rule:nonzero;stroke:none"
         id="path113" /><path
         d="M 237.766,337.555 L 212.738,386.168 L 187.793,337.555 L 237.766,337.555"
         style="fill:#0c6cac;fill-opacity:1;fill-rule:nonzero;stroke:none"
         id="path115" /><path
         d="M 494.582,423.645 L 460.84,488.285 L 494.668,488.285 L 494.668,423.812 L 494.582,423.645"
         style="fill:#0c6cac;fill-opacity:1;fill-rule:nonzero;stroke:none"
         id="path117" /><path
         d="M 494.582,337.852 L 460.84,402.496 L 494.668,402.496 L 494.668,338.023 L 494.582,337.852"
         style="fill:#0c6cac;fill-opacity:1;fill-rule:nonzero;stroke:none"
         id="path119" /><path
         d="M 329.945,252.051 L 296.211,316.68 L 330.043,316.68 L 330.043,252.227 L 329.945,252.051"
         style="fill:#0c6cac;fill-opacity:1;fill-rule:nonzero;stroke:none"
         id="path121" /><path
         d="M 329.945,166.25 L 296.211,230.898 L 330.043,230.898 L 330.043,166.426 L 329.945,166.25"
         style="fill:#0c6cac;fill-opacity:1;fill-rule:nonzero;stroke:none"
         id="path123" /><path
         d="M 242.109,95.7031 C 242.109,82.1484 232.172,78.8477 225.461,78.8477 C 218.738,78.8477 208.805,82.1484 208.805,95.7031 L 208.805,125.586 L 213.344,125.586 L 213.344,95.7031 C 213.344,88.2031 217.488,82.8047 225.461,82.8047 C 233.422,82.8047 237.566,88.2031 237.566,95.7031 L 237.566,125.586 L 242.109,125.586 L 242.109,95.7031"
         style="fill:#2873aa;fill-opacity:1;fill-rule:nonzero;stroke:none"
         id="path125" /><path
         d="M 261.988,125.586 L 267.715,125.586 L 291.086,85.1758 L 291.215,85.1758 L 291.215,125.586 L 295.758,125.586 L 295.758,79.6484 L 289.633,79.6484 L 266.66,119.27 L 266.527,119.27 L 266.527,79.6484 L 261.988,79.6484 L 261.988,125.586"
         style="fill:#2873aa;fill-opacity:1;fill-rule:nonzero;stroke:none"
         id="path127" /><path
         d="M 315.438,79.6484 L 319.98097,79.6484 L 319.98097,125.5859 L 315.438,125.5859 L 315.438,79.6484 z"
         style="fill:#2873aa;fill-opacity:1;fill-rule:nonzero;stroke:none"
         id="path129" /><path
         d="M 356.902,79.6484 L 352.031,79.6484 L 334.922,125.586 L 339.727,125.586 L 354.531,84.1797 L 369.875,125.586 L 374.355,125.586 L 356.902,79.6484"
         style="fill:#2873aa;fill-opacity:1;fill-rule:nonzero;stroke:none"
         id="path131" /><path
         d="M 389.941,125.586 L 412.461,125.586 L 412.461,121.641 L 394.492,121.641 L 394.492,105.254 L 411.543,105.254 L 411.543,101.301 L 394.492,101.301 L 394.492,83.5938 L 413.254,83.5938 L 413.254,79.6484 L 389.941,79.6484 L 389.941,125.586"
         style="fill:#2873aa;fill-opacity:1;fill-rule:nonzero;stroke:none"
         id="path133" /><path
         d="M 432.539,125.586 L 444.387,125.586 C 452.551,125.586 457.883,122.102 457.883,113.672 C 457.883,107.754 453.34,103.801 447.676,103.074 L 447.676,102.949 C 451.367,102.48 452.148,100.508 453.594,97.4219 L 461.438,79.6484 L 456.426,79.6484 L 449.785,95.1758 C 447.148,101.105 445.176,101.301 440.832,101.301 L 437.082,101.301 L 437.082,79.6484 L 432.539,79.6484 L 432.539,125.586 z M 437.082,105.254 L 441.887,105.254 C 447.219,105.254 453.34,107.285 453.34,113.672 C 453.34,121.172 448.008,121.641 441.758,121.641 L 437.082,121.641 L 437.082,105.254"
         style="fill:#2873aa;fill-opacity:1;fill-rule:nonzero;stroke:none"
         id="path135" /><path
         d="M 477.297,85.5078 C 480,83.7891 483.152,82.8047 487.434,82.8047 C 493.098,82.8047 497.773,85.7031 497.773,92.2188 C 497.773,101.23 476.699,102.355 476.699,114.395 C 476.699,121.777 483.152,126.379 491.25,126.379 C 493.496,126.379 497.109,126.055 500.273,124.863 L 499.551,120.723 C 497.5,121.836 494.277,122.422 491.191,122.422 C 486.445,122.422 481.25,120.449 481.25,114.531 C 481.25,105.312 502.305,105.254 502.305,91.8164 C 502.305,82.5391 494.348,78.8477 487.234,78.8477 C 482.754,78.8477 479.277,79.7734 476.836,80.832 L 477.297,85.5078"
         style="fill:#2873aa;fill-opacity:1;fill-rule:nonzero;stroke:none"
         id="path137" /><path
         d="M 520.41,79.6484 L 524.94906,79.6484 L 524.94906,125.5859 L 520.41,125.5859 L 520.41,79.6484 z"
         style="fill:#2873aa;fill-opacity:1;fill-rule:nonzero;stroke:none"
         id="path139" /><path
         d="M 553.711,121.641 L 540.156,121.641 L 540.156,125.586 L 571.816,125.586 L 571.816,121.641 L 558.262,121.641 L 558.262,79.6484 L 553.711,79.6484 L 553.711,121.641"
         style="fill:#2873aa;fill-opacity:1;fill-rule:nonzero;stroke:none"
         id="path141" /><path
         d="M 597.168,125.586 L 602.305,125.586 L 620.539,79.6484 L 615.801,79.6484 L 610.859,91.9531 L 587.695,91.9531 L 582.754,79.6484 L 578.34,79.6484 L 597.168,125.586 z M 599.414,121.25 L 589.402,95.8984 L 609.348,95.8984 L 599.414,121.25"
         style="fill:#2873aa;fill-opacity:1;fill-rule:nonzero;stroke:none"
         id="path143" /><path
         d="M 635.352,85.5078 C 638.047,83.7891 641.211,82.8047 645.488,82.8047 C 651.145,82.8047 655.82,85.7031 655.82,92.2188 C 655.82,101.23 634.758,102.355 634.758,114.395 C 634.758,121.777 641.211,126.379 649.297,126.379 C 651.543,126.379 655.156,126.055 658.32,124.863 L 657.598,120.723 C 655.559,121.836 652.324,122.422 649.238,122.422 C 644.492,122.422 639.297,120.449 639.297,114.531 C 639.297,105.312 660.359,105.254 660.359,91.8164 C 660.359,82.5391 652.402,78.8477 645.293,78.8477 C 640.812,78.8477 637.324,79.7734 634.883,80.832 L 635.352,85.5078"
         style="fill:#2873aa;fill-opacity:1;fill-rule:nonzero;stroke:none"
         id="path145" /><path
         d="M 242.109,95.7031 C 242.109,82.1484 232.172,78.8477 225.461,78.8477 C 218.738,78.8477 208.805,82.1484 208.805,95.7031 L 208.805,125.586 L 213.344,125.586 L 213.344,95.7031 C 213.344,88.2031 217.488,82.8047 225.461,82.8047 C 233.422,82.8047 237.566,88.2031 237.566,95.7031 L 237.566,125.586 L 242.109,125.586 L 242.109,95.7031"
         style="fill:#0c6cac;fill-opacity:1;fill-rule:nonzero;stroke:none"
         id="path147" /><path
         d="M 261.988,125.586 L 267.715,125.586 L 291.086,85.1758 L 291.215,85.1758 L 291.215,125.586 L 295.758,125.586 L 295.758,79.6484 L 289.633,79.6484 L 266.66,119.27 L 266.527,119.27 L 266.527,79.6484 L 261.988,79.6484 L 261.988,125.586"
         style="fill:#0c6cac;fill-opacity:1;fill-rule:nonzero;stroke:none"
         id="path149" /><path
         d="M 315.438,79.6484 L 319.98097,79.6484 L 319.98097,125.5859 L 315.438,125.5859 L 315.438,79.6484 z"
         style="fill:#0c6cac;fill-opacity:1;fill-rule:nonzero;stroke:none"
         id="path151" /><path
         d="M 356.902,79.6484 L 352.031,79.6484 L 334.922,125.586 L 339.727,125.586 L 354.531,84.1797 L 369.875,125.586 L 374.355,125.586 L 356.902,79.6484"
         style="fill:#0c6cac;fill-opacity:1;fill-rule:nonzero;stroke:none"
         id="path153" /><path
         d="M 389.941,125.586 L 412.461,125.586 L 412.461,121.641 L 394.492,121.641 L 394.492,105.254 L 411.543,105.254 L 411.543,101.301 L 394.492,101.301 L 394.492,83.5938 L 413.254,83.5938 L 413.254,79.6484 L 389.941,79.6484 L 389.941,125.586"
         style="fill:#0c6cac;fill-opacity:1;fill-rule:nonzero;stroke:none"
         id="path155" /><path
         d="M 432.539,125.586 L 444.387,125.586 C 452.551,125.586 457.883,122.102 457.883,113.672 C 457.883,107.754 453.34,103.801 447.676,103.074 L 447.676,102.949 C 451.367,102.48 452.148,100.508 453.594,97.4219 L 461.438,79.6484 L 456.426,79.6484 L 449.785,95.1758 C 447.148,101.105 445.176,101.301 440.832,101.301 L 437.082,101.301 L 437.082,79.6484 L 432.539,79.6484 L 432.539,125.586 z M 437.082,105.254 L 441.887,105.254 C 447.219,105.254 453.34,107.285 453.34,113.672 C 453.34,121.172 448.008,121.641 441.758,121.641 L 437.082,121.641 L 437.082,105.254"
         style="fill:#0c6cac;fill-opacity:1;fill-rule:nonzero;stroke:none"
         id="path157" /><path
         d="M 477.297,85.5078 C 480,83.7891 483.152,82.8047 487.434,82.8047 C 493.098,82.8047 497.773,85.7031 497.773,92.2188 C 497.773,101.23 476.699,102.355 476.699,114.395 C 476.699,121.777 483.152,126.379 491.25,126.379 C 493.496,126.379 497.109,126.055 500.273,124.863 L 499.551,120.723 C 497.5,121.836 494.277,122.422 491.191,122.422 C 486.445,122.422 481.25,120.449 481.25,114.531 C 481.25,105.312 502.305,105.254 502.305,91.8164 C 502.305,82.5391 494.348,78.8477 487.234,78.8477 C 482.754,78.8477 479.277,79.7734 476.836,80.832 L 477.297,85.5078"
         style="fill:#0c6cac;fill-opacity:1;fill-rule:nonzero;stroke:none"
         id="path159" /><path
         d="M 520.41,79.6484 L 524.94906,79.6484 L 524.94906,125.5859 L 520.41,125.5859 L 520.41,79.6484 z"
         style="fill:#0c6cac;fill-opacity:1;fill-rule:nonzero;stroke:none"
         id="path161" /><path
         d="M 553.711,121.641 L 540.156,121.641 L 540.156,125.586 L 571.816,125.586 L 571.816,121.641 L 558.262,121.641 L 558.262,79.6484 L 553.711,79.6484 L 553.711,121.641"
         style="fill:#0c6cac;fill-opacity:1;fill-rule:nonzero;stroke:none"
         id="path163" /><path
         d="M 597.168,125.586 L 602.305,125.586 L 620.539,79.6484 L 615.801,79.6484 L 610.859,91.9531 L 587.695,91.9531 L 582.754,79.6484 L 578.34,79.6484 L 597.168,125.586 z M 599.414,121.25 L 589.402,95.8984 L 609.348,95.8984 L 599.414,121.25"
         style="fill:#0c6cac;fill-opacity:1;fill-rule:nonzero;stroke:none"
         id="path165" /><path
         d="M 635.352,85.5078 C 638.047,83.7891 641.211,82.8047 645.488,82.8047 C 651.145,82.8047 655.82,85.7031 655.82,92.2188 C 655.82,101.23 634.758,102.355 634.758,114.395 C 634.758,121.777 641.211,126.379 649.297,126.379 C 651.543,126.379 655.156,126.055 658.32,124.863 L 657.598,120.723 C 655.559,121.836 652.324,122.422 649.238,122.422 C 644.492,122.422 639.297,120.449 639.297,114.531 C 639.297,105.312 660.359,105.254 660.359,91.8164 C 660.359,82.5391 652.402,78.8477 645.293,78.8477 C 640.812,78.8477 637.324,79.7734 634.883,80.832 L 635.352,85.5078"
         style="fill:#0c6cac;fill-opacity:1;fill-rule:nonzero;stroke:none"
         id="path167" /><path
         d="M 208.812,47.2266 L 230.668,47.2266 L 230.668,43.2695 L 213.355,43.2695 L 213.355,26.875 L 229.879,26.875 L 229.879,22.9297 L 213.355,22.9297 L 213.355,1.26953 L 208.812,1.26953 L 208.812,47.2266"
         style="fill:#2873aa;fill-opacity:1;fill-rule:nonzero;stroke:none"
         id="path169" /><path
         d="M 244.027,47.2266 L 255.879,47.2266 C 264.039,47.2266 269.371,43.7305 269.371,35.3125 C 269.371,29.375 264.828,25.4297 259.172,24.707 L 259.172,24.5703 C 262.852,24.1211 263.645,22.1406 265.094,19.043 L 272.926,1.26953 L 267.922,1.26953 L 261.273,16.8086 C 258.645,22.7344 256.664,22.9297 252.324,22.9297 L 248.57,22.9297 L 248.57,1.26953 L 244.027,1.26953 L 244.027,47.2266 z M 248.57,26.875 L 253.375,26.875 C 258.707,26.875 264.828,28.9258 264.828,35.3125 C 264.828,42.8125 259.496,43.2695 253.242,43.2695 L 248.57,43.2695 L 248.57,26.875"
         style="fill:#2873aa;fill-opacity:1;fill-rule:nonzero;stroke:none"
         id="path171" /><path
         d="M 285.168,1.26953 L 289.71097,1.26953 L 289.71097,47.22653 L 285.168,47.22653 L 285.168,1.26953 z"
         style="fill:#2873aa;fill-opacity:1;fill-rule:nonzero;stroke:none"
         id="path173" /><path
         d="M 305.246,47.2266 L 316.172,47.2266 C 323.672,47.2266 330.719,44.7188 330.719,35.8984 C 330.719,30.0391 328.02,26.5547 322.359,25.4297 L 322.359,25.293 C 328.148,24.25 332.102,20.4297 332.102,14.375 C 332.102,4.375 323.938,1.26953 314.395,1.26953 L 305.246,1.26953 L 305.246,47.2266 z M 309.785,5.22656 L 314.527,5.22656 C 320.645,5.22656 327.559,6.875 327.559,14.1797 C 327.559,22.3438 320.512,23.1914 313.801,23.1914 L 309.785,23.1914 L 309.785,5.22656 z M 309.918,27.1484 L 314.984,27.1484 C 319.789,27.1484 326.176,28.3984 326.176,35.7031 C 326.176,42.3438 320.055,43.2695 316.172,43.2695 L 309.918,43.2695 L 309.918,27.1484"
         style="fill:#2873aa;fill-opacity:1;fill-rule:nonzero;stroke:none"
         id="path175" /><path
         d="M 380.48,17.3359 C 380.48,3.76953 370.547,0.488281 363.828,0.488281 C 357.109,0.488281 347.168,3.76953 347.168,17.3359 L 347.168,47.2266 L 351.719,47.2266 L 351.719,17.3359 C 351.719,9.82422 355.859,4.43359 363.828,4.43359 C 371.797,4.43359 375.938,9.82422 375.938,17.3359 L 375.938,47.2266 L 380.48,47.2266 L 380.48,17.3359"
         style="fill:#2873aa;fill-opacity:1;fill-rule:nonzero;stroke:none"
         id="path177" /><path
         d="M 396.809,47.2266 L 408.652,47.2266 C 416.816,47.2266 422.148,43.7305 422.148,35.3125 C 422.148,29.375 417.598,25.4297 411.941,24.707 L 411.941,24.5703 C 415.625,24.1211 416.426,22.1406 417.871,19.043 L 425.703,1.26953 L 420.703,1.26953 L 414.043,16.8086 C 411.418,22.7344 409.441,22.9297 405.098,22.9297 L 401.348,22.9297 L 401.348,1.26953 L 396.809,1.26953 L 396.809,47.2266 z M 401.348,26.875 L 406.152,26.875 C 411.484,26.875 417.598,28.9258 417.598,35.3125 C 417.598,42.8125 412.266,43.2695 406.016,43.2695 L 401.348,43.2695 L 401.348,26.875"
         style="fill:#2873aa;fill-opacity:1;fill-rule:nonzero;stroke:none"
         id="path179" /><path
         d="M 470,22.207 L 459.336,22.207 L 459.336,26.1523 L 474.543,26.1523 L 474.543,3.32031 C 469.863,1.26953 465.332,0.488281 460.254,0.488281 C 445.781,0.488281 437.09,10.0273 437.09,24.25 C 437.09,38.2031 446.035,48.0078 460.254,48.0078 C 463.75,48.0078 469.473,47.4219 472.566,45.8398 L 472.043,41.6211 C 468.484,43.5938 464.277,44.0625 460.254,44.0625 C 448.34,44.0625 441.633,35.6367 441.633,24.25 C 441.633,12.6562 448.145,4.43359 460.254,4.43359 C 463.086,4.43359 467.832,4.76562 470,6.07422 L 470,22.207"
         style="fill:#2873aa;fill-opacity:1;fill-rule:nonzero;stroke:none"
         id="path181" /><path
         d="M 491.328,47.2266 L 513.84,47.2266 L 513.84,43.2695 L 495.871,43.2695 L 495.871,26.875 L 512.91,26.875 L 512.91,22.9297 L 495.871,22.9297 L 495.871,5.22656 L 514.629,5.22656 L 514.629,1.26953 L 491.328,1.26953 L 491.328,47.2266"
         style="fill:#2873aa;fill-opacity:1;fill-rule:nonzero;stroke:none"
         id="path183" /><path
         d="M 528.906,47.2266 L 534.641,47.2266 L 558.008,6.79688 L 558.145,6.79688 L 558.145,47.2266 L 562.676,47.2266 L 562.676,1.26953 L 556.562,1.26953 L 533.586,40.8984 L 533.457,40.8984 L 533.457,1.26953 L 528.906,1.26953 L 528.906,47.2266"
         style="fill:#2873aa;fill-opacity:1;fill-rule:nonzero;stroke:none"
         id="path185" /><path
         d="M 577.422,7.12891 C 580.117,5.42188 583.281,4.43359 587.559,4.43359 C 593.223,4.43359 597.891,7.32422 597.891,13.8477 C 597.891,22.8711 576.836,23.9844 576.836,36.0352 C 576.836,43.3984 583.281,48.0078 591.379,48.0078 C 593.613,48.0078 597.234,47.6758 600.391,46.4961 L 599.668,42.3438 C 597.637,43.4688 594.402,44.0625 591.309,44.0625 C 586.57,44.0625 581.367,42.0898 581.367,36.1641 C 581.367,26.9531 602.441,26.875 602.441,13.457 C 602.441,4.17188 594.473,0.488281 587.363,0.488281 C 582.891,0.488281 579.395,1.40625 576.965,2.46094 L 577.422,7.12891"
         style="fill:#2873aa;fill-opacity:1;fill-rule:nonzero;stroke:none"
         id="path187" /><path
         d="M 616.262,1.26953 L 620.80106,1.26953 L 620.80106,47.22653 L 616.262,47.22653 L 616.262,1.26953 z"
         style="fill:#2873aa;fill-opacity:1;fill-rule:nonzero;stroke:none"
         id="path189" /><path
         d="M 635.48,7.12891 C 638.184,5.42188 641.34,4.43359 645.613,4.43359 C 651.277,4.43359 655.957,7.32422 655.957,13.8477 C 655.957,22.8711 634.883,23.9844 634.883,36.0352 C 634.883,43.3984 641.34,48.0078 649.434,48.0078 C 651.672,48.0078 655.293,47.6758 658.457,46.4961 L 657.734,42.3438 C 655.684,43.4688 652.461,44.0625 649.375,44.0625 C 644.629,44.0625 639.434,42.0898 639.434,36.1641 C 639.434,26.9531 660.488,26.875 660.488,13.457 C 660.488,4.17188 652.527,0.488281 645.422,0.488281 C 640.938,0.488281 637.461,1.40625 635.02,2.46094 L 635.48,7.12891"
         style="fill:#2873aa;fill-opacity:1;fill-rule:nonzero;stroke:none"
         id="path191" /><path
         d="M 208.812,47.2266 L 230.668,47.2266 L 230.668,43.2695 L 213.355,43.2695 L 213.355,26.875 L 229.879,26.875 L 229.879,22.9297 L 213.355,22.9297 L 213.355,1.26953 L 208.812,1.26953 L 208.812,47.2266"
         style="fill:#0c6cac;fill-opacity:1;fill-rule:nonzero;stroke:none"
         id="path193" /><path
         d="M 244.027,47.2266 L 255.879,47.2266 C 264.039,47.2266 269.371,43.7305 269.371,35.3125 C 269.371,29.375 264.828,25.4297 259.172,24.707 L 259.172,24.5703 C 262.852,24.1211 263.645,22.1406 265.094,19.043 L 272.926,1.26953 L 267.922,1.26953 L 261.273,16.8086 C 258.645,22.7344 256.664,22.9297 252.324,22.9297 L 248.57,22.9297 L 248.57,1.26953 L 244.027,1.26953 L 244.027,47.2266 z M 248.57,26.875 L 253.375,26.875 C 258.707,26.875 264.828,28.9258 264.828,35.3125 C 264.828,42.8125 259.496,43.2695 253.242,43.2695 L 248.57,43.2695 L 248.57,26.875"
         style="fill:#0c6cac;fill-opacity:1;fill-rule:nonzero;stroke:none"
         id="path195" /><path
         d="M 285.168,1.26953 L 289.71097,1.26953 L 289.71097,47.22653 L 285.168,47.22653 L 285.168,1.26953 z"
         style="fill:#0c6cac;fill-opacity:1;fill-rule:nonzero;stroke:none"
         id="path197" /><path
         d="M 305.246,47.2266 L 316.172,47.2266 C 323.672,47.2266 330.719,44.7188 330.719,35.8984 C 330.719,30.0391 328.02,26.5547 322.359,25.4297 L 322.359,25.293 C 328.148,24.25 332.102,20.4297 332.102,14.375 C 332.102,4.375 323.938,1.26953 314.395,1.26953 L 305.246,1.26953 L 305.246,47.2266 z M 309.785,5.22656 L 314.527,5.22656 C 320.645,5.22656 327.559,6.875 327.559,14.1797 C 327.559,22.3438 320.512,23.1914 313.801,23.1914 L 309.785,23.1914 L 309.785,5.22656 z M 309.918,27.1484 L 314.984,27.1484 C 319.789,27.1484 326.176,28.3984 326.176,35.7031 C 326.176,42.3438 320.055,43.2695 316.172,43.2695 L 309.918,43.2695 L 309.918,27.1484"
         style="fill:#0c6cac;fill-opacity:1;fill-rule:nonzero;stroke:none"
         id="path199" /><path
         d="M 380.48,17.3359 C 380.48,3.76953 370.547,0.488281 363.828,0.488281 C 357.109,0.488281 347.168,3.76953 347.168,17.3359 L 347.168,47.2266 L 351.719,47.2266 L 351.719,17.3359 C 351.719,9.82422 355.859,4.43359 363.828,4.43359 C 371.797,4.43359 375.938,9.82422 375.938,17.3359 L 375.938,47.2266 L 380.48,47.2266 L 380.48,17.3359"
         style="fill:#0c6cac;fill-opacity:1;fill-rule:nonzero;stroke:none"
         id="path201" /><path
         d="M 396.809,47.2266 L 408.652,47.2266 C 416.816,47.2266 422.148,43.7305 422.148,35.3125 C 422.148,29.375 417.598,25.4297 411.941,24.707 L 411.941,24.5703 C 415.625,24.1211 416.426,22.1406 417.871,19.043 L 425.703,1.26953 L 420.703,1.26953 L 414.043,16.8086 C 411.418,22.7344 409.441,22.9297 405.098,22.9297 L 401.348,22.9297 L 401.348,1.26953 L 396.809,1.26953 L 396.809,47.2266 z M 401.348,26.875 L 406.152,26.875 C 411.484,26.875 417.598,28.9258 417.598,35.3125 C 417.598,42.8125 412.266,43.2695 406.016,43.2695 L 401.348,43.2695 L 401.348,26.875"
         style="fill:#0c6cac;fill-opacity:1;fill-rule:nonzero;stroke:none"
         id="path203" /><path
         d="M 470,22.207 L 459.336,22.207 L 459.336,26.1523 L 474.543,26.1523 L 474.543,3.32031 C 469.863,1.26953 465.332,0.488281 460.254,0.488281 C 445.781,0.488281 437.09,10.0273 437.09,24.25 C 437.09,38.2031 446.035,48.0078 460.254,48.0078 C 463.75,48.0078 469.473,47.4219 472.566,45.8398 L 472.043,41.6211 C 468.484,43.5938 464.277,44.0625 460.254,44.0625 C 448.34,44.0625 441.633,35.6367 441.633,24.25 C 441.633,12.6562 448.145,4.43359 460.254,4.43359 C 463.086,4.43359 467.832,4.76562 470,6.07422 L 470,22.207"
         style="fill:#0c6cac;fill-opacity:1;fill-rule:nonzero;stroke:none"
         id="path205" /><path
         d="M 491.328,47.2266 L 513.84,47.2266 L 513.84,43.2695 L 495.871,43.2695 L 495.871,26.875 L 512.91,26.875 L 512.91,22.9297 L 495.871,22.9297 L 495.871,5.22656 L 514.629,5.22656 L 514.629,1.26953 L 491.328,1.26953 L 491.328,47.2266"
         style="fill:#0c6cac;fill-opacity:1;fill-rule:nonzero;stroke:none"
         id="path207" /><path
         d="M 528.906,47.2266 L 534.641,47.2266 L 558.008,6.79688 L 558.145,6.79688 L 558.145,47.2266 L 562.676,47.2266 L 562.676,1.26953 L 556.562,1.26953 L 533.586,40.8984 L 533.457,40.8984 L 533.457,1.26953 L 528.906,1.26953 L 528.906,47.2266"
         style="fill:#0c6cac;fill-opacity:1;fill-rule:nonzero;stroke:none"
         id="path209" /><path
         d="M 577.422,7.12891 C 580.117,5.42188 583.281,4.43359 587.559,4.43359 C 593.223,4.43359 597.891,7.32422 597.891,13.8477 C 597.891,22.8711 576.836,23.9844 576.836,36.0352 C 576.836,43.3984 583.281,48.0078 591.379,48.0078 C 593.613,48.0078 597.234,47.6758 600.391,46.4961 L 599.668,42.3438 C 597.637,43.4688 594.402,44.0625 591.309,44.0625 C 586.57,44.0625 581.367,42.0898 581.367,36.1641 C 581.367,26.9531 602.441,26.875 602.441,13.457 C 602.441,4.17188 594.473,0.488281 587.363,0.488281 C 582.891,0.488281 579.395,1.40625 576.965,2.46094 L 577.422,7.12891"
         style="fill:#0c6cac;fill-opacity:1;fill-rule:nonzero;stroke:none"
         id="path211" /><path
         d="M 616.262,1.26953 L 620.80106,1.26953 L 620.80106,47.22653 L 616.262,47.22653 L 616.262,1.26953 z"
         style="fill:#0c6cac;fill-opacity:1;fill-rule:nonzero;stroke:none"
         id="path213" /><path
         d="M 635.48,7.12891 C 638.184,5.42188 641.34,4.43359 645.613,4.43359 C 651.277,4.43359 655.957,7.32422 655.957,13.8477 C 655.957,22.8711 634.883,23.9844 634.883,36.0352 C 634.883,43.3984 641.34,48.0078 649.434,48.0078 C 651.672,48.0078 655.293,47.6758 658.457,46.4961 L 657.734,42.3438 C 655.684,43.4688 652.461,44.0625 649.375,44.0625 C 644.629,44.0625 639.434,42.0898 639.434,36.1641 C 639.434,26.9531 660.488,26.875 660.488,13.457 C 660.488,4.17188 652.527,0.488281 645.422,0.488281 C 640.938,0.488281 637.461,1.40625 635.02,2.46094 L 635.48,7.12891"
         style="fill:#0c6cac;fill-opacity:1;fill-rule:nonzero;stroke:none"
         id="path215" /></g></g></svg>